<svg id="Layer_1" data-name="Layer 1" xmlns="http://www.w3.org/2000/svg" width="2760.7614" height="35.099" viewBox="0 0 2760.7614 35.099"><defs><style>.cls-1{fill:#2e4ac0;}</style></defs><path class="cls-1" d="M-37.5549,1281.0715l-45.39,2.9132c-7.1354.4579-16.1006,17.9842-6.9,18.3489,207.5365,8.2259,415.86-4.0908,623.5073-6.9247q276.6786-3.7759,553.3881-4.7914,591.2529-3.1037,1182.5283-1.1182c128.8924.4635,257.8441.4512,386.7163,3.0668,7.8092.1585,15.5488-18.1734,6.9-18.349-291.4475-5.9151-583.2049-3.8706-874.6917-3.7811-397.04.1219-794.1141,1.05-1191.1286,5.8914-226.4621,2.7616-454.038,16.6261-680.32,7.6573l-6.9,18.3489,45.39-2.9132c7.7759-.499,15.202-18.8818,6.9-18.3489Z" transform="translate(93.7614 -1270.0231)"/></svg>