<svg id="Layer_1" data-name="Layer 1" xmlns="http://www.w3.org/2000/svg" width="1120.8771" height="34.7954" viewBox="0 0 1120.8771 34.7954"><defs><style>.cls-1{fill:#2e4ac0;}</style></defs><path class="cls-1" d="M-66.4114,313.1463l-18.2841,2.9131c-5.9228.9437-14.0381,17.3768-5.1494,18.1921,82.001,7.5222,165.2826-3.9573,247.4583-6.7975,73.9634-2.5564,147.9707-3.8731,221.97-4.8571q240.0206-3.1917,480.0993-1.1876c52.1945.4629,104.5231.4949,156.6689,3.0747,7.7949.3857,15.64-17.9165,6.9-18.3489-117.4763-5.8119-235.6771-3.874-353.2477-3.78-160.8262.1283-321.7416,1.0472-482.5015,6-89.5889,2.76-181.1814,15.736-270.4469,7.5475l-5.1494,18.1921,18.284-2.9132c7.399-1.1788,13.63-19.6654,3.3992-18.0352Z" transform="translate(93.7835 -301.9707)"/></svg>