<svg id="Layer_1" data-name="Layer 1" xmlns="http://www.w3.org/2000/svg" width="2223.4047" height="769.4956" viewBox="0 0 2223.4047 769.4956"><defs><style>.cls-1{fill:#2e4ac0;}</style></defs><path class="cls-1" d="M92.7848,440.8676a26.4218,26.4218,0,0,0-6.6149-4.2741A47.683,47.683,0,0,0,74.7927,433.11a34.4368,34.4368,0,0,0-7.9968-.4116A58.67,58.67,0,0,0,54.37,434.4507c-9.022,2.5678-16.6853,7.1992-24.1123,12.7853a61.0494,61.0494,0,0,0-6.5186,5.7034,139.859,139.859,0,0,0-10.1295,10.9267A147.9694,147.9694,0,0,0-9.2588,503.9406a145.063,145.063,0,0,0-9.2241,42.9469,135.1165,135.1165,0,0,0,2.4492,37.0438,124.3686,124.3686,0,0,0,12.476,34.2105,88.4843,88.4843,0,0,0,23.9566,29.0533c5.9726,4.5827,12.7807,7.1483,20.0172,9.0875A66.3913,66.3913,0,0,0,59.2,658.2732,116.9242,116.9242,0,0,0,80.5133,655.89a120.6706,120.6706,0,0,0,20.9313-6.9225,97.6,97.6,0,0,0,15.258-7.8717,126.6683,126.6683,0,0,0,18.1627-13.6586c3.6142-3.346,7.0485-6.9066,10.35-10.5586a33.3845,33.3845,0,0,0,5.5915-9.1105,30.4335,30.4335,0,0,0,3.3293-9.5825,19.1691,19.1691,0,0,0,.173-8.5818,12.4264,12.4264,0,0,0-2.3371-6.8878l-3.2231-2.9662a11.6327,11.6327,0,0,0-8.8572-.8891c-5.9065,1.697-10.3649,5.7041-14.4066,10.1749q-1.0983,1.215-2.2348,2.3935l4.6043-4.7333a94.0477,94.0477,0,0,1-13.0453,11.1452l4.889-3.44a96.9928,96.9928,0,0,1-18.9971,10.377l4.9132-2.0017A94.84,94.84,0,0,1,78.68,609.3369l4.6769-.4191c-8.924.7723-18.0595.3857-26.6569-2.2949l4.18,1.3082a46.8111,46.8111,0,0,1-17.1838-10.09l3.223,2.9662c-8.3977-7.7325-14.8152-17.6623-19.6207-27.9584l1.9756,4.26a111.6488,111.6488,0,0,1-9.1808-31.5871l.7231,5.2558a117.8405,117.8405,0,0,1-.5922-26.1076l-.5345,5.9539a116.0961,116.0961,0,0,1,3.82-20.7645l-1.797,6.3542a110.6268,110.6268,0,0,1,6.3067-16.87L24.9554,505.8A104.5379,104.5379,0,0,1,33.1782,491.5l-4.0593,5.8822a89.1326,89.1326,0,0,1,9.0191-11.1273l-4.6044,4.7333a62.4336,62.4336,0,0,1,8.7407-7.528l-4.889,3.44a47.7982,47.7982,0,0,1,8.9673-4.9275l-4.9132,2.0018a38.1273,38.1273,0,0,1,10.447-2.5733L47.21,481.82a34.2934,34.2934,0,0,1,13.1849,1.2949l-4.18-1.3081a27.3212,27.3212,0,0,1,9.7732,5.4752,8.6662,8.6662,0,0,0,6.5187,1.0986,12.972,12.972,0,0,0,7.2517-2.2113,24.9962,24.9962,0,0,0,7.1912-5.8065,31.2587,31.2587,0,0,0,6.3615-8.2489c3.0414-5.6108,5.8353-12.2506,5.396-18.7647l-.723-5.2558a11.6326,11.6326,0,0,0-5.1986-7.2261Z" transform="translate(76.5477 -259)"/><path class="cls-1" d="M204.6234,436.62a121.2834,121.2834,0,0,0-29.7292,25.389c-8.93,10.4594-15.7417,22.3921-21.2181,34.9521a137.8175,137.8175,0,0,0-6.2228,18.8921,90.6075,90.6075,0,0,0-2.6111,13.4182,125.9762,125.9762,0,0,0-1.0682,19.2258,122.64,122.64,0,0,0,2.2482,18.5207c2.0217,10.5113,6.0427,20.4594,10.9565,29.9382a101.1623,101.1623,0,0,0,16.0042,22.5912,115.2073,115.2073,0,0,0,24.2951,20.047,92.0829,92.0829,0,0,0,13.89,6.8622,102.7023,102.7023,0,0,0,19.3967,5.637,66.02,66.02,0,0,0,15.8667.926c6.7542-.4493,13.3285-1.2593,19.7476-3.4546a107.9852,107.9852,0,0,0,35.3851-20.6114,160.0227,160.0227,0,0,0,15.0663-15.016,167.1721,167.1721,0,0,0,13.0427-17.3489,117.4469,117.4469,0,0,0,7.7482-13.0675,171.1143,171.1143,0,0,0,8.8171-19.8393,158.3736,158.3736,0,0,0,5.72-20.0887,140.7747,140.7747,0,0,0,2.2918-18.0172,118.8563,118.8563,0,0,0-1.86-30.07c-1.7112-9.8078-5.1292-18.86-9.4229-27.813a74.0616,74.0616,0,0,0-13.93-20.0551c-6.8543-6.9412-14.4428-12.9329-23.4631-16.7666a79.9935,79.9935,0,0,0-31.1346-6.6012,106.2778,106.2778,0,0,0-32.5484,5.0526A137.759,137.759,0,0,0,210.8069,443.7a178.8465,178.8465,0,0,0-16.032,11.3861,30.4332,30.4332,0,0,0-6.6341,7.6744,33.3881,33.3881,0,0,0-5.0942,9.3978,25.8588,25.8588,0,0,0-2.0642,9.3311,18.398,18.398,0,0,0,.4558,8.2328l1.9756,4.26a10.0215,10.0215,0,0,0,7.4033,4.2743l4.6769-.4191a24.9919,24.9919,0,0,0,9.8022-5.4415q2.98-2.38,6.0962-4.579l-4.889,3.44a121.47,121.47,0,0,1,23.8091-13.04l-4.9132,2.0017a99.3456,99.3456,0,0,1,28.2371-7.0227l-4.6769.4191a73.5655,73.5655,0,0,1,28.11,2.8119l-4.18-1.3082a63.8515,63.8515,0,0,1,23.9541,13.8657l-3.223-2.9661a74.2025,74.2025,0,0,1,16.6148,23.2426l-1.9755-4.26a92.6728,92.6728,0,0,1,7.4758,25.93l-.723-5.2558a100.0065,100.0065,0,0,1,.5388,22.05l.5345-5.9539a99.1434,99.1434,0,0,1-3.2858,17.76l1.797-6.3542a116.1735,116.1735,0,0,1-6.7131,17.9183l3.0646-6.4566a118.0287,118.0287,0,0,1-9.36,16.2152l4.0593-5.8823a116.4579,116.4579,0,0,1-12.1553,14.7779l4.6044-4.7334a104.073,104.073,0,0,1-14.1524,12.17l4.889-3.44a77.8389,77.8389,0,0,1-14.903,8.2819l4.9132-2.0018a60.8607,60.8607,0,0,1-17.11,4.26l4.6769-.4191a70.4075,70.4075,0,0,1-27.142-3.1975l4.18,1.3082a94.83,94.83,0,0,1-35.2751-20.7489l3.2231,2.9661a101.7861,101.7861,0,0,1-23.11-31.6671l1.9755,4.26a94.51,94.51,0,0,1-7.7952-26.2522l.7231,5.2558a87.9631,87.9631,0,0,1-.4765-19.749l-.5345,5.9539a92.391,92.391,0,0,1,3.05-16.4179l-1.797,6.3542a94.8208,94.8208,0,0,1,5.4826-14.572l-3.0645,6.4566a93.711,93.711,0,0,1,7.4066-12.7979l-4.0593,5.8822a89.8545,89.8545,0,0,1,9.1178-11.1042l-4.6043,4.7333a84.268,84.268,0,0,1,11.7717-10.0614l-4.889,3.44q2.3349-1.63,4.7731-3.0989a39.2582,39.2582,0,0,0,13.5527-14.0554,31.2619,31.2619,0,0,0,3.9631-9.6337,24.9968,24.9968,0,0,0,1.4329-9.131c-.3027-4.4895-1.3472-10.2773-5.9216-12.4819l-4.18-1.3082a16.8713,16.8713,0,0,0-9.59,2.4209Z" transform="translate(76.5477 -259)"/><path class="cls-1" d="M375.342,456.6973A115.4423,115.4423,0,0,1,387.2,476.7761l-1.9756-4.26c6.7843,14.7182,10.68,30.5469,13.4009,46.469.7957,4.6562,1.4923,9.3286,2.1368,14.008l-.723-5.2559c3.57,26.0492,5.48,52.4881,11.8024,78.0755a179.7346,179.7346,0,0,0,6.0415,19.7395l1.9755,4.26a7.5736,7.5736,0,0,0,5.3132,3.62,5.8163,5.8163,0,0,0,4.4286.4445,12.9716,12.9716,0,0,0,7.2517-2.2112,39.3529,39.3529,0,0,0,9.4934-8.1732,33.3888,33.3888,0,0,0,5.5916-9.1105,30.4367,30.4367,0,0,0,3.3292-9.5825c3.7065-19.4684,7.4643-38.94,12.22-58.1847q2.0242-8.1915,4.3116-16.3143l-1.797,6.3541A324.8905,324.8905,0,0,1,488.5424,486.13l-3.0645,6.4566a224.8413,224.8413,0,0,1,17.6278-30.78l-4.0593,5.8823a64.28,64.28,0,0,1,6.6876-8.3872l-4.6043,4.7333A36.72,36.72,0,0,1,506.06,459.81l-4.889,3.44a23.8414,23.8414,0,0,1,4.3886-2.4041l-4.9132,2.0017a16.7075,16.7075,0,0,1,4.2787-1.0634l-4.6769.4191a13.9248,13.9248,0,0,1,5.18.5512l-4.18-1.3082a15.3968,15.3968,0,0,1,5.3859,3.176l-3.2231-2.9661a35.517,35.517,0,0,1,6.9453,9.7922c2.2413,4.2393,4.3511,8.55,6.3742,12.897l-1.9755-4.26A304.5914,304.5914,0,0,1,536.8,547.089q2.0073,9.8152,3.3669,19.7465l-.7231-5.2558a302.7935,302.7935,0,0,1,2.7879,39.941c.0216,7.5229-.548,14.9283,1.2228,22.3485a31.8945,31.8945,0,0,0,3.0352,7.2293c1.2588,2.3717,3.3862,4.1261,5.4221,5.82,3.7018,3.0806,9.5174,3.0576,13.9178,2.0462,9.8778-2.27,17.86-10.5258,22.8679-18.8864a45.12,45.12,0,0,0,3.6107-7.4968,36.0922,36.0922,0,0,0,1.9232-6.7877,41.169,41.169,0,0,0,.6022-6.3936c-.056-4.0194-.9313-8.682-3.5421-11.9324a7.5733,7.5733,0,0,0-5.3132-3.62,8.8891,8.8891,0,0,0-6.7671-.235,18.3968,18.3968,0,0,0-7.3577,3.7216,25.8586,25.8586,0,0,0-7.0489,6.4533c-4.2064,5.3884-7.904,11.8458-8.9208,18.693-.7378,4.9681-1.21,11.27,2.1641,15.47a4.9366,4.9366,0,0,1,.565.8653l-1.9755-4.26a4.008,4.008,0,0,1,.2622.8857l-.7231-5.2558a4.4172,4.4172,0,0,1,.0164.6657l.5344-5.9539a4.8965,4.8965,0,0,1-.1238.6574l1.797-6.3542a5.7855,5.7855,0,0,1-.251.6406l3.0645-6.4566a7.0149,7.0149,0,0,1-.3653.6154l4.0593-5.8822a7.7314,7.7314,0,0,1-.6425.7665l4.6043-4.7334a8.86,8.86,0,0,1-1.01.843l4.889-3.44a9.6035,9.6035,0,0,1-1.4361.7909l4.9132-2.0018a8.3336,8.3336,0,0,1-2.3972.5931l4.677-.4191a6.3491,6.3491,0,0,1-2.1261-.2344l4.18,1.3082a5.958,5.958,0,0,1-1.9844-1.2029l3.2231,2.9662a10.2976,10.2976,0,0,1-2.2168-3.0484l1.9756,4.26a16.7512,16.7512,0,0,1-1.2423-4.444l.7231,5.2559a54.6936,54.6936,0,0,1-.2258-8.4q.0983-4.835.0391-9.6715-.12-9.7859-.8783-19.55a345.9547,345.9547,0,0,0-6.2114-43.7578,320.5729,320.5729,0,0,0-27.3839-77.6052c-2.5448-5.1026-5.0395-10.6685-9.18-14.7093a39.5836,39.5836,0,0,0-5.8094-5.0594,27.2974,27.2974,0,0,0-7.5231-2.9015,23.9173,23.9173,0,0,0-12.02.2421c-11.0139,2.7485-19.8995,10.7827-27.2543,19.0017a69.4084,69.4084,0,0,0-5.2755,6.8785c-3.0057,4.3445-6.0253,8.67-8.8345,13.1439a282.9937,282.9937,0,0,0-19.9223,38.8411,327.19,327.19,0,0,0-12.5763,34.9447c-7.772,25.8194-13.4745,52.0958-18.5655,78.5549q-.8668,4.5051-1.723,9.0122L455.0778,593.59c-4.9338-13.2222-8.0313-27.0356-10.3181-40.9386-.6548-3.9805-1.2434-7.9716-1.7947-11.9677l.7231,5.2559c-2.5057-18.2519-4.2947-36.5966-7.1888-54.7963-2.562-16.1109-6.142-32.2022-12.5907-47.2459a136.18,136.18,0,0,0-15.323-27.6821c-2.8622-3.8665-7.5769-4.9049-12.08-3.8553a18.397,18.397,0,0,0-7.3577,3.7217,25.8583,25.8583,0,0,0-7.0489,6.4532c-4.2065,5.3885-7.904,11.8459-8.9208,18.693-.7573,5.1-1.0912,11.0722,2.1641,15.47Z" transform="translate(76.5477 -259)"/><path class="cls-1" d="M650.1571,313.8993q5.1688,59.6586,7.3,119.5274,2.112,59.54,1.1984,119.1363-.5174,33.7366-2.0067,67.4486l.723,5.2558a8.8894,8.8894,0,0,0,3.5871,5.743,5.0112,5.0112,0,0,0,3.7016,2.1372,8.89,8.89,0,0,0,6.7671.235,9.4177,9.4177,0,0,0,1.7011-.3179,40.8492,40.8492,0,0,0,6.1254-2.4629,12.8542,12.8542,0,0,0,1.4937-.8775,43.67,43.67,0,0,0,6.0454-4.4249c8.0628-7.6787,13.8111-17.1356,16.038-28.1307a19.1691,19.1691,0,0,0,.173-8.5818,12.4264,12.4264,0,0,0-2.3371-6.8878,11.2409,11.2409,0,0,0-12.08-3.8553A29.1456,29.1456,0,0,0,674.18,588.0187a44.9054,44.9054,0,0,0-8.9208,18.693,8.0973,8.0973,0,0,1-.195.8456l1.797-6.3542a12.4861,12.4861,0,0,1-.4541,1.2148l3.0645-6.4566a11.8636,11.8636,0,0,1-.8758,1.4916l4.0593-5.8823c-.2657.35-.5373.6752-.834.9991l4.6044-4.7333a12.5863,12.5863,0,0,1-1.31,1.1384l4.889-3.44a11.3529,11.3529,0,0,1-1.89,1.0512l4.9132-2.0018a9.86,9.86,0,0,1-2.5167.6055l14.7788,13.3709q2.635-59.824,2.2261-119.7294-.414-59.5762-3.8533-119.08-1.947-33.6843-4.8643-67.3028c-.4021-4.641-1.4632-9.9078-5.9216-12.4819-4.1332-2.3863-9.92-1.1526-13.77,1.1127a37.0431,37.0431,0,0,0-13.5528,14.0554l-3.0645,6.4566a33.8556,33.8556,0,0,0-2.3314,12.3081Z" transform="translate(76.5477 -259)"/><path class="cls-1" d="M591.8533,407.46l68.5987-6.4289,68.5988-6.429,38.6185-3.6192a18.397,18.397,0,0,0,7.3577-3.7217,25.8583,25.8583,0,0,0,7.0489-6.4532,33.3869,33.3869,0,0,0,5.5916-9.1106,30.4333,30.4333,0,0,0,3.3292-9.5825l.5345-5.9539a16.8711,16.8711,0,0,0-2.6986-9.5157l-3.223-2.9662a11.6328,11.6328,0,0,0-8.8573-.889l-68.5987,6.4289-68.5987,6.429-38.6186,3.6192a18.397,18.397,0,0,0-7.3577,3.7217,25.8583,25.8583,0,0,0-7.0489,6.4532,33.3851,33.3851,0,0,0-5.5915,9.1106,30.4329,30.4329,0,0,0-3.3293,9.5824l-.5345,5.954a16.8719,16.8719,0,0,0,2.6986,9.5157l3.2231,2.9661a11.6322,11.6322,0,0,0,8.8572.8891Z" transform="translate(76.5477 -259)"/><path class="cls-1" d="M905.5624,446.6217a117.3051,117.3051,0,0,0-18.7564-20.1548,62.9218,62.9218,0,0,0-9.5468-6.7875,65.573,65.573,0,0,0-14.2313-5.6781,41.7737,41.7737,0,0,0-11.3442-1.7669,79.9643,79.9643,0,0,0-9.8155.6737,44.18,44.18,0,0,0-5.4335.9564,73.8624,73.8624,0,0,0-15.1674,5.7384,88.3064,88.3064,0,0,0-14.1427,9.1839,98.379,98.379,0,0,0-12.8577,12.293,102.7141,102.7141,0,0,0-10.7,14.604,117.697,117.697,0,0,0-8.6648,17.3471,138.8337,138.8337,0,0,0-5.69,17.8894c-2.6806,10.0762-3.7153,20.5243-4.3794,30.9017a224.3533,224.3533,0,0,0-.0693,26.21,214.8779,214.8779,0,0,0,3.9578,31.5164,126.7571,126.7571,0,0,0,7.7654,25.0871c3.8155,8.7979,8.0562,17.1873,14.5272,24.34a81.24,81.24,0,0,0,11.3824,10.4611,43.7962,43.7962,0,0,0,9.5259,5.5111,63.4761,63.4761,0,0,0,9.049,2.912,29.6613,29.6613,0,0,0,5.16.8036,53.3954,53.3954,0,0,0,9.5439-.5415,26.6192,26.6192,0,0,0,5.4261-1.2244,59.6194,59.6194,0,0,0,18.8346-10.4762,88.2878,88.2878,0,0,0,8.448-8.2669,56.1533,56.1533,0,0,0,3.8317-4.48,202.8642,202.8642,0,0,0,16.83-26.6811c5.4147-9.8961,10.3384-20.0462,15.0659-30.2864a393.1877,393.1877,0,0,0,19.2887-50.7144c3.2178-10.6142,6.1768-21.3258,8.6628-32.137.9514-4.1373,1.8785-8.2894,2.4523-12.4989.8014-5.8788,1.5444-12.0978.846-18.05a59.617,59.617,0,0,0-1.8111-10.523,47.4916,47.4916,0,0,0-4.2123-9.4068l-3.223-2.9661a8.6658,8.6658,0,0,0-6.5187-1.0986,8.4356,8.4356,0,0,0-4.7951,1.21,19.168,19.168,0,0,0-7.3456,4.4407c-8.2553,7.4335-13.8594,18.1723-14.06,29.38a204.9063,204.9063,0,0,0,4.4085,44.7272,189.817,189.817,0,0,0,12.1071,37.9787,214.6,214.6,0,0,0,21.5707,38.7747,205.3427,205.3427,0,0,0,29.5352,32.6187,177.0355,177.0355,0,0,0,15.5813,12.621,33.569,33.569,0,0,0,8.1966,4.7,31.9984,31.9984,0,0,0,8.1046,2.1935,32.3769,32.3769,0,0,0,6.31-.43,17.0617,17.0617,0,0,0,4.44-1.4574,24.42,24.42,0,0,0,6.2771-3.4622,35.1171,35.1171,0,0,0,3.0716-2.2326,62.1032,62.1032,0,0,0,5.188-5.3416,33.3873,33.3873,0,0,0,5.5916-9.1105,30.4358,30.4358,0,0,0,3.3292-9.5825,19.1691,19.1691,0,0,0,.173-8.5818,12.4264,12.4264,0,0,0-2.3371-6.8878l-3.223-2.9662a11.633,11.633,0,0,0-8.8573-.8891c-5.88,1.6894-10.42,5.68-14.4066,10.1749l-.2273.2564,4.6044-4.7334a8.5468,8.5468,0,0,1-.9834.8646l4.889-3.44a7.7759,7.7759,0,0,1-1.376.7414l4.9132-2.0017a8.5225,8.5225,0,0,1-2.1425.4716l4.677-.4191a13.4017,13.4017,0,0,1-4.7107-.6582l4.18,1.3081c-4.9291-1.6089-9.0877-4.9866-13.1493-8.1008q-6.399-4.9065-12.3315-10.3806l3.2231,2.9661a188.8435,188.8435,0,0,1-35.6924-44.96q-4.0553-7.0933-7.4993-14.511l1.9755,4.26a190.9414,190.9414,0,0,1-13.7676-41.554q-1.2527-6.065-2.0958-12.2033l.723,5.2558a179.9332,179.9332,0,0,1-1.6294-27.4606L896.0947,473.859c.3471.61.6706,1.2279.9738,1.8605l-1.9756-4.26a28.6314,28.6314,0,0,1,2.2731,7.9334l-.723-5.2558a45.0074,45.0074,0,0,1,.1093,9.7166l.5344-5.9539a126.4319,126.4319,0,0,1-3.11,16.8546q-2.06,8.8131-4.5275,17.5234l1.797-6.3542a394.7732,394.7732,0,0,1-17.1537,48.2925q-2.8907,6.7145-6.0293,13.3176l3.0645-6.4566q-4.7881,10.0576-10.1309,19.8372a202.6219,202.6219,0,0,1-10.5484,17.7482l4.0594-5.8823a62.5307,62.5307,0,0,1-6.1895,7.6716l4.6044-4.7333a40.204,40.204,0,0,1-5.24,4.5506l4.889-3.44a30.9441,30.9441,0,0,1-6.051,3.34l4.9132-2.0017a27.9226,27.9226,0,0,1-7.6,1.8357l4.6769-.4191a29.9075,29.9075,0,0,1-11.4072-1.3491l4.18,1.3082a45.6436,45.6436,0,0,1-16.5228-10.0488l3.2231,2.9661A68.48,68.48,0,0,1,812.82,570.8978l1.9755,4.26a134.051,134.051,0,0,1-10.6315-37.9055l.7231,5.2558a209.8425,209.8425,0,0,1-1.0941-46.321l-.5345,5.954a123.4559,123.4559,0,0,1,3.9884-22.4455L805.45,486.05a88.4888,88.4888,0,0,1,5.0253-13.4263l-3.0646,6.4566a71.4178,71.4178,0,0,1,5.4-9.4366l-4.0593,5.8823a64.5456,64.5456,0,0,1,6.7315-8.1777l-4.6044,4.7334a63.0539,63.0539,0,0,1,8.6663-7.3693l-4.8891,3.44a56.3655,56.3655,0,0,1,10.8743-5.9336l-4.9132,2.0017a47.3281,47.3281,0,0,1,12.9261-3.1966l-4.677.4191a42.1371,42.1371,0,0,1,16.101,1.7046l-4.18-1.3081c8.1141,2.5583,15.2529,7.3249,21.479,13.0474l-3.223-2.9661a105.0694,105.0694,0,0,1,13.2766,15.1838c2.829,3.8782,7.6077,4.8977,12.08,3.8552a18.3974,18.3974,0,0,0,7.3577-3.7216,25.86,25.86,0,0,0,7.0489-6.4533c4.2064-5.3884,7.904-11.8459,8.9208-18.693.7607-5.1226,1.0689-11.0376-2.1641-15.47Z" transform="translate(76.5477 -259)"/><path class="cls-1" d="M1161.2024,400.0063c-6.5915-4.0686-13.3355-8.0786-20.6837-10.6323-4.719-1.64-9.5933-3.2073-14.604-3.6166a33.8479,33.8479,0,0,0-5.5129.0176,51.9152,51.9152,0,0,0-9.8338,1.365,66.0168,66.0168,0,0,0-9.3684,3.6315,36.7516,36.7516,0,0,0-4.5435,2.47,80.0367,80.0367,0,0,0-12.72,9.6931,125.8083,125.8083,0,0,0-11.1886,12.0187,147.5771,147.5771,0,0,0-9.45,13.4983,90.1853,90.1853,0,0,0-4.7772,8.645c-2.3947,4.9459-4.8019,9.8866-6.7269,15.0373-1.8929,5.0648-3.3156,10.2747-4.7628,15.4811q-1.324,4.7636-2.285,9.6164a205.47,205.47,0,0,0-3.1031,25.5791c-.4742,6.7446-.5727,13.5135-.381,20.2711.1848,6.5143.61,13.0292,1.368,19.5027a184.65,184.65,0,0,0,4.141,24.2064,117.4128,117.4128,0,0,0,8.326,22.0514A66.101,66.101,0,0,0,1065.494,604.53a69.56,69.56,0,0,0,17.9288,14.5636,59.0614,59.0614,0,0,0,8.5989,3.8167,97.7952,97.7952,0,0,0,13.1,3.7555,82.7788,82.7788,0,0,0,19.1845,1.4732,133.8954,133.8954,0,0,0,43.24-8.4594,192,192,0,0,0,23.1155-10.0859,144.27,144.27,0,0,0,21.6122-14.1962,87.0168,87.0168,0,0,0,7.4554-6.5692,127.5234,127.5234,0,0,0,11.0488-11.9767,123.9009,123.9009,0,0,0,9.2911-13.6236,31.26,31.26,0,0,0,3.9631-9.6336,24.9971,24.9971,0,0,0,1.4329-9.131,12.97,12.97,0,0,0-1.7108-7.3858,8.6657,8.6657,0,0,0-4.2108-5.0961l-4.18-1.3082a16.872,16.872,0,0,0-9.59,2.4208A38.6614,38.6614,0,0,0,1212.22,547.149q-1.3072,2.2407-2.7705,4.3812l4.0593-5.8822a75.5208,75.5208,0,0,1-7.791,9.4766l4.6044-4.7333A91.5441,91.5441,0,0,1,1197.58,561.192l4.889-3.44a131.457,131.457,0,0,1-25.9232,13.8572l4.9132-2.0017a133.0575,133.0575,0,0,1-37.8993,9.5812l4.677-.419a82.388,82.388,0,0,1-31.2738-2.8131l4.18,1.3082a58.1336,58.1336,0,0,1-21.9234-12.4489l3.223,2.9662a65.288,65.288,0,0,1-14.6661-20.6162l1.9756,4.26c-4.6777-10.19-7.2653-21.1938-8.7888-32.2646l.723,5.2558a209.7452,209.7452,0,0,1-1.1124-46.6624l-.5345,5.9539a145.3684,145.3684,0,0,1,4.6163-25.826l-1.797,6.3542a108.8737,108.8737,0,0,1,6.24-16.8184l-3.0646,6.4566a91.4249,91.4249,0,0,1,7.1389-12.424l-4.0593,5.8822a82.5494,82.5494,0,0,1,8.4669-10.3461l-4.6044,4.7333a56.8566,56.8566,0,0,1,7.5831-6.5689l-4.889,3.44a38.92,38.92,0,0,1,7.6-4.1981l-4.9132,2.0018a30.93,30.93,0,0,1,8.2841-2.0083l-4.6769.4191a37.8829,37.8829,0,0,1,14.4337,1.7928l-4.18-1.3082c7.9269,2.53,15.143,6.7828,22.1866,11.13a8.6658,8.6658,0,0,0,6.5187,1.0986,12.9709,12.9709,0,0,0,7.2517-2.2113,24.9975,24.9975,0,0,0,7.1912-5.8065,31.2629,31.2629,0,0,0,6.3615-8.2489c3.0414-5.6107,5.8353-12.25,5.396-18.7647-.3253-4.823-1.469-9.7335-5.9216-12.4818Z" transform="translate(76.5477 -259)"/><path class="cls-1" d="M1302.9565,294.227q1.374,58.4361,3.289,116.8578,1.9066,58.1228,4.3513,116.2263,1.3791,32.7758,2.9293,65.5441c.2161,4.5712,1.6,9.9867,5.9216,12.4819,4.1332,2.3863,9.9195,1.1526,13.77-1.1126a37.0431,37.0431,0,0,0,13.5527-14.0555c3.0758-5.674,5.707-12.1872,5.396-18.7646q-2.7607-58.3871-4.9809-116.798-2.2074-58.1121-3.8767-116.243-.9416-32.7914-1.712-65.5873c-.1064-4.5274-1.6814-10.0337-5.9216-12.4819-4.1332-2.3862-9.9195-1.1526-13.77,1.1127a37.0428,37.0428,0,0,0-13.5527,14.0554c-3.1149,5.7463-5.5523,12.12-5.396,18.7647Z" transform="translate(76.5477 -259)"/><path class="cls-1" d="M1251.09,402.9016l52.5588-6.3143,52.5588-6.3143,29.8171-3.5822a18.3974,18.3974,0,0,0,7.3577-3.7216,25.8616,25.8616,0,0,0,7.0489-6.4533,33.386,33.386,0,0,0,5.5915-9.1105,30.4335,30.4335,0,0,0,3.3293-9.5825l.5345-5.9539a16.8725,16.8725,0,0,0-2.6986-9.5158l-3.2231-2.9661a11.6327,11.6327,0,0,0-8.8572-.8891l-52.5588,6.3143-52.5588,6.3143-29.8171,3.5822a18.3974,18.3974,0,0,0-7.3577,3.7216,25.86,25.86,0,0,0-7.0489,6.4533,33.3845,33.3845,0,0,0-5.5915,9.1105,30.4335,30.4335,0,0,0-3.3293,9.5825l-.5345,5.9539a16.8719,16.8719,0,0,0,2.6986,9.5157l3.2231,2.9662a11.6327,11.6327,0,0,0,8.8572.8891Z" transform="translate(76.5477 -259)"/><path class="cls-1" d="M1632.5919,433.7927c9.5528,24.991,15.9471,51.0589,20.5005,77.3921q1.947,11.26,3.4894,22.5853l-.723-5.2558c2.622,19.0686,4.5444,38.2236,6.2959,57.3892q.7368,8.0639,1.4466,16.13a12.9721,12.9721,0,0,0,1.7108,7.3858,8.6662,8.6662,0,0,0,4.2109,5.0961l4.18,1.3082a20.8412,20.8412,0,0,0,12.0347-4.1408,25.8583,25.8583,0,0,0,7.0489-6.4532l4.0593-5.8823a41.0849,41.0849,0,0,0,4.8615-12.8107A419.2745,419.2745,0,0,1,1711.45,528.09q1.95-8.1089,4.22-16.1356l-1.797,6.3542a422.0915,422.0915,0,0,1,18.3415-51.7069q3.0669-7.1289,6.3971-14.14l-3.0645,6.4566q3.6823-7.7406,7.6731-15.3281l-27.3232,15.1681q3.0685,2.34,5.9065,4.9541l-3.223-2.9661a98.9239,98.9239,0,0,1,21.9379,30.972l-1.9755-4.26c6.6479,14.4055,10.323,29.8976,12.49,45.5633l-.723-5.2558c1.8873,13.8388,2.6513,27.7915,3.3961,41.7288.2449,4.5823,1.5786,9.9744,5.9217,12.4818a8.6653,8.6653,0,0,0,6.5187,1.0986,12.9716,12.9716,0,0,0,7.2517-2.2112,37.0435,37.0435,0,0,0,13.5527-14.0554l3.0645-6.4566a33.8565,33.8565,0,0,0,2.3315-12.3081q.2637-4.1321.634-8.2558l-.5344,5.9539a310.5318,310.5318,0,0,1,10.3758-56.0062l-1.797,6.3541a311.5211,311.5211,0,0,1,18.2669-48.6l-3.0645,6.4566q2.4733-5.1911,5.1332-10.29a88.0152,88.0152,0,0,1,5.2437-9.2713l-4.0593,5.8822a27.6223,27.6223,0,0,1,2.6593-3.2467l-4.6043,4.7334a18.2446,18.2446,0,0,1,2.2139-1.9019l-4.8891,3.44a12.4817,12.4817,0,0,1,2.1069-1.17l-4.9132,2.0018a9.1417,9.1417,0,0,1,2.2465-.57l-4.677.4191a8.1321,8.1321,0,0,1,2.7156.2536l-4.18-1.3082a9.6208,9.6208,0,0,1,3.6127,2.1658l-3.223-2.9661c3.3588,3.2424,5.8233,7.6621,8.1957,11.6449a142.8184,142.8184,0,0,1,6.8021,12.94l-1.9756-4.26c6.7286,14.5951,11.1638,30.1144,14.5641,45.7882,3.59,16.5492,6.1173,33.3153,8.8511,50.0207l5.1367,31.39a8.8893,8.8893,0,0,0,3.587,5.743,7.5733,7.5733,0,0,0,5.7918,2.7912,12.4259,12.4259,0,0,0,7.1336-1.42,19.1688,19.1688,0,0,0,7.3456-4.4407,41.797,41.797,0,0,0,11.7282-17.0722l1.797-6.3541a24.9916,24.9916,0,0,0-.1886-11.21c-3.6676-22.412-7.0478-44.8945-11.1622-67.23-3.6821-19.9881-8.3779-40.0023-16.7644-58.6a188.1066,188.1066,0,0,0-8.7468-17.4556q-1.8468-3.1708-3.871-6.2341a41.9745,41.9745,0,0,0-4.4222-5.9705c-3.8155-3.9908-6.8474-6.2766-12.4384-7.1862a21.521,21.521,0,0,0-7.1838.4513,9.2429,9.2429,0,0,0-1.2786.3551,41.5668,41.5668,0,0,0-6.1471,2.5589c-5.37,2.8871-9.9918,7.338-13.9145,11.9272a91.36,91.36,0,0,0-5.6972,8.0113c-.6386.9351-1.2429,1.889-1.8008,2.8747-2.6632,4.7061-5.1179,9.5434-7.48,14.4064-3.318,6.8306-6.57,13.7006-9.536,20.6928a309.3751,309.3751,0,0,0-11.0752,30.4653,373.916,373.916,0,0,0-9.4946,37.1336,360.338,360.338,0,0,0-5.05,37.5887q-.3564,4.01-.6135,8.0267l38.6408-21.4509c-1.1226-21.0053-2.4183-42.1482-6.8678-62.7628a146.18,146.18,0,0,0-7.6076-24.9064,134.0666,134.0666,0,0,0-13.3768-25.4268,101.2112,101.2112,0,0,0-21.8-22.6041,8.6658,8.6658,0,0,0-6.5187-1.0987,12.9724,12.9724,0,0,0-7.2517,2.2113,36.4678,36.4678,0,0,0-13.5527,14.0554,459.9973,459.9973,0,0,0-46.2857,132.7827q-3.249,17.7759-4.95,35.7858l38.1063-15.4969c-2.0521-23.1215-4.1225-46.2511-7.1683-69.2671-3.2254-24.3732-7.1963-48.65-13.4524-72.45a359.9944,359.9944,0,0,0-11.8348-37.0356,8.8894,8.8894,0,0,0-3.5871-5.743,7.5733,7.5733,0,0,0-5.7918-2.7912,12.4254,12.4254,0,0,0-7.1335,1.42,19.1684,19.1684,0,0,0-7.3457,4.4407A41.7979,41.7979,0,0,0,1634.2,416.2288l-1.797,6.3541a24.9916,24.9916,0,0,0,.1886,11.21Z" transform="translate(76.5477 -259)"/><path class="cls-1" d="M1913.7293,512.6523a36.7715,36.7715,0,0,0,11.45,6.8433,59.0791,59.0791,0,0,0,16.5891,3.95A67.5347,67.5347,0,0,0,1959.61,522.15a85.2156,85.2156,0,0,0,18.2007-6.3811,83.1445,83.1445,0,0,0,12.5975-7.2076,141.3923,141.3923,0,0,0,29.7554-26.0755,141.9272,141.9272,0,0,0,12.2121-16.5535,118.0284,118.0284,0,0,0,9.258-17.9476,65.5893,65.5893,0,0,0,2.2919-6.1551,124.0526,124.0526,0,0,0,3.3913-12.5034,103.0563,103.0563,0,0,0,1.4521-12.2614,46.8376,46.8376,0,0,0,.1353-6.8768c-.2591-3.9027-.6366-8.1039-2.1451-11.776-1.3652-3.3232-2.7754-6.5893-5.3728-9.1063a31.4115,31.4115,0,0,0-7.9864-6.1847,48.59,48.59,0,0,0-9.7864-3.2728,45.4694,45.4694,0,0,0-12.4843-1.0612,78.1364,78.1364,0,0,0-17.161,2.3647,91.35,91.35,0,0,0-16.6133,6.4668,104.9475,104.9475,0,0,0-15.6775,10.0731,114.3591,114.3591,0,0,0-14.16,13.1772c-4.6146,4.8213-8.323,10.2587-12.0634,15.7774-3.9772,5.868-6.9621,12.2723-9.9293,18.694a100.0921,100.0921,0,0,0-5.02,13.3515,172.805,172.805,0,0,0-5.0372,20.3291,200.4659,200.4659,0,0,0-2.195,20.0765c-.3332,4.8813-.4354,9.7777-.3411,14.6691.0858,4.4491.318,8.8972.8112,13.3208a137.0507,137.0507,0,0,0,2.868,17.5891,67.74,67.74,0,0,0,4.1953,12.14c2.3514,5.1095,4.708,10.0585,8.3222,14.4082a53.4736,53.4736,0,0,0,12.5931,11.1573c5.0935,3.1717,10.8539,5.022,16.6,6.6191,9.1521,2.5438,18.8059,3.0083,28.2586,2.9891a208.0718,208.0718,0,0,0,61.1234-9.123,231.1016,231.1016,0,0,0,31.2738-12.3564,190.5187,190.5187,0,0,0,24.9059-14.342c5.4287-3.7019,10.801-7.5047,15.9474-11.5933a30.4352,30.4352,0,0,0,6.6341-7.6744,33.3861,33.3861,0,0,0,5.0941-9.3977,25.859,25.859,0,0,0,2.0643-9.3312,18.3981,18.3981,0,0,0-.4558-8.2328l-1.9756-4.26a10.022,10.022,0,0,0-7.4033-4.2743l-4.677.4191a24.9922,24.9922,0,0,0-9.8022,5.4416q-4.3723,3.4735-8.94,6.6875l4.889-3.44a193.0915,193.0915,0,0,1-37.623,20.5076l4.9132-2.0017a195.2832,195.2832,0,0,1-43.1333,12.0378q-6.2567.9865-12.5677,1.5577l4.6769-.4191a188.4076,188.4076,0,0,1-23.5926.6421,88.4316,88.4316,0,0,1-22.9845-3.4025l4.18,1.3082a43.5229,43.5229,0,0,1-16.2894-9.0861l3.2231,2.9661a45.145,45.145,0,0,1-10.0359-14.03l1.9755,4.26a76.4424,76.4424,0,0,1-5.9828-21.6015l.723,5.2558a153.6488,153.6488,0,0,1-.5684-34.1394l-.5345,5.9539a130,130,0,0,1,4.1583-23.1539l-1.797,6.3541a103.3617,103.3617,0,0,1,5.87-15.8008l-3.0646,6.4566a87.5689,87.5689,0,0,1,6.94-12.0981l-4.0593,5.8822a78.5568,78.5568,0,0,1,7.9715-9.6755l-4.6044,4.7333a77.6684,77.6684,0,0,1,10.7344-9.1666l-4.889,3.44a70.9773,70.9773,0,0,1,13.6105-7.48l-4.9132,2.0017a60.6607,60.6607,0,0,1,17.0922-4.2406l-4.677.419a45.28,45.28,0,0,1,17.33,1.4877l-4.18-1.3082a22.1915,22.1915,0,0,1,7.9447,4.3387l-3.2231-2.9661a15.3633,15.3633,0,0,1,3.4844,4.6942l-1.9755-4.26a19.2245,19.2245,0,0,1,1.3983,4.965l-.723-5.2558a41.0666,41.0666,0,0,1,.063,8.8259l.5344-5.954a59.8923,59.8923,0,0,1-1.9445,10.5533l1.797-6.3542a68.413,68.413,0,0,1-3.9287,10.427l3.0645-6.4566a81.5349,81.5349,0,0,1-6.4814,11.1424l4.0593-5.8823a99.2243,99.2243,0,0,1-10.1273,12.25l4.6044-4.7334a115.2473,115.2473,0,0,1-15.859,13.5569l4.889-3.44a83.4674,83.4674,0,0,1-16.2443,9.0653l4.9132-2.0018a57.5454,57.5454,0,0,1-16.2736,4.0731l4.677-.4191a47.372,47.372,0,0,1-17.7666-1.8015l4.18,1.3082a37.6265,37.6265,0,0,1-13.6956-7.6115,8.6664,8.6664,0,0,0-6.5188-1.0986,12.9709,12.9709,0,0,0-7.2517,2.2113,24.9975,24.9975,0,0,0-7.1912,5.8065,31.2629,31.2629,0,0,0-6.3615,8.2489c-3.0413,5.6107-5.8352,12.25-5.3959,18.7647l.723,5.2558a11.6324,11.6324,0,0,0,5.1986,7.226Z" transform="translate(76.5477 -259)"/><path class="cls-1" d="M-27.5522,818.7942l-36.7985,7.3907c-7.6662,1.54-18.9942,22.765-6.88,24.3059,71.8229,9.1356,144.2926,6.9273,216.3252,1.6318,71.1865-5.2333,142.257-12.12,213.4094-17.8137q216.5156-17.3252,433.3977-29.5682c287.7578-16.2456,576.54-28.557,864.809-27.7455,158.9958.4476,318.3049,7.7105,475.5475,32.4151l9.2185-24.5155c-239.2025,6.3-478.2984,18.1039-716.76,38.1462-237.9628,20-475.3036,48.0756-710.93,87.0474q-98.604,16.3089-196.76,35.2086c-59.7815,11.5581-120.197,24.7253-173.9626,54.4589-5.1008,2.8208-16.426,22.4259-4.4234,23.305,155.8312,11.4142,312.1418,3.4758,467.4825-11.095,156.0049-14.6331,311.2983-35.8946,467.2662-50.8852,89.18-8.5715,178.5954-14.9446,268.1808-16.9553,10.43-.2341,20.56-24.77,9.2185-24.5155-156.7576,3.5184-312.7493,20.5626-468.3876,38.5381-155.9426,18.0106-311.986,36.9879-468.9332,43.5469-88.523,3.7-177.2212,3.3247-265.6088-3.1494l-4.4234,23.305c48.0941-26.597,101.9528-39.1934,155.4448-49.798,57.21-11.3416,114.642-21.64,172.1334-31.4459q175.2735-29.894,351.7582-51.9892c234.9906-29.6446,471.1125-49.7606,707.5775-62.96q200.8157-11.2095,401.9087-16.247c9.4444-.2487,21.8848-22.5255,9.2185-24.5155-281.8093-44.2754-569.4965-34.2988-853.5848-25.7392q-434.3078,13.0858-867.6846,46.5132c-80.0021,6.1727-159.91,13.3895-239.8815,19.9122-80.6274,6.5761-161.8314,10.6345-242.3379.3943l-6.88,24.306,36.7985-7.3907c9.8081-1.97,18.0069-26.8008,4.5415-24.0964Z" transform="translate(76.5477 -259)"/></svg>