<svg id="Layer_1" data-name="Layer 1" xmlns="http://www.w3.org/2000/svg" width="1506.7406" height="733.3209" viewBox="0 0 1506.7406 733.3209"><defs><style>.cls-1{fill:#2e4ac0;}</style></defs><path class="cls-1" d="M1161.54,139.54c-236.7842-27.2333-509.1269,4.5036-682.7974,184.53C409.7259,395.6135,362.21,495.2326,400.0774,594.08c33.4341,87.2757,119.3278,142.9717,202.2248,177.0945C710.8244,815.8451,830.9436,828.6954,947.4115,829.2c122.5252.5314,248.9185-11.8212,366.4315-47.9317,95.3411-29.2972,189.8891-74.8215,261.199-145.9454,65.6216-65.45,115.0933-161.6043,90.57-255.8652-30.393-116.82-138.32-184.0148-244.2286-223.4861-129.2913-48.186-268.5682-66.97-406.1023-57.8452-33.6282,2.2309-67.086,6.22-100.3592,11.55-2.6933.4314-4.9612,7.1623-1.2375,6.5659,129.796-20.7907,262.88-18.1127,391.0455,11.939,113.1518,26.5314,236.1643,69.4525,309.7391,164.7008,34.266,44.36,56.3627,99.0142,51.966,155.7348-4.0352,52.0569-28.3473,102.7355-59.691,143.8362-60.1059,78.8163-150.4481,130.78-241.8623,165.256-102.0128,38.4735-211.1634,55.203-319.5792,61.9992-119.4,7.4848-243.6563,2.9292-359.7661-28.06-86.3239-23.04-176.14-63.0534-236.4236-131.1-71.1559-80.32-72.3258-187.4965-13.9329-275.78C497.9826,289.8166,602.0934,223.6,707.7586,186.0255,823.0705,145.02,947.6685,133.29,1069.3727,138.87c29.969,1.3742,59.8545,3.9226,89.6556,7.35,2.8089.323,5.7482-6.3078,2.5119-6.68Z" transform="translate(-165.2594 -95.8959)"/><path class="cls-1" d="M166.8928,625.416l25.0749,17.6214,10.3524,7.2753c2.5548,1.7953,5.1037,3.9367,8.09,4.9808,3.0611,1.07,6.1752-.0726,8.5936-2.0131,2.5966-2.0836,4.61-4.7918,6.7465-7.3236l5.4376-6.4434,8.5586-10.1416q10.6362-12.6038,21.2726-25.2075a9.3116,9.3116,0,0,0,1.9369-8.643c-.8287-2.403-3.3931-3.2864-5.1857-1.1621Q239.2709,616.28,220.7723,638.2c-1.3982,1.6568-2.941,4.24-5.0856,5.0317-1.4088.52-2.9213-.1264-4.3069-1.027a3.7956,3.7956,0,0,0,1.444-.9364c2.1935-2.25,2.61-5.7238,1.9369-8.6429a106.9115,106.9115,0,0,1-2.444-28.4644q.1845-3.8172.61-7.6172.1143-1.023.2452-2.044c.03-.2363.13-.9216.147-1.047.1747-1.1378.3567-2.2743.5595-3.4075a133.57,133.57,0,0,1,3.5914-14.9147l.0045-.0147q.1032-.3252.2075-.65.2728-.8459.5567-1.688.6628-1.9673,1.3851-3.9136,1.3437-3.6216,2.8868-7.1648,1.4418-3.3123,3.0528-6.5467c.0981-.188.54-1.0595.621-1.2138q.4146-.7936.839-1.5821.92-1.7094,1.8858-3.3941a137.1515,137.1515,0,0,1,17.7773-24.5259,139.4637,139.4637,0,0,1,51.3966-35.77,173.3584,173.3584,0,0,1,67.2242-12.1274A205.1048,205.1048,0,0,1,433.8482,489.69q4.1106,1.5433,8.1521,3.26c.9864.4172,2.3944-.596,2.994-1.2089a8.6122,8.6122,0,0,0,2.0425-4.0808c.4959-2.53.4022-5.7913-2.2973-6.9332a206.9164,206.9164,0,0,0-70.276-16.2011c-24.0384-1.18-48.35,1.8291-71.0053,10.1189A150.3077,150.3077,0,0,0,246.7148,511.13a152.8291,152.8291,0,0,0-34.3395,55.4116,138.9049,138.9049,0,0,0-8.0085,46.707c.0494,6.0862.0029,26.71-6.8067,19.1431l-7.7935-5.4769-18.2829-12.8484C166.9135,610.8549,162.9048,622.6135,166.8928,625.416Z" transform="translate(-165.2594 -95.8959)"/></svg>