<svg id="Layer_1" data-name="Layer 1" xmlns="http://www.w3.org/2000/svg" width="520.774" height="350.2848" viewBox="0 0 520.774 350.2848"><defs><style>.cls-1{fill:#2e4ac0;}</style></defs><path class="cls-1" d="M-480.3217,466.9067c.0506.1121.14.2879.2847.5376l-.0012-.0037C-480.1391,467.2662-480.23,467.0866-480.3217,466.9067Z" transform="translate(964.6684 -292.0331)"/><path class="cls-1" d="M-453.5076,322.45c-3.526-9.5385-9.3748-19.7168-19.3478-23.6253-6.7415-2.642-13.6722-2.6693-20.7958-2.8406q-11.0073-.2648-22.0152-.5117-21.3866-.48-42.7746-.8927-86.8071-1.6755-173.6308-2.2487-86.5053-.571-173.0131-.0462-21.0758.1278-42.1513.3206a10.578,10.578,0,0,0-1.6467.1483,7.8607,7.8607,0,0,0-4.8291,1.16,21.6091,21.6091,0,0,0-10.2406,17.7376q-.2432,66.5214-.4056,133.0433-.0963,33.6493-.2014,67.2989-.0477,14.8629-.1014,29.7259c-.0477,13.7807.0166,27.9718,4.0439,41.2833,6.4415,21.2908,22.6568,38.6034,42.6117,48.0525,24.0427,11.3848,50.956,10.7918,76.8834,9.25,57.495-3.4189,114.89-2.0555,172.4076.0632,52.03,1.9165,104.6988,5.6534,155.567-8.07,12.5908-3.3967,24.4249-7.6124,34.9633-15.458a62.1684,62.1684,0,0,0,18.0578-21.4418,64.4706,64.4706,0,0,0,6.6636-23.4358c1.4392-14.8726,2.852-29.7476,4.156-44.6328,4.9529-56.5435,8.0758-113.5969,2.2777-170.2041C-448.2223,345.4782-449.42,333.5084-453.5076,322.45Zm-333.8263-3.8439q84.3056.2767,168.6033,1.5936,42.4638.6635,84.9226,1.59,10.379.2267,20.7575.469c2.963.0693,5.9531.07,8.9441.105-21.2894,12.3361-43.3094,23.4157-64.6052,35.78-31.67,18.3875-61.1922,40.46-89.9629,63.0439-14.3207,11.2411-28.4529,22.7186-42.564,34.2209-31.078-20.6164-63.4715-39.1423-95.8136-57.681-33.4047-19.1477-66.8526-38.3248-98.7969-59.859-8.3024-5.5969-16.6765-11.2145-24.5243-17.442-.7148-.5672-1.365-1.0888-1.9733-1.5866Q-854.8414,318.3956-787.3339,318.6056ZM-942.8256,555.3238c.0642.452.1454,1.2945,0,0Zm466.595,33.6454a3.05,3.05,0,0,1-.3349.5061c.201-.31.3438-.53.336-.5089Zm9.5824-97.14c-.8408,14.0608-1.9134,28.1067-3.1133,42.141q-.4071,4.7631-.8338,9.5242c-.0567.62-.28,3.0888-.3042,3.3506q-.2546,2.7834-.5136,5.5666-.9771,10.5051-1.9973,21.0063c-.3438,3.5622-.5026,7.1974-1.1742,10.7248.2221-.8265.0106.4282-.2735,1.2978-.109.44-.2305.8778-.3252,1.32.0863-.4028.1624-.7514.23-1.0584-.2189.6311-.45,1.2579-.7016,1.8767-.1286.3158-.2691.6265-.3979.9419-.0576.1416-.1036.2559-.14.35-.2768.4053-.5617.7964-.8106,1.1535-.6412.829-1.29,1.6484-1.981,2.4373-.1522.1739-.3329.3513-.5053.5318-.4745.4473-.95.893-1.4432,1.3217q-1.1311.9834-2.3217,1.8964c-.1891.1452-.7712.4956-1.07.7411-.0685.0437-.1354.09-.2041.133a60.4894,60.4894,0,0,1-6.084,3.37q-1.4755.7131-2.99,1.3482c-.1446.05-.32.1111-.5447.19-.8069.2816-1.6084.5766-2.42.8465-6.0607,2.0157-12.2814,3.6527-18.4857,5.1607a277.4614,277.4614,0,0,1-37.0776,6.3553c-10.0863,1.04-22.9678,1.5182-34.3588,1.5579-12.5554.0437-25.1078-.3469-37.6539-.7848-56.2224-1.9626-112.4874-4.7587-168.756-3.1379-13.5631.3907-27.0967,1.1762-40.6412,1.9554-13.4418.7732-26.9705,1.3-40.3859-.1656-12.2687-1.34-21.1708-3.5092-31.6056-8.7963a82.7822,82.7822,0,0,1-12.9825-8.1533q-1.4431-1.1074-2.8339-2.28c-.4643-.3916-.9215-.7908-1.3787-1.1905-.0816-.0715-.144-.1254-.1963-.1706l-.0785-.075a73.9808,73.9808,0,0,1-5.349-5.6409,68.6624,68.6624,0,0,1-8.7693-13.031c-.215-.4179-.4226-.841-.6289-1.2641-.1031-.2284-.2653-.5849-.3113-.6972-.481-1.1777-.9659-2.3506-1.3963-3.5484a68.6575,68.6575,0,0,1-2.5578-9.0955q-.4737-2.2518-.8137-4.5317c-.0195-.1736-.0424-.38-.0706-.6346-.0848-.7713-.1672-1.5423-.24-2.3149-.3092-3.2989-.47-6.6107-.5578-9.9223-.1553-5.8659-.0838-11.7363-.0629-17.6034q.111-31.1689.1985-62.3379.1833-62.1683.3645-124.3366,1.3089,1.2977,2.7029,2.5676c6.5911,6.0046,13.9868,11.08,21.294,16.16,15.874,11.0365,32.19,21.4249,48.7118,31.46,33.5039,20.3507,67.8578,39.25,101.6276,59.1485,18.8762,11.1226,37.5669,22.5686,55.78,34.7515a5.7835,5.7835,0,0,0,4.4937.5058c2.5607.2578,5.5051-1.0422,7.8643-2.9661,27.7276-22.613,55.478-45.2432,84.4628-66.2416q2.6563-1.9242,5.3261-3.83,1.2126-.8654,2.4288-1.7262c.1937-.1373.7228-.5092,1.09-.7676q5.6872-3.9793,11.4412-7.8622,11.0592-7.4492,22.4981-14.2957c15.205-9.0533,30.8724-17.2862,46.4294-25.7095,16.528-8.9491,32.8776-18.2252,48.478-28.7188.551.71,1.0821,1.4363,1.5737,2.2066.5957.9338,1.1484,1.8957,1.6654,2.8751.1408.2666.2718.5381.4068.8078-.072-.102.6164,1.4089.6789,1.563A79.8844,79.8844,0,0,1-470.14,352.37q.3591,1.7962.6624,3.6027.1518.8991.2912,1.8c.0177.1145.0624.4073.1059.691.0461.3351.1083.7828.1272.9332.081.6457.1572,1.2919.2329,1.9384q.3237,2.7668.616,5.5372c1.475,13.9421,2.4065,27.9386,2.8967,41.9491C-464.24,436.4919-464.9964,464.1989-466.6482,491.8287Zm-9.35,96.7468c.3327-.7152.8163-1.807.8209-1.8667A4.4935,4.4935,0,0,1-475.9982,588.5755Z" transform="translate(964.6684 -292.0331)"/><path class="cls-1" d="M-474.8824,467.7669l.0243-.0734c.0274-.111.0579-.2212.0825-.3328.0706-.32.13-.6428.191-.965-.0724.2693-.1911.7616-.3682,1.56C-474.9308,467.892-474.9039,467.83-474.8824,467.7669Z" transform="translate(964.6684 -292.0331)"/></svg>