<svg id="Layer_1" data-name="Layer 1" xmlns="http://www.w3.org/2000/svg" width="2629.9659" height="1790.527" viewBox="0 0 2629.9659 1790.527"><defs><style>.cls-1{fill:#2e4ac0;}</style></defs><path class="cls-1" d="M208.01-1581.8317q-2.1606,3.5029-4.6087,6.8136a99.067,99.067,0,0,1-13.5374,13.5816c-.2081.1469-.4227.2844-.632.43a87.5562,87.5562,0,0,1-13.7834-3.796,97.6723,97.6723,0,0,1-30.7161-21.1107,99.7016,99.7016,0,0,1-6.6815-7.5682,88.3359,88.3359,0,0,1-16.3767-37.9084,78.6981,78.6981,0,0,1-1.0231-12.6359,5.99,5.99,0,0,0-4.5975-3.8457,18.3291,18.3291,0,0,0-9.05-1.8165,61.2041,61.2041,0,0,0-13.1173.79,85.2668,85.2668,0,0,0-15.1718,2.93l-10.1548,3.1917a83.6091,83.6091,0,0,0-16.2042,7.7312l-5.3753,4.1078a8.4219,8.4219,0,0,0-3.6128,7.62,83.4251,83.4251,0,0,0,10.88,40.4711,113.1607,113.1607,0,0,0,14.3687,19.8659,99.2853,99.2853,0,0,0,15.8005,14.2963,95.5058,95.5058,0,0,0,18.4455,10.5047c7.9421,3.4032,15.9914,6.3356,24.5364,7.7634a136.1258,136.1258,0,0,0,35.42,1.4607,202.86,202.86,0,0,0,49.13-10.9957,166.5506,166.5506,0,0,0,33.7813-16.41,155.8618,155.8618,0,0,0,13.5235-9.9861,96.5527,96.5527,0,0,0,7.6389-6.8661,124.485,124.485,0,0,0,15.9618-19.7947,96.8765,96.8765,0,0,0,9.4456-18.43,102.8133,102.8133,0,0,0,5.5769-23.1885,81.5836,81.5836,0,0,0,.2531-20.56c-.9507-8.0316-2.9535-16.3572-7.4973-23.16a44.41,44.41,0,0,0-10.5436-11.3895,58.5544,58.5544,0,0,0-10.9893-6.1477,127.3734,127.3734,0,0,0-27.7187-8.9972,175.9521,175.9521,0,0,0-18.3275-2.4339,188.9045,188.9045,0,0,0-20.2871-.1683,163.2345,163.2345,0,0,0-16.7065,1.5293,258.2221,258.2221,0,0,0-26.7127,5.0339,213.8994,213.8994,0,0,0-21.4079,6.4817,196.1462,196.1462,0,0,0-19.9363,8.2763,184.7418,184.7418,0,0,0-17.388,9.5523,18.3277,18.3277,0,0,0-6.93,6.098,5.99,5.99,0,0,0-2.0587,5.6294,5.99,5.99,0,0,0,4.5975,3.8458,18.3285,18.3285,0,0,0,9.05,1.8164,92.7812,92.7812,0,0,0,28.2889-3.72c9.189-2.6032,18.2019-5.8656,26.3589-10.923.413-.256.8323-.501,1.2485-.7517.5507-.2748,1.1008-.5513,1.656-.8169q1.45-.1188,2.9028-.2016c3.1646.0553,6.3237.2518,9.4737.5657a109.2089,109.2089,0,0,1,20.675,5.5058c6.4684,2.8216,12.6675,6.4278,17.342,11.768,4.43,6.5918,6.4858,14.565,7.508,22.3707a80.4917,80.4917,0,0,1,.0828,19.7046A93.5137,93.5137,0,0,1,208.01-1581.8317Z" transform="translate(1091.421 1937)"/><path class="cls-1" d="M-166.0643-1322.0675c27.1957-3.042,54.5812-10.9158,80.6737-18.9979a740.8779,740.8779,0,0,0,107.0231-42.51c-4.0489,26.6073-15.9274,51.79-18.3362,78.7909-2.7548,30.88,3.9667,63.9209,31.4923,81.9883,21.336,14.0046,49.1047,14.3353,73.0791,8.36,23.8418-5.9424,44.3956-19.411,62.5978-35.4443,14.1241-12.4411,25.2715-27.5854,36.2469-42.7692q15.8509-21.9293,29.8593-45.1139,12.1326-20.0811,22.79-40.9887a259.3039,259.3039,0,0,0,34.9919,32.8027c32.1973,24.6973,72.819,35.78,113.1653,32.3465,43.0755-3.6654,90.9492-26.2435,108.8555-68.0023,8.2385-19.2128,10.5629-38.5322,7.9946-59.2621-2.2828-18.4255-9.69-36.1525-19.9559-51.5477a138.0078,138.0078,0,0,0-17.1388-20.8164q6.1179.1416,12.2358.283,34.5429.7985,69.0859,1.5968c16.3573.3753,32.03.0784,48.0529-3.49,17.4631-3.8893,32.6275-12.5631,46.064-24.0735,16.7558-14.3541,26.6412-34.8755,33.367-55.4589,6.0146-18.407,7.31-37.5822,5.5414-56.8029-3.2992-35.8632-24.7175-70.39-58.0588-85.4313a141.6933,141.6933,0,0,0-30.5593-9.8521q14.7043-13.0279,28.4044-27.08a465.5446,465.5446,0,0,0,37.4493-43.4047c8.5368-11.2433,15.521-21.5775,19.1982-35.3214,2.1609-8.0765,1.7706-18.1224-1.5785-25.8681-4.5482-10.5189-10.2156-17.2154-19.2693-24.2807-7.2482-5.6562-16.2252-9.5688-24.8389-12.5576-19.81-6.8736-40.9609-7.4392-61.6653-6-41.2447,2.8667-81.4676,15.6316-118.9367,32.6286-38.2621,17.3571-74.13,39.5408-110.3535,60.719-9.517,5.502-19.076,10.9323-28.7447,16.1639-8.7883,4.7557-17.66,9.6882-26.8456,13.7588-.0195-.0141-.0393-.0274-.059-.0415a49.171,49.171,0,0,1-6.268-8.6963c-6.9435-15.4869-9.5911-32.7611-13.1354-49.2248-4.1194-19.1351-9.2335-39.6963-21.5536-55.4147-23.7147-30.2568-68.7129-31.794-101.2462-16.0652-33.7666,16.3251-54.8167,47.7611-68.3225,81.6116q-8.0574,20.1948-14.3753,41.0261-8.9407-8.1114-18.2885-15.7876c-26.1753-21.3943-56.5484-39.7463-89.54-48.1958a195.1476,195.1476,0,0,0-63.3963-5.8752c-29.0016,2.1767-62.5255,13.3174-76.4522,41.1641-9.1882,18.3715-7.0719,39.4986-4.0207,59.0988a226.7985,226.7985,0,0,0,13.0735,48.0825,262.358,262.358,0,0,0,29.1354,54.559c12.1639,17.316,26.7164,32.2193,42.6858,46.0376,5.9887,5.1823,18.9841,5.8118,26.1489,5.215,9.5928-.7989,21.3924-4.4806,29.1058-10.48,6.0485-4.7044,13.2531-11.37,13.7849-19.5872q-.1938-3.4832-.3872-6.9661a19.1866,19.1866,0,0,0-8.5143-11.0314,230.7144,230.7144,0,0,1-47.3591-61.8553c-11.9766-24.7069-19.9893-51.7489-22.143-79.1694a69.6379,69.6379,0,0,1,.7146-11.9221q.8973-.0427,1.795-.0738a143.4779,143.4779,0,0,1,17.5453,1.8131,167.4038,167.4038,0,0,1,27.5882,9.2161c21.5386,10.5214,41.0268,24.709,59.092,40.4015,19.9611,18.0435,38.2855,37.785,56.0564,57.9655,9.8958,11.2375,28.6386,12.27,42.1426,8.2322a67.4743,67.4743,0,0,0,18.5958-8.6136c6.0789-4.12,12.846-11.9151,13.7849-19.5872a459.9025,459.9025,0,0,1,18.9046-85.5787c6.3743-18.9144,13.5928-38.0009,24.5385-54.7251,2.075-2.7206,4.2528-5.3538,6.5679-7.8645a55.9376,55.9376,0,0,1,6.49,9.2239c11.8923,26.236,11.8193,56.3178,22.7663,82.9113,3.1721,7.7061,6.9651,15.7331,12.4153,22.1408,7.3691,8.6641,16.08,14.0881,26.5083,18.2783,5.5393,2.2258,11.8508,3.3015,17.6684,4.0891,12.5634,1.7008,26.5732-.0435,38.6777-3.5348,15.8267-4.5649,30.4337-12.02,44.8968-19.7226,26.6747-14.2068,52.5552-29.8523,78.6518-45.0835,28.52-16.4648,57.569-32.2588,88.3857-43.9922a285.9622,285.9622,0,0,1,35.7223-9.7628,229.9108,229.9108,0,0,1,27.8988-2.5489q4.2594.228,8.4794.8542a83.0972,83.0972,0,0,1,9.2923,2.9834,55.53,55.53,0,0,1,6.4873,4.1159,35.43,35.43,0,0,1,3.4416,4.3266,29.0342,29.0342,0,0,1,1.1489,4.297,32.9924,32.9924,0,0,1-.6419,4.4586,63.243,63.243,0,0,1-4.7952,8.6773c-17.5821,23.7633-38.1,45.5768-60.0347,65.37a479.4869,479.4869,0,0,1-58.24,43.2251c-6.1273,3.8611-12.83,12.118-13.785,19.5871a18.59,18.59,0,0,0,4.966,14.7847,14.3155,14.3155,0,0,0,.4809,4.0762c1.8522,6.9122,9.2515,11.7818,15.7443,13.4865a54.9956,54.9956,0,0,0,29.1575-.4789c9.1938-2.7323,18.9891-6.8311,25.49-14.1639,1.0249-1.156,2.0882-2.2652,3.1839-3.3419q.8465-.6089,1.7114-1.1915c.1857-.0855.37-.1737.557-.2576q.4061-.1105.8134-.2167,1.4837-.1635,2.9725-.2748c2.1357.1066,4.2653.2783,6.3892.5355a90.9245,90.9245,0,0,1,10.6445,3.1895,83.3432,83.3432,0,0,1,13.7814,8.4212,84.7354,84.7354,0,0,1,15.5465,19.9152,107.0631,107.0631,0,0,1,9.6265,37.7649,129.3414,129.3414,0,0,1-6.4807,41.5863,111.05,111.05,0,0,1-10.8647,20.977q-1.3721,1.6259-2.84,3.1595c-.917.0622-1.8346.1222-2.7545.1618-26.03.0041-52.1278-1.2336-78.1392-1.8348q-43.072-.9957-86.1441-1.9911l-49.4689-1.1435c-17.5428-.4054-37.2149,4.7248-48.2363,19.3739-3.2808,4.3609-6.4943,10.6746-4.5039,16.3784,2.5647,7.3493,8.6234,11.04,15.7442,13.4865q8.04,2.7624,15.9105,5.9589a201.2924,201.2924,0,0,1,43.8384,26.1228,128.4792,128.4792,0,0,1,26.7269,32.3459,108.4292,108.4292,0,0,1,10.2149,37.6734,91.1534,91.1534,0,0,1-3.9089,27.545,77.2639,77.2639,0,0,1-6.7555,12.6451,76.3265,76.3265,0,0,1-5.2676,5.5849q-1.8416,1.3581-3.7572,2.6089-1.6374.7863-3.3058,1.5044-2.0723.5949-4.1683,1.0971-3.66.4571-7.3409.6672a124.3792,124.3792,0,0,1-12.6315-1.0919,127.0851,127.0851,0,0,1-17.9779-5.334,154.0545,154.0545,0,0,1-31.2944-19.914c-24.7145-21.6466-43.908-48.63-62.6873-75.3818-2.6419-3.7635-8.486-6.3639-12.7-7.6461-7.74-2.3553-16.0823-1.91-23.9093-.48a62.0624,62.0624,0,0,0-19.5969,6.96c-5.523,3.1011-13.5673,8.2691-15.917,14.51A662.0455,662.0455,0,0,1,128.94-1291.9524a178.73,178.73,0,0,1-21.0819,22.8464c-2.974,2.32-6.0357,4.513-9.2148,6.5388-.0916.0445-.1838.0875-.2755.1316a47.6417,47.6417,0,0,1-4.4617-2.7587,49.1777,49.1777,0,0,1-7.1743-9.1835,78.1238,78.1238,0,0,1-6.0324-25.3987c-.166-20.9788,5.9087-40.4849,11.66-60.574,7.4688-26.0885,13.5431-55.2627,3.024-81.4355-4.1574-10.3439-14.0027-14.1329-24.5438-15.0441-13.9586-1.2063-27.2542,3.2924-39.0066,10.4518q-8.6284,5.2565-17.4173,10.2379a668.456,668.456,0,0,1-91.42,41.4891,599.3,599.3,0,0,1-76.2854,21.42c-2.4271.362-4.86.6575-7.3048.8574-.3766-.0249-.7526-.0662-1.1288-.0979-.4323-.1213-.86-.2614-1.2891-.395a42.3959,42.3959,0,0,1-3.7838-2.3294,42.5819,42.5819,0,0,1-5.5693-7.129,63.9787,63.9787,0,0,1-4.6762-19.7035,115.9639,115.9639,0,0,1,6.148-36.55c6.8778-17.3976,17.2248-33.688,28.2439-48.7859A312.5114,312.5114,0,0,1-99.5124-1533.04a316.0378,316.0378,0,0,1,39.6616-27.45,307.7119,307.7119,0,0,1,36.5875-16.7082q8.1924-2.7439,16.5278-5.0308c9.0045-2.4627,18.9929-7.2144,25.4906-14.164,4.2836-4.5814,9.2486-12.7978,6.8916-19.5519-6.0044-17.2064-30.7388-16.8815-44.9018-13.0077-90.3982,24.7246-171.7644,85.2653-216.7759,168.1023-17.8977,32.938-29.0475,78.2557-6.9051,111.9624C-226.7882-1324.3063-193.03-1319.0514-166.0643-1322.0675Z" transform="translate(1091.421 1937)"/><path class="cls-1" d="M1536.2347-572.5465c-165.7131-32.1427-334.2946-45.9446-502.8782-50.3317-169.9088-4.4216-340.114-.7054-509.9382,5.3268Q265.686-608.3964,8.5212-587.9338q-256.1424,20.38-511.2251,51.9287-255.9519,31.5961-510.3523,74.4073-31.6318,5.3238-63.2341,10.82c-3.0289.5261-15.0251,3.0285-15.13,7.3311-.1133,4.66,7.4994,3.48,10.4985,2.9588Q-576.8436-528.0511-66.4775-571.6044c337.0109-28.6651,676.406-45.6842,1014.7075-41.4743,181.3861,2.2573,363.1372,13.6748,541.7686,46.2585q-283.4125,42.2862-565.9394,90.2381Q623.4081-425.5018,323.8759-367.93C217.2872-347.2931,110.6357-324.2,9.4426-284.02c-1.209.48-10.038,3.9968-8.3877,6.7719,39.5506,66.5105,144.2956,37.7461,204.7278,28.3036q143.9517-22.4925,287.9036-44.9848L232.8836-152.9711c-15.1024,8.1625,8.6371,7.5537,15.1135,4.0533q140.8-76.0987,281.5993-152.1979c9.7337-5.261,2.5588-8.39-5.2412-7.1716q-144.2088,22.5321-288.4176,45.0649c-40.5668,6.3385-82.0331,15.9866-123.2362,16.3871-31.6312.3073-65.5985-6.8328-83.9477-34.5473,86.84-33.3511,177.6877-54.0544,268.8031-72.0228,97.8509-19.2967,195.963-37.3508,294.0847-55.2114q296.9838-54.0576,595.0755-101.7725,168.1419-26.9136,336.5989-51.8027C1525.8128-562.5612,1545.0889-570.8288,1536.2347-572.5465Z" transform="translate(1091.421 1937)"/><path class="cls-1" d="M-798.3816-1001.5107c-3.5587-3.5776-16.448-2.4816-20.9665-2.7691a286.5743,286.5743,0,0,0-32.3184-.2293c-7.9434.3922-28.4171-1.9963-15.2167-12.433,5.8827-4.651,16.4874-7.894,23.9611-8.4139,15.6409-1.0881,31.3088,2.3591,46.8617-.747,2.7815-.5555,5.4553-70.2144,5.9773-76.4775,2.9593-23.6749,3.988-47.7689,5.9631-71.5491,1.404-16.9047,4.3327-33.6353,14.0532-47.9529,18.2257-26.8452,51.8731-34.76,82.5448-30.8754,21.822,2.7636,38.93,18.8536,47.3922,38.5921a5.1864,5.1864,0,0,1,.5957,2.7264,4.9105,4.9105,0,0,1-1.9727,2.8327c-14.0964,11.8131-28.1259,1.9034-38.3494-9.5249-7.173-8.0184-15.5558-15.4578-25.8009-18.742-23.8762-7.654-37.6576,12.6059-41.8122,33.3678-6.164,30.8032-9.3129,62.129-11.3671,93.4478-.4674,7.1271-4.3935,85.8118-3.4609,85.8118,29.7342,0,59.3254,0,93.6312.0035-7.8194,13.6681-19.87,18.6278-35.3174,18.9062-21.3436.3847-42.5265-.0193-63.8968-.0193q-2.7328,98.3194-5.09,196.7188c-.107,4.4845-.2422,9.1021-2.0469,13.2087-3.4364,7.8192-15.3429,10.6518-22.638,6.3872-6.3423-3.7075-7.2009-11.927-7.3886-18.5671-1.7393-61.5024,2.1437-122.3793,7.0028-183.6312C-797.6033-996.9513-796.7964-999.9021-798.3816-1001.5107Z" transform="translate(1091.421 1937)"/><path class="cls-1" d="M-169.4953-816.1276c-1.7528,4.9866-7.3275,6.8141-12.1894,7.0474-6.682.3206-12.8062-3.8322-17.3486-8.7433-8.5873-9.2846-16.1152-19.7546-23.8273-29.7649-5.7683,8.0835-10.8024,16.1956-16.8615,23.4518-31.62,37.8668-86.506,31.0932-101.4206-15.5779-12.2148-38.223-16.2922-79.1576-22.1491-119.1579-1.2538-8.5627,7.96-15.3177,15.451-16.3275,4.1416-.5584,8.6882.6967,11.3427,3.9245,1.8268,2.2213,2.6009,5.1033,3.2671,7.9011,9.602,40.3213,7.1107,85.9252,27.2218,123.2281,4.9748,9.2275,14.5294,18.9209,25.9037,16.028,19.4559-4.9489,28.7025-25.0447,33.97-42.64,5.3627-17.9152,9.6708-36.12,14.0062-54.3041,4.15-17.4088,6.8034-37.8484,16.5816-53.2242,2.3439-3.6858,5.6894-6.9025,9.846-8.2448,12.7374-4.1134,14.0186,8.6573,13.7328,17.7607-.6738,21.4581-5.5082,42.524-4.7892,64.0787.5154,15.4523,5.0405,30.3938,10.9421,44.5783,3.0311,7.2853,6.4422,14.4046,9.9127,21.4886,2.5028,5.1088,8.4127,12.41,6.4677,18.3237Q-169.4649-816.214-169.4953-816.1276Z" transform="translate(1091.421 1937)"/><path class="cls-1" d="M-562.7109-1176.2185l.0313.0174c-28.2576,100.7806-29.1887,206.9722-28.0265,310.8728.1445,12.9241.9056,25.8634-.1736,38.7692-1.5194,18.17-22.6974,27.97-29.6131,6.6758-1.6893-5.2018-1.696-10.7785-1.6866-16.2477.07-41.0331.2715-82.0137,1.7341-123.0266,1.7432-48.88,5.0407-97.7271,10.9674-146.2879C-606.9-1126.5676-599.214-1196.4426-562.7109-1176.2185Z" transform="translate(1091.421 1937)"/><path class="cls-1" d="M164.0493-849.3308c-3.8239,5.7077-12.4864,11.674-15.7956,14.164-22.36,16.8251-50.8675,24.3413-78.633,23.4267-23.2125-.7646-56.4145-6.029-67.1215-29.8519-5.5595-12.37-3.62-26.6945.142-39.2741a261.5594,261.5594,0,0,1,31.5575-67.79c14.07-21.4172,38.6925-30.57,63.68-27.03,20.9337,2.9658,28.99,17.1885,21.233,36.629-11.4544,28.7059-33.4217,46.2537-62.7777,54.7658C44.5966-880.8873,30.1192-881.16,31.09-862.8822c.7478,14.063,11.78,23.2071,24.764,27.0771,16.4772,4.9112,35.1675,3.8478,51.1463-2.2026,16.5566-6.2693,30.5589-16.6016,48.0676-20.73a15.3459,15.3459,0,0,1,5.9927-.5428,5.7429,5.7429,0,0,1,4.605,3.4717C166.3321-853.8494,165.5767-851.6108,164.0493-849.3308ZM41.1524-901.6582c45.4029-10.4509,66.6453-54.6177,45.6956-54.6177S50.4958-927.7184,41.1524-901.6582Z" transform="translate(1091.421 1937)"/><path class="cls-1" d="M691.0389-843.8327q-.1526.183-.3071.3637c-14.0667,16.457-38.7313,24.5542-59.2715,28.8139a158.8974,158.8974,0,0,1-67.6847-.6631c-20.811-4.7957-42.7281-13.5964-53.1043-33.626-7.9575-15.361-7.1519-33.758-2.3855-49.971C518.9187-935.0828,550.1246-964.4074,586-974.929c15.5553-4.562,32.3437-5.8682,47.991-1.6329,5.8808,1.5917,11.9579,4.2878,15.03,9.5491,2.2066,3.78,2.5365,8.4161,1.8469,12.7379-1.9637,12.3053-11.343,22.0609-21.198,29.6868-13.9173,10.7693-29.612,18.9753-45.7373,25.8994-8.0833,3.4709-16.3015,6.8636-24.6328,9.6982-2.5166.8563-26.0217,6.6744-26.0283,7.8315a49.0047,49.0047,0,0,0,21.2749,40.1271c16.8715,11.3919,39.6082,10.4166,59.0125,8.8628,22.75-1.8218,46.5792-5.67,64.4357-19.8838,2.2386-1.7819,4.4215-3.7482,7.102-4.749s6.0634-.7828,7.95,1.3685a6.7989,6.7989,0,0,1,1.0921,6.2961A14.9384,14.9384,0,0,1,691.0389-843.8327ZM541.178-907.3843c-.0582.2138-.7673,5.1988.33,6.4828,3.2385,3.79,13.8307-1.2122,13.8307-1.2122s57.3948-21.4547,64.6368-49.7241a8.0154,8.0154,0,0,0,.0363-5.1707c-1.0442-2.3774-3.867-3.3472-6.4163-3.8408C579.9575-967.3633,549.2493-937.0537,541.178-907.3843Z" transform="translate(1091.421 1937)"/><path class="cls-1" d="M-389.5185-850.3261q.3177.0159.6243.0536c4.2577.5272,7.3661,5.3879,3.5316,8.8515-34.69,31.3346-97.8983,49.509-136.4278,14.6448-19.5055-17.65-24.3167-41.0776-23.4744-66.1988,1.7263-51.4855,37.7684-95.4993,91.2574-95.2419,11.0573.0532,24.31,3.2762,29.68,14.0854,4.8912,9.8444.71,22.3129-3.6382,31.62-15.474,33.1211-47.2037,51.4427-83.22,53.9125-3.2271,22.2208,1.061,44.4523,22.7827,54.5086,7.6333,3.5339,16.0351,5.1261,24.4155,5.8513,9.5869.8295,19.4087.5389,28.5833-2.3636,11.3673-3.5962,21.0147-10.8908,31.9047-15.5531C-399.75-847.7607-393.8768-850.5447-389.5185-850.3261Zm-122.3562-59.7958a6.5825,6.5825,0,0,0,3.077,4.8263,10.155,10.155,0,0,0,5.3056,1.02c16.6666-.3717,30.3347-13.8467,39.987-26.093,3.7319-4.7347,7.29-9.7273,9.3231-15.4028,1.8244-5.0925,2.263-11.12.3831-16.2641-2.0716-5.6692-6.6745-8.27-12.4867-8.2689-18.0654.0029-30.5078,14.6536-37.1842,30.14C-505.7187-934.9477-513.4812-918.8606-511.8747-910.1219Z" transform="translate(1091.421 1937)"/><path class="cls-1" d="M-117.52-965.29c19.7781-11.1372,29.0637-15.3586,45.3847-19.2888,23.6441-5.6932,48.6086,5.2846,58.6914,23.4344,6.985,12.5736,7.29,27.4191-9.8876,30.7847-7.6771,1.5042-13.178-3.3824-16.4333-9.8121-3.83-7.5655-6.0256-15.13-14.3273-18.9953-6.979-3.2491-15.1506-2.3759-22.3581-.4274-16.1562,4.3678-34.134,17.3466-35.5548,35.4244-.8112,10.3222,2.8112,21.9015,4.6926,32.0063,2.81,15.0908,6.2373,30.0348,9.4527,45.04,2.5025,11.3232,1.5365,19.9057-11.384,22.6723-12.123,2.5959-18.0854-2.7585-20.4317-14.9738-7.118-37.0594-14.9666-73.98-22.6366-110.9318-1.0137-4.8836-3.0908-9.7127-3.1771-14.7477-.1139-6.6363,3.2814-10.8479,9.5383-12.3881C-137.6551-979.5351-128.5078-976.4273-117.52-965.29Z" transform="translate(1091.421 1937)"/><path class="cls-1" d="M290.6258-875.0092c-10.3111-5.7388-21.9266-9.75-32.6869-14.0337-14.978-5.9633-29.97-11.8923-45.0457-17.6058-21.5406-8.1639-24.0052-18.9884-6.3708-33.8381,15.4542-13.0146,32.9217-16.2533,53.16-12.0613,6.1008,1.2639,20.8841-2.8228,21.3369-10.859s-10.5868-12.3558-16.83-13.5441c-33.12-6.304-62.733,2.2031-86.6942,26.3527-26.1777,26.3835-19.6491,52.9663,14.8875,65.8054,10.9921,4.0864,22.0115,8.1825,32.9234,12.5185,11.6522,4.63,23.1814,9.5341,34.4135,15.0152,5.3026,2.5879,12.483,7.0759,13.1731,13.5792a10.9081,10.9081,0,0,1-2.4716,7.6464,24.8927,24.8927,0,0,1-6.2129,5.3469c-11.8552,7.7815-25.6734,11.8028-39.4229,14.7106-7.3074,1.5455-23.2212,3.9077-23.2212,13.9175,0,8.9663,14.0689,10.2284,21.0182,10.1154,28.8968-.47,60.0062-12.764,78.4759-35.76a40.8638,40.8638,0,0,0,7.2774-13.1749c2.1585-6.8347,2.001-14.6482-1.6827-20.7966a29.749,29.749,0,0,0-8.6314-8.7174A82.2066,82.2066,0,0,0,290.6258-875.0092Z" transform="translate(1091.421 1937)"/><path class="cls-1" d="M519.5807-833.0754c-3.0612-6.2944-20.26,1.5249-30.5044,5.6364s-35.47,6.883-53.17,6.6854c-19.4009-.2165-39.0822-5.5277-51.2838-21.4627-25.7128-33.58-7.2324-72.764,13.4648-103.18,7.5457-11.0893,16.7129-14.06,29.2931-13.8158,5.0251.0973,15.6854.95,16.0428-8.2777,0-14.9412-35.6272-21.698-60.0858,2.7608-24.0849,23.84-39.8973,52.3447-44.9834,85.74-2.6724,17.5467-.2452,34.5389,12.5953,47.8862l-7.5507-8.1853c15.0116,17.4349,29.8193,27.9759,52.0354,33.7611,41.428,10.788,92.4414,3.6876,116.4707-14.9435C516.6321-824.1361,522.4529-827.9425,519.5807-833.0754Z" transform="translate(1091.421 1937)"/><path class="cls-1" d="M940.15-911.9661a97.1521,97.1521,0,0,0-25.76-42.3649c-28.8929-27.5408-77.2556-14.5478-106.6246,5.0932-16.6337,11.1241-29.5284,26.3685-43.2186,40.75-5.14-24.8958-9.5011-46.7447-14.2089-68.5186-2.425-11.2148-9.5051-19.4623-20.8112-13.8787-5.7523,2.8406-11.414,13.72-10.78,20.361,4.1737,43.7692,9.6633,87.4314,15.85,130.97,1.2123,8.5242,7.9679,19.4631,17.83,16.3351,17.9473-5.6937,19.1584-27.0191,24.9592-41.7535,7.52-19.1027,18.5108-38.2514,32.9038-52.9951a102.9476,102.9476,0,0,1,20.4056-16.2483q4.0283-2.4323,8.4129-4.5506c15.404-7.42,34.8954-10.7846,49.6059.04,12.7543,9.3852,16.1489,24.4286,17.738,39.3056a198.6706,198.6706,0,0,1,.1777,40.419c-.8333,8.513-7.4361,24.04,4.0776,27.8315a26.3426,26.3426,0,0,0,3.993.9357c6.1426,1.0041,12.6379-.2942,16.6889-5.3562,4.9-6.1231,7.0565-15.02,8.7081-22.5065,3.8407-17.4078,5.2289-35.7078.3056-52.9947Q940.2789-911.5291,940.15-911.9661Z" transform="translate(1091.421 1937)"/><path class="cls-1" d="M1286.4882-859.0417c-17.3443,8.7112-32.7411,21.6207-52.1807,25.1658-14.3249,2.6124-43.3929,1.76-55.6876-7.1825-26.3913-22.1549-20.0184-46.2689-19.12-49.0548.9953-3.0848,6.3312-2.9481,9.7792-3.8746a135.1917,135.1917,0,0,0,24.7793-9.3626c18.7706-9.2751,44.8736-25.612,47.9887-48.2857,3.904-28.4157-32.2646-36.99-54.0781-35.04-22.7376,2.0324-42.5587,18.3793-53.0324,38.663-6.341,12.28-9.6533,25.9064-10.8809,39.62a158.1622,158.1622,0,0,0-.4014,21.1807c.0958,2.1363,2.4688,18.3453,1.3521,18.8873-12.7928,6.21-22.43,10.746-35.0622,17.0131-5.53,2.7437-16.777,4.46-22.7618,5.24-28.0484,3.6537-58.3366-12.5518-59.9935-37.2487-1.388-20.6852,7.2682-47.5029,13.8138-62.261a56.8189,56.8189,0,0,1,12.26-17.0432c5.1208-4.9642,11.7482-8.4025,18.9741-8.5925,8.5362-.2244,23.0082,5.7713,28.2068-3.982-.0084.0158-13.6264-3.9082-14.8977-4.1776-10.8931-2.3081-21.8142-3.2392-32.7173-.53-14.4585,3.5981-26.3053,12.9969-34.849,25.002-13.6544,19.1864-19.88,43.0618-22.2141,66.19-.8246,8.1718-.5226,16.6573,2.6158,24.2473,3.9173,9.4734,11.9693,16.7642,20.9493,21.7087a102.87,102.87,0,0,0,52.734,12.3246c26.6146-.9611,51.9465-11.6561,76.2535-25.0957-.9025.499,13.7938,16.436,15.2548,17.7141,33.5253,29.3278,84.8091,31.046,124.743,15.1622a126.3162,126.3162,0,0,0,44.3475-29.398c1.56-1.62,4.2364-3.7089,5.1859-5.7542,1.3489-2.9056-.2432-3.8284-3.2344-5.447C1305.5273-868.1706,1294.8279-863.23,1286.4882-859.0417Zm-71.84-98.7525c9.8847,17.6682-28.9457,34.2059-53.8529,41.8244C1161.0182-964.24,1204.7637-975.4624,1214.6486-957.7942Z" transform="translate(1091.421 1937)"/></svg>