<svg id="Layer_1" data-name="Layer 1" xmlns="http://www.w3.org/2000/svg" width="111.2706" height="78.8839" viewBox="0 0 111.2706 78.8839"><defs><style>.cls-1{fill:#2e4ac0;}</style></defs><path class="cls-1" d="M1383.1507,496.1589l.0014-.0009a.4553.4553,0,0,1,.1083-.0992C1383.2093,496.0906,1383.1552,496.1323,1383.1507,496.1589Z" transform="translate(-1365.7294 -458.8816)"/><path class="cls-1" d="M1472.0929,499.1863a14.5313,14.5313,0,0,0-5.7531-4.8676,16.4541,16.4541,0,0,0-7.6542-.8982c0-.03.0028-.06.0023-.0905a41.6831,41.6831,0,0,0-5.52-19.4238,31.9577,31.9577,0,0,0-5.99-7.8055,23.3971,23.3971,0,0,0-3.8543-2.9837,22.9948,22.9948,0,0,0-4.7336-2.06c-8.4192-2.7638-17.3968-2.6547-26.0345-1.0117a47.6414,47.6414,0,0,0-12.7424,3.9047,23.9248,23.9248,0,0,0-8.7716,7.9517c-4.2032,6.124-5.7552,13.8256-5.8912,21.145-.0019.1041-.0024.2081-.0037.3121a17.0109,17.0109,0,0,0-6.0323.5767,14.9847,14.9847,0,0,0-6.4744,4.4,26.9749,26.9749,0,0,0-6.3016,12.3582,23.9638,23.9638,0,0,0,.5912,12.8974,21.4623,21.4623,0,0,0,7.0707,9.817,20.0313,20.0313,0,0,0,12.3111,4.3569,2.1367,2.1367,0,0,0,.684-.1188,1.5043,1.5043,0,0,0,1.0589-.2181,4.2392,4.2392,0,0,0,2.0272-3.5111q-.4533-14.38-.6588-28.7654-.0582-4.0924-.0961-8.185a1.4234,1.4234,0,0,0-.7731-1.3437,3.929,3.929,0,0,0,.7479-2.2932c-.05-1.6679-.0261-3.3373.0872-5.0022q.0215-.3152.0472-.63a2.1872,2.1872,0,0,0,.0238-.2383c.0426-.3975.0837-.795.1344-1.1917q.16-1.2534.3939-2.4961.2338-1.2348.5473-2.4528c.0222-.0857.1565-.5652.1282-.4765l.0392-.132q.1911-.637.4075-1.266.4013-1.1628.8945-2.2912c.06-.1369.1224-.2728.1843-.4089l.0415-.0828q.2891-.5806.6069-1.1467.2744-.4873.5708-.962.1592-.2547.3246-.5052l.0449-.0669.0063-.0086a23.35,23.35,0,0,1,1.4976-1.8609c.1137-.1258.2411-.2443.3481-.3756l-.0925.1132c.05-.0581.1032-.1175.1406-.1538q.4608-.4488.95-.8668.4271-.364.8753-.7027c.0478-.0362.096-.0718.144-.1075a6.0185,6.0185,0,0,0,.5507-.3725,21.0689,21.0689,0,0,1,2.6946-1.4467c.1749-.0788.3513-.1546.5279-.23.0111-.0019.4213-.1674.4864-.1921q.7289-.2762,1.47-.5176c1.9733-.6467,3.9945-1.1585,6.0211-1.6078,7.9879-1.7708,16.2737-2.2676,24.341-.1977a23.3607,23.3607,0,0,1,8.8315,4.0973q.4059.321.7968.66c.0807.07.16.142.2409.2119.0079.0068.0574.0514.0907.0811l.04.0373c.0979.0933.1961.1861.2931.28q.8262.8022,1.5811,1.6736a32.6886,32.6886,0,0,1,2.79,3.7342,39.2638,39.2638,0,0,1,2.3781,4.2581c.0479.0993.095.1989.1422.2985q.1188.26.2344.5211.2479.5619.48,1.1309.4618,1.1335.8594,2.2919a42.18,42.18,0,0,1,1.301,4.6226q.25,1.1353.4312,2.2844c.0076.0479.0283.1854.045.295.0089.0745.05.3805.0558.4275q.0661.5529.1141,1.1077.0924,1.0764.1087,2.157a1.75,1.75,0,0,0,.1469.6944,4.3056,4.3056,0,0,0-1.2936,2.9426q-.1345,14.3861-.5167,28.7683-.1089,4.0913-.2382,8.182a1.3051,1.3051,0,0,0,1.33,1.4485,1.027,1.027,0,0,0,.4677.1047c8.9115.0441,16.7288-5.95,20.4129-13.8282A24.6463,24.6463,0,0,0,1472.0929,499.1863Zm-95.7883,28.7969c-.1649-.14-.3282-.2819-.4882-.4273-.0127-.0142-.2037-.1952-.2422-.2328q-.52-.5073-1.0039-1.0506a19.78,19.78,0,0,1-2.9855-4.4251c-.0119-.0242-.0668-.141-.0971-.2046l-.0354-.08c-.0952-.2227-.19-.4453-.2781-.6708q-.2622-.6692-.4739-1.3567a20.2044,20.2044,0,0,1-.6319-2.6948c-.0163-.0995-.0312-.1993-.0461-.299l-.009-.0839c-.0238-.2216-.048-.4429-.067-.6649q-.0606-.714-.074-1.4308-.0123-.6695.0161-1.3387c.0108-.2552.0275-.51.0455-.7646l.0051-.0548c.0129-.107.0306-.2563.0312-.2617a23.0011,23.0011,0,0,1,.497-2.7364c.0289-.1177.07-.2412.1052-.3649a.7653.7653,0,0,1,.0317-.16l.0218-.07c.0031-.0186.0081-.0376.01-.0561l-.0049.0385c.0289-.0932.0572-.1866.087-.28q.22-.6864.4827-1.3583c.1549-.3963.3265-.7841.4975-1.1733.0252-.0513.0505-.1025.0763-.1535q.1952-.3858.4052-.7639.3263-.5879.6872-1.1556c.05-.0785.3192-.572.3691-.5617.0013,0-.4381.61-.1042.1571.0759-.1031.15-.2073.2269-.31q.4982-.6681,1.0472-1.2963.1019-.1162.2053-.2313c.0168-.0187.4747-.4752.177-.1983-.2752.2561.0511-.048.1174-.1123q.1849-.1791.3758-.3522.3051-.2754.6267-.5321c.08-.0635.1661-.1219.2436-.188l.027-.0238.0358-.0219c.2326-.1439.462-.2909.7023-.422q.18-.0983.3647-.1888c.0288-.0141.2575-.1162.3439-.157l.1136-.0435c.1677-.0575.3351-.1147.505-.166q.4074-.123.8232-.2143.4689-.1036.9448-.1712c.106-.0152.2122-.0287.3185-.0415.0451-.0054.2837-.0262.3114-.03a23.1624,23.1624,0,0,1,3.6024.0774,1.8408,1.8408,0,0,0,1.041-.2388,3.532,3.532,0,0,0-.0931.8191q.1345,14.3861.5167,28.7683.0579,2.1707.1217,4.3412a17.3989,17.3989,0,0,1-7.4154-2.82A20.6314,20.6314,0,0,1,1376.3046,527.9832Zm21.3913-58.0015.0162-.012C1397.9837,469.7651,1397.8155,469.8976,1397.6959,469.9817Zm53.211,10.7657.01.0218C1450.8855,480.7014,1450.8318,480.5836,1450.9069,480.7474Zm21.3545,40.1723c.0067-.0263.0128-.0509.0175-.0715C1472.2742,520.8715,1472.2688,520.8948,1472.2614,520.92Zm.582-3.69a3.3479,3.3479,0,0,1-.0479.7626c.0045-.0141.0485-.4442.0133-.1616-.0157.1262-.0273.2531-.0426.3794q-.0865.7107-.2213,1.4143c-.0842.438-.1875.8709-.2954,1.3036-.0117.0465-.02.0809-.0269.11-.017.047-.0336.0924-.0452.13q-.1149.3654-.2438.7263-.2193.6128-.48,1.21c-.0317.0724-.069.1457-.1023.2193-.0807.1591-.161.3185-.2458.4757q-.3226.5988-.687,1.1741c-.0366.058-.1922.2884-.2567.387-.0735.1017-.1515.2092-.1846.2535q-.3807.509-.7929.9933-.2059.2421-.4193.4778c-.0762.0841-.1544.1664-.2308.25a23.9724,23.9724,0,0,1-1.94,1.7077c-.0342.0265-.3119.2072-.4709.3287.0853-.0531.1591-.0772-.0338.05l-.0744.0494-.0026.0066.0012-.0057c-.1006.067-.2006.1347-.302.2q-.6461.4188-1.3224.7882-.6349.3465-1.2941.6463c-.1182.0538-.5118.2179-.4472.1955-.2047.08-.41.1574-.6176.23a18.445,18.445,0,0,1-2.8715.76c-.4325.0773-.8687.14-1.3063.1837-.0451.0031-.1335.01-.1627.0111-.1506.0062-.301.0171-.4517.0228q-.2048.0076-.4095.01.42-13.6806.6163-27.3666.0464-3.2726.0788-6.5452a15.17,15.17,0,0,1,5.3917.4684,10.8671,10.8671,0,0,1,4.5525,3.1447,21.9685,21.9685,0,0,1,3.2022,4.7141c.058.1144.1141.23.1707.3444l.05.1048c.03.068.0913.202.1013.2248q.0581.132.1145.2646.3007.7077.5536,1.4346a23.2238,23.2238,0,0,1,.7563,2.68c.1024.469.1873.941.2633,1.415l.0153.0929c.0022.0234.0058.0565.0111.1048.0318.2858.0626.5714.0857.858A22.122,22.122,0,0,1,1472.8434,517.23Z" transform="translate(-1365.7294 -458.8816)"/></svg>