<svg id="Layer_1" data-name="Layer 1" xmlns="http://www.w3.org/2000/svg" width="498.7985" height="463.2966" viewBox="0 0 498.7985 463.2966"><defs><style>.cls-1{fill:#2e4ac0;}</style></defs><path class="cls-1" d="M296.25,468.106c.6331-1.3588,1.2329-3.4018,0,0Z" transform="translate(-199.4527 -235.5272)"/><path class="cls-1" d="M686.8582,341.9612c-2.6048-6.0991-5.6531-11.3432-10.4989-15.7875-4.983-4.57-11.4334-6.4144-17.9842-6.7983-16.0818-.9424-32.2715-.92-48.3741-1.3093q-24.8238-.6-49.65-1.0907-36.1335-.715-72.2713-1.1974a8.7892,8.7892,0,0,0-1.5726-5.5882c-15.3936-20.3833-30.8966-41.5258-50.2327-58.1252-8.7695-7.5283-18.9789-13.4651-30.3684-15.2615-6.38-1.0062-12.8566-.5788-19.2747-.3507q-9.9548.3538-19.9167.4326c-26.7618.2492-53.5141-.7014-80.2691-1.1428-13.4769-.2223-26.9574-.3168-40.4347-.0641-6.6928.1254-13.7066-.1783-20.3381.85-8.1652,1.2657-14.412,8.5521-17.3313,16.1855-2.3577,6.165-2.4979,13.0544-3.07,19.59q-.9621,10.9911-1.6932,22c-.709,10.8388-1.2632,21.6879-1.73,32.5407a20.5555,20.5555,0,0,0-1.5542,7.59q-.249,78.6051-.4137,157.2106-.0983,39.2234-.2084,78.4466c-.0821,28.0572-2.6576,58.7159,12.2259,83.5927,10.7017,17.8869,30.469,31.4645,50.2715,35.8733,10.6154,2.3634,21.8262,2.6266,32.6275,3.2172,38.186,2.0881,76.4722,2.4134,114.7,2.9607,36.6238.5244,73.2343.9718,109.8371,2.3993,28.4491,1.11,57.0455,1.48,85.192-3.6616,14.9336-2.7279,30.1139-6.6413,44.0875-12.8281a66.7448,66.7448,0,0,0,27.9717-23.1776c5.77-8.5357,10.2511-18.1211,11.8175-28.5121,1.0764-7.1409,1.3126-14.5066,1.911-21.7074q1.0262-12.3529,2.0059-24.71c2.6591-33.798,4.8929-67.6492,5.654-101.557a858.5493,858.5493,0,0,0-3.0782-100.0419C693.624,368.4818,692.1943,354.454,686.8582,341.9612ZM238.2167,262.1448c12.6728-.2089,25.3484-.1193,38.02.0865,25.3478.4115,50.6912,1.29,76.0446,1.1848,12.41-.0516,24.9071-1.1056,37.3037-.7121,10.803.3429,19.05,3.919,27.97,10.6134,9.8566,7.3972,17.9593,16.5947,26.29,26.445,4.3242,5.1133,8.5109,10.3465,12.6281,15.6387q-95.811-1.0173-191.63-.42-21.4362.1345-42.8712.3549.5487-12.7525,1.292-25.4949.5033-8.4613,1.1315-16.9139.1614-2.1375.3329-4.2738c.0447-.5565.23-2.73.2445-2.9349q.1454-1.6237.2961-3.2471,1.6458-.0562,3.2915-.1068Q233.3881,262.2232,238.2167,262.1448Zm-18.5676.6757c.206-.0333.5975-.0978.8877-.15l.0373-.0019C219.3539,263.7319,219.05,263.34,219.6491,262.8205Zm-.3479.0638c-1.1909.5431-.5439.1423,0,0Zm20.2874,382.1244c-.2169-.189-.1473-.13,0,0Zm436.247-102.493c-.9451,16.5213-2.12,33.0277-3.4045,49.5241q-.962,12.3606-1.9919,24.7154-.4851,5.862-.9766,11.7235c-.134,1.5973-.2552,3.1983-.3966,4.7962-.05.4138-.131,1.1-.1787,1.44-.1719,1.2268-.4229,2.4311-.6867,3.6376-.2875.8515-.5628,1.7049-.8832,2.5452-.2952.775-.6811,1.5266-.9508,2.3095.1005-.2912.1906-.5513.2733-.7877-.0735.1634-.1473.3174-.2184.45-.3548.6612-.7351,1.3047-1.118,1.9471.1879-.2541.3951-.5324.6443-.8629-.2694.3569-.524.7267-.7815,1.0941q-.144.2415-.2875.4835c-.374.6283-.9863,1.3123-.4582.5211-.5593.73-1.1339,1.447-1.7329,2.1416-.067.0774-.1269.1472-.1829.213-.1.0952-.2122.2028-.3471.3338q-1.3443,1.3056-2.7806,2.504c-.3959.3309-.8085.6422-1.203.9745-.0385.0325-.0708.06-.1049.0891a68.1427,68.1427,0,0,1-7.3274,4.2847c-.5506.27-1.11.52-1.6612.7875-.1837.0892-.3319.1625-.4531.2238-.1346.0463-.297.1039-.498.1768-1.6223.5885-3.2423,1.177-4.8766,1.7305a239.5062,239.5062,0,0,1-42.1776,10.26c-7.098,1.0376-12.2449,1.5466-18.8236,1.9591-6.78.425-13.5715.6118-20.3627.6418-21.5074.095-42.9889-1.3129-64.485-1.8454-17.61-.4363-35.2246-.6815-52.8381-.9317-39.3028-.5583-78.6207-.9272-117.9063-2.3373-14.2593-.5117-28.5572-1.0535-42.7644-2.4758a98.15,98.15,0,0,1-12.4563-1.7989c-.5349-.1244-1.0927-.34-1.636-.4384-.441-.1574-.8844-.3076-1.3245-.4666q-2.2761-.8221-4.5132-1.7549a88.787,88.787,0,0,1-14.1746-7.4356,78.17,78.17,0,0,1-6.4264-4.648c-1.0946-.8808-2.14-1.8141-3.2027-2.7344-.1177-.1018-.2122-.1839-.2973-.2575-.6716-.6508-1.3254-1.3217-1.9682-2.0029a66.3634,66.3634,0,0,1-10.2325-14.1823q-.8243-1.5382-1.5649-3.126c-.0812-.2285-.6745-1.636-.7027-1.7079q-.3473-.885-.67-1.78a74.7,74.7,0,0,1-2.8781-10.3386,116.667,116.667,0,0,1-2.0219-21.6278c-.5706-24.8167.029-49.7129.0939-74.536q.2085-79.7867.4064-159.5733.02-7.3069.0432-14.6139,90.1-.8394,180.2048-.261,96.8933.6327,193.7674,2.9219,24.2193.5723,48.436,1.2477c6.4851.181,12.22-.0748,17.3812,3.7084.3915.287.756.6115,1.1452.9007.06.0449.1037.0759.155.1133.0175.0193.0276.0319.0483.0543a33.042,33.042,0,0,1,2.2077,2.604,35.1753,35.1753,0,0,1,2.1823,3.2895c.3449.5861.6721,1.1825.989,1.7853.1425.2714.8284,1.7446.8817,1.81a85.0609,85.0609,0,0,1,4.7782,16.7044q.4011,2.0836.7356,4.18c.1251.7756.2383,1.553.3581,2.3295l.0628.408c.4781,3.7245.8313,7.4667,1.1781,11.2062,1.5213,16.3982,2.4475,32.8529,2.9007,49.3193C678.6838,476.9018,677.71,509.7491,675.8356,542.5157Z" transform="translate(-199.4527 -235.5272)"/><path class="cls-1" d="M294.3493,467.2927c.1276-.165.2487-.3351.3717-.504q.0716-.1154.1424-.2311c-.4477.5846-.7444.988-.916,1.2358C294.0806,467.6259,294.2183,467.462,294.3493,467.2927Z" transform="translate(-199.4527 -235.5272)"/></svg>