<svg id="Layer_1" data-name="Layer 1" xmlns="http://www.w3.org/2000/svg" width="130.3195" height="69.3387" viewBox="0 0 130.3195 69.3387"><defs><style>.cls-1{fill:#2e4ac0;}</style></defs><path class="cls-1" d="M1148.9791,496.0556c.01.0222.0277.057.0564.1065l0-.0007C1149.0153,496.1269,1148.9972,496.0912,1148.9791,496.0556Z" transform="translate(-1121.1003 -461.4395)"/><path class="cls-1" d="M1247.6711,496.0271c-.1307.1446-.2433.281,0,0Z" transform="translate(-1121.1003 -461.4395)"/><path class="cls-1" d="M1198.2489,496.2259l.0048-.0145c.0054-.022.0115-.0438.0164-.0659.0139-.0634.0256-.1272.0378-.191-.0144.0533-.0379.1507-.0729.3087Z" transform="translate(-1121.1003 -461.4395)"/><path class="cls-1" d="M1248.3283,464.5307a45.4771,45.4771,0,0,0-11.7314,6.2609c-3.1564,2.3285-5.7244,5.2946-8.7794,7.7346q-.3357.2683-.6807.5248c-.0627.0464-.1263.0919-.1893.138l-.0622.04c-.4207.273-.8436.5391-1.2854.7771q-.3289.1773-.6672.3365c-.0824.0387-.1662.0749-.2493.1123.09-.0381.0755-.0209-.0825.0375l-.0086.0039.0075-.0034-.0014,0c-.1859.0686-.3731.1311-.561.1909q-.15-3.1834-.4707-6.36a27.9145,27.9145,0,0,0-1.2824-6.8642c-.6979-1.8881-1.8557-3.9029-3.83-4.6766a11.7208,11.7208,0,0,0-4.1165-.5623q-2.1789-.0523-4.3579-.1013-4.2335-.095-8.4672-.1767-17.1834-.3316-34.37-.4451-17.1236-.1131-34.2478-.0091-4.172.0252-8.3438.0634a2.0982,2.0982,0,0,0-.326.0294,1.556,1.556,0,0,0-.9559.23,4.2775,4.2775,0,0,0-2.0271,3.5112q-.0481,13.1678-.08,26.3358-.0191,6.6609-.04,13.3218-.0093,2.9421-.02,5.8842a27.8292,27.8292,0,0,0,.8005,8.172,15.8146,15.8146,0,0,0,8.435,9.512c4.7591,2.2536,10.0866,2.1362,15.219,1.831,11.381-.6768,22.7424-.4069,34.128.0125,10.2992.3794,20.725,1.1191,30.7943-1.5974a19.8662,19.8662,0,0,0,6.921-3.06,12.3077,12.3077,0,0,0,3.5745-4.2444,12.7625,12.7625,0,0,0,1.3191-4.6391c.2848-2.944.5645-5.8885.8226-8.835q.1048-1.1961.2032-2.3936a1.0564,1.0564,0,0,0,.2814.671l10.2758,9.6494c1.6526,1.5518,3.299,3.1106,4.959,4.6546a25.3991,25.3991,0,0,0,5.1412,3.9772c1.5955.8578,3.2761-1.72,3.4432-2.9933q1.4418-10.9845,2.5005-22.0144.547-5.71.9972-11.4283c.2769-3.53.53-7.0683.5-10.6118a45.4862,45.4862,0,0,0-1.5853-12.1283A1.1812,1.1812,0,0,0,1248.3283,464.5307ZM1125.424,513.5578c.0128.0894.0288.2562,0,0Zm92.3622,6.66a.5974.5974,0,0,1-.0662.1c.04-.0614.068-.1049.0665-.1007Zm1.8969-19.2289c-.1664,2.7834-.3788,5.5638-.6163,8.3418q-.0806.9429-.165,1.8853c-.0113.1228-.0555.6115-.06.6633q-.05.5509-.1016,1.1019-.1935,2.0794-.3954,4.1582c-.068.7051-.1,1.4247-.2324,2.1229.0439-.1636.0021.0848-.0542.2569-.0215.0872-.0455.1738-.0643.2614.017-.08.0321-.1488.0456-.21-.0433.1249-.0891.249-.1389.3715-.0254.0625-.0532.124-.0788.1864l-.0277.0692c-.0548.08-.1112.1576-.16.2283-.1269.1641-.2554.3263-.3921.4825-.03.0344-.0659.07-.1.1053-.094.0885-.1881.1767-.2857.2616q-.2239.1947-.46.3754c-.0374.0287-.1527.0981-.2118.1467l-.04.0263a11.96,11.96,0,0,1-1.2043.6671q-.2921.1412-.5919.2669l-.1077.0375c-.16.0558-.3185.1142-.479.1676-1.2.399-2.4312.7231-3.6592,1.0216a54.9353,54.9353,0,0,1-7.34,1.258c-1.9966.2058-4.5464.3-6.8013.3084-2.4853.0086-4.97-.0687-7.4536-.1554-11.1292-.3885-22.2667-.942-33.405-.6211-2.6849.0773-5.3639.2328-8.045.387a48.1482,48.1482,0,0,1-7.9943-.0327,16.6974,16.6974,0,0,1-6.2564-1.7412,16.3951,16.3951,0,0,1-2.57-1.614q-.2856-.2192-.5609-.4513c-.0919-.0775-.1824-.1565-.2729-.2357l-.0389-.0337-.0155-.0149a14.6549,14.6549,0,0,1-1.0589-1.1166,13.587,13.587,0,0,1-1.7358-2.5795c-.0426-.0827-.0837-.1664-.1245-.25-.02-.0452-.0526-.1158-.0616-.138-.0953-.2331-.1913-.4653-.2765-.7024a13.6056,13.6056,0,0,1-.5063-1.8q-.0937-.4458-.161-.8971l-.014-.1256c-.0168-.1527-.0331-.3053-.0474-.4582-.0613-.6531-.0931-1.3086-.11-1.9642-.0308-1.1611-.0166-2.3232-.0125-3.4846q.0221-6.17.0393-12.34.0391-13.27.0779-26.5407.003-.932.0064-1.8641,15.42-.1248,30.8405-.0776,16.6884.0549,33.375.3155,8.4055.1313,16.81.3148,2.0546.0448,4.109.0929c1.36.0317,2.7486-.0125,4.1016.1367a3.7174,3.7174,0,0,1,1.3764.3633,4.4378,4.4378,0,0,1,.5255.3168c.0838.0587.1613.1252.2447.1839.0254.0179.0455.0315.0626.0426.0127.0152.0281.0333.0473.0549a7.9748,7.9748,0,0,1,.78.9963c.1179.1848.2273.3752.33.5691.0279.0528.0539.1065.0806.16-.0144-.02.122.2788.1343.3094a15.8051,15.8051,0,0,1,.8119,2.8275q.0711.3556.1311.7132.03.1779.0577.3563l.0209.1368c.0091.0663.0214.1549.0252.1847.016.1278.0311.2557.0461.3837q.064.5476.1219,1.0961c.2921,2.76.4764,5.53.5734,8.3038C1220.16,490.0351,1220.01,495.52,1219.6831,500.9889Zm-1.8508,19.151c.0658-.1416.1616-.3577.1625-.37A.89.89,0,0,1,1217.8323,520.14Zm29.0434-30.9q-.2037,2.6835-.4334,5.365-.1046,1.2265-.2137,2.4526l-.0151.17-.0158.1739q-.0336.3678-.0672.7355-.0675.7355-.1368,1.4708-.508,5.3922-1.1087,10.7753-.408,3.655-.8607,7.3049c-.6352-.5151-1.236-1.0507-1.7912-1.5689q-2.497-2.3308-4.9807-4.6762l-10.0956-9.48a1.2462,1.2462,0,0,0-1.2923-.4125,3.1132,3.1132,0,0,0-1.5413,1.0886,4.7036,4.7036,0,0,0-.9045,1.7473c.4977-6.3006.8327-12.6265.7569-18.9443a26.4943,26.4943,0,0,0,7.8758-5.7052c1.4067-1.3437,2.8033-2.6941,4.3211-3.9141q.5811-.4669,1.1789-.9128c.2161-.1611.435-.3179.6528-.4765.129-.0886.2575-.1778.3872-.2654q1.28-.8646,2.6214-1.6323,1.5255-.8727,3.1213-1.6139.7476-.3469,1.5089-.6634c.047-.0192.0992-.0406.1177-.0479.08-.0311.1595-.0618.2391-.0929a38.54,38.54,0,0,1,1.0657,8.6468A103.6608,103.6608,0,0,1,1246.8757,489.24Z" transform="translate(-1121.1003 -461.4395)"/><path class="cls-1" d="M1204.8792,496.09c-.0221.0093-.0494.0216-.0837.0379l.0012,0C1204.8239,496.1144,1204.8517,496.1023,1204.8792,496.09Z" transform="translate(-1121.1003 -461.4395)"/></svg>