<svg id="Layer_1" data-name="Layer 1" xmlns="http://www.w3.org/2000/svg" width="2581.8416" height="279.9927" viewBox="0 0 2581.8416 279.9927"><defs><style>.cls-1{fill:#2e4ac0;}.cls-2{fill:#c6a893;}</style></defs><path class="cls-1" d="M2456.3593,611.112l-.0436.14a16.8766,16.8766,0,0,1-.4246,1.8263C2455.8311,613.8043,2456.0163,613.8061,2456.3593,611.112Z" transform="translate(125.4824 -611.112)"/><path class="cls-2" d="M-72.1541,856.6456l-41.6364,8.1968c-9.5773,1.8855-18.3448,26.0506-4.525,24.0091,49.6649-7.3365,97.8363.58,147.4509,2.01,51.0128,1.47,102.5953-4.1026,153.51-6.9052q151.9748-8.3652,304.057-14.5846,321.6309-13.2027,643.5355-17.85,634.05-9.7318,1268.1956,7.1548c10.3927.2894,20.7324-24.1051,9.1851-24.4266Q1762.04,816.2736,1116.0172,827.465q-321.8595,5.21-643.5229,18.4528Q308.7225,852.81,145.0658,862.16c-85.4985,4.91-174.5091-9.7769-258.8563,2.6828l-4.525,24.0091,41.6364-8.1968c9.7812-1.9256,17.9628-26.6545,4.525-24.0091Z" transform="translate(125.4824 -611.112)"/></svg>