<svg id="Layer_1" data-name="Layer 1" xmlns="http://www.w3.org/2000/svg" width="206.1076" height="204.2513" viewBox="0 0 206.1076 204.2513"><defs><style>.cls-1{fill:#c6a893;}</style></defs><path class="cls-1" d="M1358.5763,525.8178a2.2731,2.2731,0,0,0-.2776.1044C1358.355,525.9,1358.4592,525.8612,1358.5763,525.8178Z" transform="translate(-1291.8924 -462.763)"/><path class="cls-1" d="M1392.6743,553.7587c-.3954.0069-.2345.05,0,0Z" transform="translate(-1291.8924 -462.763)"/><path class="cls-1" d="M1386.1966,554.6033a2.6311,2.6311,0,0,1-.2953-.1977,11.2482,11.2482,0,0,0-3.5852,2.6177c-2.2676,2.6049-3.1,6.3083-3.1988,9.6751a18.8122,18.8122,0,0,0,9.0214,16.6808,12.9748,12.9748,0,0,0,7.6347,2.0556c-.03-.0118.8756-.1827.9841-.2109.1317-.0342.2308-.0594.3166-.0807a1.3352,1.3352,0,0,1,.2212-.1028,10.0843,10.0843,0,0,0,1.5473-.7524,19.362,19.362,0,0,0,3.387-2.6181,18.4856,18.4856,0,0,0,5.5574-8.51,13.1662,13.1662,0,0,0-1.6671-10.1513,22.1766,22.1766,0,0,0-7.43-7.2848,13.3041,13.3041,0,0,0-4.8675-1.9213c.3281.0448-1.4607-.0539-.8542-.0425-.0756-.0014-.1385-.0017-.196-.0016-.0423.0284-.0886.06-.14.0948C1390.9841,554.9718,1388.0354,555.66,1386.1966,554.6033Z" transform="translate(-1291.8924 -462.763)"/><path class="cls-1" d="M1392.8727,553.6909c.0191-.01.0386-.0207.0584-.032l-.0133.0022Z" transform="translate(-1291.8924 -462.763)"/><path class="cls-1" d="M1354.5936,530.5872a50.4787,50.4787,0,0,1-.1766,8.7519c-.5842,5.8169-2.0352,11.4972-3.018,17.25a98.293,98.293,0,0,0-1.1548,17.6473c.1059,10.4176-.1289,22.74,6.7023,31.3681a21.4569,21.4569,0,0,0,11.598,7.3988c.122.0338.197.0555.2426.0695l.068.0151c.3721.0831.7466.1536,1.1216.2223q.8481.1551,1.7018.2747c1.1466.162,2.2989.28,3.4537.3653.3936.0292.7877.0529,1.1818.0745l.064,0c.58.0039,1.1606.0319,1.7409.04,1.2873.018,2.5745.011,3.8619-.0049q4.506-.0557,9.0084-.2676,2.4234-.1185,4.8438-.2934c.6912-.05,1.3818-.1085,2.0728-.1625-1.1549.09.5207-.0492.874-.0845q4.651-.465,9.2692-1.2057c1.4815-.24,2.9562-.513,4.43-.7938.1333-.0253.2336-.044.3113-.0582.0984-.0226.2237-.0509.3858-.0871q.8271-.1848,1.65-.3856c1.238-.3026,2.4536-.6721,3.6815-1.0081.1114-.0332.2225-.0653.3251-.1016q.7992-.2822,1.5882-.5913.5244-.206,1.0432-.4248c.0629-.0267.1957-.0851.3336-.1459.2863-.1444.8479-.42.9848-.4927.49-.2591.9612-.5656,1.4554-.8149l.1061-.0529q.2968-.2.5882-.4066a16.8617,16.8617,0,0,0,4.6-4.4557,25.3909,25.3909,0,0,0,3.2765-6.0359c4.0922-10.3441,4.5286-22.3134,4.3081-33.2977-.1227-6.1106-.574-12.21-1.182-18.2905-.5031-5.0312-.6689-10.4432-4.3428-14.3057a19.1783,19.1783,0,0,0-5.5749-4.0584,31.3716,31.3716,0,0,0-3.6255-1.4569c-.9749-.3253-2.54-.7538-3.0274-.8592a65.8094,65.8094,0,0,0-7.8281-1.1248c-1.5418-.143-3.0863-.2571-4.6318-.353-1.6825-.1045-1.726-.11-3.5487-.169-6.0206-.1954-12.0491-.0936-18.0628.2455q-2.4307.137-4.8581.3244-1.0407.08-2.08.1689l-.4338.039c-.1922.0185-.4317.0412-.4521.0432q-4.674.4617-9.3323,1.0559c-1.4056.1818-2.811.368-4.2127.5769-.7016.1045-1.4021.2152-2.1011.3366-.1105.0192-.4471.0813-.7611.139-.2032.0465-.66.1445-.77.1716-.2936.0726-.5867.1468-.8784.2262-.1409.0384-.3187.0777-.4995.1219l-.1079.0466c-.1392.0591-.6841.28-1.0181.4089-.2892.16-.9232.4848-1.0757.5587-.0189.0091-.0293.0134-.0458.021-.0422.0336-.0821.0655-.1357.1069-.21.1623-.4228.3183-.63.4839-.1745.14-.3462.2835-.5154.43l-.0471.0493a17.89,17.89,0,0,0-1.5328,1.7759A1.3272,1.3272,0,0,1,1354.5936,530.5872Zm60.8557,4.98a5.3241,5.3241,0,1,1-5.3242,5.3241A5.4166,5.4166,0,0,1,1415.4493,535.5671ZM1370.74,562.8917a17.8989,17.8989,0,0,1,8.2979-10.8813c4.6748-2.7822,10.0431-4.7125,15.498-3.9,8.4665-.4979,17.3053,5.7253,21.02,13.1231,4.8416,9.6423-1.449,19.2671-9.2222,25.02-7.9862,5.911-18.9847,6.5453-27.1255.5852A22.4871,22.4871,0,0,1,1370.74,562.8917Z" transform="translate(-1291.8924 -462.763)"/><path class="cls-1" d="M1497.4537,549.7119a90.2012,90.2012,0,0,0-7.4709-27.9827,99.4149,99.4149,0,0,0-44.3611-45.4469,108.0568,108.0568,0,0,0-16.6207-6.1733,141.0027,141.0027,0,0,0-17.8051-4.184,113.8592,113.8592,0,0,0-36.8153.1728c-2.3938.3938-4.7477.86-7.0654,1.4422l.7816-.5618c1.1759-.3627,2.3668-.6963,3.5945-1.0009.8-.1984,4.6284-1.24,4.2728-2.5672-.3532-1.3181-4.369-.24-4.9841-.0869-22.2876,5.5305-41.2047,19.575-54.9611,37.7076-13.753,18.1284-23.322,40.1391-24.073,63.0992-.7085,21.6658,5.62,44.4027,18.5306,61.9187a90.0716,90.0716,0,0,0,25.4238,22.932,133.0081,133.0081,0,0,0,33.3121,15.1775c25.1657,7.1413,51.8431.0728,74.2663-12.1472,18.8871-10.2929,34.4361-25.6513,43.8216-45.0878A107.2507,107.2507,0,0,0,1497.4537,549.7119Zm-45.2467,15.3532c-.2343,11.8283-1.1227,24.9424-7.6706,35.1714-7.0532,11.018-20.9923,15.3252-33.1028,17.8114a183.6037,183.6037,0,0,1-39.78,3.4222c-6.1344-.1026-12.4635-.5659-18.2456-2.7887a25.2934,25.2934,0,0,1-12.655-10.5505,37.812,37.812,0,0,1-5.0251-16.1412,152.3523,152.3523,0,0,1-.55-19.2887,112.31,112.31,0,0,1,2.3442-19.7282,112.0428,112.0428,0,0,0,1.8685-11.325c-.7945-.14-2.5544-.5869-2.6113-1.5754a13.8361,13.8361,0,0,1,1.4791-7.3565c6.6211-12.5718,23.0949-14.5726,35.7334-16.0588a237.6865,237.6865,0,0,1,42.0547-1.488c11.0276.6626,25.2745,2.159,31.8161,12.4064,3.2037,5.0184,3.0822,11.7109,3.5739,17.4637A190.85,190.85,0,0,1,1452.207,565.0651Z" transform="translate(-1291.8924 -462.763)"/><path class="cls-1" d="M1424.3448,607.09c-.1081.0729-.2163.1463-.3258.2164C1424.1044,607.2515,1424.7885,606.8705,1424.3448,607.09Z" transform="translate(-1291.8924 -462.763)"/><path class="cls-1" d="M1421.8879,608.4241c.6534-.3024.2642-.13-.0894.0262C1421.59,608.5557,1421.5266,608.5914,1421.8879,608.4241Z" transform="translate(-1291.8924 -462.763)"/><path class="cls-1" d="M1418.6557,609.6729c-.0492.0133-.0981.0275-.1473.041a2.8575,2.8575,0,0,0-.4778.1751C1418.0579,609.8751,1419.52,609.4387,1418.6557,609.6729Z" transform="translate(-1291.8924 -462.763)"/><path class="cls-1" d="M1377.9116,523.0536c-.4218.0392-.2374.0228.01.0006C1378.1581,523.0314,1378.3227,523.0155,1377.9116,523.0536Z" transform="translate(-1291.8924 -462.763)"/><path class="cls-1" d="M1357.7243,526.1767c-.34.1533-.2078.1091.0634.0043C1357.9685,526.0812,1358.0156,526.0453,1357.7243,526.1767Z" transform="translate(-1291.8924 -462.763)"/><path class="cls-1" d="M1360.7521,525.2559c-.64.1242-.1943.0426.31-.05C1361.224,525.1687,1361.2242,525.1644,1360.7521,525.2559Z" transform="translate(-1291.8924 -462.763)"/><path class="cls-1" d="M1358.5763,525.8178c.11-.0339.2231-.0644.3374-.0923C1359.31,525.5529,1358.9046,525.6965,1358.5763,525.8178Z" transform="translate(-1291.8924 -462.763)"/><path class="cls-1" d="M1412.7907,611.1947c-.9465.2166.7731-.1413,0,0Z" transform="translate(-1291.8924 -462.763)"/><path class="cls-1" d="M1356.6662,526.7607c.9449-.75-.7433.3482,0,0Z" transform="translate(-1291.8924 -462.763)"/><path class="cls-1" d="M1355.29,527.8613c.0312-.0276.0644-.0527.0958-.08C1355.7191,527.4339,1355.373,527.7872,1355.29,527.8613Z" transform="translate(-1291.8924 -462.763)"/><path class="cls-1" d="M1358.2987,525.9222l-.0441.0174C1358.2676,525.9332,1358.2851,525.9284,1358.2987,525.9222Z" transform="translate(-1291.8924 -462.763)"/><path class="cls-1" d="M1376.5825,614.0418c-.09-.0043-.179-.0119-.2685-.0169C1375.7007,614.0215,1376.4738,614.0366,1376.5825,614.0418Z" transform="translate(-1291.8924 -462.763)"/><path class="cls-1" d="M1368.7871,613.073c-.6489-.1435.28.0862,0,0Z" transform="translate(-1291.8924 -462.763)"/><path class="cls-1" d="M1392.9178,553.6611l.0133-.0022C1393.0933,553.5654,1393.246,553.4448,1392.9178,553.6611Z" transform="translate(-1291.8924 -462.763)"/><path class="cls-1" d="M1397.0741,585.1432c-.1007.0756.756-.1879,0,0Z" transform="translate(-1291.8924 -462.763)"/><path class="cls-1" d="M1395.94,585.4173c-.0551.0076-.1114.0112-.1669.0175A1.0525,1.0525,0,0,0,1395.94,585.4173Z" transform="translate(-1291.8924 -462.763)"/><path class="cls-1" d="M1390.2032,553.609a7.1579,7.1579,0,0,0-4.3019.7966,2.6311,2.6311,0,0,0,.2953.1977c1.8388,1.0569,4.7875.3685,6.4354-.7506.0518-.0351.0981-.0664.14-.0948-.0358,0-.0689,0-.0981.0008-.2345.05-.3954.0069,0,0a1.0411,1.0411,0,0,0,.1213-.0332.6224.6224,0,0,0,.0771-.0346l.0451-.03A7.3829,7.3829,0,0,1,1390.2032,553.609Z" transform="translate(-1291.8924 -462.763)"/><path class="cls-1" d="M1392.6743,553.7587c.0292,0,.0623-.0008.0981-.0008.0374-.0252.07-.0468.1-.067a.6224.6224,0,0,1-.0771.0346A1.0411,1.0411,0,0,1,1392.6743,553.7587Z" transform="translate(-1291.8924 -462.763)"/></svg>