<svg id="Layer_1" data-name="Layer 1" xmlns="http://www.w3.org/2000/svg" width="540.1522" height="505.1602" viewBox="0 0 540.1522 505.1602"><defs><style>.cls-1{fill:#c6a893;}</style></defs><path id="Spotify" class="cls-1" d="M241.3322,52.4223A380.3815,380.3815,0,0,0,232.1466.0889a256.514,256.514,0,0,0-14.235-43.7611c-12.4275-28.2672-32.9522-51.4309-55.9737-71.65A271.1887,271.1887,0,0,0,10.2741-181.269a334.2353,334.2353,0,0,0-163.2478,24.2852,261.8965,261.8965,0,0,0-67.705,41.04,180.3531,180.3531,0,0,0-47.4453,61.586C-292.0127-3.51-298.0654,53.8509-298.0263,109.4259c.0176,25.3437,3.9825,49.8484,14.1306,73.1884,1.81,4.1625,3.7108,8.3445,5.7666,12.4567-4.4786,1.7536-8.048,4.0319-7.353,5.1613,30.7863,50.051,82.6978,81.5391,137.3564,99.7123,58.0336,19.2953,122.1724,28.289,182.8306,17.7068a237,237,0,0,0,84.2489-31.835c23.3166-14.5106,43.5714-33.2149,60.802-54.5407,18.6088-23.031,34.6275-49.1118,45.1726-76.8223C237.3292,121.8669,244.6353,87.3366,241.3322,52.4223ZM7.4482,195.6768c-3.3882.3013-12.9758,1.2691-16.2353-1.5571A187.1732,187.1732,0,0,0-67.311,159.84a190.931,190.931,0,0,0-34.6422-8.1687c-1.5893-.2176-3.1827-.3912-4.7741-.5918l-.0744-.01c-3.16-.2128-6.314-.4238-9.4806-.5111-3.0771-.0849-6.1447-.0418-9.2206-.0126-1.4984.1027-2.9961.203-4.4929.3293-4.7457.4-11.81,1.2141-16.2353-1.5571-3.8526-2.4127-.7611-5.84,1.3333-7.9739,4.28-4.3618,12.5918-7.4265,18.0568-9.3809a101.7272,101.7272,0,0,1,24.9954-5.701c55.0532-4.6413,111.4346,9.73,153.6793,46.3588,8.1762,7.0893-15.1137,15.76-19.3905,17.3548A99.0707,99.0707,0,0,1,7.4482,195.6768ZM48.1594,114.98c-5.9046.78-15.4005,1.3176-21.0233-1.69A327.0823,327.0823,0,0,0-14.5126,94.584q-9.3409-3.4258-18.8791-6.28c-.058-.0174-.1217-.036-.1879-.0551.3153.0823.6671.1741,1.062.2768-.713-.1854-1.42-.3977-2.13-.5931q-2.1324-.5868-4.2718-1.1451-4.636-1.21-9.3056-2.2856a332.2545,332.2545,0,0,0-39.9662-6.6657c-.8951-.0937-1.7907-.18-2.6866-.2639.2083.01.3173.0084.2659-.0128a7.2164,7.2164,0,0,0-2.0578-.1553q-.696-.0643-1.3916-.1294c-1.5125-.1426-.4472-.0238.8869.1046q-4.6014-.3112-9.2107-.497-9.9414-.3954-19.8947-.1836-4.96.1049-9.9143.3678c-1.3554.1352-2.74.1746-4.0836.295-6.6086.5927-13.1927,1.404-19.7533,2.3925-8.3052,1.2513-29.4868,1.4056-27.3307-12.2795.8335-5.2928,8.461-10.5207,12.3773-12.84,7.279-4.3111,16.0376-6.8779,24.3445-8.13a385,385,0,0,1,54.3187-4.2323C-33.3,41.8246,26.4477,55.5364,78.5742,83.4209c4.5805,2.45,7.134,5.341,6.3075,10.5894-.9079,5.762-7.8614,10.0135-12.3778,12.84C65.596,111.1741,56.1581,113.9236,48.1594,114.98Zm80.6512-79.0282a76.4569,76.4569,0,0,1-11.7124,2.9733A52.2057,52.2057,0,0,1,106.731,40.049a29.2773,29.2773,0,0,1-8.1864-.3991A283.7559,283.7559,0,0,1,71.49,30.5853C43.5642,19.8628,17.2626,5.33-10.8112-5.0273A213.7794,213.7794,0,0,0-34.0744-11.869a233.8576,233.8576,0,0,0-26.2909-4.2992c-5.6-.537-11.21-.964-16.8238-1.3284-12.1653-.79-24.2085-1.4081-36.3778-1.0762-7.2281.3607-14.4459.952-21.6283,1.8374-2.8662.4435-5.7238.9385-8.5679,1.5053q-1.1164.2835-2.2275.5857c-.1616.0991-.32.203-.4805.304-.014.0117-.0292.0217-.0431.0334-4.8,4.0253-10.6261,6.4692-16.43,8.6492a91.5053,91.5053,0,0,1-22.7864,5.174,31.4806,31.4806,0,0,1-8.8071-.02,12.8119,12.8119,0,0,1-6.0243-1.5283q-2.29-1.2288-1.4442-3.2979a4.8787,4.8787,0,0,1,2.6147-4.1363,82.2033,82.2033,0,0,1,7.4923-5.4926,89.8889,89.8889,0,0,1,14.1672-7.4844,220.9843,220.9843,0,0,1,24.1822-8.615c6.2277-1.8652,12.6243-3.2357,18.9749-4.5782,4.0646-.8592,8.1606-1.5694,12.2709-2.1705a385.8021,385.8021,0,0,1,57.1725-4.2155c6.9881.0229,13.949.4988,20.9222.92,14.24.8613,28.5086,1.9375,42.6244,4.0477,24.4177,3.65,47.5432,12.1991,70.03,22.1626C88.9722-5.7965,109.0675,4.3416,130.1376,12.16c5.4781,1.9407,11.0121,3.7154,16.62,5.2433a6.0248,6.0248,0,0,1,5.162,3.2808q-.2157,1.2861-.4311,2.5721a17.9937,17.9937,0,0,1-6.508,5.8214q-2.781,1.4677-5.5623,2.9354A67.3555,67.3555,0,0,1,128.8106,35.9518Z" transform="translate(298.0265 183.0151)"/></svg>