<svg id="Layer_1" data-name="Layer 1" xmlns="http://www.w3.org/2000/svg" width="256.5247" height="187.4331" viewBox="0 0 256.5247 187.4331"><defs><style>.cls-1{fill:#c6a893;}</style></defs><path id="YouTube" class="cls-1" d="M1067.6219,508.8436c-1.3638-11.1035-5.2727-21.9941-14.7811-28.6393-9.9367-6.9446-22.7652-7.9671-34.4424-9.3174-14.5556-1.6831-29.1391-3.1351-43.7492-4.2553a740.7729,740.7729,0,0,0-88.0166-1.9132c-6.8623.2913-13.7089.7637-20.5612,1.2227-4.4623.2989-8.9329.5465-13.3712,1.1166-8.7828,1.1283-17.6328,3.5915-24.1646,9.9018a30.7528,30.7528,0,0,0-4.9813,6.3587c-2.4371,3.4707-3.692,7.8213-4.6455,11.8627a165.4167,165.4167,0,0,0-2.9191,18.7959c-1.6286,13.9094-3.0525,27.885-3.7535,41.8754-1.211,24.1684.3073,51.1918,15.4695,71.2709a36.1573,36.1573,0,0,0,14.0165,11.6818c5.9379,2.6225,12.3749,3.5587,18.7479,4.4863,13.4781,1.9619,26.9786,3.79,40.5231,5.2327,27.172,2.8935,54.6528,4.2755,81.9116,1.7377a248.1306,248.1306,0,0,0,39.597-6.7965c6.4731-1.6875,12.8843-3.6576,19.1587-5.9806,5.4848-2.0307,10.9966-4.4865,15.2781-8.5776,4.3949-4.1994,6.6494-9.8923,7.7081-15.78,1.1937-6.6371,1.3981-13.4776,1.82-20.1953q1.3925-22.1659,1.7992-44.3792.202-11.04.16-22.0832A149.0159,149.0159,0,0,0,1067.6219,508.8436ZM927.3971,598.1182q-.3995.1758-.8.3478-.1031.0444-.2063.088l-.01.0041q-.2387.1-.4781.198a29.644,29.644,0,0,1-2.7913,1.0177,8.4947,8.4947,0,0,1-4.2525.2318,4.2372,4.2372,0,0,1-3.3939-3.9385,41.6309,41.6309,0,0,1,.2432-7.22q.2329-3.9339.4233-7.87.39-8.059.6081-16.1251c.2925-10.8135.3619-21.635.1364-32.45-.0423-2.0274-.1044-4.0543-.1689-6.0812a7.7294,7.7294,0,0,1,.961.2975c.947.4236,1.844.9833,2.7556,1.4764l7.7376,4.1849,15.23,8.2371,15.3524,8.3035c4.4914,2.4293,9.1836,4.6718,13.41,7.5527a23.0763,23.0763,0,0,1,4.9111,4.3784,12.9718,12.9718,0,0,1,1.8423,2.9489,6.6494,6.6494,0,0,1,.4715,1.5378c.0469.2776.0279.5529.0577.83-.0213.0705-.0467.1484-.061.1955-.0277.0549-.0546.1107-.0837.1639-.0719.1308-.1515.2574-.2342.3814-.0514.0771-.1078.1507-.1593.2276l-.0181.0278-.0121.0132a23.7758,23.7758,0,0,1-1.974,2.0316c-.4252.3848-.8608.758-1.3027,1.1236-.4287.3547-1.0793.872-1.3829,1.1062.0681-.0524-.2519.1925-.3152.2406q-.1813.1377-.3632.2742-.4249.3189-.8536.6324-.8888.6506-1.7911,1.2821c-2.4365,1.7089-4.93,3.3362-7.4474,4.9228q-5.51,3.4724-11.17,6.7009c-2.1651,1.2355-4.3724,2.4-6.5716,3.5732-5.3878,2.8747-10.8083,5.711-16.3526,8.2744Q928.3739,597.6865,927.3971,598.1182Z" transform="translate(-811.9087 -464.1579)"/></svg>