<svg id="Layer_1" data-name="Layer 1" xmlns="http://www.w3.org/2000/svg" width="976.3788" height="855.6859" viewBox="0 0 976.3788 855.6859"><defs><style>.cls-1{fill:#d6d2b9;}</style></defs><g id="circle"><path class="cls-1" d="M1229.1688,237.22c-41.1358-91.8923-140.26-141.4456-233.82-178.6351C908.262,23.9687,816.1505-6.7176,722.778,1.282A286.06,286.06,0,0,0,603.1556,39.2878c-71.5993.7977-142.2646,32.5044-195.0833,81.5836-61.3708,57.0244-100.2046,135.3006-120.39,216.607-18.7824,75.6588-21.866,157.7709,8.0726,229.7489,34.24,82.3206,107.3227,142.1514,183.9262,187.7682,87.4041,52.0479,184.5064,90.5947,285.8829,99.0363s207.3749-15.1667,288.3133-76.79c95.2753-72.5395,146.9621-188.9535,176.7706-304.9317C1250.54,394.9172,1261.8175,310.1556,1229.1688,237.22Z" transform="translate(-273.4003 0)"/></g></svg>