<svg id="Layer_1" data-name="Layer 1" xmlns="http://www.w3.org/2000/svg" width="2262.4314" height="845.6727" viewBox="0 0 2262.4314 845.6727"><defs><style>.cls-1{fill:#d6d2b9;}</style></defs><path id="arrow" class="cls-1" d="M1405.8752,1332.9364c-1.53-7.2866,14.909-13.24,16.2958-6.6349q1.95,9.2859,4.2638,18.4884a443.2289,443.2289,0,0,0,61.1618,137.8619c27.6879,41.2774,63.2486,77.6683,104.8438,104.9965a305.556,305.556,0,0,0,128.4527,47.8228c43.1658,5.5938,87.8943,2.1716,129.4092-11.1362,41.048-13.1581,79.0954-36.0828,108.172-68.1091,2.7821-3.0643,7.2157-5.5037,11.5229-4.6916,3.3643.6343,5.4494,4.0121,2.815,6.9137-4.0394,4.4492-8.1785,8.8056-12.497,12.9853-33.3314,32.26-75.3973,54.5061-119.9151,66.8868a324.8258,324.8258,0,0,1-138.4708,7.2567c-48.1257-7.8373-93.2806-27.0159-133.11-55.0267-42.4164-29.83-77.6586-69.0208-105.0576-112.9115a447.15,447.15,0,0,1-57.886-144.7021Zm430.1429,190.41,123.4231,11.6145c5.26.4949,12.3613.1236,16.8015,3.5248,5.2288,4.0051,3.866,12.5084,3.8348,18.2374l-.1566,28.6982-.1123,20.5844q-.1317,24.1448-.2635,48.2894c-.0428,7.8461,16.7347,3.0478,16.7721-3.7986q.1806-33.1143.3613-66.2287l.1492-27.3432c.0353-6.4616.7464-13.4248-1.0048-19.7347-1.7413-6.274-7.03-9.9648-13.0276-11.6854-6.5851-1.8891-13.6232-2.0527-20.4128-2.6916l-18.14-1.707-28.5514-2.6868-70.9653-6.678c-4.1177-.3875-9.0418,1.1853-11.523,4.6916-2.05,2.8975-1.1174,6.5437,2.815,6.9137Z" transform="translate(265.4314 -812.6755)"/><path id="click_here" data-name="click here" class="cls-1" d="M-107.3195,1165.7919c-4.0617-.1908-7.956,1.7943-10.9328,4.4251-7.5141,6.6411-15.1491,13.1552-23.2746,19.04a123.8182,123.8182,0,0,1-20.0125,11.1889,81.5413,81.5413,0,0,1-19.3435,4.7415,65.23,65.23,0,0,1-21.2119-2.06,50.7146,50.7146,0,0,1-15.9963-9.1175,60.3918,60.3918,0,0,1-11.434-16.0542,88.9125,88.9125,0,0,1-6-21.0334,102.1092,102.1092,0,0,1-.51-18.2647,85.3958,85.3958,0,0,1,1.8646-10.428c-.1169.3689-.2467.7762-.3948,1.2366.1463-.4551.2772-.9153.4224-1.3708.0078-.0243.0163-.0484.0241-.0727.0775-.3111.1521-.623.2335-.9334.3212-1.2235,1.0312-3.0833.0124.1928.2856-.8615.582-1.72.9-2.57.37-.99.7654-1.97,1.18-2.9413q1.06-2.0184,2.26-3.9587c-.25.3289-.5258.6894-.8369,1.0932.347-.45.6719-.9182,1.0143-1.3723.21-.3341.4187-.6688.6348-.9988.1825-.2786.396-.5712.5873-.818q.201-.1747.3965-.357c-.13.2-.37.5424-.7536,1.0632.3547-.4448.7147-.8855,1.0844-1.318.1223-.1431.25-.2814.3737-.4231.38-.3754.7582-.753,1.1542-1.1058.9965-.8881,2.03-1.7295,3.0881-2.54a57.8506,57.8506,0,0,1,7.2667-3.9508,52.3342,52.3342,0,0,1,10.7724-2.6365,43.5048,43.5048,0,0,1,13.0635,1.3314c.6718.2434,1.3392.4985,2.0012.7735,8.4046,3.4916,16.867-4.51,20.6307-11.4529,2.2965-4.2364,4.406-9.25,4.0743-14.1685-.2195-3.2553-.9891-7.9779-4.4712-9.4245a53.662,53.662,0,0,0-32.9748-2.6553,72.1861,72.1861,0,0,0-31.3953,16.5526c-21.1622,18.8589-31.4618,47.3116-31.6062,75.2372a110.8384,110.8384,0,0,0,5.0409,34.0749c3.3095,10.3113,8.3673,20.6352,15.8836,28.5472A60.4012,60.4012,0,0,0-230.666,1234.44a64.6052,64.6052,0,0,0,16.3983,6.1782c10.9525,2.684,22.7615,2.1064,33.73-.1915,27.2092-5.7005,49.9128-24.0813,70.23-42.0379a33.0175,33.0175,0,0,0,8.8556-12.8906c1.3642-3.6681,2.6133-9.3487,1.2144-13.2619C-101.3782,1169.0456-103.5349,1165.97-107.3195,1165.7919Zm-120.3128-50.6079c-.19.1987-.3529.3682-.4632.4817C-227.7786,1115.2609-227.5386,1115.003-227.6323,1115.184Zm-6.4866,12.8381c.0793-.2478.1642-.4937.2459-.7406q-.1293.4161-.2976.9475C-234.1537,1128.16-234.136,1128.091-234.1189,1128.0221Zm4.816-10.5621q.3991-.5241.8114-1.0379c-.27.3675-.6138.8262-1.0424,1.39.0582-.0936.1188-.1857.1774-.2791C-229.3384,1117.5086-229.3211,1117.4839-229.3029,1117.46Zm207.7884,90.1524c.3318,4.9186-1.7778,9.932-4.0743,14.1685a27.8192,27.8192,0,0,1-10.2332,10.6127c-3.573,1.9208-6.66,2.2767-10.3974.84-16.2955-6.2625-24.33-24.182-28.3569-39.9688-2.0137-7.8941-3.24-15.98-4.54-24.0146-1.74-10.7552-3.2893-21.54-4.72-32.3408q-3.91-29.5241-6.0547-59.2461a1001.4,1001.4,0,0,1-1.5162-118.1656c.4539-9.8514,5.6578-19.6933,14.3075-24.7813,2.9077-1.71,7.2768-2.6419,10.3975-.84,3.0256,1.7469,4.6241,6.1069,4.4712,9.4247q-.934,20.2746-1.0587,40.5748a1002.0569,1002.0569,0,0,0,9.1264,140.4993c1.5966,11.4018,3.346,22.7905,5.3928,34.1194a109.6313,109.6313,0,0,0,6.6059,23.66,44.373,44.373,0,0,0,7.7042,11.0975,30.8249,30.8249,0,0,0,8.4749,4.936C-22.4948,1199.5294-21.7295,1204.4221-21.5145,1207.6124Zm76.8873-24.8405c1.4034,4.2835.1882,9.1467-1.2144,13.2619a31.56,31.56,0,0,1-8.8556,12.8906c-2.6582,2.3937-7.16,4.8566-10.9327,4.4252-3.6768-.4206-5.9869-3.1026-7.0816-6.4439q-4.4859-13.6917-7.8723-27.7074A370.9492,370.9492,0,0,1,9.4836,1074.323c.4917-9.8612,5.6319-19.6779,14.3075-24.7813,2.9076-1.71,7.2767-2.6419,10.3975-.84,3.0162,1.7415,4.6363,6.1125,4.4711,9.4247a334.1611,334.1611,0,0,0,16.7131,124.6456ZM9.982,1008.8682c-1.4994-4.1946-.1651-9.2142,1.2145-13.2617a31.488,31.488,0,0,1,8.8555-12.8906,16.6859,16.6859,0,0,1,10.9328-4.4252c3.7544,0,5.9779,3.3566,7.0816,6.4438,1.4994,4.1948.1651,9.2144-1.2145,13.2619a31.4877,31.4877,0,0,1-8.8555,12.8906,16.687,16.687,0,0,1-10.9328,4.4252C13.3093,1015.3122,11.0857,1011.9556,9.982,1008.8682ZM227.61,1126.7427a15.3848,15.3848,0,0,0-10.9328,4.4253,85.3787,85.3787,0,0,1-8.7582,7.4665,92.509,92.509,0,0,1-14.2489,7.7572,74.921,74.921,0,0,1-17.4054,4.3846,47.9864,47.9864,0,0,1-14.8515-1.34,34.6114,34.6114,0,0,1-10.0756-5.7158,37.433,37.433,0,0,1-6.35-8.8567,69.3226,69.3226,0,0,1-4.07-16.1013,154.3658,154.3658,0,0,1-.9485-29.9793,102.1693,102.1693,0,0,1,1.7-10.6473c.18-.8276.3754-1.6518.58-2.4737.5289-1.6587,1.1146-3.2993,1.773-4.9111.0645-.1581.1346-.3133.2012-.47.0835-.1569.1659-.3143.252-.47.3021-.5468.618-1.0857.941-1.62q.4212-.5377.8622-1.0606.7841-.7026,1.5968-1.3677c.973-.5861,1.969-1.13,2.9932-1.6221a41.1864,41.1864,0,0,1,7.8542-1.812c.8718-.0439,1.744-.0746,2.6183-.0792a16.7288,16.7288,0,0,0,10.9328-4.4252,31.4871,31.4871,0,0,0,8.8555-12.8906c1.38-4.0475,2.7139-9.0671,1.2145-13.2618-1.1-3.0757-3.3311-6.4638-7.0816-6.4439-10.1379.0537-20.4553,2.1849-29.0388,7.837a69.03,69.03,0,0,0-23.2953,25.5728c-9.5946,18.29-12.8824,38.9044-12.4415,59.4058a192.45,192.45,0,0,0,2.5451,26.1414c1.4721,9.2343,4.3083,18.5121,9.8632,26.1722a40.0333,40.0333,0,0,0,19.2172,14.4638,53.928,53.928,0,0,0,13.2067,2.9439,73.0344,73.0344,0,0,0,14.2887-.6152c9.2059-1.1238,18.0294-4.3234,26.4168-8.18a106.9489,106.9489,0,0,0,24.1874-15.6034q2.2787-1.9317,4.4092-4.0261a35.12,35.12,0,0,0,8.8555-12.8906c1.3642-3.668,2.6134-9.3487,1.2145-13.2618C233.5507,1129.9965,231.3943,1126.9206,227.61,1126.7427Zm-83.9573-55.3782c.1417-.269.2819-.5388.4233-.8077C142.1747,1074.7321,142.9449,1072.7075,143.6523,1071.3645ZM294.92,1155.9584a26.3289,26.3289,0,0,1-1.2144,13.2619,31.5618,31.5618,0,0,1-8.8555,12.8906c-2.6582,2.3936-7.16,4.8565-10.9328,4.4251-3.2012-.3661-6.5511-3.1188-7.0816-6.4439q-3.1113-19.5039-5.7287-39.08-8.6342-63.7513-11.7377-128.0845c-.2406-4.9637,1.7535-9.887,4.0744-14.1685a27.969,27.969,0,0,1,10.2331-10.6127c2.9078-1.71,7.2768-2.642,10.3975-.84,3.2664,1.8857,4.3039,5.9713,4.4713,9.4245q.7089,14.6238,1.6969,29.2319,3.408,50.1484,10.1987,99.9867Q292.533,1140.9758,294.92,1155.9584Zm180.1258-23.4207a31.4876,31.4876,0,0,1-8.8556,12.8906c-2.5687,2.17-7.25,5.0954-10.9326,4.425l-61.8757-11.2616-54.3621-9.8941c-8.8577-1.6121-17.8013-2.9828-26.6054-4.8646-8.4474-1.8057-16.8274-5.625-18.9076-14.9126-2.7893-12.4526,4.6312-24.7276,9.5-35.7487q5.6289-12.7424,11.2579-25.4849,11.2581-25.4847,22.5161-50.97c3.3828-7.6577,10.0933-17.7713,19.7883-17.3157,3.5593.1672,6.1332,3.3181,7.0817,6.4438,1.184,3.9021.39,9.63-1.2145,13.2619q-10.7133,24.2517-21.4265,48.5035-5.2659,11.92-10.5318,23.8406-2.7237,6.1659-5.4474,12.3316-.5137,1.1628-1.0275,2.3257c.3018.1315.608.2549.9168.3734,4.1125,1.0652,8.3877,1.6207,12.5524,2.3787q7.9554,1.448,15.9108,2.8959l115.7958,21.0754C478.5478,1114.5372,477.3733,1125.7077,475.0454,1132.5377ZM829.2036,1031.98c7.3026,19.1394,9.1791,39.6527,6.9961,59.9177-.55,5.1065-3.6279,10.1331-6.7358,14.1144a22.0061,22.0061,0,0,1-10.8779,7.6827,8.4879,8.4879,0,0,1-9.1214-2.9109c-2.3477-3.17-2.0757-7.46-1.6913-11.1383a109.8832,109.8832,0,0,0-.5156-20.533,117.1148,117.1148,0,0,0-8.5076-28.7265,115.4752,115.4752,0,0,0-24.5-33.65c-6.5328-5.8187-13.942-11.4434-22.1631-14.5154a25.5637,25.5637,0,0,0-5.9991-.7746,24.2913,24.2913,0,0,0-2.777.7c-1.1226.563-2.2093,1.1846-3.2715,1.8528-1.1922.9231-2.3522,1.8856-3.4687,2.9032-.1364.1243-.2668.2541-.401.38,1.6739-1.625.7074-.74-.2622.2487-.5486.5249-1.09,1.0566-1.6383,1.5827.6361-.61,1.1435-1.0987,1.5423-1.4843-.2645.2716-.5226.5447-.72.77-1.2312,1.4066-2.4008,2.8658-3.5215,4.3618,2.1771-3.0258,1.0444-1.6622.33-.5747q-.34.5171-.6756,1.0367c-.044.06-.09.1184-.1335.1781-.3525.48-.69.9715-1.0425,1.4519.4072-.5551.7583-1.0365,1.0631-1.4567q-.486.7521-.96,1.5121c-2.0988,3.3844-4.0024,6.8863-5.7853,10.4462-.244.4873-.48.9786-.7185,1.4684q-1.1018,2.3974-2.1648,4.8127-5.5347,12.5524-10.5359,25.3324-10.2254,26.082-18.2445,52.9533c-1.4727,4.9241-5.0711,9.4827-8.8556,12.89-2.4145,2.1742-7.3787,5.1192-10.9327,4.4252-21.0448-4.11-23.0163-28.7863-25.4792-46.0177q-8.721-61.0176-15.4426-122.2969-6.5059-59.7261-10.9939-119.6483c-.3676-4.9,1.7878-9.95,4.0743-14.1686a27.9692,27.9692,0,0,1,10.2332-10.6127c2.9076-1.71,7.2767-2.6419,10.3975-.84,3.3358,1.9259,4.21,5.9356,4.4712,9.4246q1.8312,24.408,3.9917,48.79,7.4934,84.443,19.0018,168.4637,1.7978,13.0086,3.6857,26.0045c.368,2.5267.7432,5.0521,1.22,7.5509q7.0842-19.8537,15.4039-39.2394c9.2712-21.58,19.911-44.8332,39.26-59.3247,5.8826-4.4059,12.3983-8.7149,19.7383-10.2007,7.1907-1.4556,13.6142-.4048,20.3711,2.2405,9.632,3.7712,17.9236,10.85,25.4275,17.7895C812.2391,998.0651,822.44,1014.2535,829.2036,1031.98Zm-93.2956-24.449q.13-.1248.2622-.2487c-.1093.106-.2257.2189-.3582.3471Zm-4.6833,5.6921c.1143-.1549.2308-.308.3461-.462q-.2083.29-.459.6353C731.1492,1013.3383,731.1872,1013.2808,731.2247,1013.223Zm283.4168,19.455a15.351,15.351,0,0,0-10.9327,4.4251,117.94,117.94,0,0,1-12.692,10.8506,121.7,121.7,0,0,1-20.2223,11.0027,120.2309,120.2309,0,0,1-30.1141,7.2774,93.6361,93.6361,0,0,1-32.4174-2.91,56.3159,56.3159,0,0,1-18.01-9.955q-1.55-1.5487-2.9322-3.2258a69.9365,69.9365,0,0,0,24.6283-6.024c18.4769-8.017,32.8128-26,39.2206-44.79,3.1525-9.2446,5.06-19.1841,4.4739-28.9868a67.2391,67.2391,0,0,0-2.1649-13.8105c-1.3008-4.7081-3.2882-9.7691-6.75-13.3116-6.5378-6.69-15.6867-10.1092-24.9-11.1137a53.4016,53.4016,0,0,0-23.9148,2.8975A68.5725,68.5725,0,0,0,870.768,953.58c-6.9832,7.6173-12.28,17.3635-15.7629,27.0465-6.0334,16.7731-7.8,35.214-7.2845,52.9519.4889,16.82,3.91,35.3973,15.4938,48.3548,11.1489,12.4707,26.8935,18.8189,43.2567,20.8985,16.0818,2.0438,33.1324.1618,48.6268-4.4623a140.31,140.31,0,0,0,47.86-25.315,116.2023,116.2023,0,0,0,8.6954-7.78,35.2942,35.2942,0,0,0,8.8556-12.8906c1.3642-3.668,2.6133-9.3487,1.2145-13.2618C1020.5827,1035.9317,1018.4262,1032.8558,1014.6415,1032.678Zm-135.0137-46.37c.69-1.8072,1.1609-3.7265,1.8845-5.5255.13-.3245.2727-.6454.4167-.9656.0524-.098.1022-.1974.1556-.2951.3955-.7234.812-1.4354,1.2416-2.1393.4633-.595.9363-1.1823,1.4286-1.7537q1.1232-1.0158,2.306-1.9541a45.6135,45.6135,0,0,1,4.63-2.4964,46.9672,46.9672,0,0,1,9.2577-2.2275,44.26,44.26,0,0,1,13.4375,1.419,29.8267,29.8267,0,0,1,7.8881,4.1347,18.5476,18.5476,0,0,1,2.0495,2.8828,42.4385,42.4385,0,0,1,1.9853,7.3284,52.6126,52.6126,0,0,1,.1734,7.1616c-.1246.926-.2711,1.849-.4469,2.7682q-.1239.6472-.2642,1.2912c-.4858,1.33-.8625,2.7163-1.3968,4.03-.0576.1087-.1122.2187-.1714.3266-.4567.8326-1.4295,2.2475-1.9968,3.0646-.33.4124-.6647.8215-1.0133,1.2215l-.003.0033c-.1628.1539-.3227.3105-.49.4606-.7987.7189-1.6263,1.4011-2.4722,2.06a51.97,51.97,0,0,1-6.1379,3.32,54.2914,54.2914,0,0,1-11.3244,2.7053,51.9358,51.9358,0,0,1-16.2212-1.6968c-1.1562-.4107-2.2975-.8575-3.4257-1.3491a10.4568,10.4568,0,0,0-4.2574-.881c.077-3.0388.2437-6.0745.4752-9.098.3868-3.6537.9071-7.2918,1.644-10.8929Q879.2793,987.7539,879.6278,986.3077Zm274.18-99.1264c2.6945,2.8733,2.1621,8.125,1.6341,11.6806-.7678,5.17-3.56,10.0458-6.7358,14.1145-2.5024,3.2055-6.7863,6.729-10.8779,7.6826-3.7645.8775-6.4941-.1425-9.0582-2.8464a20.0086,20.0086,0,0,0-4.5535-2.6239,27.7325,27.7325,0,0,0-7.0379-.6089,48.1484,48.1484,0,0,0-9.4482,2.4388,80.8262,80.8262,0,0,0-11.6661,6.6789c-3.3745,2.4543-6.6485,5.0421-9.7879,7.7931q-2.6234,2.2986-5.1269,4.7294c-.2043.1983-.6645.6592-1.1162,1.1123-.3146.3317-.615.65-.7864.836a136.7327,136.7327,0,0,0-9.13,11.0219c-.4436.5966-.8782,1.1992-1.3111,1.8031l-.0462.0692c-.4655.7068-.9143,1.4239-1.3656,2.14a262.5825,262.5825,0,0,1,23.0636,107.6019c-.0234,9.7261-5.9575,19.87-14.3075,24.7813-2.9077,1.71-7.2767,2.6418-10.3976.84-3.1353-1.81-4.4793-6.043-4.4711-9.4246a247.7883,247.7883,0,0,0-2.0076-31.9356,251.785,251.785,0,0,0-19.941-67.65,247.5544,247.5544,0,0,0-23.001-38.8243c-2.4326-3.3593-2.21-7.804-1.634-11.6805.7677-5.17,3.56-10.0458,6.7358-14.1145,2.5024-3.2056,6.7862-6.729,10.8779-7.6827,3.3655-.7844,6.9977-.0217,9.1213,2.9109q7.2114,9.9585,13.3988,20.5966,3.6007-4.7988,7.5515-9.2931a166.2948,166.2948,0,0,1,20.4487-19.7828c6.9539-5.5809,14.4134-11.1112,22.4592-15.0326,8.3827-4.0857,16.997-6.7805,26.3658-6.9906a32.445,32.445,0,0,1,12.1795,2.3622C1147.7942,881.3654,1150.94,884.1227,1153.8078,887.1813Zm57.2465,40.1938c-.2086.4164-.4857.9621-.8464,1.6637.0294-.0669.0581-.1342.0876-.201.1586-.3175.3169-.6353.4815-.95C1210.8671,927.7158,1210.9631,927.5468,1211.0543,927.3751Zm127.6819,57.842c-1.14-3.19-3.297-6.266-7.0817-6.4438-4.0769-.1917-7.9305,1.8079-10.9327,4.425q-3.7551,3.2739-7.764,6.2228a104.6646,104.6646,0,0,1-50.7306,18.3683,91.4307,91.4307,0,0,1-31.569-2.8,54.8675,54.8675,0,0,1-17.5056-9.6373,42.8986,42.8986,0,0,1-5.7888-7.2005c29.924-6.5061,56.0512-28.5283,70.8357-54.845a121.4664,121.4664,0,0,0,11.0846-27.4564,51.0046,51.0046,0,0,0,2.1733-15.3623c-.2057-5.4194-1.5963-11.5741-5.3592-15.7143-12.2376-13.4642-33.61-10.398-48.7316-4.237-37.4864,15.2727-58.1458,56.0123-63.3126,94.3525-2.478,18.3883-2.0174,38.3481,8.5121,54.379,8.8521,13.4774,23.9029,20.7491,39.2294,24.0179,15.6513,3.3382,32.56,2.0688,48.0458-1.5368,17.9588-4.1815,34.4846-12.3215,49.4376-22.9713q4.8764-3.4731,9.3872-7.4081a32.7821,32.7821,0,0,0,8.8556-12.8906C1338.8859,994.811,1340.135,989.13,1338.7362,985.2171Zm-91.5047-51.02c-.5032.5078-.7.6975,0,0Zm-32.1855-13.51c-.3688.5016-.8952,1.22-1.626,2.2173C1213.962,922.1639,1214.5009,921.4229,1215.046,920.6865Zm-4.8381,8.3523c-.1886.367-.3974.7717-.6338,1.2275.2455-.4735.4829-.9513.7214-1.4285.1006-.228.1961-.4581.2984-.6852.5414-1.2018,1.6856-3.2237.46-.7775.6822-1.2837,1.3894-2.5542,2.1331-3.8035.617-1.0366,2.2485-3.35,2.5318-3.7757.1422-.1859.2783-.376.4233-.56q1.527-1.9389,3.1853-3.77c.0579-.056.1143-.1134.1727-.1689a69.4942,69.4942,0,0,1,5.8924-4.9885,66.4151,66.4151,0,0,1,8.8816-4.8692,56.5046,56.5046,0,0,1,12.1166-2.9608,37.171,37.171,0,0,1,10.5042.8348,20.1134,20.1134,0,0,1,4.3592,2.3536,13.913,13.913,0,0,1,.9774,1.3078c.015.0506.0266.1026.0411.1534.0006.04-.0013.081-.001.1214q-.2253,1.3152-.5317,2.62c-.0583.2484-.1245.4948-.1856.7426-.7019,2.1836-1.4629,4.3429-2.34,6.4656-.199.4815-.4079.9583-.6175,1.4349-.2145.4159-.4287.832-.65,1.2443-1.0891,2.03-2.268,4.0112-3.5185,5.9459-.0489.0667-.0963.1344-.1456.2008q-1.2483,1.6828-2.5749,3.3055-1.2251,1.4977-2.5142,2.9416c-.2631.2948-.6379.69-1.0139,1.0786a98.6473,98.6473,0,0,1-9.09,7.7315,90.0231,90.0231,0,0,1-13.4706,7.3658,82.8367,82.8367,0,0,1-18.297,4.6516,11.3786,11.3786,0,0,0-4.4767,1.8589q.9459-6.0207,2.431-11.94c.1183-.4747.2433-.9476.3671-1.4208.4187-1.3651.8426-2.7277,1.3062-4.0794Q1208.4056,933.1532,1210.2079,929.0388Z" transform="translate(265.4314 -812.6755)"/></svg>