<svg id="Layer_1" data-name="Layer 1" xmlns="http://www.w3.org/2000/svg" width="1466.163" height="658.3993" viewBox="0 0 1466.163 658.3993"><defs><style>.cls-1{fill:#d6d2b9;}</style></defs><path id="pssst..." class="cls-1" d="M550.0638,585.25c-4.9147-3.4543-10.5528-5.2215-16.2585-6.9207a68.3565,68.3565,0,0,0-13.9682-2.524c-9.5249-.78-19.1764-.2333-28.6954.3892-11.6255.76-23.2489,1.8864-34.7857,3.5191a405.3839,405.3839,0,0,0-76.2476,18.6543q.2964-8.1705.7038-16.3369c.2769-5.3744-2.3693-12.48-7.2607-15.3041-5.0675-2.9258-12.1623-1.4132-16.8839,1.3643-14.1061,8.2977-22.4078,24.2209-23.2331,40.2409q-.2441,4.7358-.4382,9.4725A424.2975,424.2975,0,0,0,232.007,685.6389q-5.51,4.9917-10.8226,10.1936c-6.2113,6.0672-11.3144,12.69-14.38,20.9323-2.2152,5.9563-4.2437,15.1808-1.9721,21.5353,1.8518,5.18,5.3537,10.175,11.4995,10.4638,6.4113.3012,13.2275-2.7655,17.753-7.1858a394.4387,394.4387,0,0,1,45.72-38.292,406.261,406.261,0,0,1,52.3421-30.437,1091.6387,1091.6387,0,0,0,14.6389,165.2535q5.22,31.6764,12.3917,62.9858a13.7524,13.7524,0,0,0,11.5,10.4638c6.1257.7006,13.4364-3.2989,17.7529-7.1858,11.3614-10.2305,19.9117-26.8914,16.3522-42.4675Q398.91,836.2017,394.35,810.2373c40.499-2.2271,77.9336-27.2683,108.9375-51.5578,20.2784-15.8867,38.9538-34.5553,51.8921-57.0169,14.51-25.19,22.701-56.0014,15.6-84.8138C567.655,604.17,560.8235,592.8118,550.0638,585.25ZM477.0249,722.9934a215.0282,215.0282,0,0,1-35.5372,20.2018,116.8676,116.8676,0,0,1-26.867,6.8422,91.0343,91.0343,0,0,1-17.1681-.6716c-3.7619-.51-7.8716.8788-11.51,2.88q-5.4906-48.985-6.3749-98.335a399.9461,399.9461,0,0,1,85.1262-17.363c14.5-1.2775,29.86-2.36,43.951,1.2014a38.83,38.83,0,0,1,9.7863,5.36,36.5582,36.5582,0,0,1,4.7664,6.6955,56.2888,56.2888,0,0,1,2.5963,9.175,69.74,69.74,0,0,1,.1815,7.877c-.3137,2.1634-.72,4.3075-1.2056,6.438q-.999,2.9415-2.1935,5.808-1.6751,3.13-3.5524,6.1433c-2.753,3.6624-5.699,7.1665-8.8028,10.5387A285.292,285.292,0,0,1,477.0249,722.9934Zm383.3991-77.52c3.9675,10.6539,1.4477,22.908-1.8338,33.33-3.12,9.9089-8.8375,18.8776-14.9644,27.1632-7.7881,10.532-18.2371,19.6108-28.3668,27.8869a297.9252,297.9252,0,0,1-32.7829,23.2328,269.004,269.004,0,0,1-66.5295,28.9887c-5.7963,1.6522-11.0689-.3084-14.8117-4.7269-4.224-4.9865-3.542-12.9838-2.6534-18.9674,1.178-7.933,5.8969-16.8259,10.9378-22.92,4.5546-5.5057,10.676-10.4837,17.6641-12.4755q11.2647-3.2107,22.1748-7.4707a247.9832,247.9832,0,0,0,42.0732-22.9273c6.1293-4.4446,12.097-9.1566,17.7919-14.1669q-.7395-.3051-1.4943-.5829c-16.76-4.6855-34.6825-6.7953-51.93-8.1573a347.8439,347.8439,0,0,0-54.3411.0022c-12.1189,1.213-24.1015,3.2248-36.1515,4.99-13.553,1.9854-27.5161,3.7145-41.2212,2.5254a84.7911,84.7911,0,0,1-18.103-3.7438c-6.5706-2.0562-12.6287-4.3227-16.6784-10.4416-7.1127-10.7461-4.8313-24.9974-.854-36.4a95.5145,95.5145,0,0,1,10.1558-19.9942c13.5528-20.95,30.9262-38.4394,50.3593-53.9672,17.6789-14.1263,35.897-28.5434,56.0372-39.0035,20.4771-10.6351,45.129-18.3791,68.0946-11.6976a12.2866,12.2866,0,0,1,9.0771,5.2407q1.2112,2.6115,2.4223,5.2231c2.4349,6.8115.268,14.9626-1.9721,21.5352a51.1313,51.1313,0,0,1-14.38,20.9323c-3.6516,3.0852-12.26,8.7837-17.753,7.1858a60.7085,60.7085,0,0,0-19.4462-2.3357,85.38,85.38,0,0,0-17.6676,4.5277,174.7557,174.7557,0,0,0-27.847,16.0062c-15.38,10.9721-30.6524,22.7265-44.1258,35.9747-.0406.0441-.081.0886-.1216.1327a107.4969,107.4969,0,0,0,23.51.6946c13.0082-1.3869,25.8629-3.9183,38.8464-5.5125a390.2286,390.2286,0,0,1,48.3306-3.0658A336.78,336.78,0,0,1,827.889,621.16c6.145,1.4415,12.72,3.0731,18.1958,6.3364C853.17,631.7188,857.5931,637.8712,860.424,645.4729Zm214.97-67.9261c2.5477,8.6089,2.2928,18.7846.18,27.4421a115.5843,115.5843,0,0,1-11.5163,29.2286c-6.9076,12.4313-16.0819,23.931-24.96,35.0326-18.0857,22.615-39.7372,43.108-67.5451,52.7512a81.5827,81.5827,0,0,1-34.7137,4.0661c-11.3549-1.2359-23.14-5.3706-31.7987-12.9761a14.2623,14.2623,0,0,1-6.374-8.86l-.8865-6.4442c-.5387-7.987,2.8869-16.1281,6.616-23.0075,3.5571-6.5621,9.95-13.65,16.6171-17.2334,3.875-2.0831,12.688-5.05,16.8839-1.3642a45.8875,45.8875,0,0,0,13.9677,8.3843,59.4355,59.4355,0,0,0,16.83,1.6451,73.7645,73.7645,0,0,0,14.5064-3.5028,83.6708,83.6708,0,0,0,9.9227-5.5106,125.8087,125.8087,0,0,0,11.17-9.68,280.3291,280.3291,0,0,0,22.3533-27.63q1.2995-2.0144,2.4949-4.0888-.4473-.62-.9353-1.21a27.43,27.43,0,0,0-5.4651-2.9582c-10.342-2.4331-21.3706-1.6012-31.8843-1.5554l-42.47.1852-38.098.1661c-6.7957.03-12.3678-.2458-18.8778-2.5394-9.6808-3.4106-13.264-13.7994-14.0912-23.0973-.716-8.047,1.4862-16.0495,3.6518-23.707a114.727,114.727,0,0,1,5.5764-16.1163,163.3568,163.3568,0,0,1,21.4315-35.75c26.7754-33.3931,70.4249-56.89,114.0342-51.1,15.3958,2.0439,13.1044,21.5043,9.5273,31.9991a51.13,51.13,0,0,1-14.38,20.9323c-4.4265,3.74-11.545,8.01-17.7531,7.1857a91.7132,91.7132,0,0,0-16.9878-.65,100.454,100.454,0,0,0-22.4549,5.4735,71.1052,71.1052,0,0,0-24.04,15.9061q-2.8233,3.1533-5.3921,6.5161-1.5366,2.46-2.9225,5.0079c3.871.094,7.8019-.1884,11.5291-.2047l23.7331-.1034,46.8417-.2043c11.3886-.05,23.3909-1.0979,34.6207,1.2935,5.936,1.2641,12.5892,3.1118,17.4888,6.9277C1068.4273,563.3391,1072.9874,569.4146,1075.3939,577.5468Zm185.185-251.925c-1.1781,7.9329-5.8969,16.8259-10.9379,22.92-4.4162,5.3384-10.7641,10.7048-17.664,12.4755q-21.5367,5.5269-42.9545,11.5022-16.9665,4.7388-33.8479,9.7721c.204,1.145.404,2.2907.6106,3.4352q10.2018,56.537,24.4734,112.2374,7.13,27.8258,15.2654,55.3811,4.067,13.7745,8.3831,27.4739c2.403,7.6265,4.5,15.5565,7.51,23.0069a25.3174,25.3174,0,0,0,2.1241,3.2141c.1837.1128.3746.216.5635.3206a12.2275,12.2275,0,0,1,6.5474,4.7388q1.2111,2.6116,2.4222,5.2231c2.4351,6.8115.2682,14.9626-1.9721,21.5352a51.1308,51.1308,0,0,1-14.38,20.9323c-3.5589,3.0068-12.3509,8.8709-17.753,7.1858-2.737-.8537-5.697-1.4214-8.1906-2.9211a35.2631,35.2631,0,0,1-5.9308-5.1,23.7289,23.7289,0,0,1-4.5646-6.1387c-3.4283-6.52-5.7115-13.2971-7.9716-20.2671q-6.46-19.9241-12.3918-40.0144-21.0141-71.1684-35.3108-144.0944-4.9535-25.2621-9.0931-50.6833-33.5343,10.9074-66.69,22.9388c-5.5894,2.0284-11.2327-.502-14.8115-4.7269-4.2241-4.9865-3.5421-12.9838-2.6535-18.9675,1.178-7.9329,5.8969-16.8259,10.9379-22.92a39.3783,39.3783,0,0,1,17.664-12.4754q20.9007-7.5853,41.9563-14.7329,2.9169-.9894,5.8385-1.9646-3.1571-24.203-5.62-48.4832c-.7956-7.8421,2.96-16.2635,6.6161-23.0075a45.4177,45.4177,0,0,1,16.6169-17.2333c4.7217-2.7775,11.8163-4.29,16.8841-1.3643,5.53,3.1928,6.68,9.5827,7.2605,15.3041q2.7625,27.23,6.4562,54.3524.33,2.3448.6619,4.6891,47.9037-14.7741,96.4806-27.2383a13.8975,13.8975,0,0,1,14.8117,4.7269C1262.1494,311.6409,1261.4674,319.6381,1260.5789,325.6218ZM1377.74,606.8847a30.6443,30.6443,0,0,1-12.0186,6.6719l-5.7344.5138a12.2876,12.2876,0,0,1-9.0772-5.2407l-2.4223-5.2231a22.5574,22.5574,0,0,1-.5588-10.0943,31.7055,31.7055,0,0,1,2.5309-11.4409,40.9366,40.9366,0,0,1,6.246-11.5226,37.3137,37.3137,0,0,1,8.1341-9.41l3.7163-3.7164a30.6419,30.6419,0,0,1,12.0185-6.6719l5.7345-.5138a12.2876,12.2876,0,0,1,9.0772,5.2407l2.4222,5.2231a22.556,22.556,0,0,1,.5589,10.0943,31.7056,31.7056,0,0,1-2.531,11.4409,40.9316,40.9316,0,0,1-6.246,11.5226,37.3133,37.3133,0,0,1-8.134,9.41l-3.7163,3.7164Zm138.3326-33.6938c-6.0966,0-9.7074-5.4507-11.5-10.4639-2.435-6.8115-.2681-14.9626,1.9721-21.5352a51.1313,51.1313,0,0,1,14.38-20.9323c5.1632-4.3623,10.94-7.1858,17.753-7.1858,6.0966,0,9.7074,5.4507,11.5,10.4639,2.435,6.8115.2681,14.9626-1.9721,21.5352a51.1313,51.1313,0,0,1-14.38,20.9323c-5.1632,4.3623-10.94,7.1858-17.753,7.1858Zm111.49-40.88a12.2878,12.2878,0,0,1-9.0773-5.2407l-2.4222-5.2231a30.6432,30.6432,0,0,1-.2312-13.7444l2.2033-7.7909a40.9324,40.9324,0,0,1,6.246-11.5225,37.3153,37.3153,0,0,1,8.134-9.41,23.5023,23.5023,0,0,1,9.0065-5.4448,15.2351,15.2351,0,0,1,8.7465-1.741H1657.6a12.2876,12.2876,0,0,1,9.0772,5.2407l2.4222,5.2231a30.64,30.64,0,0,1,.2312,13.7444l-2.2033,7.7909a40.9324,40.9324,0,0,1-6.246,11.5225,37.3133,37.3133,0,0,1-8.134,9.41,23.5015,23.5015,0,0,1-9.0065,5.4448,15.2351,15.2351,0,0,1-8.7465,1.741Z" transform="translate(-203.837 -253.2333)"/></svg>