<svg id="Layer_1" data-name="Layer 1" xmlns="http://www.w3.org/2000/svg" width="497.6935" height="491.9261" viewBox="0 0 497.6935 491.9261"><defs><style>.cls-1{fill:#2e4ac0;}</style></defs><g id="iTunes"><path class="cls-1" d="M2028.0245,633.8952l.0046-.0042C2028.2359,633.2737,2028.3694,632.6468,2028.0245,633.8952Z" transform="translate(-1852.3065 -275.8002)"/><path class="cls-1" d="M2023.535,638.8282c-.2837.2826-.5042.5148,0,0Z" transform="translate(-1852.3065 -275.8002)"/><path class="cls-1" d="M2348.6074,484.2473a216.3815,216.3815,0,0,0-18.3492-67.5543c-10.4687-22.6652-25.452-43.14-42.6921-61.123-18.5159-19.3144-40.2047-35.8929-64.333-47.57-12.5822-6.0891-25.8681-10.4816-39.2378-14.4852a337.9059,337.9059,0,0,0-43.5979-10.1952,275.8878,275.8878,0,0,0-88.8419.6244,180.1719,180.1719,0,0,0-20.3553,4.5894c4.645-1.6445,9.3005-3.0392,14.13-4.24,2.1128-.5253,12.2305-3.2753,11.29-6.7837-.9331-3.4824-11.5445-.6335-13.17-.23-54.0213,13.4283-99.88,47.2977-133.2209,91.2869-33.2,43.8033-56.2358,97.0434-57.8246,152.5176-1.4932,52.1369,13.8711,106.73,45.1257,148.7476,16.5908,22.3038,37.6481,40.296,61.25,54.8408,24.761,15.2592,51.6911,28.2527,79.73,36.189,60.8689,17.2283,125.5095.0311,179.7664-29.43,45.6931-24.81,83.334-61.9057,106.0166-108.892C2344.8268,580.0087,2353.6607,531.2506,2348.6074,484.2473ZM2197.31,394.55q-.9006,38.9838-1.8009,77.9676-.5625,24.3505-1.1249,48.7011c-.1857,8.0435-.5548,16.1369-.6883,24.2261a3.1712,3.1712,0,0,1,.119.6494,227.2118,227.2118,0,0,1,.5441,22.7973c.0268.2986.0481.5976.0764.8962a4.1026,4.1026,0,0,1-.1749,1.6065,144.8439,144.8439,0,0,1-3.4992,26.531c-1.56,6.6927-3.1067,14.4319-6.9583,20.2245-5.7125,8.5921-16.7867,11.9432-26.4731,13.2788-16.4162,2.2641-37.7107,3.6153-50.1892-9.5964-12.3425-13.0677-4.23-30.601,7.2947-41.043,14.1612-12.83,33.567-17.4033,51.93-20.1716a17.9065,17.9065,0,0,1,2.8375-.1622c-.11-10.8962.47-21.8351.721-32.6824q.5626-24.3509,1.125-48.7013.3558-15.4036.7114-30.8071a18.4888,18.4888,0,0,1-11.4968,2.63c-35.9859-5.4325-72.6321-.2712-104.8279,15.9527a7.8564,7.8564,0,0,1-.3831.8234,13.6487,13.6487,0,0,1-6.71,5.549,732.2534,732.2534,0,0,0,4.8053,117.2746,88.1741,88.1741,0,0,1,1.7182,29.6565c-.5914,5.87-1.3674,12.7507-4.0071,18.11-2.6694,5.4191-8.9431,10.71-13.6359,14.2205a54.3175,54.3175,0,0,1-25.2932,10.0683c-18.302,2.5877-42.3069.5592-55.0638-14.6018a25.9524,25.9524,0,0,1-5.078-25.0983c2.94-8.6427,10.5681-15.154,18.0375-19.9133a96.3055,96.3055,0,0,1,57.1068-14.8092c.2515.0123.4985.0451.7456.0776a755.0028,755.0028,0,0,1,2.4248-186.5654,8.93,8.93,0,0,1,3.4416-5.5951,10.93,10.93,0,0,1,2.9441-3.2734c11.9865-8.8023,26.17-12.7345,40.3753-16.3523,14.8214-3.7747,29.78-7.2054,44.9842-9.0269,14.1044-1.69,28.687-1.8408,42.7118.6228a117.0233,117.0233,0,0,1,16.9861,4.2228c7.1408-2.6076,16.3411-2.6852,16.2559,1.0052q-.0763,3.2993-.1525,6.5991a10.4938,10.4938,0,0,1,3.607,5.9927C2201.9319,389.4591,2200.04,392.4424,2197.31,394.55Z" transform="translate(-1852.3065 -275.8002)"/></g></svg>