<svg id="Layer_1" data-name="Layer 1" xmlns="http://www.w3.org/2000/svg" width="380.5889" height="355.9337" viewBox="0 0 380.5889 355.9337"><defs><style>.cls-1{fill:#2e4ac0;}</style></defs><path id="Spotify" class="cls-1" d="M959.4409,523.8805a268.0063,268.0063,0,0,0-6.4721-36.8739,180.7465,180.7465,0,0,0-10.03-30.8339c-8.7564-19.9169-23.218-36.238-39.4389-50.4839a191.0782,191.0782,0,0,0-106.8616-46.4662,235.5009,235.5009,0,0,0-115.0237,17.1113A184.5279,184.5279,0,0,0,633.91,405.25a127.0775,127.0775,0,0,0-33.43,43.3932c-16.8319,35.8276-21.0965,76.2437-21.069,115.4016.0124,17.8571,2.806,35.123,9.9563,51.5682,1.2753,2.9329,2.6147,5.88,4.0631,8.7769-3.1555,1.2357-5.67,2.8409-5.1808,3.6366,21.6919,35.2658,58.2685,57.4521,96.7807,70.2569,40.89,13.5954,86.0822,19.9323,128.8216,12.4762a166.992,166.992,0,0,0,59.3615-22.4308A172.702,172.702,0,0,0,916.0545,649.9c13.1116-16.2275,24.3983-34.6039,31.8284-54.1286C956.62,572.8109,961.7683,548.4809,959.4409,523.8805ZM794.6473,624.817c-2.3873.2123-9.1427.8942-11.4393-1.0971a131.8806,131.8806,0,0,0-41.2357-24.1537,134.5358,134.5358,0,0,0-24.4088-5.7556c-1.12-.1533-2.2425-.2757-3.3638-.417l-.0524-.0067c-2.2263-.15-4.4488-.2986-6.68-.36-2.1681-.06-4.33-.0295-6.4968-.0089-1.0558.0723-2.111.1431-3.1656.232-3.3438.2819-8.3214.8555-11.4393-1.0971-2.7146-1.7-.5364-4.1147.9394-5.6184,3.0156-3.0733,8.8721-5.2327,12.7227-6.61a71.6726,71.6726,0,0,1,17.6117-4.0169c38.79-3.27,78.5163,6.8559,108.2817,32.6642,5.7609,4.995-10.649,11.1046-13.6624,12.2281A69.8069,69.8069,0,0,1,794.6473,624.817Zm28.6849-56.8586c-4.16.5495-10.8511.9284-14.8129-1.1909a230.46,230.46,0,0,0-29.3455-13.18q-6.5815-2.4138-13.3022-4.4247c-.0408-.0122-.0857-.0253-.1323-.0388.2221.058.47.1227.7483.195-.5024-.1306-1-.28-1.5009-.4179q-1.5026-.4134-3.01-.8068-3.2666-.8523-6.5567-1.61a234.1046,234.1046,0,0,0-28.16-4.6967c-.6307-.0659-1.2617-.1264-1.893-.1859.1469.0074.2236.0059.1874-.009a5.0845,5.0845,0,0,0-1.45-.1094q-.49-.0455-.9806-.0912c-1.0656-.1005-.315-.0168.625.0737q-3.2423-.2193-6.49-.35-7.0047-.2785-14.0178-.1294-3.4944.0739-6.9855.2592c-.955.0952-1.9306.123-2.8773.2079-4.6564.4176-9.2955.9892-13.9181,1.6857-5.8518.8817-20.7762.99-19.2571-8.6521.5873-3.7292,5.9616-7.4128,8.721-9.0471a48.363,48.363,0,0,1,17.153-5.7281,271.2457,271.2457,0,0,1,38.2727-2.982c41.5858-.3158,83.6842,9.3455,120.4123,28.9928,3.2273,1.7264,5.0265,3.7632,4.4442,7.4612-.64,4.06-5.5391,7.0555-8.7213,9.0471C835.618,565.2768,828.9681,567.2141,823.3322,567.9584Zm56.8265-55.6829a53.8869,53.8869,0,0,1-8.2525,2.095,36.7869,36.7869,0,0,1-7.3047.7918,20.6264,20.6264,0,0,1-5.7681-.2812,199.8993,199.8993,0,0,1-19.0625-6.3869c-19.6765-7.555-38.2085-17.7945-57.9891-25.0925a150.6469,150.6469,0,0,0-16.3912-4.82,164.7226,164.7226,0,0,0-18.5244-3.0292c-3.9458-.3784-7.8983-.6793-11.854-.936-8.5716-.5565-17.0572-.9922-25.6317-.7583-5.0928.2541-10.1784.6707-15.2391,1.2946-2.02.3125-4.033.6612-6.0369,1.0606q-.7866.2-1.57.4127c-.1138.07-.2256.143-.3386.2142l-.03.0235c-3.3817,2.8363-7.4871,4.5582-11.5765,6.0942a64.477,64.477,0,0,1-16.0552,3.6456,22.1816,22.1816,0,0,1-6.2055-.0142,9.0269,9.0269,0,0,1-4.2446-1.0769q-1.6137-.8658-1.0176-2.3237a3.4371,3.4371,0,0,1,1.8423-2.9144,57.9224,57.9224,0,0,1,5.279-3.87A63.3411,63.3411,0,0,1,664.17,471.13a155.7049,155.7049,0,0,1,17.0386-6.07c4.388-1.3142,8.895-2.28,13.37-3.2258,2.864-.6054,5.75-1.1058,8.6461-1.5293a271.8222,271.8222,0,0,1,40.2835-2.97c4.9237.0161,9.8284.3514,14.7417.6486,10.0331.6068,20.087,1.3651,30.033,2.8519,17.2045,2.572,33.4987,8.5955,49.3425,15.6157,14.4637,6.4086,28.6227,13.5519,43.4686,19.0605,3.86,1.3674,7.7591,2.6178,11.7107,3.6944a4.2451,4.2451,0,0,1,3.6371,2.3117q-.1521.9061-.3038,1.8123a12.6775,12.6775,0,0,1-4.5855,4.1017q-1.9594,1.0341-3.9192,2.0683A47.4674,47.4674,0,0,1,880.1587,512.2755Z" transform="translate(-579.4111 -357.9923)"/></svg>