<svg id="Layer_1" data-name="Layer 1" xmlns="http://www.w3.org/2000/svg" width="1212.9597" height="1231.9114" viewBox="0 0 1212.9597 1231.9114"><defs><style>.cls-1{fill:#2e4ac0;}</style></defs><path class="cls-1" d="M296.5359-423.4366q517.2852-11.7,1034.76-8.2794,63.6489.4283,127.2959,1.0875c9.1412.0946,25.2194-2.657,30.2687,8.13,2.1506,4.5945.8743,14.0755,1.1307,19.1174.7165,14.0878,1.2044,28.1873,1.5764,42.2881,1.424,53.968,1.2931,107.983.5978,161.9616-.9368,72.7215,1.2114,145.4767,3.488,218.1664,5.0628,161.6539,4.8333,323.18,4.6666,484.9017l-.1339,130.02-.0628,60.9471c-.022,21.3373,8.0134,69.4-20.8238,72.0835-83.1233,7.7356-167.5555,8.6889-250.9716,11.042-167.2185,4.7173-334.5176,4.6892-501.7874,4.1468-84.2612-.2732-168.5223-.6643-252.7841-.6333q-63.0715.0231-126.1423.4171c-8.0022.0539-20.6793,2.6075-28.3025-.6438-13.8377-5.9017-14.6625-18.0191-14.2415-30.6584.77-23.123,1.8593-46.2409,2.8256-69.3565,13.7587-329.1461,31.3052-658.6345,13.107-987.9844Q317.5268-369.586,312.4-432.3786c-.4443-5.4825-6.9793.1439-6.69,3.7139,27.9932,345.4422,13.6529,691.3609-1.2423,1037.0409q-2.88,66.8452-5.5993,133.6975c-.445,11.1247-3.7379,27.8114,2.7038,38.1472,7.402,11.8767,22.4237,10.3331,34.6587,10.2859q133.61-.516,267.2133-.253c175.228.5477,350.4745,1.701,525.6854-1.5115,87.1618-1.5981,174.3077-4.2827,261.3814-8.5494q32.5842-1.5967,65.1527-3.4934c11.8642-.6922,30.0216,1.1776,40.569-6.2844,6.5324-4.6214,9.1764-11.5229,10.2492-19.1985,2.6981-19.3039.311-40.54.331-60.0258.1829-177.476,2.2009-355.0674-.4377-532.528-1.6164-108.71-8.1888-217.4067-8.1007-326.1493.0284-35.0586,1.0422-70.1217,1.0446-105.1869.0021-30.7128-.2484-61.43-1.0618-92.1331-.3736-14.1008-.86-28.2-1.5764-42.2881-.3846-7.5633,1.798-22.5612-4.1841-28.6685-8.2377-8.41-32.3205-3.3728-43.0321-3.48q-36.9564-.37-73.9135-.6615-65.7014-.52-131.4045-.792-135.5124-.562-271.0264-.081-271.0254.9672-542.0142,6.111-65.6917,1.2471-131.3784,2.741c-3.6114.0817-7.1187,8.5777-3.192,8.4889Z" transform="translate(-294.8088 441)"/><path class="cls-1" d="M817.4468-81.972c37.5787-45.9805,98.0517-66.7634,155.7735-51.2422,28.46,7.6527,55.9826,23.8166,74.2236,47.2545,24.8245,31.8973,21.6884,66.0683,3.695,100.479-29.4324,56.287-62.8421,110.8081-94.2658,166.01-24.5515,43.1294-62.4659,91.9758-53.0736,144.5394.7965,4.4578,7.0444-2.149,6.44-5.5338-7.7781-43.53,20.9893-82.7022,41.443-118.6329q28.035-49.2491,56.07-98.4979c17.71-31.1107,37.4362-61.7928,52.802-94.1432,9.6131-20.2391,15.7523-41.833,10.7363-64.2324-11.903-53.1527-70.0457-85.6993-120.756-90.3566-52.83-4.852-103.316,18.928-136.5037,59.5357-3.0032,3.6747-.5035,9.6163,3.416,4.8206Z" transform="translate(-294.8088 441)"/><path class="cls-1" d="M900.17,445.24c-14.0823,8.7807-12.6474,28.6911-.0715,38.32,15.8064,12.1023,37.6406,5.1566,45.4516-12.4249,8.9124-20.06-6.6463-39.0583-25.918-44.8733-14.5334-4.3853-33.85,8.5063-25.0871,24.6406,1.8593,3.4237,7.4918-3.8117,5.7555-7.0088-7.24-13.3322,13.6915-10.127,18.1042-8.3483a49.76,49.76,0,0,1,11.3806,6.6561c9.2617,7.0943,15.7264,18.5093,8.9773,29.5917-6.1154,10.0418-18.9031,11.5989-28.9656,6.8253-7.0524-3.3455-20.8487-18.65-9.4983-25.7277,2.9548-1.8425,4.4676-10.5166-.1287-7.6506Z" transform="translate(-294.8088 441)"/></svg>