<svg id="Layer_1" data-name="Layer 1" xmlns="http://www.w3.org/2000/svg" width="615.1184" height="449.4442" viewBox="0 0 615.1184 449.4442"><defs><style>.cls-1{fill:#2e4ac0;}</style></defs><path id="YouTube" class="cls-1" d="M1341.2277,401.1591c-3.27-26.6249-12.6434-52.74-35.4434-68.6739-23.8272-16.6524-54.5886-19.1041-82.5892-22.342-34.9029-4.0361-69.8725-7.5177-104.9059-10.2038-70.1918-5.382-140.6948-7.5746-211.0542-4.5877-16.455.6985-32.8724,1.8312-49.3035,2.9318-10.7.7168-21.42,1.31-32.0628,2.6777-21.06,2.7055-42.2815,8.6118-57.944,23.7433A73.7351,73.7351,0,0,0,755.98,339.952c-5.844,8.3223-8.8532,18.7547-11.1395,28.4454-3.4938,14.8075-5.233,29.9816-7,45.0707-3.9052,33.3531-7.32,66.8652-9,100.4125-2.9038,57.9533.737,122.7525,37.0943,170.9,8.9291,11.8249,19.9407,21.9745,33.61,28.0117,14.2384,6.2884,29.6737,8.5333,44.9553,10.7578,32.3191,4.7044,64.6918,9.0887,97.17,12.5473,65.1554,6.9384,131.0514,10.2522,196.4149,4.1669a594.9917,594.9917,0,0,0,94.9493-16.2973c15.5218-4.0464,30.8953-8.7707,45.9406-14.3409,13.152-4.8694,26.3687-10.7581,36.6352-20.5682,10.5384-10.07,15.9445-23.7205,18.4832-37.8376,2.8622-15.9151,3.3524-32.318,4.3642-48.4261q3.3387-53.1517,4.3142-106.4166.4845-26.4734.3845-52.9531C1343.1027,429.3182,1342.95,415.1793,1341.2277,401.1591ZM1004.9838,615.23q-.9578.4216-1.9192.8341c-.1646.071-.33.1409-.4948.211l-.0236.01q-.5722.239-1.1466.4745a71.0652,71.0652,0,0,1-6.6931,2.44,20.3731,20.3731,0,0,1-10.1971.5559c-4.842-1.1086-7.5629-4.5586-8.1382-9.4442-.6682-5.6758.2471-11.6369.5831-17.313q.5586-9.4332,1.0151-18.8721.9356-19.3247,1.4581-38.6662c.7016-25.93.8678-51.8785.3273-77.8129-.1015-4.8615-.25-9.7218-.4051-14.5819a18.5033,18.5033,0,0,1,2.3043.7134c2.271,1.0157,4.4218,2.3578,6.6077,3.54l18.5539,10.035q18.2594,9.8759,36.519,19.7516l36.8132,19.9109c10.77,5.8252,22.0215,11.2026,32.1568,18.11a55.3343,55.3343,0,0,1,11.7762,10.4991,31.0974,31.0974,0,0,1,4.4176,7.0711,15.9308,15.9308,0,0,1,1.1306,3.6873c.1126.6658.0671,1.3259.1384,1.99-.051.1688-.1119.3558-.1462.4686-.0665.1317-.1309.2655-.2006.393-.1725.3136-.3633.6172-.5616.9146-.1233.1848-.2585.3615-.3822.5458-.0216.0318-.0275.0422-.0432.0666-.0121.0134-.0147.0153-.0291.0318a57.0156,57.0156,0,0,1-4.7333,4.8714c-1.02.9227-2.0642,1.8177-3.1238,2.6943-1.0281.8506-2.588,2.0909-3.3161,2.6527.1633-.1259-.6041.4614-.7559.5769q-.4348.33-.8708.6574-1.0189.7645-2.0468,1.5165-2.1312,1.56-4.2948,3.0743c-5.8427,4.0976-11.8215,8-17.8582,11.8043q-13.2116,8.3264-26.7853,16.0681c-5.1918,2.9624-10.4847,5.7545-15.758,8.5681-12.9193,6.8933-25.9172,13.6943-39.2118,19.841Q1007.326,614.195,1004.9838,615.23Z" transform="translate(-728.0552 -294.0077)"/></svg>