<svg id="Layer_1" data-name="Layer 1" xmlns="http://www.w3.org/2000/svg" width="569.785" height="197.151" viewBox="0 0 569.785 197.151"><defs><style>.cls-1{fill:#2e4ac0;}</style></defs><path class="cls-1" d="M1160.4617,451.8347c-13.0147-16.452-33.5072-19.8827-53.0129-21.9-30.97-3.2028-62.2667-4.7139-93.3378-6.6705-118.5864-7.4638-237.4477-6.6927-355.7969,4.2773-10.5863.9828-20.69,9.83-28.1187,21.3731a80.6834,80.6834,0,0,0-15.9514,33.3629c-9.47,48.0078-25.4262,110.27,37.6579,124.1717,56.293,12.4041,116.7619,8.559,173.94,8.2941,58-.2709,115.9967-1.005,173.9969-1.2743,49.3631-.2309,101.754,5.2955,139.1629-33.3155C1169.0222,549.169,1190.671,490.0255,1160.4617,451.8347Z" transform="translate(-605.215 -418.3599)"/></svg>