<svg id="Layer_1" data-name="Layer 1" xmlns="http://www.w3.org/2000/svg" width="2732.818" height="761.6392" viewBox="0 0 2732.818 761.6392"><defs><style>.cls-1{fill:#2e4ac0;}</style></defs><path id="freesound_link" data-name="freesound link" class="cls-1" d="M1060.1192,462.1444c-1.4254-3.9878-4.417-8.6392-9.3381-8.4974q-24.8956.7176-49.8.704-.0451-9.5712-.0912-19.1422l-.1658-34.7829c-.0233-4.8761-.1015-9.7561-.0067-14.6319.0359-1.8576.1348-3.7087.2327-5.5624.0144-.0739.0274-.1417.0427-.2232.2718-1.446.4407-2.9071.7413-4.35.0292-.1407.0642-.2815.0975-.4223.0584-.0353.1069-.0634.1531-.09-.02.1074-.0381.2058-.0557.2983q.0338-.1482.0715-.3073l.031-.0182c.8459-.467,1.72-.8724,2.5773-1.3152,2.0441-.5748,4.0343-1.2426,6.1269-1.642.036-.0067.5059-.1215,1.027-.23.15-.0067.3154-.0141.51-.0235q.6092,0,1.2179,0a26.9682,26.9682,0,0,1,4.8838.5629c.699.3064,1.3837.644,2.0683,1.0234,10.4433,5.7868,22.7223-6.8318,27.2054-15.1025,4.2526-7.8446,10.2218-25.1578-.5234-31.112-21.2056-11.75-49.3341,1.9706-63.8153,18.3492-10.1324,11.46-16.8308,26.677-19.39,41.7018-2.0405,11.98-1.7188,24.1875-1.6613,36.2843l.1442,30.2678q-21.24-.4894-42.4669-1.49c-6.537-.3138-12.5658,3.3072-17.2959,8.3433-3.1084-2.5587-5.9425-3.621-10.5556-2.5459-.2435.0568-.4877.128-.7321.1983-1.4684-5.5094-5.1536-9.6322-12.5754-7.8826-10.5986,2.4983-20.523,16.2427-21.6135,26.7469q-.5285,5.0854-1.0805,10.1681a22.6028,22.6028,0,0,0-4.8959,2.6163q-.7056.4962-1.3932,1.04c-.05.0391-.0986.08-.1482.12q-.6218.4964-1.2152,1.0176c-.04.0352-.08.0716-.12.1073-6.0217,5.3432-10.6895,13.2246-11.92,21.014q-.6095,2.4152-1.2271,4.829-8.2576-27.507-16.5154-55.0138c-2.4338-8.1065-10.8043-9.6472-17.5754-5.6639A32.0655,32.0655,0,0,0,793.89,463.28q-.1113-.6115-.2235-1.2231c-.3516-3.732-1.4619-7.7368-2.15-11.2443-.057-.2853-.1239-.5582-.1956-.8251a8.3842,8.3842,0,0,0-6.7752-6.52,14.6494,14.6494,0,0,0-10.6045,1.6809c-8.3692,4.9229-15.9307,15.08-17.0613,24.8921-.0112.0989-.0229.1975-.0341.2965a31.9114,31.9114,0,0,0-.4017,3.473q-1.6557,14.3562-3.3285,28.7112a406.7194,406.7194,0,0,0-31.4074-74.1452,70.4443,70.4443,0,0,0-4.3438-7.7729c-2.5169-4.3888-6.78-4.7751-11.03-3.466a23.7572,23.7572,0,0,0-9.2441,4.9357c-.188.1694-.3749.3428-.5615.5173q-8.2789-35.2259-19.63-69.6486c-1.6171-5.0311-5.0013-7.2787-8.877-7.5759a16.4793,16.4793,0,0,0-9.4087,2.5077q-2.2946-7.9429-4.8288-15.8143c-2.86-8.8635-4.375-19.899-14.9929-21.946-9.1678-1.7673-18.1881,3.0727-25.02,8.7449a58.9567,58.9567,0,0,0-15.0852,19.7163c-3.9871-4.0381-8.7986-7.24-14.5256-8.1112-12.1775-1.8534-22.9671,7.6418-28.877,17.2713-6.0546,9.8644-5.4016,20.1235-4.6756,30.9927q.807,12.0876,1.5964,24.1765.409,6.3048.8062,12.6109c-2.1234,7.1826-3.8982,14.4837-5.5256,21.7424a444.4839,444.4839,0,0,0-8.7236,60.22c-2.8224-19.6024-6.2266-39.1087-10.6807-58.4184-5.4838-23.7753-11.6983-47.9538-20.1887-70.842-1.6878-5.0719-5.12-7.33-9.04-7.5906-3.4485-.2783-7.2923,1.0515-10.8,3.52-.4986.3509-.991.7215-1.4767,1.1074-.1383.11-.2727.2224-.4088.3336q-.42.3453-.8325.7066-.4632.4041-.9074.8231-.2016.189-.4005.3827c-.3118.3028-.6189.609-.9176.9221-.3266.34-.65.6838-.9657,1.0378a39.535,39.535,0,0,0-4.4586,6.0851q-.32-8.2287-.872-16.45c-.1795-5.6249-2.8683-9.8732-6.7794-11.6772-3.1641-1.5306-7.1705-1.3832-11.4656,1.1434a33.4706,33.4706,0,0,0-8.4929,7.1882c-.0546.0642-.1114.1265-.1655.1912-.0207.0244-.04.05-.0607.0745A38.6818,38.6818,0,0,0,441.01,378.97c-.0661,1.5113-.18,3.0412-.26,4.57-.2462,2.6677-.5135,4.7381-.0735,1.8208-.0177.7236-.02,1.4453.0029,2.1634.0009.027.0034.053.0043.08q-1.5351,43.1227-1.1427,86.2715-.8673,8.3616-1.9967,16.5972c-2.38,17.1623-5.5981,34.18-9.4608,51.063a94.288,94.288,0,0,1,.1609-32.772,21.3779,21.3779,0,0,0-.6539-11.574,9.5346,9.5346,0,0,0-6.2738-6.1132,12.6788,12.6788,0,0,0-8.1957.4492,23.9651,23.9651,0,0,0-7.6395,4.6159,10.79,10.79,0,0,0-4.9908-4.9263c-3.39-1.6265-7.7078-1.4935-11.8737.9569a33.4527,33.4527,0,0,0-8.4938,7.19c-.0545.064-.1111.1262-.1655.1907-.0225.027-.044.0548-.0665.082a38.6556,38.6556,0,0,0-8.8305,22.9462c-.0236.52-.0427,1.04-.0649,1.56a113.0932,113.0932,0,0,1-1.8588,16.7342q-.8587,5.0487-1.9991,10.0439c-.2691,1.178-.5751,2.3474-.8714,3.519a183.2748,183.2748,0,0,1-7.6963-52.9355c.1336-7.9435-5.55-14.308-13.693-12.3883-9.005,2.1227-17.4487,12.3081-19.9486,20.8594q-1.0869,3.7184-2.1611,7.44-2.5525-15.437-5.0612-30.8807l-.0045-.0353c-.288-2.0551-.662-4.1021-.9978-6.1495-.0521-.3246-.1175-.6335-.1889-.9347-2.4691-10.39-16.121-6.7606-21.9161-1.5423a41.7966,41.7966,0,0,0-4.2025,4.373c-5.5335,6.407-9.78,15.173-8.824,22.8485a332.898,332.898,0,0,1,2.5338,35.1825,312.3007,312.3007,0,0,1-1.4358,33.3973q-.3468,3.357-.759,6.7069a459.515,459.515,0,0,1-18.3787-76.1827c-.615-4.38-3.6138-6.6633-7.1887-7.4a15.1853,15.1853,0,0,0-10.3865,1.7361q-.4262.25-.84.5126c-.1691.107-.3349.2181-.5016.328-.1051.0694-.2125.1372-.3167.2078-.155.1049-.3068.2136-.46.3212-.1157.0815-.2334.1613-.3477.2441-.0957.069-.1889.1413-.2837.2114-.1743.1294-.3493.2581-.52.39l-.0319.0254c-7.1241,5.5206-11.7752,13.9268-13.76,22.6515Q225.8,534.7833,222.82,546.1733a616.8331,616.8331,0,0,0-40.1937-132.7775,36.2553,36.2553,0,0,0-1.8783-4.3865,1.0558,1.0558,0,0,0-.1752-.3706c-.1269-.2713-.2509-.54-.3688-.8068-.129-.2912-.2622-.5674-.3963-.8408-.1812-.37-.3663-.7262-.5566-1.0641-3.3116-19.5143-7.4028-38.7659-12.0431-58.0945-.06-.2493-.1269-.4915-.1994-.7282-.0162-.053-.0346-.1034-.0515-.1555-.0579-.18-.1181-.3571-.1831-.5294-.0256-.0678-.053-.1334-.08-.2-.0595-.149-.1211-.2961-.1858-.4394-.0355-.0782-.0723-.1552-.1094-.2318q-.0879-.1819-.1817-.3581c-.048-.09-.0961-.1788-.1464-.2659-.0517-.0906-.1056-.1782-.16-.266-.0661-.1067-.1321-.2138-.2013-.3167-.03-.044-.0606-.0858-.0907-.129-3.4328-4.9363-10.63-5.1951-15.9866-2.044a31.5246,31.5246,0,0,0-3.2778,2.2228,34.7361,34.7361,0,0,0-11.9456,16.2338,36.24,36.24,0,0,0-1.7361,5.926c-3.8593,13.5688-7.0906,27.242-9.789,40.9994q-.78-29.6664-1.5625-59.3324c.0944-2.2018-.12-4.4732-.1752-6.6514-.1411-5.5656-2.7788-9.7685-6.6233-11.6049-3.2629-1.56-7.3956-1.4151-11.6217,1.0711a33.8809,33.8809,0,0,0-8.85,7.6143,37.4782,37.4782,0,0,0-8.706,22.7941q-.38,14.5686-.7669,29.1363-1.309-20.6193-2.9042-41.2283C77.591,296.6765,71.86,243.9876,64.9046,191.6116c-.5807-4.371-1.2054-9.0929-5.4867-11.5647-3.83-2.2107-9.1906-1.0678-12.7586,1.0311-10.8788,6.3991-16.61,18.2243-17.5563,30.4087-4.6585,59.969-9.899,116.4871-16.4527,177.0579Q5.2468,456.9688-3.7229,525.2121q-5.89-40.2393-13.3715-80.22c-.3381-1.9706-.7287-3.9338-1.0984-5.8845-.9356-4.9348-4.1248-7.0748-7.8763-7.4818a18.608,18.608,0,0,0-11.34,2.9924q-.32.2049-.6238.4187a35.769,35.769,0,0,0-7.07,6.6755c-.3736.4548-.7411.9176-1.0982,1.392a11.314,11.314,0,0,0-5.792-.022c-9.0048,2.1225-17.4489,12.3081-19.9486,20.8594Q-82.325,499.4657-90.81,535.44c-.8141-39.6559-.8055-79.3329-.19-118.9957.1523-6.5847-3.4464-11.2252-8.58-12.2715a13.0714,13.0714,0,0,0-9.6645,1.7377,32.6649,32.6649,0,0,0-3.9255,2.7139c-6.8594,5.358-12.321,14.266-13.1357,22.1782-4.3032,41.79-8.07,81.5-10.829,121.5857q-1.5876-9.0567-3.1335-18.12.7971-28.4727,1.27-56.9532c.1855-11.842,1.7954-24.8919-2.7616-36.1261-2.4327-5.9973-5.8122-11.6947-11.5671-15.0818-6.8517-4.0327-13.5168-2.7631-20.35.4075a25.8113,25.8113,0,0,0-9.3384,7.5912c-.0177-.0108-.0348-.0225-.053-.0333-2.901-1.8374-6.7605-2.2029-10.8532-.58a25.7847,25.7847,0,0,0-8.1175,5.2491c-5.7576,5.3937-9.5727,13.2026-11.22,20.57-.0388.1728-.08.3462-.12.5191-.0067-.0934-.04.0762-.0918.4-.4646,1.9814-.9837,3.9822-1.3168,5.9912-.3843,1.2826-.2826,1.0358-.035.232-.0324.2036-.0652.4071-.093.611a296.2768,296.2768,0,0,0-5.25,42.4512q-.2833,1.1112-.58,2.2186c.1718-.7633-1.4747,4.7924-1.7141,5.5249q-2.21,6.76-4.87,13.36c-1.0139,2.5176-2.1265,4.9887-3.19,7.4847-.1247.2709-.2323.505-.3295.7168-.41.8293-.817,1.66-1.2379,2.4835q-3.2549,6.3681-6.9562,12.4952c-1.4161,2.3424-2.9157,4.626-4.3892,6.9318-.0553.082-.1038.1538-.155.23-.4583.6422-.9174,1.2842-1.386,1.919q-4.5988,6.2724-9.6867,12.1639c-.7067.8176-1.4262,1.6238-2.1468,2.4291l-.0716.0377c-4.6943,1.4172-9.63,1.151-14.5738,1.3341-5.7488.2132-11.5008.34-17.253.4115-24.6561.3068-49.3121-.4063-73.9684-.0811-11.43.151-20.8077,11.0545-24.282,21.2478-2.24,6.573-4.7015,24.3378,7.1994,24.1808,21.7854-.2876,43.5682.2262,65.3536.1471,10.6839-.0391,21.3689-.2278,32.0413-.7408,11.4761-.5517,21.4717-1.94,31.0949-8.711,8.6623-6.0946,15.671-14.9325,22.0947-23.3148,4.0873-5.3338,8.0081-10.8409,11.6854-16.497,6.3572,51.449,21.4307,102.3808,36.2234,151.5267,1.0394,5.1116,4.4339,7.2408,8.3595,7.5313,3.73.4279,7.9751-.9942,11.4806-3.4606q.4312-.3033.852-.62a34.2122,34.2122,0,0,0,4.6614-4.2445l.0043-.0047c.11-.12.2156-.2431.3237-.3646a37.9031,37.9031,0,0,0,8.33-15.7645q2.1921,10.8084,4.4182,21.6063c.8587,4.9607,4.0648,7.0847,7.8423,7.4776,4.0145.4773,8.6854-1.0764,11.998-3.4069a34.3175,34.3175,0,0,0,5.973-5.382c.075-.0852.1523-.1683.2264-.2543.0216-.0249.0422-.0508.0638-.0755a38.22,38.22,0,0,0,7.1966-12.5644,13.72,13.72,0,0,0,6.3259-1.0758,28.1071,28.1071,0,0,0,9.2047-6.2969c.022-.0218.0445-.0427.0665-.0647.017-.0171.0334-.0348.05-.0519,5.3454-5.3631,9.339-12.741,10.0158-19.4061.0658-.648.1359-1.2927.2065-1.9351.1451-1.32.2926-2.63.42-3.9334q5.3128-49.0266,14.3055-97.5494c1.3147,27.9349,2.7242,55.8642,4.4017,83.7746-.1,5.1062,2.0338,9.0471,5.39,11.0476,2.7043,1.7628,6.3105,2.1058,10.579.4137a27.283,27.283,0,0,0,8.8963-5.9961c5.4807-5.3758,9.4617-12.909,10.4411-19.8235.2215-1.5223.4643-3.0731.6833-4.632.383-1.4731.6954-2.9244.1909-1.4156q.1078-.8447.1966-1.6883.33-2.4336.6527-4.8685,1.464,15.0272,2.7065,30.0947c.7516,9.1809,6.5609,15.191,15.9691,11.4611,9.8926-3.9216,17.7325-15.5111,19.3374-25.8194q21.3363-137.0313,36.3959-274.937,4.0709,55.5369,6.1258,111.2131c1.7446,47.1072,2.0355,94.2485,1.2361,141.3808q-.6145,36.224-1.9253,72.4315c-.8408,24.0464-2.6733,48.1773-2.8224,72.2329-.3149,50.7946,2.0373,103.216,21.5218,150.8036,1.75,5.0838,5.1994,7.355,9.1374,7.5991,3.3646.2891,7.117-1.0056,10.7029-3.5284a34.2545,34.2545,0,0,0,5.9122-5.3135c.0986-.1114.1992-.2208.2965-.3334l.0076-.0092a37.2947,37.2947,0,0,0,9.0751-23.1591c.005-.2345.0113-.476.018-.7213.0341-1.2406.0851-2.611.1006-4.043q1.153-46.9184,2.366-93.8354a14.9573,14.9573,0,0,0,4.1264-1.025,26.13,26.13,0,0,0,8.2667-5.39,39.7958,39.7958,0,0,0,11.0707-20.43q.18-.8919.3594-1.7835c2.6469-13.1595,5.1192-26.3652,6.4863-39.7282.2176-2.1274.4041-4.258.5952-6.3879q.1236-1.3794.2475-2.7584.0394,2.2727.3309.2648c.5665-3.3431.7965-6.7693,1.0935-10.1542,2.1,2.6119,5.362,3.9745,10.1807,2.8388a23.3878,23.3878,0,0,0,11.4854-7.0627,41.3867,41.3867,0,0,0,10.1281-19.6842,759.2793,759.2793,0,0,0,15.9168-118.5211,558.3539,558.3539,0,0,1,7.5409,70.774c-.272,5.0927,1.8974,8.9783,5.2713,10.9761,2.75,1.8137,6.4308,2.1767,10.698.485a25.0979,25.0979,0,0,0,7.6141-4.7861c5.9955-5.405,9.7342-13.4086,11.723-21.0333,3.8218-13.8093,7.4733-27.6631,11.0671-41.5324A492.6629,492.6629,0,0,0,268.28,660.9748c2.7766,5.9555,11.4939,4.0026,15.7449,1.7173,7.0818-3.8068,12.8005-11.5074,15.3963-19.005q4.2023-12.1378,7.5852-24.5327a12.0156,12.0156,0,0,0,4.9159-.2253c9.0253-2.1274,17.417-12.3066,19.9486-20.8594q1.1547-3.9021,2.2932-7.8085a227.44,227.44,0,0,0,12.3227,29.3672c2.5747,5.1109,9.2721,4.1973,13.4688,2.6445,6.6355-2.4549,11.1792-8.1515,14.833-13.95q2.29-3.6344,4.41-7.3552a13.2909,13.2909,0,0,0,8.7417-1.9309,33.707,33.707,0,0,0,8.6059-7.3183l.0279-.0321c.0624-.0737.1217-.15.1835-.224q.966-1.16,1.84-2.3994a132.1512,132.1512,0,0,0,14.0279,28.7537c3.596,5.54,10.8386,4.3548,15.7449,1.7172,7.0714-3.8011,12.818-11.5091,15.3963-19.0049q.5576-1.6213,1.1058-3.2461,2.4422,31.36,6.0227,62.6313a18.4333,18.4333,0,0,0,.3953,2.8472c.598,3.4527,1.7806,6.8061,5.0912,8.7177a10.8709,10.8709,0,0,0,7.3937.96,14.641,14.641,0,0,0,4.6646-1.6036c.233-.1238.4659-.2493.7-.3872a32.8208,32.8208,0,0,0,7.9558-6.5638l.0072-.0077c.0878-.099.1716-.2015.2581-.3014a40.674,40.674,0,0,0,9.3352-23.5356c.1395-1.7279.2992-3.3973.3891-5.0519,3.6225-47.2781,7.6631-94.5225,11.6672-141.77q2.8263,14.9617,5.01,30.0363c1.39,9.5221,2.6692,20.2563,3.7562,30.3988,1.2547,11.7091,1.713,18.1269,2.191,29.5956.94,22.5634,1.5021,45.1039.8223,67.6959a583.8918,583.8918,0,0,1-6.9,73.44c-.971,4.15-.6761,9.5116,1.5349,13.3691a9.0647,9.0647,0,0,0,7.33,4.9244,11.9375,11.9375,0,0,0,1.6147.0692c.0137,0,.0274.0009.0413,0a16.3842,16.3842,0,0,0,7.74-2.4321,34.113,34.113,0,0,0,12.046-12.9031c.7091-1.36,1.398-2.6958,2.0566-4.0278a284.1372,284.1372,0,0,0,13.7054-32.2116Q546.9171,711.1107,543.0439,731q-5.3526,24.8937-11.63,49.5776c-1.31,5.0355-.3715,10.8486,2.5962,14.5383,2.3144,2.8923,5.8751,4.481,10.6017,3.3669.6105-.144,1.204-.3217,1.7878-.5182.1309-.0445.2651-.0834.3947-.13a23.1386,23.1386,0,0,0,8.666-5.7517c5.4184-5.5406,8.88-13.4814,10.7648-20.3471.5671-2.0652,1.2534-4.1434,1.7415-6.24.088-.3107.1056-.3758.0135-.062.0559-.2417.1107-.4832.1606-.7253.0287-.1393.053-.281.079-.4219q5.5821-21.29,9.77-42.8341.9239-4.3193,1.8228-8.6434-1.0971,37.1547-2.2287,74.3085c-.1928,3.0414-.1836,6.1431-.2745,9.0708-.1552,4.9957,1.8985,8.8615,5.14,10.8975a11.5941,11.5941,0,0,0,10.023.859q.4009-.1347.806-.2952a27.3169,27.3169,0,0,0,8.9129-6.0127c5.4916-5.3785,9.519-12.9174,10.4244-19.8066,5.7141-39.7676,11.3677-79.6586,15.5976-119.6164q-1.6273,33.9344-3.2636,67.8682-2.4205,50.0794-4.8775,100.1577c-.2565,5.0359,1.8576,8.8963,5.1648,10.9141a11.9837,11.9837,0,0,0,10.8043.5468,27.149,27.149,0,0,0,8.8408-5.9418c5.5087-5.3789,9.5111-12.9392,10.4965-19.8776.0906-.6386.1919-1.2916.2963-1.9534.2136-1.3531.4416-2.7453.6294-4.1481,11.2717-74.37,22.2173-149.61,25.6065-224.9329q2.5931,36.4605,2.2745,73.2819c-.133,5.56,2.5286,9.66,6.3828,11.4964,3.3635,1.6375,7.6554,1.5122,11.8622-.9623a33.2991,33.2991,0,0,0,8.4217-7.1061,39.1991,39.1991,0,0,0,9.1349-23.3026c.0435-.877.0932-1.7548.1408-2.6326.1577-2.3573.36-4.7671.1447-2.8651q2.2156-43.7183,2.3419-87.4842a368.93,368.93,0,0,1,12.3248,109.6671c-.3435,5.0426,1.8008,8.8832,5.1345,10.8941,2.9131,1.82,6.7778,2.1753,10.8346.567a27.6667,27.6667,0,0,0,9.0335-6.13c5.4548-5.3764,9.4945-12.8729,10.3038-19.6891l.0357-.2882a7.09,7.09,0,0,0,.1568-1.26q.1354-1.0829.2694-2.166c.8376-2.4453.5191-2.08.028-.2269q.6227-4.9867,1.24-9.9743a11.2322,11.2322,0,0,0,5.3021,5.5191c3.21,1.5232,7.2655,1.3664,11.5028-1.1261a34.4792,34.4792,0,0,0,9.0439-7.85c5.2473-6.3738,8.5789-14.61,8.5124-22.5592-.009-2.7512.0566-5.6534-.1127-8.5246q-.1254-7.0632-.3615-14.1235.0159-6.2234.2-12.3652,5.25,17.49,10.5014,34.9812c2.4339,8.1067,10.8041,9.6474,17.5754,5.6644a32.3053,32.3053,0,0,0,9.0114-7.9457q-.1083.9606-.217,1.9212c-.5288,4.2782-.4877,9.7184,1.6478,13.5674a8.8975,8.8975,0,0,0,7.2168,4.7261,15.4387,15.4387,0,0,0,9.5169-2.432,32.1791,32.1791,0,0,0,11.9254-12.8336A123.213,123.213,0,0,0,886.58,559.6827a17.8084,17.8084,0,0,0,3.35-1.5122c7.83-4.6057,14.4-13.0795,17.2885-22.2467q1.7619,1.6345,3.5242,3.2692c3.7454,3.4748,6.7,5.0806,12.0283,3.8389,5.3955-1.2577,11.0444-5.9041,14.3446-10.1311a49.9258,49.9258,0,0,0,6.75-11.19q9.4269-.7369,18.8538-1.474.132,27.6622.2637,55.3246.2048,43.0214.41,86.0423c.0212,4.4729,1.7373,10.027,5.896,12.4281,4.1156,2.3761,9.8768,1.1476,13.7112-1.1079,10.946-6.4389,18.9278-19.8823,18.8667-32.6785l-.5835-122.51h31.1475c12.2569,0,22.3988-11.9919,26.0943-22.8341,1.4821-4.3481,3.0064-12.9264,1.1658-19.0378C1060.9369,471.3722,1061.6521,466.4327,1060.1192,462.1444Zm-46.8946-90.3787c-.38.0279-.7054.0521-.9875.0739A2.58,2.58,0,0,1,1013.2246,371.7657Zm-11.092,2.5731-.0117.0658c-.0548.1034-.1087.206-.1618.3037.01-.04.02-.08.0306-.12C1002.0364,374.505,1002.0849,374.4221,1002.1326,374.3388Zm.1329-.2147c.0072-.0133.018-.0247.0247-.0384-.01.02-.0193.0361-.03.0559Zm.0409-.7581-.0341.08c.0507-.2212.0979-.4422.1365-.6631C1002.3733,372.9875,1002.3392,373.1813,1002.3064,373.366Zm-.7862,1.5869-.3019.4286c-.0952.0719-.1792.1348-.2875.2166l-.0337.0258A3.6573,3.6573,0,0,1,1001.52,374.9529Zm-1.1555,1.2319.3774-.2485c.0148-.0413.0256-.0849.044-.1242.0836-.0685.1869-.1516.3-.2419q-.0924.1308-.1846.2619c.1832-.12.362-.2367.53-.3441-.0458.1181-.0746.1952-.0782.2136.0463-.0878.1011-.1705.1479-.2581.02-.0128.0408-.0265.0606-.0386C999.5907,378.6817,998.5763,377.8666,1000.3647,376.1848Zm1.5643-.74c-.305,1.62-.2381,1.0522,0,0Zm-1.2507.7042a1.2282,1.2282,0,0,1,.0638-.2123q.0795-.0522.1591-.1042C1000.827,375.9375,1000.7524,376.043,1000.6783,376.1486ZM1160.916,476.9948c.13.0007.2583.0045.3877.0059a3.5858,3.5858,0,0,1-1.1092.1109C1160.4569,477.07,1160.7076,477.03,1160.916,476.9948Zm51.3657-27.3758c-9.3539-32.1651-51.664-21.4989-72.5744-9.34a116.8093,116.8093,0,0,0-23.7946,18.3658q-.527-9.3945-1.0652-18.7886c-.2641-4.57-1.5566-9.9226-5.896-12.4279-4.1155-2.3761-9.8767-1.1476-13.7111,1.1079-10.4685,6.1579-19.5932,20.1179-18.8668,32.6786q5.6949,98.5272,9.6423,197.1446c.1815,4.5381,1.6178,9.9579,5.896,12.4278,4.1151,2.3761,9.8768,1.1479,13.7111-1.1078,10.628-6.2518,19.3731-20.0355,18.8668-32.6786q-2.4711-61.7439-5.6282-123.4579c.3279-1.0849.6146-2.1674.8567-3.2393.11-.4886.2323-.9731.3509-1.4587.6644-1.8739,1.3814-3.7151,2.1011-5.5669.1739-.3338.3464-.6685.5274-.9985.3509-.6391.7808-1.6162,1.2683-2.5915.17-.2148.3985-.5133.7031-.9248q.9763-1.3185,2.0018-2.5991c.15-.1876,2.0086-2.35,3.2337-3.7551.704-.6667,1.4138-1.3264,2.14-1.9689,1.4493-1.2819,2.9592-2.4785,4.4786-3.6712.7494-.4917,1.487-1.025,2.2355-1.4846q2.7912-1.714,5.7149-3.2,1.1671-.593,2.3545-1.1476c.1514-.0707.32-.1379.492-.203-.1811.0444-.3572.088-.5674.1388.3477-.0838.6927-.195,1.0377-.3046.1537-.05.3037-.0957.45-.1379,1.3667-.467,2.7194-1.0618,4.0864-1.474,2.0635-.6222,4.1552-1.1766,6.27-1.5942.09-.0177.8769-.1361,1.5984-.25-.7916-.009-1.3387-.1253.669-.1175l.0525.0007a3.4612,3.4612,0,0,0,.5081-.1017c-.0009.044-.05.0784-.12.1076a43.246,43.246,0,0,1,9.043.93,22.9389,22.9389,0,0,1,3.6488,1.9374,6.4009,6.4009,0,0,0,1.1843,1.3441c.0211.0775.0476.1532.0674.2312,3.403,11.7021,16.4978,9.197,23.755,2.662C1207.7586,476.2212,1215.8433,461.8672,1212.2817,449.619Zm-87.5623,48.6858a5.7091,5.7091,0,0,1,1.27-1.5652A11.1793,11.1793,0,0,0,1124.7194,498.3048Zm5.6165-6.389c.3792-.431.6321-.7132.64-.7053A4.795,4.795,0,0,1,1130.3359,491.9158Zm17.4543-11.3483c.15-.0474.3006-.0869.45-.1379,1.21-.35,1.9511-.4028-.92.3037C1147.4744,480.6753,1147.6317,480.6192,1147.79,480.5675Zm132.3244,38.7419c3.7953-3.0466,1.4277-.98,0,0Zm53.2619,82.4019c-1.6707,1.2635-3.3456,2.5217-5.0388,3.7553q-.9542.6978-1.9174,1.3839-2.1,1.5,1.6407-1.1552c-2.2184,2.3882-6.4868,4.3236-9.2735,5.99-3.14,1.8774-6.3506,3.64-9.6454,5.23a26.7254,26.7254,0,0,1-4.2553,1.9376c.9618-.2632,1.5306-.42,1.8186-.4989-.7121.1975-2.8263.7876-3.4539.9989a76.744,76.744,0,0,1-9.7461,2.6025c-1.6855.33-3.864.9918-5.5967.8453q1.058-.1074,2.1155-.2152-1.277.0728-2.5567.0885a58.5364,58.5364,0,0,1-15.5365-1.9434,48.8569,48.8569,0,0,1-14.1083-7.8858,37.3133,37.3133,0,0,1-3.443-4.06c-.86-1.1876-1.5989-2.4262-2.3469-3.683-.0126-.0209-.0292-.0519-.0481-.0876-.2426-.6889-.8459-2.2523-.9317-2.5151-.4789-1.4709-.8806-2.97-1.2189-4.4789-.0673-.3014-.2439-.8951-.3886-1.5023-.0049-.0617-.0085-.1123-.0143-.1853-.2885-3.66-.5544-7.2972-.6191-10.9709-.0512-2.9291-.0526-5.8594-.0323-8.79,31.466-7.5937,58.1708-29.3353,74.7563-57.58,10.5637-17.99,18.4328-40.6534,15.5347-61.7227-1.3927-10.1225-6.1327-20.79-16.1385-25.0552-8.6467-3.6859-18.79-4.8622-28.1384-4.7156a74.0649,74.0649,0,0,0-30.7841,6.7433c-12.2547,5.639-21.6876,16.1719-28.7233,27.4048-11.9,18.9982-15.5765,43.4579-19.0564,65.25a473.5261,473.5261,0,0,0-5.9027,68.6095c-.2444,19.5653-.1312,42.8647,14.5355,57.8335,14.6825,14.9848,34.8359,19.8834,55.2647,17.3027,23.8845-3.0176,45.0267-17.6423,63.725-31.7816,5.0932-3.8512,9.4976-11.1374,11.6774-16.9986,1.7993-4.8369,3.4467-12.3279,1.6016-17.4882C1352.81,592.2849,1341.4864,595.579,1333.3765,601.7113Zm-33.8673-106.17q.53-1.9026,1.06-3.8047A12.76,12.76,0,0,1,1299.5092,495.541Zm-39.3018-14.469c-.0247-.1033.4631-.5.8958-.8374C1260.6315,480.773,1260.2348,481.1868,1260.2074,481.072Zm2.8343-4.1443c.0912-.0045-.0584.3555-.3055.8529-.1743.2581-.3864.586-.6.9261C1262.499,477.73,1262.8494,476.9369,1263.0417,476.9277Zm-2.7755,7.56c.2431-.7026.421-1.4789.6555-2.1573.0921-.2653.416-1.32.7916-2.428.0247-.04.048-.0824.0727-.1233.1955-.1161.3886-.2365.5886-.3461.491-.2689.9919-.5151,1.4883-.771,1.6425-.4319,3.2373-1.0137,4.9054-1.3859,1.5625-.3484,3.1353-.5816,4.7145-.8349a6.4662,6.4662,0,0,0,.7866-.1658c.5921.0092,1.2067.0591,1.4686.0526a78.239,78.239,0,0,1,20.1849,2.0032,20.3971,20.3971,0,0,1,3.1537,1.6564,9.5991,9.5991,0,0,0,1.5719,2.011c.0252.0825.0616.1613.0859.2442.1046.3172.1783.6433.265.9654.0112,1.0223.29,2.7789.29,3.1149,0,.0957-.0036.1961-.0086.2983.067-.3342.1425-.7055.23-1.1229-.1231.59-.208,1.1955-.2884,1.8029-.0171.1426-.0364.2843-.0571.422-.0678.5176-.1374,1.0344-.23,1.541-.2323,1.2754-.5014,2.5448-.7993,3.8063q-.2945,1.2432-.6294,2.4765c-.5647,1.3722-1.23,2.7233-1.7192,3.8467-.4372.8268-.8711,1.6548-1.3339,2.4688-1.4115,2.4842-6.8187,9.1205-.8248,1.7712-1.775,2.1766-3.359,4.4849-5.2,6.6179-.4875.565-.987,1.1175-1.4893,1.6681-.2206.2105-.4362.4261-.6586.6343q-2.839,2.6616-5.8973,5.0791c-1.0158.8017-2.0971,1.5353-3.1026,2.348.3082-.2494.5823-.47.8343-.6723-.0872.06-.1725.1175-.2507.1678q-3.5439,2.2713-7.2886,4.2034-1.7245.89-3.4858,1.7029c-.18.0842-.363.1622-.544.2446-.9394-.2985-6.0712,2.1171-7.2716,2.4531q-3.73,1.0435-7.5483,1.73c-.6357.1137-1.2746.2067-1.9134.2985q2.4718-19.1236,6.6368-37.9766C1259.0164,489.5741,1259.6373,487.03,1260.2662,484.4881Zm-11.0251,110.48c-.0045.0348.0472.5674.1038,1.0951A3.7955,3.7955,0,0,1,1249.2411,594.9685Zm52.04-108.3467c-.0107.22-.0314.45-.0588.68-.0184.1408-.0382.2812-.0571.422C1300.9419,489.2082,1300.5614,490.2167,1301.2806,486.6218Zm139.68,32.6876c3.7948-3.0466,1.4277-.98,0,0Zm53.2619,82.4019c-1.6708,1.2635-3.346,2.5217-5.0388,3.7553q-.9549.6978-1.9174,1.3839-2.1,1.5,1.6407-1.1552c-2.2184,2.3882-6.4868,4.3236-9.2739,5.99-3.1394,1.8774-6.35,3.64-9.645,5.23a26.7415,26.7415,0,0,1-4.2553,1.9376c.956-.2619,1.5238-.4178,1.8136-.4978-.7161.1988-2.8226.7869-3.4489.9978a76.7619,76.7619,0,0,1-9.7461,2.6025c-1.6856.33-3.864.9918-5.5967.8453q1.058-.1074,2.1155-.2152-1.277.0728-2.5567.0885a58.5339,58.5339,0,0,1-15.5365-1.9434,48.8569,48.8569,0,0,1-14.1083-7.8858,37.3323,37.3323,0,0,1-3.443-4.06c-.86-1.1876-1.5989-2.4262-2.3469-3.683-.0126-.0207-.0292-.0517-.0481-.0874-.2426-.6887-.8459-2.2525-.9317-2.5153-.4789-1.4709-.8806-2.97-1.2189-4.4789-.0673-.3014-.2439-.8953-.389-1.5025-.0045-.0617-.0081-.1123-.0139-.1851-.2885-3.66-.5549-7.2972-.6191-10.9709-.0512-2.9291-.0526-5.8594-.0324-8.79,31.4661-7.5937,58.1709-29.3353,74.7564-57.58,10.5637-17.99,18.4328-40.6534,15.5347-61.7227-1.3927-10.1225-6.1328-20.79-16.1385-25.0552-8.6467-3.6859-18.79-4.8622-28.1389-4.7156a74.0672,74.0672,0,0,0-30.784,6.7433c-12.2547,5.639-21.6876,16.1719-28.7234,27.4048-11.8993,18.9982-15.5764,43.4579-19.0559,65.25a473.5261,473.5261,0,0,0-5.9027,68.6095c-.2444,19.5653-.1312,42.8647,14.5355,57.8335,14.6825,14.9848,34.8359,19.8834,55.2643,17.3027C1464.8581,667.6242,1486,653,1504.6986,638.86c5.0927-3.8512,9.4976-11.1374,11.6774-16.9986,1.7993-4.8369,3.4462-12.3279,1.6016-17.4882C1513.6562,592.2849,1502.332,595.579,1494.2225,601.7113Zm-33.8668-106.1707q.53-1.9023,1.0593-3.8043A12.7549,12.7549,0,0,1,1460.3557,495.5406Zm-39.3023-14.4686c-.0247-.1033.4631-.5.8958-.8374C1421.4775,480.773,1421.0808,481.1868,1421.0534,481.072Zm2.8338-4.1443c.0917-.0045-.0584.3555-.305.8526-.1743.2584-.3864.5863-.6.9264C1423.345,477.73,1423.6954,476.9369,1423.8872,476.9277Zm-2.775,7.56c.2431-.7026.421-1.4789.6555-2.1573.0916-.2653.416-1.32.7916-2.4278.0247-.04.048-.0826.0727-.1235.1955-.1161.3886-.2365.5885-.3461.4911-.2689.992-.5151,1.4884-.771,1.6425-.4319,3.2369-1.0137,4.9054-1.3859,1.5625-.3484,3.1349-.5816,4.7144-.8349a6.4645,6.4645,0,0,0,.7867-.1658c.5921.0092,1.2067.0591,1.4686.0526a78.2412,78.2412,0,0,1,20.1849,2.0032,20.42,20.42,0,0,1,3.1537,1.6564,9.5991,9.5991,0,0,0,1.5719,2.011c.0252.0825.0616.1613.0858.2442.1043.3172.1779.6433.2651.9654.0112,1.0223.29,2.7789.29,3.1149,0,.0955-.0036.1959-.0086.2979.0665-.334.1424-.7053.2292-1.1225-.1227.5892-.2072,1.1944-.2876,1.8011-.0175.1442-.0368.287-.0579.4263-.0679.5167-.137,1.0328-.2291,1.5385-.2323,1.2754-.5014,2.5448-.7993,3.8063q-.2945,1.2432-.6289,2.476c-.5652,1.3722-1.2305,2.7236-1.72,3.8472-.4372.8266-.8716,1.6546-1.3339,2.4688-1.412,2.4842-6.8192,9.1205-.8248,1.7712-1.775,2.1766-3.3591,4.4849-5.2,6.6179-.4875.565-.9875,1.1175-1.49,1.6683-.22.21-.4357.4259-.6581.6341q-2.84,2.6616-5.8973,5.0791c-1.0158.8017-2.0971,1.5353-3.103,2.348.3086-.2494.5827-.47.8347-.6723-.0872.06-.1725.1175-.2507.1678q-3.5439,2.2713-7.2886,4.2034-1.7245.89-3.4858,1.7029c-.18.0842-.3634.1622-.544.2446-.9394-.2988-6.0712,2.1171-7.2716,2.4531q-3.73,1.0435-7.5483,1.73c-.6362.1137-1.2746.2067-1.9134.2985q2.4718-19.1236,6.6368-37.9766C1419.8624,489.5741,1420.4833,487.03,1421.1122,484.4881Zm-11.0251,110.48c-.0045.0348.0472.5674.1038,1.0951A3.7743,3.7743,0,0,1,1410.0871,594.9685Zm52.04-108.3471c-.0107.2192-.0314.45-.0584.6786-.0188.1422-.0391.2839-.0579.4263C1461.7874,489.2093,1461.4074,490.2149,1462.1266,486.6214Zm116.3229-1.4875a13.2962,13.2962,0,0,0,1.559-.4767,2.8672,2.8672,0,0,1-1.6439.52C1578.3934,485.1631,1578.4208,485.1476,1578.45,485.1339Zm-5.8739,11.0332c.02-.4812.0525-.9614.0822-1.4419.3028-2.0151.8976-5.4744.9848-5.8838.0539-.2534.1226-.5032.18-.7557.0229-.0728.0467-.148.0705-.2228l-.0211.0135c.0153-.0656.0314-.1308.0467-.1964l.0409-.0265.02-.0626c.195-.1245.4151-.262.6968-.43.03-.0184.062-.0344.093-.0526a2.7048,2.7048,0,0,0,.6294-.5746,3.1924,3.1924,0,0,1-.35.4163q1.624-.95,3.3159-1.7728a.5165.5165,0,0,1-.1231-.0346.4442.4442,0,0,0,.208-.0085l.0252-.0128c1.89-.91,1.9911-.7615,1.5338-.4639,1.0359-.3623,2.1752-.8,2.3774-.8576a61.503,61.503,0,0,1,7.8066-1.6627c.6119-.0905,1.6124-.194,1.89-.2318,1.4663-.0855,2.9381-.1325,4.4049-.1433,3.2369-.0238,6.4737.133,9.6993.3915,6.777.5432,13.5,1.5794,20.215,2.616,4.96.7658,10.9141-2.8761,14.4169-5.8353a41.5209,41.5209,0,0,0,11.6774-16.9985c2.9777-8.736,4.7037-24.0651-7.737-25.9857-17.9795-2.7757-36.972-5.2306-54.7229.2777-22.7761,7.0678-39.9537,24.0648-48.9819,45.9944-7.3353,17.8182-9.6625,40.675-4.8739,59.4654,3.9862,15.6434,16.0006,26.3982,30.0994,33.1431,13.8082,6.6053,28.6969,10.6654,40.6223,20.5658a43.4685,43.4685,0,0,1,5.7647,7.1238c.4277.6689.8186,1.3587,1.2,2.0544.1218.3974.2408.8064.36,1.2125-2.925,1.72-5.8923,3.3667-8.9648,4.8113-.3185.153-.6437.2918-.9654.4387-.1631.06-.3419.1258-.5494.203-1.9076.534-3.8717,1.0046-5.7653,1.5691-.4771.07-.8253.1253-1.0656.1673q-.7056.0007-1.4116-.0366a22.367,22.367,0,0,1-3.2521-.4445c-.6941-.3024-1.3761-.6294-2.0746-.9969-10.575-5.5678-22.6311,6.6637-27.2054,15.1025-3.0284,5.5866-5.81,12.1978-5.3726,18.6839.3091,4.5841,1.3747,10.0475,5.896,12.4281,15.3352,8.0742,32.3785,2.4167,46.6624-5.21,17.422-9.302,33.0038-21.91,39.8-41.1766,5.9912-16.9846,5.1992-36.6475-5.8246-51.4869-8.0263-10.8045-19.7783-17.9633-31.9728-23.1124-11.2-4.7291-23.127-8.6349-32.6673-16.3944a33.6891,33.6891,0,0,1-2.9345-3.4154q-.91-1.23-1.695-2.5434c-.2022-.3365-.3455-.5935-.46-.808-.44-1.2226-.8626-2.4287-1.19-3.7032-.08-.3124-.3347-1.09-.5688-1.7784-.5-2.2428-.19-5.1884-.1815-7.3553Q1572.4726,498.4484,1572.5756,496.1671Zm1.7381,17.2321c-.261-.5022-.2232-.52,0,0Zm-1.8248-17.23a2.4654,2.4654,0,0,1,.0512-.6265C1572.5239,495.7405,1572.5068,495.9476,1572.4889,496.1691Zm1.1752-8.171c.0351-.0593.0755-.128.1137-.1936.018-.02.0436-.0472.0606-.0667-.017.0626-.0346.1258-.0516.1884C1573.745,487.9512,1573.7028,487.9763,1573.6641,487.9981Zm1.2211-2.6245a1.2558,1.2558,0,0,0-.235.34C1574.7468,485.5039,1574.8286,485.3736,1574.8852,485.3736Zm-.1159,1.7345c.0916-.0548.1869-.1042.2794-.1583a6.3742,6.3742,0,0,1-1.1559.9131c.022-.07.044-.1386.0665-.2094C1574.2486,487.4671,1574.5258,487.2847,1574.7693,487.1081Zm240.0054,7.2388c-1.4232-10.346-4.882-20.2006-12.35-27.7716a97.9534,97.9534,0,0,0-17.6354-13.832,6.055,6.055,0,0,0-2.6852-1.863c-.2372-.0793-.4762-.1586-.7147-.2379-.55-.332-1.0971-.6669-1.6524-.9951a10.9482,10.9482,0,0,0-6.2324-1.53c-13.1824-3.9886-27.3671-6.7738-40.6-2.2366-23.7083,8.1288-36.7362,30.9178-45.16,53.1851-7.2267,19.1045-10.4164,39.0627-12.13,59.3087-1.3985,16.5279-2.32,33.6222-1.3347,50.1984,1.1042,18.5937,7.1049,37.0637,24.5255,46.3761,7.0025,3.7431,15.0508,5.8661,22.8328,7.2542,8.6862,1.55,17.7728,2.7544,26.5678,1.7281,12.7021-1.4823,22.4756-10.7369,30.9229-19.5638a115.1415,115.1415,0,0,0,17.1816-23.5228,153.9469,153.9469,0,0,0,18.18-56.79,286.6211,286.6211,0,0,0,1.8842-36.0688C1816.2681,516.8275,1816.2977,505.4145,1814.7747,494.3469Zm-86.0595-1.7734-.009-.0011Zm32.3066,122.6c-.093.0546-.1752.1044-.2534.1529l.0121-.0123C1760.861,615.267,1760.9364,615.2235,1761.0218,615.1734Zm-.2929.1768c-.084.0525-.1577.1008-.2246.1464l-.0463.0049c.0894-.0518.1864-.1082.2826-.1644Zm16.5046-42.9231c.0853-.4773.1554-.8682.2129-1.1917-.1415.8258-.309,1.8433-.3652,2.3213q-.4137,3.5228-.98,7.0252c-.6258,3.8386-1.465,7.6119-2.3716,11.3883-.17.5407-.3347,1.0829-.5126,1.6211q-.9354,2.8269-2.0194,5.602c-.45,1.1492-.9376,2.28-1.4255,3.4123-.1617.31-.3163.6242-.4816.9328q-1.3956,2.6019-2.957,5.11c-.0655.1046-.1356.2064-.2017.3111-1.2085,1.4913-2.3626,3.0147-3.6331,4.4574-.0885.1009-.1824.1966-.2718.297-.088.0847-.1792.1721-.28.27-.46.3877-1.3774,1.0373-2.1582,1.5915-.9-.009-1.8-.04-2.6987-.1072-1.9443-.1208-3.8878-.3432-5.8249-.5488a122.6964,122.6964,0,0,1-19.1494-3.3175,43.607,43.607,0,0,1-12.3737-6.6893,31.2406,31.2406,0,0,1-3.7935-4.9341c-.2408-.3929-.4569-.8006-.6766-1.2063-.4376-1.4958-1.0517-2.9451-1.447-4.4622-.2763-1.0607-.4722-2.133-.6865-3.2034-.0539-.6015-.212-1.5061-.226-1.6714-.2677-3.21-.3468-6.4322-.3567-9.6522-.0417-13.1837.279-26.43,1.275-39.5775.0144-.1922.0306-.3845.0463-.5766a34.8568,34.8568,0,0,0,.4852-4.6268q.6024-5.13,1.443-10.2286c.562-3.3775,1.2107-6.741,1.9672-10.0805.3469-1.5333.7373-3.0547,1.1088-4.5819.0589-.1964.111-.3677.1456-.4785q1.3983-4.4937,3.1133-8.8794.849-2.1615,1.7817-4.2886l.02-.0368c.5607-1.0356,1.111-2.0758,1.6789-3.1071.0175-.0051.0373-.0139.0548-.0186,1.1838-.3228,2.38-.5059,3.5778-.7179.7319-.0128,1.9026-.0784,2.0607-.0768,1.5774.0139,3.1529.1116,4.7226.263a91.84,91.84,0,0,1,17.209,3.6133c.5063.1649,1.0126.3284,1.518.496a110.2176,110.2176,0,0,1,14.3949,9.8721,38.5531,38.5531,0,0,1,5.5555,6.9075c.22.3578.407.7334.6119,1.0993.09.245.2062.551.3693.9679.3629,1.67.9771,3.2935,1.2916,4.9811.0386,1.1759.1594,3.5437.1859,4.0583.115,2.2586.1838,4.52.2655,6.78.15,4.1513.29,8.3033.3779,12.4566C1778.01,553.1751,1778.86,563.3592,1777.2335,572.4271Zm134.0216,41.5452c-.0233.0045-.0485.0137-.0723.0191.0265-.01.05-.0142.0755-.0216Zm70.382-163.1237c-8.799.7884-16.7144,8.7968-20.7145,16.1964-5.0451,9.3325-8.7169,19.3722-9.8135,29.97a192.4642,192.4642,0,0,0-.5943,26.03c.1073,3.46.1729,6.9189.0894,10.38q-.0519,2.1625-.1672,4.3229c-.0242.4619-.0561.9228-.0871,1.3837-.61,1.0086-.3738,3.703-.5355,4.8962q-.34,2.5035-.7619,4.995-.8472,4.9819-2.0248,9.9c-.1227.5123-.4879,1.8924-.7449,2.879-.2462.8194-.4915,1.6351-.58,1.91q-1.5465,4.8048-3.4129,9.4988-.9313,2.343-1.9448,4.6524c-.0378.0859-.0805.1791-.1249.2752.14-.259.2875-.53.45-.8273-.1761.3235-.346.65-.5189.9749-.4767,1.0041-1.2292,2.3887-1.5055,2.8631-.88,1.6921-1.7651,3.3819-2.7256,5.0352-.6671,1.1492-4.01,8.2727-5.3559,8.5045-.279.0481,3.6739-5.1219,1.9825-2.9192-.4362.5681-.8414,1.1629-1.2691,1.7379q-1.7124,2.3017-3.5208,4.53c-1.8712,2.3064-4.139,5.8567-6.6179,7.5506-.2584.1765,4.0886-4.06,2.08-2.1414-.5188.496-1.0189,1.0133-1.5351,1.5122q-2.0667,1.999-4.2234,3.9042-2.2508,1.99-4.599,3.8672c-.5283.4209-1.0669.8277-1.6033,1.2374a.9529.9529,0,0,1,.1374-.0343c-.044.0053-.0952.028-.1406.0368-.2938.2244-.5845.4524-.8778.6775-2.4291,1.8644-.2736-.2694.8055-.6584-1.5594.3491-3.807,2.44-5.152,3.1567q-1.0311.5491-2.0837,1.0557-.6947.3484-1.4084.657c-.194.0863-.3423.1525-.464.2074-1.6492.4506-3.9045.885-4.2154.9481-.553.1125-1.1271.18-1.6838.2891a56.399,56.399,0,0,1-9.065-.9625,29.23,29.23,0,0,1-6.4535-3.6585,33.9774,33.9774,0,0,1-3.6375-5.0723c-.0315-.0534-.0584-.097-.0881-.1458-.0395-.1657-.0912-.3627-.1577-.6-.3747-1.3336-.8518-2.6313-1.1927-3.9786-.3424-1.3545-.571-2.7289-.8626-4.0935-.208-2.5817-.4717-5.1552-.6362-7.742q-1.32-20.7267-.6285-41.5178c.222-6.7752.6429-13.5337,1.14-20.2936.027-.3659.0467-.6444.0611-.8646l.0261-.25c.1788-1.7586.3486-3.5179.5391-5.2753q.5243-4.8324,1.1572-9.6524c1.8006-13.7334,4.2827-27.3617,7.3642-40.8642,2.1016-9.2081-2.4516-22.6119-14.1829-19.2414-12.4973,3.59-20.5034,16.8107-23.2268,28.7433a467.9949,467.9949,0,0,0-11.4932,94.3579,347.6154,347.6154,0,0,0,1.3541,43.5722c1.6245,15.346,5.45,30.91,19.0262,40.1016,11.4694,7.7653,27.6843,7.856,40.3,3.1706,14.9906-5.5676,28.0081-15.1257,39.1864-26.4612a196.87,196.87,0,0,0,18.8259-22.1348q-.2744,17.8843-.5481,35.7689c-.0683,4.4346,1.8046,10.066,5.896,12.4281,4.1151,2.3759,9.8768,1.1476,13.7111-1.1078,11.128-6.5461,18.67-19.8017,18.8668-32.6786q1.2837-83.7411,2.5675-167.4819C1994.1366,457.02,1989.5408,450.14,1981.6371,450.8486Zm-79.4515,168.1881c.3428-.146.8824-.378,1.651-.71C1903.8128,618.5225,1903.1043,618.7809,1902.1856,619.0367Zm48.1643-79.9039c-.0333.4985-.0656.9969-.0939,1.4958C1950.0736,543.7958,1949.9752,540.0187,1950.35,539.1328Zm38.6392-55.3608c.3558,3.9386-.2911,1.8666,0,0Zm-48.8381,94.5158q-.7608,1.4276-1.5055,2.8631c-.29.4973-.0525-.0133,1.5747-3.0107C1940.1977,578.1885,1940.1752,578.237,1940.151,578.2878Zm199.633-111.5653c-8.6445-11.6514-20.5627-18.7877-35.3561-14.7768-14.7822,4.0082-26.9,15.2377-36.2793,26.8609-2.8586,3.5426-5.5271,7.22-8.0474,10.9914q-.2535-15.8058-.2112-31.6165c.0117-4.4588-1.7629-10.0414-5.8964-12.4281-4.1152-2.3759-9.8768-1.1476-13.7107,1.1079-11.0139,6.4784-18.8331,19.8519-18.8672,32.6787q-.2238,83.9938,7.8744,167.7068c.4488,4.6383,1.4215,9.8447,5.896,12.4281,4.1152,2.3759,9.8768,1.1476,13.7112-1.1081,10.67-6.2765,19.3146-20.0144,18.8667-32.6786-.5862-16.5845-1.1734-33.194-.4577-49.7847q.1144-2.66.2749-5.3171c.0234-.383.2152-3.1607.2974-4.4146.009-.0914.0162-.1655.0261-.2652q.1792-1.7649.3859-3.5269.31-2.6439.6833-5.28.79-5.5608,1.8945-11.0709c.6276-3.1009,2.3585-7.1258,2.4484-10.2892q.8835-2.8367,1.8752-5.6383,1.6719-4.7013,3.6645-9.2791c.0643-.1473.12-.2763.1752-.4041.602-1.1577,1.1923-2.3208,1.82-3.4653,1.717-3.1317,3.6812-6.0817,5.55-9.1169-4.61,7.4879-.8428,1.3294.4412-.31q1.4132-1.8046,2.9049-3.5464c.28-.3271.5714-.6451.8558-.9686.6447-.5818,1.5086-1.3569,2.1568-1.9163.3181-.1943.6285-.4005.9543-.5824.3674-.2087.7408-.407,1.1159-.6011.1626-.0521.3423-.11.5535-.18l1.3437-.3257c.3931-.064.6757-.1119.8989-.151.1734.0247.354.0566.5387.0932a21.7277,21.7277,0,0,1,4.5478,2.6985,63.4008,63.4008,0,0,1,8.7321,12.1639c.5961,1.0638,1.1411,2.1521,1.7112,3.2292.0656.1245.1249.2357.18.3383.0616.1793.1519.4252.2786.7552,1.0593,2.7575,2.1173,5.5011,3.0023,8.3222a139.1535,139.1535,0,0,1,3.8964,15.9367c.55,2.924,1.0049,5.8607,1.4614,8.8l.0022.0207c.1779,1.5285.3841,3.0542.5656,4.5825a645.0253,645.0253,0,0,1,4.4157,81.85c-.0395,4.4467,1.7836,10.0533,5.8965,12.4278,4.1151,2.3761,9.8763,1.1476,13.7107-1.1078,11.07-6.5117,18.7526-19.8266,18.8672-32.6786a645.4187,645.4187,0,0,0-4.31-80.9544C2158.3165,512.0021,2154.55,486.625,2139.784,466.7225ZM2093.37,500.7831c.17-.1352.2821-.2147.2951-.1983C2093.556,500.658,2093.4716,500.7146,2093.37,500.7831Zm2.7543-1.1925a1.7934,1.7934,0,0,1,1.2854-.1635C2097.09,499.4657,2096.672,499.5187,2096.1239,499.5906Zm135.71,11.0514c.9488-1.7341,1.89-3.225,0,0Zm109.7548-117.41q-.34-34.0065-.681-68.0129c-.0445-4.4826-1.72-10.0167-5.896-12.4281-4.1152-2.3759-9.8768-1.1476-13.7112,1.1081-10.8988,6.4108-18.9948,19.9041-18.8668,32.6786q.5425,54.2165,1.0854,108.4331a108.9157,108.9157,0,0,0-13.1994-2.837c-12.1491-1.8887-24.6141-2.69-36.8274-.9587-32.6364,4.6257-49.4024,38.7187-59.7455,66.3713a214.58,214.58,0,0,0-13.7364,82.26c.5275,14.6635,2.47,28.5032,16.4822,36.2676,10.1279,5.6125,21.9172,9.2723,33.219,11.52a95.3819,95.3819,0,0,0,75.5713-16.3988q.1206,12.0786.2417,24.1567c.0449,4.4826,1.72,10.017,5.896,12.4281,4.1156,2.3759,9.8768,1.1474,13.7111-1.1079,10.8989-6.4112,18.9948-19.9043,18.8668-32.6788Q2342.7936,513.6332,2341.5887,393.2321Zm-44.0374,198.7846c-.2732.22-.5566.425-.8334.64-1.1357.6528-2.2341,1.3649-3.386,1.9936-1.1887.6492-2.4268,1.1954-3.621,1.8291-.181.08-.336.1487-.4784.2123-.2952.1074-.5867.2239-.8837.327a65.264,65.264,0,0,1-15.6847,3.6165c-.71.0092-2.0432.0449-2.386.0568-1.615.0569-3.231.0636-4.8465.0322q-4.5331-.0883-9.0416-.6072a107.95,107.95,0,0,1-18.0483-3.7205c-6.405-2.1031-13.0871-4.6623-18.4889-8.6139-.0441-.0535-.0935-.102-.1366-.1564-.2309-.3643-.4039-.6242-.54-.8165-.1024-.3569-.1864-.7192-.2686-1.0822-.2273-3.4934-.4484-6.98-.51-10.4826q-.1144-6.4881.2417-12.9733c.0809-1.4747-.2587-8.4789.093-2.1589a28.1147,28.1147,0,0,1,.5486-4.8362,206.3189,206.3189,0,0,1,4.5774-23.505c.1846-.61.3652-1.22.5562-1.8283q.9717-3.0957,2.0539-6.1556,2.029-5.7357,4.4427-11.3247c.208-.4821.5661-1.1683.9228-1.8206-.26.4434-.5719.9733-.9462,1.6069,1.09-1.8448,1.9188-3.8965,2.92-5.7953.9407-1.7833,1.9017-3.5588,2.9354-5.29.0144-.0236.03-.0462.0436-.07.1509-.0809.2992-.1669.4519-.2453.5485-.1779,1.0939-.367,1.6506-.5189a43.3313,43.3313,0,0,1,4.8528-1.02c.5557-.0865.9479-.1548,1.2179-.2082.1563.0038.3473.006.5836.006,1.9493-.0009,3.89-.0838,5.8407-.0325,3.6466.0952,7.286.3913,10.9159.7412a122.6943,122.6943,0,0,1,20.5986,3.5129,52.2959,52.2959,0,0,1,14.8,8.0163c1.6861,1.3244,4.0307,1.5652,6.3969,1.2695q.3741,37.3824.7485,74.7647c.0013.1283.0022.2563.0036.3844A29.1611,29.1611,0,0,0,2297.5513,592.0167Z" transform="translate(388.818 -178.8479)"/></svg>