<svg id="Layer_1" data-name="Layer 1" xmlns="http://www.w3.org/2000/svg" width="532.9981" height="318.7064" viewBox="0 0 532.9981 318.7064"><defs><style>.cls-1{fill:#2e4ac0;}</style></defs><path class="cls-1" d="M1161.6593,485.8959c-5.6055-24.59-22.8648-45.8144-49.9135-61.38-20.401-11.7385-44.2144-20.0772-70.78-24.7847-48.5349-8.6031-102.5691-5-156.2694,10.4193-52.4305,15.0547-97.9906,40.4681-135.4182,75.5368q-2.5915,2.4265-5.12,4.896A296.0445,296.0445,0,0,1,795.15,435.5169c20.7956-17.4047,42.6916-31.2541,65.0808-41.1637,24.8-10.9771,48.1226-16.9621,69.32-17.7905,12.5164-.4806,22.1895,1.0485,30.403,4.8416,1.1535.5375,3.1442-.15,4.1358-.85a1.7928,1.7928,0,0,0,.9461-1.6266,1.4939,1.4939,0,0,0-.9663-1.2255c-21.5165-9.9387-48.2845-4.9959-69.1939.4237a251.7449,251.7449,0,0,0-67.446,28.9307A302.04,302.04,0,0,0,724.6022,511.19c-26.2468,29.7566-48.2592,63.37-71.5237,100.1458L646.15,622.3044q-7.3989,11.7246-14.841,23.4188a1.4608,1.4608,0,0,0,.3719,2.1476c1.1636.7487,4.2446.25,5.0945-1.07q7.5584-11.8384,15.0282-23.7729c19.2222-30.5636,39.0111-62.0252,61.752-90.8939-5.9218,12.8034-9.3114,24.0259-10.5635,34.8524a81.0475,81.0475,0,0,0,6.5414,41.7127c10.01,22.8762,29.8237,43.2367,55.7923,57.3264,21.6481,11.75,47.7078,19.3867,77.453,22.7055a325.9525,325.9525,0,0,0,36.0338,1.9629,368.0332,368.0332,0,0,0,49.7137-3.45c59.2476-8.0769,115.5812-30.0311,162.9095-63.4872,25.9535-18.3533,44.5129-37.6489,56.7358-58.9922C1162.4764,539.79,1167.3939,511.0437,1161.6593,485.8959ZM995.8332,399.5818c26.3986.7513,50.986,4.7025,73.0793,11.7461,28.0935,8.9547,50.0906,21.4609,65.3819,37.1708,18.0055,18.4975,26.31,44.9986,22.7839,72.7062-3.1392,24.67-15.2711,48.9928-35.0776,70.34-16.5131,17.793-38.1763,33.9949-66.2268,49.5316a364.2722,364.2722,0,0,1-165.6187,45.2464c-30.0033.8247-56.3286-1.8845-80.4759-8.2767-27.8329-7.3687-50.9607-19.5182-68.7361-36.1072-22.2906-20.7981-34.0354-47.0032-32.2242-71.8917.9284-12.7364,4.9049-25.899,12.5163-41.4243q3.92-7.9984,8.7321-16.1918c33.484-37.7589,72.3256-66.1028,115.5535-84.3081C893.2691,408.0116,945.28,398.1273,995.8332,399.5818Z" transform="translate(-631.0019 -371.9875)"/><path class="cls-1" d="M832.0768,542.1664c.2416,2.1723.6014,4.3332.923,6.4947q.2609,1.7532.5214,3.5063a.9037.9037,0,0,0,.7614.6929,1.7023,1.7023,0,0,0,1.1756-.4758,3.3966,3.3966,0,0,0,.9524-1.3859q.0726-.258.1458-.5159a2.0343,2.0343,0,0,0-.0155-.91c-.3725-2.5061-.7646-5.0106-1.1181-7.52a24.8511,24.8511,0,0,0,3.8228-.9658,1.2173,1.2173,0,0,0,.7573-.9375c.0417-.2806-.0582-.7652-.4626-.6275a24.8007,24.8007,0,0,1-4.3085,1.0542,24.521,24.521,0,0,1-.1565-4.5831q.0365-.3422.0882-.6825l.0449-.0339a8.7322,8.7322,0,0,1,1.2765-.6837,12.0371,12.0371,0,0,1,3.02-.6977,3.3889,3.3889,0,0,1,.8768.0273,1.2833,1.2833,0,0,1,.2963.1885c.2836.2406.8559.0506,1.1181-.09a2.9918,2.9918,0,0,0,1.1-1.141,2.9263,2.9263,0,0,0,.438-1.5235q-.0294-.2134-.0585-.4267a.945.945,0,0,0-.4225-.5867,2.185,2.185,0,0,0-1.1724-.4313,6.8258,6.8258,0,0,0-1.3145.0585,12.8688,12.8688,0,0,0-1.9389.33,11.1979,11.1979,0,0,0-4.2022,2.045,9.9321,9.9321,0,0,0-2.098,2.3739,2.9227,2.9227,0,0,0-.4379,1.5234,1.4292,1.4292,0,0,0,.2943.871A24.503,24.503,0,0,0,832.0768,542.1664Z" transform="translate(-631.0019 -371.9875)"/><path class="cls-1" d="M845.0485,533.052a5.9586,5.9586,0,0,0-.3264.6468,3.0741,3.0741,0,0,0-.1593,2.1881l.0174.0435c-.0468,1.0845.0139,2.1808.049,3.2525q.0313.97.0632,1.94c-.0145.0454-.0284.0906-.0411.1354a1.7411,1.7411,0,0,0,.0949,1.5035q.0331,1.0256.0667,2.0515l.1034,3.1645a.9871.9871,0,0,0,1.5987.9229,3.007,3.007,0,0,0,1.1-1.141,3.0561,3.0561,0,0,0,.438-1.5234q-.027-.8229-.0535-1.6455c.9894.258,2.01.3742,2.9932.6563a5.0544,5.0544,0,0,1,1.605.85,3.66,3.66,0,0,1,.2864.334c.5983.7921,1.6977.0668,2.15-.513a3.36,3.36,0,0,0,.7241-1.5176,1.6735,1.6735,0,0,0-.1755-1.2559,5.7167,5.7167,0,0,0-3.2572-1.9255c-1.0181-.2773-2.0723-.3914-3.0873-.6807.1486-.1275.296-.256.4408-.3874a17.7006,17.7006,0,0,0,3.2-3.7589,7.6942,7.6942,0,0,0,1.1712-2.879,3.677,3.677,0,0,0-.5287-2.7693,2.4111,2.4111,0,0,0-2.1653-.9029,10.7,10.7,0,0,0-2.4448.48,10.5,10.5,0,0,0-1.79.735.9438.9438,0,0,0-.28.0361,2.3668,2.3668,0,0,0-1.17.826q-.1645.2388-.33.4776A3.3048,3.3048,0,0,0,845.0485,533.052Zm4.9665.7611a2.4333,2.4333,0,0,1,.5391.0335,1.4337,1.4337,0,0,1,.2182.1253,1.6955,1.6955,0,0,1,.1562.2185c.0189.0554.036.1114.05.1682l.0016.0408-.0038.02c-.0183.05-.0373.1-.0575.1493-.1278.2387-.2679.4709-.4155.698a13.5017,13.5017,0,0,1-1.0431,1.253,22.3477,22.3477,0,0,1-1.6756,1.4887q-.0255-.7769-.0509-1.5538c-.0224-.6869-.042-1.3748-.0155-2.0614A10.252,10.252,0,0,1,850.015,533.8131Z" transform="translate(-631.0019 -371.9875)"/><path class="cls-1" d="M857.58,534.5632c.3058,2.5106.0478,5.043.1408,7.5632a10.2463,10.2463,0,0,0,.7911,4.2206,3.26,3.26,0,0,0,1.2692,1.359,2.78,2.78,0,0,0,2.097.2449,10.5464,10.5464,0,0,0,2.2513-1.026q.95-.5173,1.8552-1.1105a3.3152,3.3152,0,0,0,1.1-1.1412,2.9762,2.9762,0,0,0,.4383-1.5234,1.1416,1.1416,0,0,0-.4807-1.0133,1.1569,1.1569,0,0,0-1.118.09,21.4992,21.4992,0,0,1-3.0785,1.738,2.84,2.84,0,0,1-.3858.1067,1.7969,1.7969,0,0,1-.2909-.0319,2.1955,2.1955,0,0,1-.4866-.29,2.8276,2.8276,0,0,1-.4123-.5785,5.4615,5.4615,0,0,1-.2887-1.1164c-.0623-.5192-.1-1.0392-.1218-1.56a7.7516,7.7516,0,0,0,1.4631-.252,9.0821,9.0821,0,0,0,2.9539-1.4829,3.2839,3.2839,0,0,0,.9521-1.3859,2.3463,2.3463,0,0,0,.13-1.4261.9007.9007,0,0,0-.7614-.6928,1.535,1.535,0,0,0-.9261.3022l.0357-.0252a6.8078,6.8078,0,0,1-1.0915.6179,6.9179,6.9179,0,0,1-1.549.3723,6.7661,6.7661,0,0,1-1.083-.0247.9283.9283,0,0,0-.1157-.0036c.012-1.0175.0044-2.0342-.0848-3.048-.0094-.11-.02-.2189-.0309-.3285q2.7509-.61,5.54-1.0188a2.3182,2.3182,0,0,0,1.17-.8261,3.384,3.384,0,0,0,.7244-1.5175,1.622,1.622,0,0,0-.1758-1.256l-.2618-.2408a.9452.9452,0,0,0-.7191-.0722q-3.3622.4918-6.6717,1.2774a1.9745,1.9745,0,0,0-.8006.4478,1.7057,1.7057,0,0,0-1.1722.476,3.3877,3.3877,0,0,0-.952,1.3859,2.48,2.48,0,0,0-.131,1.426A13.9031,13.9031,0,0,1,857.58,534.5632Z" transform="translate(-631.0019 -371.9875)"/><path class="cls-1" d="M871.64,546.8093a1.7893,1.7893,0,0,0,.4812.2014,1.4592,1.4592,0,0,0,.548.0919,2.5182,2.5182,0,0,0,.7563-.13,5.7021,5.7021,0,0,0,.7845-.3554c.32-.1795.6381-.363.9571-.5445q1.0914-.6212,2.1834-1.2424a3.1183,3.1183,0,0,0,1.1-1.1409,2.9794,2.9794,0,0,0,.438-1.5235,1.1407,1.1407,0,0,0-.481-1.0132,1.1865,1.1865,0,0,0-1.1177.09q-.8951.5093-1.79,1.0183c-.49.2792-.9786.6021-1.49.85l-.0279.0076-.0325-.0035a1.3172,1.3172,0,0,1-.17-.1024,1.7868,1.7868,0,0,1-.1553-.2135c-.02-.0615-.0373-.1239-.0522-.1871a4.471,4.471,0,0,1,.0051-.5241c.1274-1.2848.2615-2.5665.3557-3.8527a8.0714,8.0714,0,0,0,2.3494-1.3462,3.4087,3.4087,0,0,0,.9523-1.3861,2.3456,2.3456,0,0,0,.13-1.4259.9.9,0,0,0-.7614-.6928,1.7677,1.7677,0,0,0-1.1753.4757c-.0408.0331-.0819.0649-.1236.0968a5.9016,5.9016,0,0,1-.7153.388q-.2532.09-.5122.1562.0114-1.6277-.0616-3.2545-.0375-.8217-.0971-1.6421l4.304-.58a2.3124,2.3124,0,0,0,1.17-.8261,3.3825,3.3825,0,0,0,.7241-1.5175,1.622,1.622,0,0,0-.1758-1.256l-.2619-.2408a.9442.9442,0,0,0-.719-.0722l-6.0839.82a2.3091,2.3091,0,0,0-1.17.8261,3.3761,3.3761,0,0,0-.7241,1.5176,3.45,3.45,0,0,0-.044.5081,2.392,2.392,0,0,0-.27,1.1892,62.7311,62.7311,0,0,1,.1989,8.8954q-.0551,1.12-.1508,2.2373c-.0636.6605-.1436,1.3188-.2116,1.979a4.7557,4.7557,0,0,0,.3937,2.96A2.3963,2.3963,0,0,0,871.64,546.8093Z" transform="translate(-631.0019 -371.9875)"/><path class="cls-1" d="M902.3819,535.145a11.0106,11.0106,0,0,0,1.894.7748,11.3844,11.3844,0,0,1,3.8939,1.8151,4.0707,4.0707,0,0,1,.7093.9435,3.8422,3.8422,0,0,1,.19.6514,4.5337,4.5337,0,0,1,.0111.52q-.0342.2375-.0883.4708-.08.238-.1777.47c-.079.1487-.1637.2945-.2529.4376q-.1176.1543-.2448.301c-.0626.0569-.1264.1123-.1919.1655-.0673.04-.1356.0783-.2055.1137a2.62,2.62,0,0,1-.3134.077,2.6985,2.6985,0,0,1-.652-.0786,4.813,4.813,0,0,1-1.413-.8935,11.8727,11.8727,0,0,1-2.2523-3.0229.9066.9066,0,0,0-.9809-.3129,2.3609,2.3609,0,0,0-1.1692.8259,3.3655,3.3655,0,0,0-.7245,1.5176q-.0213.2419-.0433.4835a1.37,1.37,0,0,0,.2191.7725,12.18,12.18,0,0,0,1.4941,2.2138,8.8127,8.8127,0,0,0,2.0894,1.8891,3.7952,3.7952,0,0,0,2.8739.4816,5.9088,5.9088,0,0,0,2.8986-2.0007,9.963,9.963,0,0,0,1.7264-2.959,7.5354,7.5354,0,0,0,.5325-3.2491,5.0063,5.0063,0,0,0-1.08-2.83,6.5634,6.5634,0,0,0-2.086-1.6026,23.3385,23.3385,0,0,0-2.8394-1.0539,7.3669,7.3669,0,0,1-2.3383-1.1639,2.868,2.868,0,0,1-.34-.4193q.0423-.0333.0851-.0656a9.642,9.642,0,0,1,1.3681-.7576,4.3628,4.3628,0,0,1,.7937-.2083,2.876,2.876,0,0,1,.7181.075,2.27,2.27,0,0,1,.52.29,1.973,1.973,0,0,1,.1739.2253.9134.9134,0,0,0,.9809.3129,2.36,2.36,0,0,0,1.1693-.8259,3.364,3.364,0,0,0,.7244-1.5178,1.7506,1.7506,0,0,0-.1758-1.2558,3.4712,3.4712,0,0,0-3.9756-1.0758,9.8729,9.8729,0,0,0-4.1829,2.6786c-1.2949,1.4065-2.04,3.7584-.87,5.4578A4.5968,4.5968,0,0,0,902.3819,535.145Z" transform="translate(-631.0019 -371.9875)"/><path class="cls-1" d="M915.1742,545.78a2.3642,2.3642,0,0,0,1.17-.8261,3.1393,3.1393,0,0,0,.7241-1.5176q.26-2.7933.709-5.5644a19.4717,19.4717,0,0,1,2.8388-.5032,19.67,19.67,0,0,1,2.2816-.0464,1.2717,1.2717,0,0,0,.1325-.0023c.3535,1.1961.6738,2.402.98,3.6111.2236.8853.44,1.7727.6558,2.66a.9124.9124,0,0,0,.7614.6928,1.7041,1.7041,0,0,0,1.1756-.4757,3.07,3.07,0,0,0,1.0827-2.812c-.57-2.34-1.14-4.6808-1.85-6.9827-.3506-1.1364-.7348-2.2629-1.1686-3.37a15.744,15.744,0,0,0-1.4179-2.9279,6.3675,6.3675,0,0,0-.9138-1.11,5.2454,5.2454,0,0,0-1.3612-1.0121,2.15,2.15,0,0,0-.9666-.2444,2.7112,2.7112,0,0,0-1.9671,1.0779,4.9986,4.9986,0,0,0-.8293,1.4588c-.0987.2738-.17.5595-.2492.8392-.6975,2.4517-1.3094,4.9235-1.7935,7.4265q-.7731,3.9986-1.15,8.0595a1.785,1.785,0,0,0,.1755,1.2559A.9126.9126,0,0,0,915.1742,545.78Zm3.8029-13.9152q.2486-1.0387.5243-2.0705c.07.0535.1372.1088.203.1651a7.9327,7.9327,0,0,1,1.5067,2.2292q.2717.6034.5116,1.2222a20.337,20.337,0,0,0-3.2173.5507Q918.7279,532.91,918.9771,531.8649Z" transform="translate(-631.0019 -371.9875)"/><path class="cls-1" d="M930.5145,544.1235a1.18,1.18,0,0,0,1.1181-.09,3.2864,3.2864,0,0,0,1.5386-2.6644,100.3184,100.3184,0,0,1,.0664-10.5572c.0123-.2093.0259-.4186.0395-.6279a27.2332,27.2332,0,0,0,1.61,6.692,7.0453,7.0453,0,0,0,.5141,1.09,2.8981,2.8981,0,0,0,.7228.7519,1.6049,1.6049,0,0,0,1.2446.246,3.205,3.205,0,0,0,1.91-1.57,8.1326,8.1326,0,0,0,.6081-1.3171q.1878-.4587.3664-.9213.3718-.9618.7039-1.9387c.2333-.6878.4474-1.3815.6561-2.0771.0914-.3044.185-.6082.2893-.9083a4.6529,4.6529,0,0,1,.5594.8616,10.0435,10.0435,0,0,1,.6321,2.4265c.1726,1.3312.2826,2.6728.42,4.0078q.2371,2.2987.4736,4.5974.1338,1.2928.2666,2.5858a1.2086,1.2086,0,0,0,.4809,1.0134,1.18,1.18,0,0,0,1.1178-.09,3.01,3.01,0,0,0,1.1-1.1412,2.8106,2.8106,0,0,0,.438-1.5234q-.4146-4.0226-.8291-8.0452c-.1328-1.29-.246-2.5836-.4291-3.8682a9.9911,9.9911,0,0,0-.7076-2.6875,5.7371,5.7371,0,0,0-.9-1.5149,4.2942,4.2942,0,0,0-1.4058-1.0842,1.4243,1.4243,0,0,0-1.5146.37,8.82,8.82,0,0,0-2.5685,4.1544c-.4044,1.2542-.7721,2.5158-1.2227,3.7548a28.9691,28.9691,0,0,1-1.5509-6.7,5.549,5.549,0,0,0-.6574-2.3561,2.1439,2.1439,0,0,0-2.2216-.9511,2.79,2.79,0,0,0-1.311.7242,5.2735,5.2735,0,0,0-1.2414,1.8442,7.2956,7.2956,0,0,0-.4354,2.1415c-.2867,3.0951-.4569,6.1973-.47,9.3061q-.01,2.5278.1075,5.0535A1.193,1.193,0,0,0,930.5145,544.1235Z" transform="translate(-631.0019 -371.9875)"/><path class="cls-1" d="M951.06,529.8915q.389,2.911.52,5.8481a3.0106,3.0106,0,0,0-.3924.7577,2.2191,2.2191,0,0,0-.1306,1.4261,1.8989,1.8989,0,0,0,.5865.8659q-.0009.3951-.006.79-.02,1.4146-.1021,2.8271a.987.987,0,0,0,1.5987.923,3.2991,3.2991,0,0,0,1.5383-2.6644q.0426-.7459.0683-1.4922c.2055-.0325.41-.0732.6121-.1246a10.0483,10.0483,0,0,0,1.5655-.5655,11.47,11.47,0,0,0,4.9554-4.5336,8.2223,8.2223,0,0,0,1.1-7.0033,6.1771,6.1771,0,0,0-1.5279-2.3759,6.2445,6.2445,0,0,0-1.2072-.9287,6.0922,6.0922,0,0,0-1.43-.5467,6.0219,6.0219,0,0,0-3.1421.0835,7.008,7.008,0,0,0-1.6224.6933,7.1065,7.1065,0,0,0-.6488.4382.9013.9013,0,0,0-.4793-.22,1.7036,1.7036,0,0,0-1.1754.4759,3.1209,3.1209,0,0,0-1.0826,2.8119Q950.8825,528.6305,951.06,529.8915Zm3.5493-2.6962a5.5388,5.5388,0,0,1,1.1406-.274,5.1726,5.1726,0,0,1,1.6012.1662,4.939,4.939,0,0,1,1.52.89,5.45,5.45,0,0,1,1.0093,1.3835,5.27,5.27,0,0,1,.3149,1.056,5.1085,5.1085,0,0,1,.0152.6369q-.0375.2669-.0987.5294-.0915.2745-.2049.5408c-.1163.2218-.2428.4379-.3775.6488a9.3039,9.3039,0,0,1-.5919.7194,9.1307,9.1307,0,0,1-.8658.7377,8.4393,8.4393,0,0,1-1.2079.6618,7.2831,7.2831,0,0,1-1.672.4085c-.1429.0092-.2871.0144-.431.0123a65.609,65.609,0,0,0-.5141-6.7884q-.0682-.5322-.1432-1.0634A5.4368,5.4368,0,0,1,954.61,527.1953Z" transform="translate(-631.0019 -371.9875)"/><path class="cls-1" d="M967.2167,543.688a3.7667,3.7667,0,0,0,1.587.34,5.101,5.101,0,0,0,1.9981-.4569,10.8947,10.8947,0,0,0,3.5293-2.9413,3.3379,3.3379,0,0,0,.7245-1.5176,1.6968,1.6968,0,0,0-.1755-1.2557c-.6682-.7886-1.64-.0517-2.15.513-.1638.181-.3282.3616-.4955.5394a8.7522,8.7522,0,0,1-.8012.707,5.0219,5.0219,0,0,1-.5258.2917,3.4866,3.4866,0,0,1-.5733.1371,3.1991,3.1991,0,0,1-.8367-.0835,2.4021,2.4021,0,0,1-.57-.3187,2.147,2.147,0,0,1-.2567-.3545,3.0257,3.0257,0,0,1-.1208-.4363,13.2673,13.2673,0,0,1,.0879-2.3974c.3127-3.4221.9205-6.8727.6147-10.3167a18.647,18.647,0,0,0-.52-3.1078.9135.9135,0,0,0-.7614-.6929,1.7043,1.7043,0,0,0-1.1756.4759,3.39,3.39,0,0,0-.9517,1.3859,2.464,2.464,0,0,0-.1309,1.426,15.6823,15.6823,0,0,1,.3313,1.5958,26.5018,26.5018,0,0,1,.0079,5.5129c-.1128,1.2011-.2551,2.3989-.3778,3.5988-.0781.764-.15,1.5287-.2055,2.2945a15.22,15.22,0,0,0-.0683,1.7642A3.5447,3.5447,0,0,0,967.2167,543.688Z" transform="translate(-631.0019 -371.9875)"/><path class="cls-1" d="M979.4807,541.728a6.1669,6.1669,0,0,0,3.986.3885,13.026,13.026,0,0,0,4.791-2.4882,3.2982,3.2982,0,0,0,.9524-1.386,2.3487,2.3487,0,0,0,.13-1.4259.9009.9009,0,0,0-.7614-.693,1.8374,1.8374,0,0,0-1.1756.4759q-.1286.0951-.2587.1888a12.3068,12.3068,0,0,1-1.975,1.1253,6.79,6.79,0,0,1-1.5063.3845,5.184,5.184,0,0,1-1.5927-.1692,4.2014,4.2014,0,0,1-1.2619-.7068,3.4379,3.4379,0,0,1-.5572-.7627,4.7811,4.7811,0,0,1-.2517-.9234,12.48,12.48,0,0,1-.0531-1.6534q2.0005-.5829,3.9468-1.3331a2.6607,2.6607,0,0,0,1.17-.8261,3.3818,3.3818,0,0,0,.7241-1.5176,1.6213,1.6213,0,0,0-.1758-1.2557.8892.8892,0,0,0-.9809-.3131q-2.1313.8229-4.3328,1.4439c.166-1.3632.3314-2.7287.38-4.0977a52.0373,52.0373,0,0,1,5.7889-1.0854,2.3073,2.3073,0,0,0,1.17-.826,3.3833,3.3833,0,0,0,.7241-1.5176,1.6218,1.6218,0,0,0-.1758-1.2559l-.2618-.2408a.9442.9442,0,0,0-.719-.0723,52.1131,52.1131,0,0,0-6.4909,1.2634,1.6225,1.6225,0,0,0-.2555.0917q-.0478-.2845-.1056-.5668a.9078.9078,0,0,0-.7614-.6928,1.7026,1.7026,0,0,0-1.1753.4757,3.1,3.1,0,0,0-1.083,2.812q.0636.3073.112.617a19.5327,19.5327,0,0,1,.0189,3.8932c-.1385,1.4479-.3465,2.8881-.4815,4.3363a17.1243,17.1243,0,0,0,.0366,5.1284A4.5323,4.5323,0,0,0,979.4807,541.728Z" transform="translate(-631.0019 -371.9875)"/><path class="cls-1" d="M989.8093,531.2924a3.22,3.22,0,0,0,1.08.4022,8.9711,8.9711,0,0,0,2.0945.1782,15.59,15.59,0,0,1,4.4065.3228,5.9527,5.9527,0,0,1,1.9174,1.07,4.7505,4.7505,0,0,1,.8582,1.147,3.9584,3.9584,0,0,1,.2112.7008c.0089.1243.0114.2485.0089.373q-.019.12-.0443.24-.0313.0883-.0658.1754-.0421.0759-.0873.15c-.0512.0656-.1043.13-.1587.1932-.0917.0838-.1856.1644-.283.2411a5.09,5.09,0,0,1-.565.303,5.9625,5.9625,0,0,1-1.2673.2973,7.17,7.17,0,0,1-2.3513-.2715,11.9506,11.9506,0,0,1-2.29-1.125,1.1847,1.1847,0,0,0-1.118.09,2.99,2.99,0,0,0-1.1,1.1411,2.92,2.92,0,0,0-.4379,1.5233,1.1835,1.1835,0,0,0,.4806,1.0134,9.3033,9.3033,0,0,0,5.4266,1.6026,7.2571,7.2571,0,0,0,3.11-.8823,7.6286,7.6286,0,0,0,2.4957-2.34,7.4518,7.4518,0,0,0,1.322-3.2329,6.5236,6.5236,0,0,0-.0259-1.9282,5.07,5.07,0,0,0-.485-1.4011,5.595,5.595,0,0,0-1.7195-1.99,7.1734,7.1734,0,0,0-2.6447-1.1548,12.0212,12.0212,0,0,0-3.1054-.2585,11.7792,11.7792,0,0,1-3.1407-.1729,1.94,1.94,0,0,1-.2081-.0968l.0032-.0035a9.1856,9.1856,0,0,1,.8724-.7415,9.383,9.383,0,0,1,1.41-.7664,9.1411,9.1411,0,0,1,2.16-.5263c.1341-.009.2681-.0163.4025-.02a1.8167,1.8167,0,0,0,1.1753-.4759,3.3829,3.3829,0,0,0,.9524-1.3859,2.2653,2.2653,0,0,0,.1306-1.426c-.1167-.326-.36-.7029-.7614-.6928a10.8015,10.8015,0,0,0-7.3671,3.1749,10.3562,10.3562,0,0,0-.9043.9873,8.3752,8.3752,0,0,0-.96,1.624,4.4447,4.4447,0,0,0-.3709,1.2466,3.2809,3.2809,0,0,0,.0794,1.5533A2.2444,2.2444,0,0,0,989.8093,531.2924Z" transform="translate(-631.0019 -371.9875)"/><path class="cls-1" d="M829.257,562.6681c.02-.6966-.2992-1.198-1.1466-1.0279q-1.6676.3351-3.3358.67c-1.2446.25-3.0839,3.6963-1.1168,3.9466a98.2253,98.2253,0,0,0,19.6105.1478c6.4529-.4743,12.8957-1.0986,19.3458-1.6148q19.6278-1.5707,39.2887-2.68c26.0859-1.4727,52.2648-2.5888,78.3969-2.5152,4.108.0116,8.2186.0735,12.326.2078q-16.3632.8519-32.6954,2.2081c-21.6282,1.8178-43.1994,4.364-64.6154,7.9062q-8.9386,1.4784-17.8367,3.1917c-5.4828,1.06-11.0156,2.2817-15.9464,5.0087a3.2712,3.2712,0,0,0-1.495,2.1811c-.1075.5945.0019,1.5461.7766,1.6028,14.1839,1.0389,28.4077.3055,42.5461-1.0208,14.1423-1.3265,28.22-3.2538,42.359-4.6128,8.0286-.7717,16.0786-1.341,24.1435-1.5221a2.6082,2.6082,0,0,0,2.1277-1.8617c.2115-.5673.401-2.1419-.6308-2.1189-14.2662.32-28.464,1.8727-42.6284,3.5087-14.0808,1.6262-28.17,3.34-42.3422,3.9326-5.2586.22-10.5239.2809-15.7842.1318,1.624-.4072,3.266-.7513,4.9033-1.0758,5.1862-1.0282,10.3924-1.9617,15.6043-2.8507q15.8889-2.71,31.8878-4.7129c21.2468-2.68,42.5958-4.499,63.9757-5.6925q18.2049-1.0163,36.4341-1.4729a2.6113,2.6113,0,0,0,2.128-1.8617c.2643-.71.3687-1.9617-.6311-2.1187-25.5468-4.0138-51.6261-3.1093-77.38-2.3334q-39.3713,1.1862-78.6577,4.2165c-7.2523.56-14.4963,1.2139-21.7458,1.8052A121.8161,121.8161,0,0,1,829.257,562.6681Z" transform="translate(-631.0019 -371.9875)"/><path class="cls-1" d="M1010.1382,544.5082a1.7925,1.7925,0,0,0,1.1753-.4758,3.3822,3.3822,0,0,0,.9524-1.386,2.267,2.267,0,0,0,.1306-1.4259c-.1186-.332-.3576-.6928-.7617-.6928a1.7941,1.7941,0,0,0-1.1753.4757,3.3848,3.3848,0,0,0-.9521,1.3861,2.2643,2.2643,0,0,0-.1306,1.4259C1009.4954,544.1474,1009.7344,544.5082,1010.1382,544.5082Z" transform="translate(-631.0019 -371.9875)"/><path class="cls-1" d="M1010.1894,533.8691a1.179,1.179,0,0,0,1.1178-.09,3.0062,3.0062,0,0,0,1.1-1.141,2.936,2.936,0,0,0,.4383-1.5235,31.7476,31.7476,0,0,1,1.1162-10.885q.43-1.4731.9878-2.9043a2.3808,2.3808,0,0,0,.1306-1.4259.9127.9127,0,0,0-.7618-.6929c-1.0124-.0476-1.8032,1.0312-2.1273,1.8617a37.6482,37.6482,0,0,0-2.5359,12.4033q-.057,1.6926.0531,3.3846A1.1978,1.1978,0,0,0,1010.1894,533.8691Z" transform="translate(-631.0019 -371.9875)"/></svg>