<svg id="Layer_1" data-name="Layer 1" xmlns="http://www.w3.org/2000/svg" width="1845.1469" height="1838.5053" viewBox="0 0 1845.1469 1838.5053"><defs><style>.cls-1{fill:#2e4ac0;}</style></defs><path id="arrow" class="cls-1" d="M561.142,1677.4782q-113.837,39.5676-227.6736,79.1362l-93.9974,32.6723c-23.1967,8.0626-47.0956,18.7551-71.9308,20.2058-25.46,1.487-46.5445-13.88-60.6447-33.7757-15.1393-21.3632-24.52-46.191-35.2128-69.95q-13.6059-30.2331-27.213-60.4674-21.4163-47.5869-42.8331-95.1741-53.2312-118.2792-106.462-236.5579c-9.6118-21.3569-9.83-49.7492,4.01-69.5449,11.455-16.3846,32.7551-17.5294,41.7267,2.4058q92.5806,205.7118,185.16,411.4227c6.9971,15.5479,13.09,38.4115,27.598,49.0315,9.5316,6.9771,22.3665,5.3507,34.7893,1.53a29.8472,29.8472,0,0,1-8.8992-10.199c-11.7309-21.7551-7.3806-48.9208,4.0094-69.5449,35.5979-64.46,63.2662-138.7614,79.93-209.9916q6.8456-29.2655,11.8316-58.9227,1.3436-7.9838,2.5578-15.9879c.28-1.852,1.0045-7.25,1.1485-8.2349,1.135-8.9825,2.2117-17.97,3.1242-26.9784a1050.3709,1050.3709,0,0,0,5.0359-120.5477c0-.0432-.0009-.0716-.0019-.1139q-.0786-2.6862-.1661-5.3721-.237-6.9857-.5656-13.9679-.7666-16.3078-2.027-32.5869-2.3443-30.29-6.3649-60.4173-3.7537-28.16-8.9547-56.0966c-.3345-1.6242-1.8-9.1825-2.0767-10.524q-1.4221-6.8968-2.93-13.7761-3.27-14.9154-6.9348-29.74c-19.89-80.4057-45.7664-151.3591-81.4991-223.8574A1096.8643,1096.8643,0,0,0-135.8047,360.0821c-142.1735-110.4432-308.499-190.2906-482.2166-236.8333C-795.59,75.6743-981.612,59.8487-1164.765,74.74q-34.42,2.7983-68.6908,7.06c-8.3609,1.0258-16.8219-9.6767-20.0329-15.6059-5.4043-9.9778-7.5815-24.1207-6.6378-35.271,1.7106-20.2033,9.46-44.666,32.3411-47.4741C-1039.147-39.7029-846.5227-30.5341-661.3363,12.63-476.9935,55.5977-299.6322,130.8364-146.188,242.4375-1.05,347.9978,119.5127,482.3065,204.1832,640.8563c80.8871,151.465,130.152,321.6392,140.0813,493.1911,9.13,157.7608-12.9767,318.4347-73.4508,464.8086-12.5369,51.386,24.4313,71.75,43.3418,65.1767q35.3821-12.2976,70.7629-24.596c55.3349-19.2337,104.71-18.1136,162.5474-18.1136C591.3974,1621.3231,597.3516,1664.8926,561.142,1677.4782Z" transform="translate(1260.3401 28.9132)"/></svg>