<svg id="Layer_1" data-name="Layer 1" xmlns="http://www.w3.org/2000/svg" width="3447.2784" height="164.0321" viewBox="0 0 3447.2784 164.0321"><defs><style>.cls-1{fill:#2e4ac0;}</style></defs><path class="cls-1" d="M1978.04,466.42l-.0277.089a10.7092,10.7092,0,0,1-.27,1.1609C1977.7044,468.131,1977.8222,468.1322,1978.04,466.42Z" transform="translate(1165.2784 -303.8993)"/><path class="cls-1" d="M-1160.1274,373.6412q1331.9021-51.33,2665.1344-41.4171c254.0825,1.8795,508.1828,4.3606,762.2108-2.7862,10.86-.3056,21.3819-25.8668,9.602-25.5354-443.0064,12.4636-886.557.27-1329.6768,1.2461q-666.5008,1.4678-1332.8487,18.4176-382.4877,9.7232-764.82,24.54c-10.8517.4182-21.32,25.987-9.602,25.5354Z" transform="translate(1165.2784 -303.8993)"/></svg>