<svg id="Layer_1" data-name="Layer 1" xmlns="http://www.w3.org/2000/svg" width="1052.8468" height="1041.0796" viewBox="0 0 1052.8468 1041.0796"><defs><style>.cls-1{fill:#2e4ac0;}</style></defs><path class="cls-1" d="M1500.3459,602.711a489.4694,489.4694,0,0,0-49.1242-172.0252c-47.8589-96.6515-125.9925-175.3232-213.8476-226.4273-85.7159-49.86-183.74-76.1363-280.6937-73.5484,1.9739-7.4392,3.2476-15.7831.9194-22.9709-2.0495-6.327-6.3573-13.7266-13.4363-13.4929C843.6372,97.5676,743.7083,131.7147,660.9682,195.36c-43.2946,33.303-82.5051,73.0431-114.0423,119.9306-32.2047,47.88-58.0338,101.2889-74.4228,158.2024-15.9306,55.3232-24.5322,113.2555-22.8371,171.4039,1.66,56.9567,13.0205,113.4077,33.831,165.5642,41.2371,103.35,112.3654,189.5067,200.5743,246.5733,83.31,53.8971,181.69,82.5676,278.3352,77.7668,58.6137-2.9117,116.14-16.451,171.76-36.6974,47.2768-17.21,93.7544-38.3139,137.2829-65.077,89.0855-54.773,166.7289-135.0042,205.3607-240.9171C1498.4787,732.703,1506.3664,666.337,1500.3459,602.711ZM906.5647,581.2566q-.1618,30.5113-2.266,60.971c-1.1706,16.94-3.3149,33.9576-2.1968,50.9323.4829,2.2416,1.0349,4.469,1.68,6.6865,4.6347,15.9426.7859,32.9252-4.4116,48.1743-6.1222,17.9623-18.1464,34.1995-32.1681,46.8254-9.656,8.6949-26.01,17.6418-39.7134,16.0745-12.98-1.4845-22.1953-11.2685-25.7242-23.4075-6.2781-21.5956-6.7113-44.2822-4.9913-66.5139,5.2389-67.7183,4.8895-135.24-3.3074-202.7307A92.8617,92.8617,0,0,1,799.86,484.51l8.4054-17.7091A101.6011,101.6011,0,0,1,845.4378,428.25c10.5624-6.2131,26.4331-9.5968,37.7695-3.0518a23.7692,23.7692,0,0,1,11.5494,13.9776,35.5782,35.5782,0,0,1,4.6924,20.2576A967.9737,967.9737,0,0,1,906.5647,581.2566ZM1143.4912,757.34a101.6,101.6,0,0,1-37.1722,38.5511c-10.5624,6.2131-26.433,9.5968-37.7695,3.0518-12.0263-6.9434-15.4149-21.6077-16.2417-34.2353q-8.153-124.52-4.0529-249.4086c1.1741-35.6556,20.88-71.729,51.9723-90.0187,10.5623-6.2132,26.433-9.5969,37.7694-3.0518,11.11,6.4141,16.641,22.1128,16.2418,34.2352q-4.1072,124.7191,4.053,249.4086C1159.4623,723.7571,1151.8424,741.9341,1143.4912,757.34Z" transform="translate(-449.455 -94.2409)"/></svg>