<svg id="Layer_1" data-name="Layer 1" xmlns="http://www.w3.org/2000/svg" width="365.56" height="361.4743" viewBox="0 0 365.56 361.4743"><defs><style>.cls-1{fill:#2e4ac0;}</style></defs><path class="cls-1" d="M1106.6262,436.5464a169.95,169.95,0,0,0-17.0564-59.7291c-16.6172-33.5584-43.746-60.8741-74.25-78.618-29.7615-17.3119-63.7965-26.4353-97.46-25.5368.6854-2.583,1.1276-5.48.3192-7.9757-.7116-2.1969-2.2073-4.7661-4.6652-4.6849A170.7417,170.7417,0,0,0,815.1851,295.11a178.4292,178.4292,0,0,0-39.5968,41.6412,197.262,197.262,0,0,0-33.77,114.4429,168.8443,168.8443,0,0,0,11.7466,57.4857c14.3179,35.8842,39.0144,65.7989,69.6415,85.613,28.9262,18.7137,63.0848,28.6684,96.641,27.0015,20.3514-1.011,40.3251-5.712,59.637-12.7418a261.584,261.584,0,0,0,47.6662-22.5954c30.9314-19.0178,57.89-46.8749,71.3034-83.6491A152.3954,152.3954,0,0,0,1106.6262,436.5464Zm-362.1243-13.86c.1207-1.1883.3372-2.9022,0,0Zm244.1513,42.2092L947.3143,492.47C933,502.0189,917.2644,511.9677,900.1,510.7609a9.1037,9.1037,0,0,1-4.4694-1.2c-2.7146-1.8094-3.0683-5.5894-3.144-8.8508-1.0051-43.2528-.286-128.6237.8465-129.7716.1062-.2.4407-.4253,1.62-.4253a4.3171,4.3171,0,0,1,2.1632.59c.36.1575,64.8512,39.01,95.1869,62.992,4.18,3.3047,8.5966,7.21,9.2926,12.4932C1002.6276,454.4207,995.2255,460.5115,988.6532,464.8955Z" transform="translate(-741.7454 -260)"/></svg>