<svg id="Layer_1" data-name="Layer 1" xmlns="http://www.w3.org/2000/svg" width="1250.5945" height="1137.2907" viewBox="0 0 1250.5945 1137.2907"><defs><style>.cls-1{fill:#2e4ac0;}</style></defs><path id="crown_icon" data-name="crown icon" class="cls-1" d="M1646.2151,1182.5374c-44.42-31.4284-88.5584-63.3515-131.5918-96.6806C1572.4746,1037.93,1620.59,978.9939,1649.0311,908.34c49.438-122.8145,31.4935-263.0507-31.072-377.5407-31.0366-56.7946-72.2978-107.7751-120.25-151.5421q20.3327-11.8769,40.9414-23.2783,28.64-15.8283,57.7681-30.7459c13.4709-6.9114,25.5109-21.3266,32.8934-34.1133,7.2265-12.5168,14.1-30.6572,13.0963-45.5431-.7348-10.8963-3.27-24.9437-14.3721-30.2943-11.2483-5.4209-22.6387-2.8319-33.4216,2.7005q-89.6942,46.0185-174.18,100.6968a680.48,680.48,0,0,0-61.9684-36.9934c-105.9646-55.8518-226.84-84.3167-346.62-80.3419a680.9408,680.9408,0,0,0-86.5487,8.4364c-11.6185,1.8873-21.3972,30.9419-5.34,28.3336,114.7566-18.6408,234.5558-5.5921,343.3019,35.2121a685.082,685.082,0,0,1,128.4492,64.202q-31.7164,21.1956-62.72,43.5239c-66.7187,48.0506-130.142,100.4612-191.101,155.5978q-3.4352-10.1956-6.9693-20.3577c-9.9308-28.4934-20.62-56.7361-32.77-84.3638-7.6267-17.3432-15.7444-34.4789-24.48-51.2917-2.7406-5.2745-9.8085-4.604-14.2443-2.7968-6.7083,2.7331-12.2613,8.4009-15.687,14.7532-18.3362,34.0009-34.524,69.132-51.1628,103.9793q-10.0035,20.9511-20.21,41.8141-10.1589-11.9077-20.26-23.8655c-46.84-55.4775-92.7826-111.7022-138.9951-167.701q-38.3421-46.4616-77.1024-92.5732a608.6522,608.6522,0,0,1,173.08-56.7613,601.1721,601.1721,0,0,1,82.4637-8.1634c7.4064-.2217,12.9762-6.9588,15.4079-13.4827,1.5151-4.0644,2.9084-15.5674-4.5684-15.3436-98.09,2.9363-195.5737,28.6444-281.75,75.5686q-31.2-36.84-62.8613-73.2876-10.6515-12.2416-21.3613-24.4328c-14.3459-16.3355-36.7609-2.4393-47.5152,11.3369-7.546,9.6665-14.1792,21.2505-16.0031,33.5337-1.284,8.6464-2.38,20.62,3.8822,27.7512q33.1612,37.76,65.7266,76.0224C553.8312,355.56,486.6305,449.252,452.511,556.6153c-18.1121,56.9938-27.3,116.9015-25.3753,176.7445a481.8619,481.8619,0,0,0,40.802,178.5225A564.5906,564.5906,0,0,0,567.1442,1063.72q-21.7371,16.7064-43.8264,32.958-15.9608,11.7375-32.0959,23.2355a73.869,73.869,0,0,0-16.1012,18.6263,81.03,81.03,0,0,0-12.3638,22.8088c-4.3849,11.79-8.4,30.05-3.9038,42.6287,3.6657,10.2543,10.5977,20.1415,22.7631,20.7131,13.78.6474,24.37-6.5419,35.1419-14.2242q58.2581-41.5485,114.2093-86.1719a608.89,608.89,0,0,0,77.7985,54.1668c101.3539,59.4149,220.2074,90.5095,337.7625,85.2179,70.2365-3.1615,139.3422-18.4711,205.9663-40.4466,56.2862-18.5654,111.4221-41.3758,163.2419-70.2457q8.8551-4.9334,17.5923-10.1307c43.13,34.6941,87.6108,67.7141,132.5822,99.9882q16.0747,11.5362,32.2316,22.9572c6.9352,4.9067,18.25,1.4727,24.7029-1.996,9.7541-5.2433,19.1081-15.6133,24.3126-25.2143C1655.8005,1222.6476,1664.44,1195.4318,1646.2151,1182.5374ZM1348.8818,475.685q8.4677-6.1456,17.0093-12.188,50.788-35.4191,103.75-67.5412a612.4045,612.4045,0,0,1,75.48,78.8245c76.0795,95.35,122.0644,217.219,107.106,340.2443-7.1134,58.504-27.1719,112.0457-60.111,159.7817-.1692.2262-2.1759,3.0817-2.03,2.8775q-1.54,2.1644-3.1089,4.3085-2.6146,3.5733-5.3039,7.0912-6.4591,8.4467-13.3357,16.5636c-8.56,10.1114-17.4731,19.73-26.3588,28.45a527.1952,527.1952,0,0,1-44.1649,38.621q-31.7277-25.0332-62.4625-51.2993-22.2476-19.0913-43.8479-38.9179-29.4741-27.2692-57.9044-55.6249c7.2407-.9747,14.4585-2.2245,21.3131-4.8334a72.0992,72.0992,0,0,0,30.0447-20.9969c25.8178-30.3769,21.6588-72.2539,18.7122-109.1129A939.2138,939.2138,0,0,0,1357.12,565.174q-4.5663-13.4545-9.5432-26.7635c-1.507-4.04-4.3376-8.1344-9.19-8.3624a19.84,19.84,0,0,0-14.1877,5.7427,803.6469,803.6469,0,0,1-62.5195,56.3408c-10.6636,8.6374-21.5852,16.9186-32.6281,25.0616-.1966.134-.3913.2709-.5888.4041q-1.9932,1.3436-4.0288,2.6214c-2.7108,1.6954-5.4856,3.2866-8.3524,4.7043q-.9131.4588-1.8421.8848-3.0043,1.3207,1.0687-.3642c-.793.8317-3.3665,1.2092-4.4731,1.54a50.2539,50.2539,0,0,1-7.2318,1.5766,46.2571,46.2571,0,0,1-12.4355-1.3141,52.9409,52.9409,0,0,1-15.8138-9.4994c-.2249-.2241-.4444-.4526-.6663-.6793q2.7647-2.4753,5.5309-4.9487C1234.2516,564.0121,1290.3225,518.1862,1348.8818,475.685ZM1034.9452,749.3315c43.6525,47.5753,88.1282,94.4,132.7882,141.033-32.6865.0334-65.3836-.8676-98.06-2.4539-54.7259-2.6567-109.3608-6.82-164.0254-10.5031,41.14-40.4151,81.8485-81.2679,122.9-121.7731Q1031.744,752.4807,1034.9452,749.3315Zm235.7564,113.5506c-54.7512-56.7537-109.3325-113.76-162.8615-171.6678-2.0447-2.2118-4.072-4.439-6.112-6.6548q17.6018-16.7538,35.4184-33.278c7.7326,9.8207,17.2906,17.9116,29.2507,21.9936,16.1778,5.5217,31.8774,3.2521,47.33-3.6093,15.0386-6.6773,28.24-17.6008,41.2179-27.5464a802.7826,802.7826,0,0,0,62.9424-53.641,924.3418,924.3418,0,0,1,39.1256,152.5159q1.8815,11.2826,3.48,22.6081c.0276.1932.0506.3528.0712.4952.0155.1183.0325.2462.0522.395q.4007,3.0217.7912,6.0447.7225,5.6679,1.3737,11.3447,2.5164,21.934,3.9621,43.9734c.823,12.5594,1.85,25.2871,1.0506,37.876-.1643,1.2416-.3231,2.4819-.5276,3.7185-.216,1.306-.4616,2.6072-.7474,3.9-.0276.1255-.0586.25-.0882.3753-.1625.4738-.3345.945-.5077,1.4153.053-.0474.1091-.0979.1582-.141-.0756.1035-.149.207-.2211.31l-.0391.1049-.0178.0166c-.0193.0161-.0412.031-.0607.047l-.0318.0464c-.05.0316-.0982.0644-.15.0948l-.0008,0a12.7093,12.7093,0,0,0-1.087.8837c.2527-.2471.4827-.4679.6951-.6689-.6346.3655-1.2729.7233-1.9266,1.0552-.3757.1907-1.621.6779-1.791.7711-.6919.2334-1.3851.4618-2.0849.6709-7.2541,2.1659-14.8029,3.09-22.2933,4.02q-21.7257,2.698-43.5294,4.6949c-.4158.0366-.832.0688-1.2482.105Q1281.4666,874.0468,1270.7016,862.8821Zm95.9752,9.71c.04-.0638.0741-.1176.1079-.1716a2.4408,2.4408,0,0,1,.2243-.1511C1366.8975,872.377,1366.7868,872.481,1366.6768,872.592ZM1027.3706,496.575c8.3968-17.63,16.7537-35.296,25.4225-52.803.9123,1.9074,1.8094,3.8222,2.7073,5.7366,13.0775,28.43,24.5581,57.553,35.0666,87.0231q5.8845,16.502,11.44,33.1184-28.2562,26.394-55.9812,53.3457-25.9225-29.1521-51.4069-58.6909C1005.7931,541.8546,1016.5877,519.2158,1027.3706,496.575ZM535.505,975.1088c-34.14-50.464-59.9-106.48-73.975-165.8464-12.9912-54.793-15.24-112.0971-7.6025-167.8529a507.0611,507.0611,0,0,1,49.8946-159.7677A494.2455,494.2455,0,0,1,604.4363,346.474a539.6294,539.6294,0,0,1,51.84-43.2867Q721.0378,379.56,784.4692,457.0594c46.7357,56.7649,93.55,113.4681,141.41,169.2824q-5.1043,8.8014-10.3961,17.4925c-1.2784,2.0934-2.5887,4.1686-3.8777,6.2561.1315-.0786-.0894.3115-.5265.8541-.0373.0609-.0751.1214-.1124.1824-.1541.1724-.3095.3466-.4653.5208-.032.0182-.0635.0372-.0955.0553-.1274.1307-.26.2619-.4012.3919l-.0053.001c.0654-.0909.1339-.1866.195-.27-.2085.1158-.4075.2476-.6187.3584l-.0022.0014c-.8835.1916-1.7457.3953-2.6138.5761a29.0679,29.0679,0,0,1-5.6656-.7177c-7.1478-2.81-13.3048-7.5139-19.0164-12.62C848.11,607.4556,814.56,574.7987,780.71,542.494c-4.4511-4.2482-8.4443-5.16-14.2443-2.7969-6.9357,2.8258-11.8753,8.44-15.6869,14.7532a557.0109,557.0109,0,0,0-72.9363,197.2342,565.9682,565.9682,0,0,0-6.4531,61.21c-.2266,4.2926,1.8978,9.9762,5.8025,12.2305,4.05,2.3383,9.72,1.13,13.4932-1.09,11.2847-6.6381,17.8906-19.3523,18.5672-32.1594q.3015-5.7073.7168-11.4074.1059-1.4247.22-2.8489c.0438-.5467.6341-5.2321.1-1.3536-.0564.4088-.0989.718-.131.9529.0686-.5186.1615-1.2408.1953-1.5925q.17-1.7775.3523-3.554,1.2441-12.08,3.0641-24.0917,3.6449-24.03,9.5572-47.6405,1.3686-5.47,2.8593-10.9078c.072-.2844.15-.5782.2235-.8285.0678-.232.1383-.4632.2061-.6952.133-.4658.2632-.9325.3791-1.4-.0672.2715-.1294.521-.1893.7608.5408-1.8448,1.0807-3.69,1.64-5.5293q3.5431-11.654,7.6342-23.1319,8.07-22.6584,18.22-44.5033c.1026-.2206.2529-.5415.4051-.8656q1.5561-3.2195,3.1559-6.4176,2.5951-5.1849,5.3133-10.3068l68.6078,65.4773c7.4686,7.1277,14.8653,14.3406,22.4754,21.3174,5.8388,5.3531,12.1051,10.5949,19.4636,13.7243,9.0577,3.8522,18.826,5.2174,28.32,1.9354a62.474,62.474,0,0,0,28.8414-21.2278,245.2339,245.2339,0,0,0,16.9382-25.9713q13.9467,16.0649,28.0285,32.0146c1.2859,1.4548,2.58,2.9021,3.8679,4.3551q-18.8139,18.66-37.5929,37.354c-49.3393,49.0594-98.8371,97.9749-149.5718,145.5883q-48.8152-2.005-97.6775-2.4747c-12.0449-.0986-22.0663,11.87-25.68,22.4712-2.441,7.1615-4.9461,25.47,7.6139,25.5728q32.4259.2652,64.8239,1.3173Q668.57,983.8793,591.3227,1044.8986A565.3771,565.3771,0,0,1,535.505,975.1088Zm373.972-322.276.0371-.0126c-.1274.1632-.2576.3256-.3726.4919C909.2624,653.1372,909.366,652.9912,909.477,652.8328Zm426.02,513.0477c-59.1778,25.1574-121.3,45.0194-184.43,57.3653-60.6841,11.8677-122.4739,15.4115-183.992,8.6375a611.69,611.69,0,0,1-311.1695-127.7q28.926-23.6032,57.2223-47.9727c49.667-42.7836,97.8321-87.2611,145.0968-132.6746q17.33,1.0641,34.6545,2.2293c63.2706,4.2563,126.5146,9.2423,189.899,11.5119,43.2924,1.55,86.6263,1.6831,129.89-.124,50.61,52.3905,102.1582,103.8705,156.8271,152.063q22.1913,19.5624,45.0334,38.3377A844.694,844.694,0,0,1,1335.4971,1165.8805Z" transform="translate(-426.8841 -130.9546)"/></svg>