<svg id="Layer_1" data-name="Layer 1" xmlns="http://www.w3.org/2000/svg" width="1746.4425" height="1077.8168" viewBox="0 0 1746.4425 1077.8168"><defs><style>.cls-1{fill:#2e4ac0;}</style></defs><path class="cls-1" d="M417.357-81.201l-.3276,1.0539A127.02,127.02,0,0,1,413.8328-66.4C413.3813-60.9357,414.7757-60.9221,417.357-81.201Z" transform="translate(-36.5575 81.201)"/><path class="cls-1" d="M1128.0532-26.3149c-32.5478-15.0691-69.4254-18.5256-104.8952-17.37-41.4292,1.3494-82.5692,8.8092-122.6119,19.2545C822.0463-3.9539,747.99,28.9524,678.815,71.164,527.1,163.7422,399.3014,298.5417,318.4343,457.1218c-22.4121,43.95-41.01,90.8738-45.989,140.3249-4.6326,46.0115,3.8682,91.955,22.7918,134.0316,36.165,80.4129,104.1237,142.7074,180.6917,184.3122,77.8032,42.2761,165.5265,64.5011,253.1075,74.3124,93.1768,10.4382,188.0412,7.9285,280.8772-4.6612,190.7864-25.873,376.962-96.6221,534.53-207.6861,73.37-51.7163,141.3025-114.6283,186.41-193.0732,44.5523-77.4785,64.685-171.5716,43.9872-259.5929-20.846-88.652-85.0385-153.3451-161.968-197.6975-71.9162-41.4622-152.2636-67.3036-233.8057-81.56C1209.4944,16.1834,1031.6356,33.2729,866.923,80.8037c-79.8652,23.0465-157.7187,53.7806-230.8071,93.4822-77.2115,41.9412-148.6454,94.3783-212.6828,154.4857C296.3074,448.0958,200.4948,594.9749,107.859,741.42c-23.555,37.2373-46.9818,74.5555-70.7,111.69-3.9091,6.12,12.3969,4.4581,15.1706.1155C144.288,709.25,231.3717,560.6361,342.4983,430.1932c54.2631-63.6952,114.4579-122.346,181.355-172.7243a1005.3356,1005.3356,0,0,1,217.554-124.1606c154.08-64.3622,323.5966-97.1941,490.6252-92.4506,82.0037,2.3289,164.363,14.13,242.58,39.3436,78.1737,25.2,157.1646,63.4054,214.7273,123.2628,62.3542,64.84,85.8514,153.6017,74.09,241.8307-11.9161,89.39-57.5811,168.9923-118.8794,233.8678C1582.3569,744.986,1505.8237,796.8787,1426.8,840.33a1191.4643,1191.4643,0,0,1-262.7451,105.7912A1189.6385,1189.6385,0,0,1,880.5331,987.265c-87.8868,1.9713-176.5468-5.2046-261.6495-28.0762-82.046-22.05-161.0408-59.7829-223.6239-118.0328-65.6068-61.0642-114.047-147.3181-107.0721-239.2666,3.6383-47.9632,20.4132-93.8946,41.4764-136.77,19.6071-39.9112,42.807-78.2088,68.1488-114.7248A974.3674,974.3674,0,0,1,571.5672,160.0173C636.3825,105.5893,708.818,58.2122,786.3123,23.8705,857.36-7.6142,935.9677-31.6111,1014.0286-34.7037c34.1983-1.3549,69.5282,1.5291,100.9442,16.0741,4.599,2.1293,19.6-4.6667,13.08-7.6853Z" transform="translate(-36.5575 81.201)"/></svg>