<svg id="Layer_1" data-name="Layer 1" xmlns="http://www.w3.org/2000/svg" width="5024.0952" height="800.3801" viewBox="0 0 5024.0952 800.3801"><defs><style>.cls-1{fill:#2e4ac0;}</style></defs><path class="cls-1" d="M-65.5045,114.9831c3.3191-.6069,5.8485-4.9171,6.403-7.9236,2.8759-15.5946,5.7431-31.3725,9.3464-46.96A123.6441,123.6441,0,0,1,8.1065,54.2925c3.406,19.4805,8.532,38.7577,19.2214,55.618,3.4057,5.3717,12.2126-6.2412,9.1247-11.1117-8.4912-13.3931-13.1662-28.11-16.377-43.3221,4.4873-2.337,7.9251-11.8235,2.41-13.01C20.826,42.11,19.16,41.795,17.49,41.5051,14.4665,23.0963,12.5161,4.3407,7.6691-13.361,5.4578-21.4374,2.6543-31.79-7.1614-32.9863c-9.8337-1.1982-17.73,6.7681-22.6132,14.2758-11.29,17.3574-18.4247,38.2362-24.1276,58.0031-6.67,23.1187-11.1524,46.746-15.5121,70.3863C-69.927,112.4591-68.8133,115.5882-65.5045,114.9831ZM-27.7353-4.1919c3.07-6.072,6.9845-16.4333,15.5133-15.3363C-4.1951-18.4959-2.7014-5.5786-1.1994.6135c3.1506,12.9881,5.0083,26.2187,7.012,39.4211a129.5684,129.5684,0,0,0-52.2251,6.5437C-41.7748,29.0881-35.9121,11.9827-27.7353-4.1919Z" transform="translate(1785.0952 43.9434)"/><path class="cls-1" d="M67.6079,105.26c3.0582-1.57,5.2178-5.6314,5.201-9.0085A55.2771,55.2771,0,0,1,81.4249,65.98a48.0367,48.0367,0,0,1,9.64-10.9652c2.9873-2.4856,9.4431-6.9932,13.333-4.4252,4.0824,2.695,6.0636,10.2334,7.1427,14.6478a84.7863,84.7863,0,0,1,1.9312,17.2466c.2159,6.1434.04,12.421.9074,18.5194.8,5.6271,4.7882,8.4227,9.7115,4.6117,2.4779-1.9181,4.7211-6.3528,3.6607-9.507a2.8586,2.8586,0,0,0-3.1783-2.23c-.266-2.2662-.476-16.989-.5524-18.8272a90.264,90.264,0,0,0-2.6156-19.9293c-1.52-5.5888-3.9885-12.0508-8.2828-16.11-4.4683-4.2244-10.557-2.4606-15.59-.2248C86.3745,43.7426,77.5132,54.5371,71.743,65.0094c-.3009.546-.5888,1.0979-.876,1.65a89.9366,89.9366,0,0,0-8.0531-27.1478c-1.5377-3.1076-5.9972.1932-7.27,1.7345C53.41,43.83,52.14,47.4914,53.6892,50.6231c7.8726,15.9092,8.1788,34.1463,8.5136,51.5161C62.2643,105.33,64.8573,106.6716,67.6079,105.26Z" transform="translate(1785.0952 43.9434)"/><path class="cls-1" d="M221.4849-29.317c-3.2768,1.6818-4.9128,5.5534-5.2011,9.0085q-3.68,44.1049-7.36,88.21a63.3589,63.3589,0,0,0-5.2731-8.2119c-6.379-8.4208-21.534-24.8376-32.4487-14.9157-6.0919,5.5376-10.908,13.1264-16.0485,19.54-4.668,5.8238-9.3082,11.84-11.1,19.2357-3.222,13.2982,6.182,24.6824,18.5962,28.2591,14.71,4.2382,29.9817-1.91,40.0428-12.8083a11.3524,11.3524,0,0,0,2.4683-4.852,53.7359,53.7359,0,0,1,.9654,7.2844c.1963,3.146,2.5631,4.5792,5.4051,3.1207,3.2767-1.6818,4.9128-5.5534,5.201-9.0085q5.0787-60.8706,10.1573-121.741C227.1629-29.4675,224.0174-30.6167,221.4849-29.317ZM197.2772,91.3577c-7.882,8.5383-22.481,10.8136-32.7571,5.6166-4.7249-2.3895-9.719-6.6792-10.5094-12.2305-.8262-5.8022,5.3364-11.2643,8.5725-15.2981l8.0555-10.0406a26.4413,26.4413,0,0,1,3.0207-3.7652q.4476-1.5516,1.1571-.7245a7.2734,7.2734,0,0,1,2.7566.9693c5.4276,2.5679,10.3474,7.119,14.2615,11.6026a58.9227,58.9227,0,0,1,11.9983,21.4448C201.6934,87.3982,198.7476,89.765,197.2772,91.3577Z" transform="translate(1785.0952 43.9434)"/><path class="cls-1" d="M375.3724,17.8287c-6.3051-2.1517-12.74.0022-19.0262,1.3857q-7.1067,1.564-14.175,3.296c1.334-20.3866,3.2656-40.731,5.2176-61.0672.2647-2.7576-.4289-5.9409-3.91-5.3044-3.1149.57-6.1171,4.9455-6.403,7.9238-1.9522,20.3382-3.913,40.6906-5.3047,61.0786q-9.5655,2.506-19.052,5.3c-7.3259,2.16-14.54,4.46-22.2672,3.6019-5.6637-.6292-11.5757,12.7343-5.06,13.4579,13.9716,1.552,28.2983-4.9976,41.5783-8.5288,1.3334-.3546,2.6732-.6844,4.0088-1.03q-.5352,9.695-.8464,19.4025c-.4424,14.4185-1.4037,29.5119,1.34,43.7618,1.01,5.2469,2.6083,12.856,6.9692,16.4311,6.0323,4.9455,13.1384-2.9953,13.8945-8.8565.3571-2.7685-.4934-5.929-3.91-5.3043a5.7541,5.7541,0,0,0-2.5131,1.2431c-.112-.16-.2457-.3585-.4064-.6189a20.4053,20.4053,0,0,1-1.6029-3.5773,49.41,49.41,0,0,1-2.2222-8.09,95.283,95.283,0,0,1-1.2357-16.9009c-.1263-12.5569.23-25.1225.84-37.6637.04-.8124.09-1.6243.1322-2.4366,2.0879-.5035,4.1733-1.0172,6.2662-1.4995q5.3919-1.2429,10.805-2.3921c2.9745-.6311,6.5277-1.8955,9.5282-.8715C373.8867,32.5718,380.7057,19.6488,375.3724,17.8287Z" transform="translate(1785.0952 43.9434)"/><path class="cls-1" d="M434.6789,77.2489a90.3792,90.3792,0,0,1,2.108,16.0884c.2508,6.0375-.83,18.4987,8.1376,18.8,5.724.1921,11.4361-13.2441,5.0606-13.4581-3.5041-.1176-2.4856-7.5842-2.54-9.691a107.3933,107.3933,0,0,0-2.2319-19.0072c-1.0294-4.9558-2.0643-11.3243-5.0884-15.5561-3.359-4.7006-8.9082-4.3247-13.5563-1.8165-7.7541,4.1845-14.37,11.7615-19.4283,19.33.1957-27.1711-4.6135-54.3343-10.2862-80.93-.7251-3.4-4.6561-2.3367-6.5486-.7338-2.6215,2.2205-4.3947,6.0656-3.6607,9.507,7.0206,32.9144,12.91,66.8928,8.3562,100.4932a73.8445,73.8445,0,0,0-1.1552,7.31c-.2921,2.7611.4479,5.9374,3.91,5.3043,3.3146-.606,5.8545-4.9176,6.403-7.9237q.6356-3.4828,1.1242-6.97a56.6214,56.6214,0,0,1,6.6549-17.135,55.5759,55.5759,0,0,1,7.7438-10.1548c2.0433-2.1155,6.9386-7.8971,10.2736-6.2238,1.52.7626,2.0491,3.1284,2.5184,4.5959C433.3327,71.7639,434.06,74.4958,434.6789,77.2489Z" transform="translate(1785.0952 43.9434)"/><path class="cls-1" d="M472.9362,81.66c.08.0481.1613.0894.2416.1363-.3594,9.6719,2.1345,20.2667,9.2737,26.389,12.52,10.7363,29.3794.0726,37.32-10.8489,1.6915-2.3265,3.9684-6.6128,1.8545-9.3771-2.0147-2.6345-5.8177-.2629-7.27,1.7347-5.4264,7.4632-16.655,13.8175-24.6205,5.6047a21.6958,21.6958,0,0,1-5.3044-10.5463c8.3934-.1928,16.4329-5.3213,20.9419-13.0484,3.1329-5.3689,5.0169-12.0883,3.4285-18.2594-1.341-5.21-5.3286-9.8222-11.0652-9.434-6.571.4446-11.8907,6.3481-15.472,11.3748a49.6049,49.6049,0,0,0-7.122,14.6C471.6981,72.9928,469.4,79.5312,472.9362,81.66ZM491.0905,58.89c3.4989-3.1184,7.12-.11,7.6467,3.954,1.0156,7.8375-7.7307,9.146-14.1366,7.6958.1188-.4842.2453-.9625.3865-1.4273A22.6393,22.6393,0,0,1,491.0905,58.89Z" transform="translate(1785.0952 43.9434)"/><path class="cls-1" d="M644.8139,113.4071c13.9233-4.7644,23.1552-20.6979,26.7436-34.2059,3.4656-13.0461-.9155-28.9108-16.0632-31.0372a39.6262,39.6262,0,0,0-29.4381,8.3179,3.619,3.619,0,0,0-3.6435.2374A25.4006,25.4006,0,0,0,610.381,74.01c-1.4628,7.593.78,14.8443,4.1378,21.6029C620.2357,107.1209,630.8262,118.1935,644.8139,113.4071Zm9.1-50.9017c12.3246,4.95,8.18,19.5807,3.094,28.2126-2.5767,4.3731-5.8906,8.3486-10.9278,9.8564-5.6229,1.6832-11.0575-.8376-14.9679-4.8711a43.4024,43.4024,0,0,1-8.7268-14.0489,27.5655,27.5655,0,0,1-1.9748-7.1372c3.035-.1443,5.4043-4.055,6.4286-6.3306,1.4073-3.1263,8.3908-4.6157,11.26-5.3732C643.1257,61.4862,648.9178,60.4986,653.9141,62.5054Z" transform="translate(1785.0952 43.9434)"/><path class="cls-1" d="M671.7943,38.0265q13.4221-3.4482,26.972-6.3588-.1875,12.0924-.3749,24.1849l-.5255,33.9c-.1214,7.8261-1.8475,19.805,6.4415,24.3159,5.3172,2.8937,12.6315-9.8686,7.3554-12.74-3.0808-1.6766-3.2746-5.1474-3.3209-8.3351-.0753-5.1876.15-10.3982.23-15.5858l.5-32.2854q.1214-7.8085.2422-15.6174,7.108-1.3974,14.2407-2.6639c5.12-.9095,9.1365-2.525,12.6533-6.4959,1.88-2.1233,3.8536-6.7628,1.8545-9.377-2.121-2.7737-5.66-.0834-7.27,1.7347-.125.1411-3.1315.6179-3.9657.774-2.59.4848-5.1906.9167-7.7814,1.3982q-4.7741.8871-9.5333,1.8528l.5609-36.176c.05-3.2219-2.7286-4.4944-5.4051-3.1208-3.1089,1.5957-5.1484,5.6111-5.201,9.0085q-.252,16.25-.5038,32.4992-12.3909,2.7035-24.6763,5.86c-3.3594.8631-5.8166,4.682-6.4029,7.9238C667.4123,35.3332,668.4205,38.8933,671.7943,38.0265Z" transform="translate(1785.0952 43.9434)"/><path class="cls-1" d="M1039.0643,69.4231c.2893-.2179.5888-.42.8834-.63q1.1255,11.4186,1.4612,22.8717a7.0284,7.0284,0,0,0,.0859,3.2664,324.196,324.196,0,0,1-4.5839,61.0856c-.477,2.7784.5762,5.9138,3.91,5.3042,3.29-.6014,5.8872-4.92,6.4028-7.9236a342.0916,342.0916,0,0,0,4.85-49.8575c5.0762,1.2484,10.8844.7079,15.69-.4569,11.7035-2.8372,24.019-9.2741,32.211-18.21,7.3464-8.0132,12.7167-23.0578,4.0841-32.1666-7.3149-7.7184-20.2395-7.4544-30.02-6.804a74.908,74.908,0,0,0-24.9737,5.7913c-1.94-4.7972-8.6629.5373-9.9824,5.4415-.98.6545-1.9516,1.3289-2.9055,2.0472-2.4954,1.8794-4.7118,6.38-3.6606,9.5069C1033.65,72.0618,1036.8719,71.0742,1039.0643,69.4231Zm58.47-1.1391c2.3305,9.8124-12.852,16.3776-19.8766,19.2133-7.2534,2.9279-20.0141,6.4274-25.6282-1.0381q-.3175-11.6469-1.45-23.2651a66.339,66.339,0,0,1,20.401-3.9462C1078.866,58.91,1095.0985,58.0286,1097.5342,68.284Z" transform="translate(1785.0952 43.9434)"/><path class="cls-1" d="M1145.1253,108.7046c3.3533-1.0279,5.7963-4.57,6.4029-7.9238.4481-2.4771-.5394-6.3373-3.91-5.3043-9.4936,2.91-12.5118-9.3685-12.5491-16.1566-.0564-10.2193.58-20.491,1.0563-30.6967.9922-21.2738,2.5027-42.5216,4.734-63.7024.2909-2.7609-.4472-5.9374-3.91-5.3043-3.1366.5736-6.0888,4.9416-6.403,7.9237-2.572,24.4148-4.2869,48.91-5.3135,73.4371-.4552,10.878-2.18,22.884.1433,33.6249C1127.3132,103.5557,1135.4226,111.6783,1145.1253,108.7046Z" transform="translate(1785.0952 43.9434)"/><path class="cls-1" d="M1179.16,105.2546a18.67,18.67,0,0,0,17.2134,3.1862c7.1914-2.4949,11.891-9.1709,15.6406-15.4209a91.771,91.771,0,0,0,6.3107-12.6766c.4367,9.6777,1.2961,19.277,5.6518,28.377,1.4988,3.131,6.0182-.2183,7.27-1.7347,2.1583-2.6134,3.3674-6.2167,1.8546-9.3769-4.1338-8.6362-4.3605-18.4341-4.6312-27.8152-.2774-9.6052-.5837-19.3009-3.4846-28.5412-.9035-2.878-3.7817-2.6721-5.8775-1.2058a10.3643,10.3643,0,0,0-1.9841,1.8451,18.192,18.192,0,0,0-22.1533-10.5088c-15.0116,4.3563-22.7581,20.0351-24.9563,34.4083C1167.9773,79.1123,1167.3148,96.1377,1179.16,105.2546Zm.65-38.0018c.5671-5.8089,1.463-12.5645,5.08-17.3546,3.1376-4.1552,8.7266-6.7759,13.9373-5.6436,4.4225.9609,9.8656,5.5455,8.8907,10.5179-.5453,2.7818.6234,5.9054,3.91,5.3045a5.7019,5.7019,0,0,0,2.5651-1.2685,71.2416,71.2416,0,0,1-8.432,27.3887c-2.71,4.8849-5.4988,10.4048-11.9039,9.6063-5.4132-.675-10.0189-4.79-12.1815-9.6548C1179.0734,80.2929,1179.2,73.5066,1179.8108,67.2528Z" transform="translate(1785.0952 43.9434)"/><path class="cls-1" d="M1246.5151,44.5072a3.3556,3.3556,0,0,0,.4062.03,150.2724,150.2724,0,0,1,2.1541,58.1333c-.2306,1.224-.4453,2.45-.6281,3.6785-.4126,2.7737.532,5.922,3.91,5.3043,3.3207-.6073,5.8459-4.917,6.4028-7.9237.2041-1.102.3847-2.2067.5663-3.3113A80.1308,80.1308,0,0,1,1271.3637,70.68a75.7262,75.7262,0,0,1,10.63-12.6932c3.3732-3.22,10.1015-10.6394,15.2748-9.3428,5.3969,1.3526,7.6394,12.227,8.7246,16.7941a132.5883,132.5883,0,0,1,2.7,19.42c.5583,6.5174.6788,13.3462,2.0945,19.7453.51,2.3027,1.7247,4.74,4.4251,4.8675,4.1652.1972,6.8827-3.9631,8.2633-7.29.9932-2.3933,1.1469-6.6231-2.1328-7.1635a3.54,3.54,0,0,0-.74-.0358c-.5587-2.3663-.4047-5.7343-.5735-7.5236-.3553-3.7689-.6335-7.5445-.9777-11.3144a130.3065,130.3065,0,0,0-3.1828-20.8247c-1.5426-5.96-3.7757-13.688-8.5907-17.8186-5.5637-4.7728-12.7916-1.682-18.0505,1.9616a95.9767,95.9767,0,0,0-27.7468,30.2964,163.6119,163.6119,0,0,0-5.4906-38.5567c-.6569-2.4564-3.2432-2.803-5.2065-1.6781a14.1276,14.1276,0,0,0-6.4021,7.82C1243.505,39.7664,1243.1546,43.9535,1246.5151,44.5072Z" transform="translate(1785.0952 43.9434)"/><path class="cls-1" d="M1335.948,75.1082c.7276,3.9623,1.6888,7.8822,2.6315,11.5986,1.8377,7.2447,4.7067,15.0811,10.1373,20.4351,5.8839,5.8009,14.9029,5.7165,22.58,4.5692,8.2415-1.2317,15.9808-5.3084,20.9257-12.1239,1.69-2.3285,3.97-6.6111,1.8548-9.377-2.0136-2.6331-5.8194-.2649-7.27,1.7346-6.3893,8.806-25.0244,9.9813-31.5406,1.0867-3.5047-4.7839-5.3759-10.4348-6.7367-16.1551a44.3029,44.3029,0,0,0,29.5627-14.7116c4.9-5.6973,8.459-15.1308,4.1564-22.1679-3.558-5.8193-11.2327-6.0439-17.28-6.0329-7.1187.0131-14.2008.9471-19.9721,5.46-6.6485,5.2-9.87,13.7666-10.227,21.988a51.2858,51.2858,0,0,0,.2749,7.5292C1334.0165,71.554,1334.0413,74.1509,1335.948,75.1082Zm9.7643-21.8513c1.2388-5.0876,7.2692-5.6228,11.7462-5.798,4.153-.1625,13.4151-1.1347,15.6651,3.65,2.1091,4.4843-6.9683,8.1105-10.3866,9.6523-5.3162,2.398-11.4016,3.7174-17.13,2.3389A25.8763,25.8763,0,0,1,1345.7123,53.2569Z" transform="translate(1785.0952 43.9434)"/><path class="cls-1" d="M1403.95,31.9435c6.7505.3494,13.5426.6167,20.2669.3688q.9413,14.8447.9845,29.7352.0257,10.3814-.3875,20.7573c-.2263,5.679-1.5455,12.356.4424,17.8464,1.6139,4.4579,5.5472,7.0089,10.2755,5.7337,5.5684-1.5018,9.3464-7.3718,9.2772-12.9762-.04-3.1968-2.6693-4.5248-5.4052-3.1207a8.81,8.81,0,0,0-2.9315,2.57,1.6811,1.6811,0,0,1-.5551-.3261c-1.338-1.3324-1.0359-3.9622-.9852-5.6516.1556-5.1846.5325-10.3631.6794-15.55q.4857-17.1625-.2241-34.33c-.0776-1.8738-.1828-3.7461-.2821-5.6186a68.2512,68.2512,0,0,0,20.353-5.9882c3.0235-1.4631,5.3494-5.6951,5.2011-9.0085-.1466-3.2777-2.5432-4.5055-5.405-3.1206a59.5747,59.5747,0,0,1-20.9882,5.3643q-1.95-24.5865-6.2633-48.91c-.6086-3.4507-4.7263-2.2773-6.5486-.7339a10.4553,10.4553,0,0,0-3.66,9.5069q3.5529,20.1461,5.3994,40.5266c-4.7613-.0429-9.5179-.29-14.1826-.532C1403.2949,18.19,1397.5347,31.6115,1403.95,31.9435Z" transform="translate(1785.0952 43.9434)"/><path class="cls-1" d="M1528.8621,72.3591l-1.6247-.8123a2.3789,2.3789,0,0,0-1.7894-.3016,3.56,3.56,0,0,0-1.99.6069,6.8608,6.8608,0,0,0-1.9739,1.5939,8.5719,8.5719,0,0,0-1.7461,2.2641q-.4207.886-.8412,1.7722a9.2942,9.2942,0,0,0-.64,3.3783c.084,1.2452.3733,2.8,1.6254,3.4261l1.6247.8123a2.3779,2.3779,0,0,0,1.7892.3016,3.56,3.56,0,0,0,1.99-.607A6.86,6.86,0,0,0,1527.26,83.2a8.5849,8.5849,0,0,0,1.7461-2.2643q.42-.886.841-1.7722a9.2893,9.2893,0,0,0,.64-3.3782C1530.4035,74.54,1530.1142,72.9852,1528.8621,72.3591Z" transform="translate(1785.0952 43.9434)"/><path class="cls-1" d="M1521.8417,38.34c5.7293,0,11.3512-13.4581,5.0607-13.4581C1521.1731,24.8822,1515.5512,38.34,1521.8417,38.34Z" transform="translate(1785.0952 43.9434)"/><path class="cls-1" d="M-898.4825,397.7539a75.81,75.81,0,0,0,4.2912-42.9336c-3.8015-21.24-19.9478-40.2228-38.9037-49.7811-20.9052-10.5412-44.7631-12.69-67.8065-12.5924a459.0967,459.0967,0,0,0-137.2167,21.4073q-.995-11.2736-2.0394-22.543c-.4747-5.1073-1.5823-10.864-6.5015-13.7042-4.5379-2.62-10.8909-1.2654-15.1189,1.2217a40.67,40.67,0,0,0-14.88,15.4317c-3.29,6.07-6.58,13.5462-5.9244,20.6023q.6915,7.4408,1.3538,14.884a350.0987,350.0987,0,0,0-35.6878,17.4909c-24.925,14.132-47.3459,33.2092-61.3927,58.5369-3.3593,6.0571-6.1391,13.5334-5.9244,20.6022.139,4.576,1.7842,11.4306,6.5015,13.7041,11.9465,5.7573,24.8016-7.2826,29.9987-16.6535q1.0893-1.9638,2.2632-3.8762c1.7156-2.1494,3.4416-4.2654,5.26-6.3277.0513-.0512.1036-.1075.1546-.156q1.8552-1.7613,3.789-3.4376c2.6277-2.2778,5.3764-4.3841,8.1466-6.4805q2.0738-1.3914,4.187-2.7229,4.6881-2.9486,9.538-5.6281c6.4715-3.595,13.1126-6.8758,19.8219-10.0014q5.0848-2.369,10.23-4.6051,2.7435-1.1929,5.5031-2.3482c.5392-.2258,1.0889-.44,1.6283-.6719l.0013.0166c-1.5444.682-4.3139,2.02,0,.0006q9.4575,118.6406,12.9568,237.6549,1.2338,42.2278,1.7118,84.4723c.0568,4.9459,1.8909,11.042,6.5015,13.704,4.5379,2.62,10.8908,1.2656,15.1189-1.2216,12.0031-7.0607,20.9659-21.9548,20.8042-36.0339q-.9759-84.9574-4.9859-169.841a8.9111,8.9111,0,0,0,4.8091,5.2859c23.8334,9.2931,49.1312,6.4795,73.0531-1.1714a304.6716,304.6716,0,0,0,63.8834-28.8955c19.98-12.0115,39.3552-26.1363,55.9475-42.5764C-915.2606,426.5287-905.1549,413.6725-898.4825,397.7539Zm-36.6322-8.9835c-.1141-.6179-.2107-1.1211-.2157-1.1311A2.8538,2.8538,0,0,1-935.1147,388.77Zm-27.3145,29.12q-1.9371,1.4936-3.8994,2.9541-1.1215.834-2.2512,1.6573c-.2226.1622-.6534.4705-1.0841.7783-.6493.4491-1.289.8911-1.5532,1.07q-2.3145,1.5677-4.66,3.09-4.69,3.0442-9.4962,5.9034a314.4535,314.4535,0,0,1-34.8325,17.5577c-.13.0352-3.3006,1.3626-4.4057,1.7814q-2.941,1.1139-5.9062,2.1629c-3.8371,1.3561-7.704,2.6284-11.6121,3.765a138.6637,138.6637,0,0,1-22.278,4.6435,77.4651,77.4651,0,0,1-24.433-2.24q-1.0186-.3693-2.0317-.7638c-12.3424-4.8127-24.4222,6.3657-29.9987,16.6534a54.1244,54.1244,0,0,0-5.0559,12.237q-2.8906-56.8581-7.1507-113.6368-.4869-6.4842-1.0032-12.9661,13.2893-3.7611,26.7929-6.7a447.8448,447.8448,0,0,1,52.7419-8.1347c26.6715-2.27,55.1742-3.6,81.0866,3.7419a76.1682,76.1682,0,0,1,24.1077,13.2113A64.1039,64.1039,0,0,1-937.92,380.0993a51.3666,51.3666,0,0,1,1.9746,5.7784c.3265,1.201.5645,2.4169.83,3.63-.0121.3978-.0333.7753-.0241,1.0629.01.3026.0579.7412.1047,1.2187-.0562.2559-.1058.5173-.1543.78-.3434.548-.7195,1.151-1.01,1.63q-1.3629,1.7043-2.8146,3.3345c-.2608.294-.5281.5818-.794.8709-4.6765,4.466-9.4644,8.7966-14.4386,12.9338Q-958.2765,414.6907-962.4292,417.8905Zm26.65-22.4894c-.0476.18-.06.2217,0,0Zm.5731-.7142a7.2544,7.2544,0,0,1,.1489-1.3377q.0558-.1209.1108-.2419A2.9387,2.9387,0,0,1-935.2061,394.6869Z" transform="translate(1785.0952 43.9434)"/><path class="cls-1" d="M-809.1991,591.2338c-.1825-.8454-.2419-.9647.3608,1.9266l-.01-.07Q-809.0358,592.1647-809.1991,591.2338Z" transform="translate(1785.0952 43.9434)"/><path class="cls-1" d="M-770.48,542.6036c-2.3986-11.8977-9.3411-24.8289-22.7534-26.2811-12.3977-1.3422-26.5157,5.54-37.3064,10.7694a159.5056,159.5056,0,0,0-29.7338,19.2526,183.993,183.993,0,0,0-31.3654,32.5267q2.4328-44.0268,6.2791-87.9653c.0116-.133.03-.3364.0494-.5578l.0148-.1629q.2937-3.2253.5951-6.45.5652-6.0461,1.1579-12.0894,1.264-12.8927,2.654-25.7722c.5932-5.5148,1.2068-12.1469-2.3761-16.9846a12.3416,12.3416,0,0,0-13.2632-4.2327,32,32,0,0,0-15.8174,11.1712c-4.5188,5.7887-8.9956,13.0986-9.7943,20.5236q-9.92,92.2133-13.81,184.9459-1.0328,25.4829-1.5791,50.9824c-.0975,4.4882,1.9665,11.5186,6.5015,13.7042,4.1438,1.9969,8.2536,1.5755,12.4217-.1227,12.0266-4.9,20.51-18.2,22.9146-30.5961,1.0971-5.6568,2.3438-11.2819,3.7784-16.8627.5679-.7462.8656-3.21,1.1081-4.0007q1.3665-4.4556,2.91-8.8545,2.9547-8.4143,6.5963-16.5664c.4353-.8723.8685-1.7459,1.3169-2.6116q2.1343-4.1213,4.4747-8.1312,1.9782-3.3829,4.114-6.67c.6106-.8428,1.1849-1.7239,1.8019-2.5484a152.7552,152.7552,0,0,1,10.2277-12.2634c.6241-.61,1.2461-1.2229,1.8808-1.8225q3.051-2.8812,6.2657-5.5826,3.1345-2.63,6.4228-5.069c.2238-.149.4487-.2965.6723-.4455.21-.13.4387-.2756.6329-.4154.477-.3163.9534-.6333,1.4372-.94a123.9922,123.9922,0,0,1,15.8176-8.4955c.3386-.1509.6878-.2915,1.0356-.4344,1.2414-.4545,2.4805-.9124,3.7341-1.3342a65.4863,65.4863,0,0,1,7.2473-2.0817c.0524.0042.1058.0127.1583.0173.0373.0216.0732.0467.11.0687.3464.4591.675.9324.9814,1.4238,2.1967,6.3005,2.6079,13.0216,3.7674,19.5887.1132.5245.273,1.3246.3509,1.857.0267.1317.05.2638.0779.3955l-.068-.3259.0118.087q.25,1.9775.4827,3.9571.463,3.9592.85,7.927.7353,7.5383,1.1953,15.1a421.298,421.298,0,0,1-.7876,61.3288c-.4031,4.7393,2.2408,11.2442,6.5015,13.7041,4.5379,2.62,10.8908,1.2655,15.1189-1.2217,12.9641-7.6259,19.5741-21.5715,20.8042-36.0339a420.4873,420.4873,0,0,0-.2559-74.8412A389.5448,389.5448,0,0,0-770.48,542.6036Zm-110.5795,85.8118a13.103,13.103,0,0,1,.9739-2.0856A19.9272,19.9272,0,0,1-881.0591,628.4154Zm56.8024-55.28c.1253-.0575.2564-.1076.3785-.1688C-823.9626,573.0091-824.0959,573.0677-824.2567,573.1356Z" transform="translate(1785.0952 43.9434)"/><path class="cls-1" d="M-675.3879,581.1141c.0546-.0343.1072-.072.1615-.1067.17-.119.3351-.2395.4839-.3562.0515-.04.1007-.0834.1522-.1239-1.4016.8656-2.0273,1.2806-2.19,1.4107C-676.3162,581.6634-675.8449,581.4008-675.3879,581.1141Z" transform="translate(1785.0952 43.9434)"/><path class="cls-1" d="M-577.2445,642.58a15.5039,15.5039,0,0,0-15.1189,1.2218c-3.8912,2.6778-7.8736,5.2146-11.9939,7.527q-3.091,1.7349-6.2708,3.3063-1.9051.94-3.8415,1.8151c-.2876.13-1.0533.453-1.6813.7191-.3707.1427-.6764.26-.7706.2949q-1.6546.6077-3.3292,1.1587-3.342,1.1044-6.7518,1.9823a96.1093,96.1093,0,0,1-12.1656,2.2643,80.6975,80.6975,0,0,1-25.132-2.5985,67.2584,67.2584,0,0,1-20.8671-11.7526,61.9123,61.9123,0,0,1-8.3882-10.733,90.0956,90.0956,0,0,0,11.1173-4.0215c18.8466-8.2321,34.2518-24.6286,45.9932-41.1182,15.1366-21.2573,35.0586-50.6366,20.7706-77.1379-9.5191-17.6557-33.1136-21.55-50.9791-17.6439-23.1654,5.064-40.8856,22.0084-53.5819,41.1607-11.5442,17.4144-18.007,38.5608-21.292,59.05-.1009.6289-.1919,1.2634-.2872,1.8955-4.2693,8.4863-8.2114,21.5941-2.0455,29.6114.57,27.5838,8.8171,54.6725,31.9851,72.1252,15.4112,11.61,36.2129,16.331,55.2334,14.8136,23.5615-1.88,45.6843-10.8446,65.0943-24.202,6.2222-4.2819,11.0391-8.7794,14.88-15.4317,3.2691-5.6622,6.3785-13.8684,5.9244-20.6023C-571.0754,651.3548-572.2221,645-577.2445,642.58ZM-652.037,551.39a.4278.4278,0,0,1,.0517-.0772C-652.0022,551.3317-652.02,551.3671-652.037,551.39Zm-40.555,9.4495c-3.9825,9.7274-.6394,1.848,1.17-1.3925.6567-.8173,1.3139-1.6328,1.9917-2.4333q1.164-1.0038,2.34-1.9923c1.1331-.6714,2.2582-1.3484,3.4345-1.9522.2986-.1534.6045-.2917.9058-.4391.89-.271,1.7939-.7064,2.6452-.9586a48.6274,48.6274,0,0,1,6.6083-1.4471,41.8344,41.8344,0,0,1,10.4151,1.0233,33.9946,33.9946,0,0,1,7.9556,4.435c.2163.25.4218.5058.6265.7624-.1709.2809-.3315.5666-.5068.8458-1.08,1.72-2.203,3.4137-3.3313,5.1023-2.4162,3.38-4.9321,6.6912-7.6114,9.8677-.9285,1.1005-1.8929,2.166-2.8572,3.2323-.4454.43-.8911.86-1.349,1.2764q-2.15,1.9567-4.4356,3.7573c.4125-.2548.89-.5471,1.4448-.8841-.7074.43-1.3832.9166-2.0809,1.3642a6.2335,6.2335,0,0,1-1.5542.9306c-1.363.8061-2.7471,1.5762-4.1738,2.264-.1213.0585-.26.1343-.4052.2153-.1844.0575-.3927.1243-.6419.2083a55.2727,55.2727,0,0,1-9.5914,2.2635,46.8986,46.8986,0,0,1-8.488-.4857q1.1-6.6,2.7383-13.093c.43-1.3452.8561-2.6907,1.329-4.0227C-694.9939,566.4155-693.7452,563.6564-692.592,560.84Z" transform="translate(1785.0952 43.9434)"/><path class="cls-1" d="M-281.1,438.2326c9.8555-10.0739,19.5813-20.1479,26.3679-32.6685,7.4422-13.73,11.9437-29.6746,10.3983-45.39-1.9811-20.1461-10.0847-39.18-24.9119-53.2174-14.4993-13.7271-32.5687-22.7059-52.8226-23.4771-23.5513-.8966-45.83,7.021-67.3808,15.5347Q-403.3129,304.4908-417,310.36a12.8382,12.8382,0,0,0-7.9214-4.3978c-5.4854-.6274-12.0318,2.954-15.8971,6.4345A48.7046,48.7046,0,0,0-451.44,325.8905q-37.6329,17.8415-73.6364,38.96a42.6928,42.6928,0,0,0-14.88,15.4318c-3.269,5.6621-6.3785,13.8682-5.9244,20.6022.3324,4.929,1.4791,11.2837,6.5015,13.704,4.9245,2.3733,10.47,1.5151,15.1189-1.2215q32.9086-19.3713,67.3044-36.0384c1.6056-.7765,3.219-1.5369,4.8291-2.304q.597,4.7179,1.1671,9.439,2.2134,18.3413,4.017,36.7288,3.5846,36.5434,5.5421,73.2224a46.7392,46.7392,0,0,1-6.6147,1.64,23.8656,23.8656,0,0,1-3.3084-.2393c-.0828-.044-.1706-.0812-.2523-.1271a14.0739,14.0739,0,0,1-.8306-1.4266c-2.2817-4.5093-9.1109-5.2005-13.2632-4.2328-5.95,1.3868-12.1787,6.51-15.8173,11.1714-8.2373,10.5519-13.8276,24.8415-7.4184,37.5079,5.4528,10.7765,18.4255,11.8643,28.9259,10.5624,7.0239-.8709,13.8379-3.5081,20.4657-6.3025q.3493,14.4846.447,28.9743c.1656,25.0454-.6526,50.0395-1.1246,75.0737-.2762,14.6533.1642,30.03,4.234,44.2,2.92,10.1656,10.0008,17.23,21.1145,14.9892,9.6813-1.9514,17.7689-10.9912,22.4971-19.1094,4.4949-7.7176,8.8336-19.6659,5.2264-28.6828-1.8506-4.6263-4.42-8.3618-9.5493-9.2543-.0354-.1934-.0753-.3861-.11-.58-.093-.5254-.4031-5.3512-.2933-1.69.1121,3.74-.0832-1.275-.1238-1.716-.1181-1.2834-.2133-2.5683-.2948-3.8545-.1962-3.0958-.2926-6.1965-.3256-9.2984-.1171-11.01.47-22.0243.7338-33.0295q.819-34.1271.2286-68.2693c-.0407-2.3477-.1073-4.6949-.1579-7.0426q9.4916-4.8843,18.7387-10.2375A456.6774,456.6774,0,0,0-281.1,438.2326Zm-5.5545-47.7079c-.0514.1166-.1063.2416-.1627.37.0126-.0714.0255-.1459.038-.2141l.1332-.1907Zm-.2312.7642c.0335-.0711.0661-.14.1023-.2173-.142.6233-.2728,1.2686-.3537,1.8292C-287.05,392.2957-286.9663,391.7631-286.8861,391.2889Zm-117.7893,4.7535q-1.99-20.1-4.4856-40.1411,2.2013-.9176,4.3986-1.8454.5412-.2186,1.083-.4358,2.1265-.8523,4.2574-1.6941,4.6313-1.8294,9.284-3.6045c12.8636-4.8807,26.008-9.1875,39.6935-10.88a75.4287,75.4287,0,0,1,23.594,2.2156,73.0865,73.0865,0,0,1,22.5042,13.1249A74.0937,74.0937,0,0,1-290.51,371.6086a65.85,65.85,0,0,1,2.5557,7.37c.296,1.0625.4582,2.2948.6734,3.4931.0768-.3833.45.0872.5217,1.2536.023.3764.0516.7514.0789,1.1268.0429.1167.0808.2379.1286.35-.047-.11-.084-.2074-.1258-.3107.0764,1.05.1552,2.1.1732,3.1559.0078.4553-.0049.9087-.0161,1.3621.4085-1.7641.6223-1.4938.4775-.6523-.0546-.14-.2.1624-.4878,1.2687l-.0014.0466-.0167.0215,0,.0014-.006.0242c-.0388.0684-.0753.1314-.107.1839-.0206.0343-.0449.0677-.0659.1019l.02-.108-.2627.3363c-2.4678,3.1091-5.1762,6.0014-7.8976,8.8856q-.5884.5962-1.1785,1.191-2.4385,2.4431-4.9169,4.8465-9.4169,9.1317-19.3847,17.6712-9.96,8.5368-20.4319,16.45c-3.0974,2.3425-6.2386,4.6231-9.3889,6.8933-.6859.4739-1.371.9492-2.0594,1.4195q-2.8506,1.9472-5.7321,3.8487a430.87,430.87,0,0,1-40.78,23.803Q-400.7581,435.7792-404.6754,396.0424Z" transform="translate(1785.0952 43.9434)"/><path class="cls-1" d="M-286.5484,390.0937l.0181-.0681c.0066-.2051.0052-.4111.01-.6164-.0587.2536-.1211.5458-.1874.8879Z" transform="translate(1785.0952 43.9434)"/><path class="cls-1" d="M-286.6771,384.8912l-.0028-.0391a14.3022,14.3022,0,0,1-.6006-2.38A5.6088,5.6088,0,0,0-286.6771,384.8912Z" transform="translate(1785.0952 43.9434)"/><path class="cls-1" d="M-113.4728,576.8883c-3.3106-19.8957-7.3756-43.3074-27.8308-52.8821-22.6481-10.601-46.9176-1.8018-65.5247,12.6131-16.523,12.8-28.9873,30.91-39.2609,49.1731q1.4187-47.7615,2.8375-95.5233.7149-24.066,1.43-48.1317c.1444-4.86-2.0426-11.13-6.5014-13.7042-4.538-2.62-10.8909-1.2654-15.1189,1.2216-12.4141,7.3024-20.3807,21.7744-20.8042,36.034l-5.0163,168.8687q-.7147,24.0661-1.43,48.1318c-.2409,8.1106,5.0414,15.6825,13.6586,14.91,9.4877-.85,18.7466-9.6647,22.8416-17.86,12.5563-25.1276,24.3574-50.845,38.1471-75.3253q2.3521-4.1754,4.8632-8.2589,1.1625-1.8795,2.3666-3.7333c.091-.14.1851-.2778.2765-.4174,1.4311-1.9367,2.8586-3.8725,4.38-5.7415q1.41-1.7316,2.8943-3.4011c1.9148-1.6707,3.7728-3.409,5.7207-5.0505.8169-.5068,1.6346-1.0086,2.4772-1.4781.9867-.5495,2-1.0339,3.0128-1.5224.3165-.1053.6289-.2231.9479-.3206a43.4167,43.4167,0,0,1,5.9691-1.3442,41.8645,41.8645,0,0,1,10.4108,1.012,32.7619,32.7619,0,0,1,7.7531,4.3738,36.1266,36.1266,0,0,1,4.723,6.7016c5.2666,13.3081,6.1245,28.559,8.7068,42.4751q4.8081,25.911,11.2054,51.4878a12.3417,12.3417,0,0,0,10.2972,9.37c5.4855.6275,12.0318-2.9538,15.8971-6.4344,10-9.0047,18.0818-24.2239,14.6426-38.0279Q-107.8024,610.784-113.4728,576.8883Z" transform="translate(1785.0952 43.9434)"/><path class="cls-1" d="M55.1818,620.64c-4.5379-2.62-10.8909-1.2654-15.1189,1.2217A43.9576,43.9576,0,0,0,23.7052,639.79c-2.1327,1.2-4.2831,2.3664-6.4957,3.4373q-1.2811.62-2.5769,1.21c-.1364.062-.2913.1251-.4558.1877.1932-.0539.3954-.11.6174-.171-.416.1145-.8279.2516-1.2393.3911-.1056.0351-.2113.069-.3156.1019-1.4865.5214-2.9534,1.1491-4.4508,1.6148A74.8747,74.8747,0,0,1-3.3962,649.24a55.2805,55.2805,0,0,1-15.588-1.6018,45.6127,45.6127,0,0,1-12.4606-6.9841,37.8361,37.8361,0,0,1-5.2-7.0433c-.6849-1.87-1.2288-3.7613-1.733-5.7016a56.26,56.26,0,0,0,24.4744-5.2879c20.0211-9.0675,34.6313-29.6253,44.83-48.336a130.9674,130.9674,0,0,0,13.3213-34.2293c2.2934-10.2873,2.888-22.9912-1.1771-32.956-3.566-8.7414-8.97-16.4671-17.5978-20.889a43.87,43.87,0,0,0-22.9984-4.6354c-48.1048,3.5064-70.3489,56.6984-77.6808,97.8411-1.7162,9.6307-2.8315,19.3557-3.7777,29.0882-1.0308,10.6028-2.33,21.2637-2.549,31.9225-.4237,20.6288,5.4866,40.8927,23.1132,53.06,16.6705,11.5074,39.2158,11.758,57.91,5.7766,29.1634-9.3313,62.78-30.272,62.1934-64.92C61.5994,629.3867,59.8126,623.3135,55.1818,620.64Zm-65.08-48.9267a5.2757,5.2757,0,0,1-.7517.511c.347-.2671.67-.5229.9049-.72C-9.8111,571.5912-9.8628,571.6615-9.8978,571.7131Zm9.8613-13.8805c-.0278.0078.8735-1.7714,1.5366-3.1091C1.0085,556.1681.41,557.7077-.0365,557.8326Zm2.58-5.4116c.0432-.0435.4337-1.23.779-2.3447A4.3992,4.3992,0,0,1,2.5433,552.421Zm.8087-7.8856-.0173-.0373c0-.1538,0-.2939.0012-.4613C3.3343,544.202,3.3426,544.3686,3.352,544.5354Zm-28.08-4.6552c-3.1255,5.0587-1.4995,1.8716-.0783.0934C-24.781,539.9419-24.7536,539.9118-24.7281,539.88Zm-5.3764,11.7722c-.0978.4824-.1857.9122-.266,1.3031.0871-.3338.1748-.6435.2575-.8951q.5919-1.8016,1.2394-3.5847.7968-2.1877,1.6956-4.3369c.8081-1.4638,1.6495-2.8988,2.5086-4.3288.2275-.2819.4649-.5559.6979-.8332.4517-.424.9069-.8444,1.3832-1.2407q1.0463-.5863,2.1026-1.1533c1.8776-.4984,3.7163-.97,5.6076-1.3063a37.2032,37.2032,0,0,1,8.557.8594A28.6282,28.6282,0,0,1-.088,539.642a27.6382,27.6382,0,0,1,2.8152,3.9135c.228.6489.4372,1.3052.6137,1.9762-.0048-.27-.0068-.5743-.0066-.9073l.0231.04c.0349.5124.0993,1.0282.1315,1.5392.1345.81.0972,1.4513.024,1.3855-.002.1971-.0013.3947-.0039.5918-.0275.3135-.0548.6437-.086.9787l-.0191.05c-.3868,1.0313-.7174,2.0834-1.11,3.1138-.1137.2989-.3191.9625-.57,1.7277-.0451.081-.0916.165-.1444.26-.5278.9557-1.0162,1.9334-1.5445,2.8894-.9429,1.7061-1.9308,3.3872-2.9414,5.0542-.7223,1.1914-1.47,2.3656-2.2176,3.54-.0984.1333-.1942.2682-.2942.4-1.0582,1.3963-2.1823,2.7255-3.3056,4.0646-.1338.1241-.2646.2512-.4011.3725-.8064.7159-1.6623,1.369-2.4789,2.0709l-.0245.0214c-.3237.1468-.6509.2841-.973.4184-.6431.1855-1.2785.3948-1.9278.562-.9253.2383-1.858.428-2.7964.5848a33.0147,33.0147,0,0,1-7.1246-.6893,25.0047,25.0047,0,0,1-4.8215-2.7208c-.1961-.2237-.395-.4415-.5883-.6748a13.062,13.062,0,0,0-3.7461-3.1577c.3064-1.6411.6246-3.2807.97-4.9154C-31.8929,558.6209-30.8167,555.1639-30.1045,551.6524Zm59.511,84.7482.5922-.5962C30.0284,635.85,29.7647,636.0961,29.4065,636.4006Z" transform="translate(1785.0952 43.9434)"/><path class="cls-1" d="M-30.37,552.9555c-.5836,2.2333-1.142,5.5533,0,0Z" transform="translate(1785.0952 43.9434)"/><path class="cls-1" d="M3.5061,546.4706c-.003-.0885-.0116-.1777-.0172-.2665-.03-.1818-.0665-.3692-.1158-.5607-.01-.0377-.0223-.074-.0322-.1117a7.145,7.145,0,0,0,.172,2.0579C3.5167,547.2169,3.5187,546.8442,3.5061,546.4706Z" transform="translate(1785.0952 43.9434)"/><path class="cls-1" d="M14.1768,644.6247c-3.5319.9835-2.3777.7754-.9375.322.1047-.0367.2107-.0664.3156-.1019C13.7679,644.7742,13.9793,644.7,14.1768,644.6247Z" transform="translate(1785.0952 43.9434)"/><path class="cls-1" d="M197.3356,639.9085c-5.9826-.281-11.4406,2.68-15.897,6.4345-1.1411.9616-2.3162,1.8734-3.4929,2.7853-.6652.424-1.3253.8575-2.0014,1.2632-3.1017,1.8614-6.352,3.2952-9.5819,4.86-.688.2372-1.3729.4832-2.0651.7089q-2.8683.9353-5.7994,1.6595a84.4185,84.4185,0,0,1-9.83,1.8A71.927,71.927,0,0,1,126.9,657.4969a41.1652,41.1652,0,0,1-10.9531-6.0836,38.4352,38.4352,0,0,1-5.3212-7.4748,52.2263,52.2263,0,0,1-2.076-6.6782c-.3138-1.3175-.44-2.7571-.7686-4.0833-.0277-.2985-.0617-.5962-.0863-.8949-.3006-3.6226-.3821-7.2576-.3361-10.8916,8.9125-1.9752,16.9879-6.8736,24.311-12.4767,8.4573-6.4709,15.9386-14.659,23.1044-22.4581a224.75,224.75,0,0,0,17.0988-21.0273,285.3892,285.3892,0,0,0,17.8576-27.5209c6.9109-12.4354,13.0962-28.2648,9.4237-42.687a23.3288,23.3288,0,0,0-9.49-14.003c-4.1977-2.9458-10.1011-3.6094-15.1133-3.7207-9.7949-.2175-19.6013-.3237-29.3982-.4057-11.2139-.0937-22.4348.9414-32.2041,6.9915a70.8,70.8,0,0,0-25.7648,28.6141c-9.4465,19.0755-12.6947,39.8649-15.7061,60.743-3.0593,21.21-5.199,42.6238-6.2945,64.0261-.9158,17.8929.3626,36.8609,9.8319,52.56,10.8216,17.9414,33.3342,24.3726,53.1575,23.2678A108.96,108.96,0,0,0,192.99,687.3064a46.889,46.889,0,0,0,12.8767-18.7441c1.9837-5.3336,3.8-13.5939,1.766-19.2838C205.9746,644.64,202.8388,640.1671,197.3356,639.9085ZM149.0233,536.6367c.0073-.0132.0191-.0331.0345-.0575C149.0471,536.5984,149.0338,536.6175,149.0233,536.6367Zm-30.0485-8.1449c.1845-.5182.3878-1.0278.595-1.5356.046-.0776.0949-.1536.1414-.2311-.3282.8311-.5964,1.4857-.8111,1.9887C118.926,528.64,118.9487,528.5654,118.9748,528.4918Zm.8851-2.1452-.0969.1361c.3033-.7321.6112-1.4621.8917-2.2036C120.3588,525.0615,120.0962,525.7431,119.86,526.3466Zm-1.5429,4.768c.2352-.0387.47-.08.7059-.1146,6.8139-.3172,13.6844.03,20.4939.1241,4.2229.0585,8.74-.2214,13.1707-.0953-.4328.68-.8509,1.3689-1.2912,2.0439-.554.85-1.2107,1.7116-1.7834,2.5891-2.3252,3.1913-4.7019,6.3412-7.1847,9.4143q-4.26,5.2739-8.8348,10.2831c-.7258.7949-1.462,1.58-2.1953,2.368-1.064,1.06-2.1305,2.118-3.2159,3.157-1.6214,1.5525-3.2613,3.09-4.9661,4.551-.6487.5561-1.3307,1.0792-1.99,1.6242-.41.2488-.8225.4946-1.2453.724-.0185.01-.051.0268-.08.0415-.6.21-1.4335.509-1.8134.5944-.0271.0062-.0544.0088-.0816.0148a23.2908,23.2908,0,0,1-3.2226-.3572,18.2963,18.2963,0,0,1-2.1389-1.1857c-.1357-.1794-.2686-.3632-.3962-.5482C113.8668,554.534,115.759,542.7526,118.317,531.1146Z" transform="translate(1785.0952 43.9434)"/><path class="cls-1" d="M725.8429,666.9812a36.4215,36.4215,0,0,1-4.8655-3.2038,49.1179,49.1179,0,0,1-7.6574-11.0808c-3.1227-7.4454-5.2316-15.2431-7.3775-23.0251q-4.52-16.39-9.0392-32.78-9.2544-33.5608-18.5088-67.1213c-3.1315-11.3561-5.1868-30.3725-20.1353-31.5725-18.376-1.4753-31.0828,20.2763-39.4595,33.4677a228.9964,228.9964,0,0,0-21.0181,42.678c-3.3425-24.1036-11.9543-47.3145-27.0523-66.6493-2.2644-2.9-4.9419-6.2417-8.1119-8.0985-5.9522-3.4861-12.7429-2.4747-18.6067.5168-10.1476,5.1771-16.4862,14.896-21.3044,24.8416a273.1308,273.1308,0,0,0-14.3348,35.2046c-3.7363,11.5656-6.9265,23.31-10.0665,35.0495-1.3143,4.9136-2.6084,9.8325-3.9333,14.7433q-.8231,3.051-1.6688,6.0952c-.3855,1.3229-.7688,2.6465-1.1645,3.9666q-2.1486,7.17-4.6284,14.2108c-.1412-2.9207-.19-5.8454-.1785-8.7695.0551-13.5519,1.2671-27.0629,1.1517-40.6213a340.7409,340.7409,0,0,0-14.6078-95.5851c-1.4742-4.8593-5.05-8.77-10.2972-9.37-5.4855-.6274-12.0318,2.9541-15.897,6.4345a45.89,45.89,0,0,0-12.8768,18.744c-2.0665,6.0631-3.6864,12.9538-1.7659,19.2838a321.5508,321.5508,0,0,1,9.2045,38.64q.3978,2.3043.7616,4.6139c.1084.688.6178,4.3258.524,3.49.0844.6669.1638,1.297.1941,1.5448q.3315,2.7074.6174,5.42,1.0173,9.6889,1.4369,19.428c.9947,23.07-2.7961,46.4551.0913,69.4148,1.85,14.7154,5.5742,29.1509,15.0591,40.9618,8.5827,10.6873,22.5826.7043,29.0806-6.9386,17.2948-20.3425,29.06-44.9551,37.2033-70.2317,4.0993-12.7237,7.5451-25.66,10.9806-38.5756,1.428-5.3685,2.8509-10.7384,4.329-16.0935.2629-.8947.51-1.7958.7727-2.6889q.8659-2.9417,1.7794-5.8693c.9226,1.7331,1.802,3.47,2.6422,5.1933a122.3907,122.3907,0,0,1,8.3515,26.8866c.1582.855.294,1.714.4359,2.5718.24,2.27.4684,4.5382.6423,6.8146.3691,4.8348.5875,9.6794.8308,14.5217,1.0689,21.2713,2.9567,43.4566,15.5927,61.4229,9.9372,14.129,28.7079-4.6751,33.5375-13.3967,14.0444-25.363,17.2065-53.3919,24.1042-81.0192.3314-1.0744.6573-2.1509,1.0026-3.2214q1.5308-4.7432,3.3017-9.4053,1.5184-3.9937,3.2068-7.92c.1678-.39.3423-.7767.5141-1.1648.0721.2675.14.5393.2135.8055q3.2283,11.7074,6.4566,23.4144l13.3436,48.39c3.9261,14.2381,7.163,28.9353,12.3532,42.7808,5.0653,13.5128,12.325,26.6126,25.4191,33.8106,11.5389,6.343,25.0392-7.504,29.9987-16.6534,3.3392-6.16,6.4068-13.45,5.9244-20.6023C731.9992,675.5669,730.8061,669.71,725.8429,666.9812ZM554.5805,540.0506c.1118-.2526.2229-.5054.3354-.7578.2913-.579.5819-1.1584.8846-1.7319C557.9933,533.4091,557.2482,536.0661,554.5805,540.0506Zm46.6754,78.4034c-.0036-.0207-.0081-.0409-.0117-.0615-.016-.8033-.0729-1.6149-.1558-2.431C601.1218,615.0511,601.2567,615.08,601.2559,618.454Zm-21.2623,25.07c1.548-7.2169.6589-2.1,0,0Z" transform="translate(1785.0952 43.9434)"/><path class="cls-1" d="M829.0961,552.2877c.0553-.1369.1048-.263.1442-.3689.0555-.15.1018-.3037.1532-.4552q.045-.2325.0871-.4653-.3458.9009-.5673,1.5268C828.9738,552.4453,829.035,552.3667,829.0961,552.2877Z" transform="translate(1785.0952 43.9434)"/><path class="cls-1" d="M773.3064,545.317q-.4143,1.2234-.8148,2.4524c-.0346.1167-.0685.2328-.101.347C772.95,546.4491,773.22,545.61,773.3064,545.317Z" transform="translate(1785.0952 43.9434)"/><path class="cls-1" d="M829.7114,550.5251l-.0021-.1176-.0172.0443c-.0066.0617-.0128.1221-.0181.18C829.6857,550.5959,829.7,550.561,829.7114,550.5251Z" transform="translate(1785.0952 43.9434)"/><path class="cls-1" d="M878.0161,631.3946c.4895-.5808,1.02-1.17,1.58-1.76.11-.2768-.559.3348-2.829,3.1074.0968-.0852.1912-.1738.2874-.26C877.3789,632.1225,877.7051,631.7637,878.0161,631.3946Z" transform="translate(1785.0952 43.9434)"/><path class="cls-1" d="M1078.0467,604.7478c-6.1965-.2911-11.0854,2.9127-15.897,6.4346-2.64,1.9322-5.3714,3.7721-7.9664,5.7622,6.7055-5.1425-.9469.6285-2.8113,1.8739-5.3071,3.5457-10.7367,6.9169-16.3625,9.9355-2.6711,1.4335-5.3843,2.7912-8.1481,4.0373l-.01.0044a30.5891,30.5891,0,0,0-4.2125,1.6018,81.9885,81.9885,0,0,1-15.3045,3.5909,65.42,65.42,0,0,1-19.7729-2.08A75.9466,75.9466,0,0,1,964.195,622.079a92.9832,92.9832,0,0,1-16.9693-22.903,72.5251,72.5251,0,0,0,7.8872-2.6222A114.9078,114.9078,0,0,0,984.5236,579.56c17.5247-13.85,31.2193-33.561,39.0467-54.3984a117.34,117.34,0,0,0,7.1084-34.6255c.7457-12.3378-.9228-25.6992-11.0133-33.9389-8.1595-6.6628-19.6174-5.846-29.3566-4.666a179.9347,179.9347,0,0,0-25.5929,5.005c-24.3019,6.64-45.2633,21.4122-57.4864,43.8234-11.4685,21.0276-15.0376,44.6364-14.2028,68.3435.6027,17.1145,2.991,34.7536,8.15,51.2684-7.4359-2.3175-16.08,3.4674-21.58,9.2639a10.709,10.709,0,0,1-1.7781,2.1579c-.25.2356-.5079.4615-.7635.69-.4144.46-.8269.92-1.2126,1.3995.335-.4162.6417-.7937.9252-1.14-1.0993.9665-2.2346,1.885-3.3693,2.8112-.4859.31-.9734.6185-1.47.914q-2.7952,1.6614-5.74,3.0522c-.2039.0966-.4135.2041-.6244.3124-.3405.1249-.6793.255-1.0219.375q-3.0924,1.083-6.272,1.8949a80.3457,80.3457,0,0,1-10.1426,1.88,84.94,84.94,0,0,1-27.0377-2.9111,78.65,78.65,0,0,1-24.8237-14.3686,90.51,90.51,0,0,1-10.1974-11.8568,69.9424,69.9424,0,0,0,19.528-2.1233c22.9958-5.856,42.8778-22.4845,54.2928-43.0825,12.6018-22.74,19.3822-55.7759,1.6822-77.966-12.7546-15.99-32.9608-21.3639-52.6-19.2443-22.14,2.3895-42.1542,17.9216-54.8262,35.5421-15.7667,21.9235-24.2368,46.7123-26.1027,73.5726C725.3157,620.7847,742.5172,663.8582,776.8,685.02c18.507,11.4238,40.5246,14.5316,61.7915,11.8378,23.99-3.0388,45.6775-16.6117,61.0866-34.8937a46.5406,46.5406,0,0,0,9.7943-20.5237c.0206-.1147.039-.2394.059-.3575,7.6936,15.1045,18.543,28.396,33.5331,38.2535,19.0411,12.5216,42.5194,15.4573,64.38,9.56,24.7367-6.673,45.89-21.8437,66.2565-36.7513,5.6065-4.1037,10.5159-12.3963,12.8766-18.7438,1.9836-5.3336,3.8-13.5937,1.766-19.2838C1086.6857,609.479,1083.55,605.0064,1078.0467,604.7478ZM829.6913,551.393l.0269-.0559a.2355.2355,0,0,1-.0069.0767C829.7036,551.4108,829.6976,551.4014,829.6913,551.393Zm-1.2277,2.5352c.0573-.1167.1226-.25.1989-.4068.1187-.1834.24-.3712.3613-.56C828.6769,554.0066,828.2653,554.7207,828.4636,553.9282Zm1.63-6.1064.0072-.0415C830.1526,548.0208,830.1412,548.0052,830.0933,547.8218Zm.0026-.0634-.0086.0407c-.0733-.2851-.2129-.8859-.321-1.4737.0434.1925.0841.3855.13.5778C829.9981,547.3248,830.0594,547.5918,830.0959,547.7584Zm-.4745-2.6643c-.0008.0221-.0009.0583-.0014.0848C829.62,545.148,829.6206,545.1214,829.6214,545.0941Zm-56.315.2229c.367-1.0841.7457-2.1645,1.1693-3.2332.25-.6321.5225-1.2542.7945-1.8761.17-.3183.3351-.6395.51-.9556.6-1.0844,1.2419-2.14,1.884-3.1966.5874-.764,1.1806-1.5234,1.8034-2.2625.05-.06.1039-.1173.1545-.177,1.4569-1.231,2.9405-2.4687,4.3531-3.7329.131-.079.2581-.1644.39-.2423,1.2178-.7206,2.4886-1.3276,3.73-1.9972.9013-.3,1.8029-.5964,2.7246-.8438a48.8063,48.8063,0,0,1,5.7205-1.15,52.66,52.66,0,0,1,14.66,1.5461,43.5577,43.5577,0,0,1,11.8937,6.6962,36.6531,36.6531,0,0,1,5.1017,6.9583c.3606.959.6874,1.93.9648,2.9229.1751.6267.3173,1.2586.4568,1.8914.0052,1.0012.0515,2.8285.08,4.1575-.068.3929-.1466.784-.2168,1.1766q.1-.261.2115-.5465c.0048-.0445.01-.0906.0153-.1366l.0019.0923c.12-.3056.2456-.6259.3854-.9755-.1428.357-.2633.7249-.3833,1.0931.0056.31.0084.5487.0076.7019l-.0539.1024a2.8446,2.8446,0,0,1,.0089-.6974c-.09.2787-.1866.5545-.28.8316-.0327.1692-.0584.3394-.095.5078l-.0014.0062c-.0363.0635-.0725.1273-.1091.1906-.0309.04-.0614.08-.0919.12q-.0282.0694-.0582.1425c-.08.1358-.1545.2745-.2347.41.0343-.1.07-.2031.11-.3149-.2775.366-.5513.7363-.8237,1.0974a36.955,36.955,0,0,0-3.1773,2.3549c-1.2827.7468-2.5915,1.4485-3.9286,2.0928-.1441.0694-.4064.1862-.6942.3131q-2.0836.7248-4.217,1.2929a56.5841,56.5841,0,0,1-6.7357,1.3305,50.7526,50.7526,0,0,1-13.7964-1.3682,42.1388,42.1388,0,0,1-12.6039-7.5044c-2.7388-2.3657-7.5658-1.6593-11.3621-.3762.1745-.8833.3565-1.7652.5556-2.6433.0661-.2907.1574-.6355.2606-.9982-.1961.5844-.4258,1.2648-.698,2.0657.273-.8033.5364-1.608.799-2.4127A18.8015,18.8015,0,0,1,773.3064,545.317Zm91.78,94.7567a8.8475,8.8475,0,0,1-1.8757.7715ZM948.32,511.6885a1.45,1.45,0,0,0-.346.0742A1.0383,1.0383,0,0,1,948.32,511.6885Zm-.3773.084-.0122.0038Zm-8.5891,3.1823c.3269-.73.6-1.2942,0,0Zm-3.884,17.1646c.0346-.7734.0829-1.5456.1325-2.3175.024-.2129.0475-.4258.0745-.6383.3433-2.697.7954-5.3807,1.381-8.036.2-.6748.3756-1.365.6046-1.9937.1832-.503.38-1,.5787-1.4959l.0079-.0143c.1016-.1385.2037-.2714.3051-.4069.5172-.4465,1.0387-.8891,1.5689-1.32.8811-.5232,1.7556-1.0548,2.6579-1.544,1.26-.6826,2.5454-1.3167,3.8477-1.9135.0184-.0083.0425-.0213.0629-.0315a155.6468,155.6468,0,0,1,32.7576-7.4524,34.254,34.254,0,0,1,7.4327.4228q.66.3209,1.2868.699c.0318.1133.0652.2272.0968.3414.0143.2625.0378.5247.0488.7875.0834,1.9328.0322,3.85-.0265,5.7759-.1209.8343-.2349,1.6693-.3811,2.5-.2087,1.1874-.4535,2.3674-.7219,3.5425-.5377,1.6123-1.1066,3.2114-1.7527,4.789-.0584.1427-.1223.2826-.1821.4244-.8506,1.58-1.7642,3.1139-2.7062,4.6357-.5169.6776-1.0334,1.356-1.5711,2.017-1.4546,1.7884-3.0342,3.4528-4.5648,5.1732,6.9079-7.7643.8921-1.0809-1.2175.7111-1.8656,1.5846-9.1925,6.3569-1.4667,1.443-1.9334,1.23-3.8288,2.4983-5.8285,3.6242-1.9922,1.1217-4.041,2.092-6.1018,3.07-1.0385.3731-2.0846.7259-3.1392,1.05a71.5845,71.5845,0,0,1-14.574,2.83q1.0508-.0943,2.1017-.1882a24.2143,24.2143,0,0,0-10.3919,3.5743c-.0639-1.0108-.1344-2.0212-.185-3.0328C935.3215,543.4757,935.2153,537.7924,935.47,532.1194Z" transform="translate(1785.0952 43.9434)"/><path class="cls-1" d="M1254.8316,598.4338c-13.276-.6238-23.3929,12.8428-28.2045,23.836-.141.2845-.2863.5618-.4334.8356l-.0237.0295c-.4172.5146-1.0144,1.0567-1.5374,1.6166-1.2328,1.0364-2.517,1.9977-3.7481,3.0418,1.8361-1.5573,2.79-2.35,3.1629-2.6573a36.3852,36.3852,0,0,1-4.0049,2.8666q-1.3725.7587-2.7886,1.4392c-.5449.2618-1.096.51-1.65.753-1.0471.2409-2.0671.4176-2.6178.5541-1.3315.3306-2.6721.5854-4.0213.7906a38.7108,38.7108,0,0,1-9.3176-.9123,35.55,35.55,0,0,1-8.91-5.2161,43.9311,43.9311,0,0,1-6.6309-9.3622,67.135,67.135,0,0,1-2.7611-8.4931c-.4274-1.6914-.7941-3.3972-1.1167-5.1115-.1365-.7251-.256-1.453-.3794-2.18-.7737-8.1477-1.0611-16.2671-1.2079-24.4508q-.5666-31.5822-1.0086-63.1664-.0576-4.6407-.1022-9.2818,12.1482-4.5016,24.1128-9.7615c5.9655-2.6252,11.775-10.0536,14.88-15.4317,3.2691-5.6622,6.3783-13.8684,5.9244-20.6023-.3324-4.9291-1.4793-11.2837-6.5016-13.7041-5.253-2.5316-10.0233-1.0209-15.1189,1.2216q-3.47,1.527-6.9638,3-1.0485.44-2.1007.8726c-.412.17-.667.2749-.7744.3194-.3014.0988-.595.1979-.8687.3047-4.252,1.6571-8.5384,3.2244-12.8458,4.7314.0271-23.2027.29-46.4047.9407-69.5993q1.0218-36.4133,3.4437-72.7672c.3258-4.7762-2.1815-11.21-6.5016-13.7042-4.5379-2.62-10.8908-1.2654-15.1189,1.2217-12.7975,7.5279-19.8213,21.6281-20.8042,36.034-2.9756,43.6119-4.13,87.3053-4.3457,131.008a397.7345,397.7345,0,0,1-49.406,7.9813c-1.4841.1224-2.9676.2523-4.4529.3609a25.27,25.27,0,0,0-15.897,6.4346,45.7846,45.7846,0,0,0-12.8767,18.7441c-2.006,5.8853-3.9465,13.1844-1.766,19.2838,1.5218,4.2569,4.9295,9.7627,10.2972,9.37a425.1375,425.1375,0,0,0,74.2173-12.0451q.0709,8.1611.165,16.3214.2931,24.7025.7467,49.4024c.2418,13.91-.0717,27.9874,1.5427,41.8286,1.6771,14.38,4.5257,28.8971,12.9754,41.0362a46.9807,46.9807,0,0,0,32.6373,19.9149c14.381,1.7732,29.9089-3.2461,41.8323-11.09a101.0717,101.0717,0,0,0,38.46-46.9637c2.2232-5.4723,3.5375-13.4462,1.7661-19.284C1263.75,603.2585,1260.0072,598.677,1254.8316,598.4338Zm-61.1863-150.2433a11.4537,11.4537,0,0,1-2.6439,1.0839C1191.2434,449.1759,1192.1208,448.8161,1193.6453,448.1905Zm22.0315,181.987q1.5814-.6423,3.1625-1.2848A6.9529,6.9529,0,0,1,1215.6768,630.1775Zm12.0427-9.84c-.04.0549-.073.1186-.1117.1752C1227.6493,620.4429,1227.6878,620.381,1227.72,620.3377Zm-1.7329,3.1472c-.0129.022-.0241.0461-.0369.0678l-.0493.0811-.1121.1041c-.2035.1882-.415.3647-.6229.5463C1225.4409,624.0081,1225.7243,623.7335,1225.9866,623.4849Zm-2.1646,2.3129c-.0268.0461-.0591.092-.0827.1385A1.4845,1.4845,0,0,1,1223.822,625.7978Zm2.4561-2.5156.0517-.1151.0072-.0106C1227.1553,622.3979,1227.5439,622.0986,1226.2781,623.2822Z" transform="translate(1785.0952 43.9434)"/><path class="cls-1" d="M1224.0474,625.136c.2379-.1919.2726-.2243,0,0Z" transform="translate(1785.0952 43.9434)"/><path class="cls-1" d="M1444.2031,565.1892c-17.0576-17.9659-38.5071-27.4786-62.2114-33.501a325.5249,325.5249,0,0,0-36.47-6.65c-6.3424-.86-12.6957-1.6375-19.0459-2.4386a150.89,150.89,0,0,1-15.6448-2.3125c-.1263-.0529-.2494-.11-.3743-.1652.7-1.2862,1.425-2.5594,2.19-3.8084.0427-.07.0884-.1377.1315-.2073,1.8821-2.32,3.955-4.5283,5.76-6.8816.0637-.0594.1251-.1209.1894-.18q1.9868-1.83,4.08-3.54c.4661-.38,1.6865-1.2929,2.5748-1.9645.7324-.4845,1.4751-.9727,1.837-1.1942a86.1677,86.1677,0,0,1,9.5991-5.0648c.4639-.1774.9554-.3648,1.2119-.4545,1.8888-.6619,3.8017-1.2417,5.73-1.7778,13.1523-3.658,23.6622-18.5679,25.6116-31.6948.7957-5.3581,1.4065-12.5193-2.376-16.9845a12.3616,12.3616,0,0,0-13.2632-4.2328c-36.38,10.1184-64.2021,38.2845-79.571,72.05-4.4092,9.6869-8.1815,20.65-7.9869,31.4011.1931,10.667,4.887,21.4409,15.2619,25.7064,7.1912,2.9566,14.7349,3.8565,22.3631,4.8284,6.9548.8861,13.9153,1.7279,20.8637,2.6639,14.8333,1.9985,29.651,4.43,44.0286,8.65,13.3912,4.4648,26.051,10.7567,36.793,19.9751a66.36,66.36,0,0,1,12.0511,15.5389,37.02,37.02,0,0,1,1.5416,4.8712c.0076-.2342.0159-.476.0291-.7478-.0136.2827-.01.5707.0006.8612.0084.0359.02.0706.0279.1065a7.4758,7.4758,0,0,1,.1932,1.7355c.0556-.2612.1147-.5335.1809-.83-.0728.326-.1255.6664-.1849,1.002a1.138,1.138,0,0,1-.0778.4382c.0022.0991.01.2.0093.2983-.0008.1157-.0049.2306-.01.3448q-.1033.27-.2055.5415c-.0142.0862-.0288.172-.0431.258l-.0958.1638.0161-.0988c-.0253.0677-.0514.1347-.0768.2023q-.2589.4427-.5179.8853c-.36.456-.72.9113-1.0961,1.3552-.0792.0938-.1913.2209-.3168.3614-.3025.2889-.58.5505-.7554.7055-.841.7437-1.7078,1.4548-2.5891,2.1495a123.6,123.6,0,0,1-12.8051,6.8129l-.03.0106c-1.3.4673-2.5919.9519-3.8992,1.4-2.6234.8989-5.2727,1.7215-7.9364,2.4925-8.8437,2.56-17.9971,5.1538-27.1764,6.344a41.7507,41.7507,0,0,1-10.1673-.6976,19.1716,19.1716,0,0,1-2.6442-1.4182c-.1484-.1967-.2921-.3991-.431-.603-1.7422-4.4185-4.9054-7.8644-9.956-8.4422-5.4854-.6273-12.032,2.9542-15.8972,6.4346a45.8889,45.8889,0,0,0-12.8766,18.7438c-2.0248,5.9408-3.869,13.1118-1.766,19.284,9.3607,27.4715,41.1479,20.9786,62.8853,15.4445,13.6106-3.465,27.3465-7.9332,39.6075-14.8848,15.5311-8.8056,27.7047-21.1374,37.3505-36.0571,8.8574-13.7006,14.973-31.83,13.7527-48.2932A62.6009,62.6009,0,0,0,1444.2031,565.1892Zm-135.946-39.6139c.03-.082.063-.1764.1011-.2989.1227-.3486.26-.6908.3885-1.0368-.2239.7806-.6313,2.0925-.9442,2.8948C1307.9831,526.6282,1308.1042,526.0559,1308.2571,525.5753Zm-.5054,1.6864a3.568,3.568,0,0,1-.21.45A2.9893,2.9893,0,0,0,1307.7517,527.2617Z" transform="translate(1785.0952 43.9434)"/><path class="cls-1" d="M1419.2408,630.3984l.0052-.0108,0-.0146c.0237-.1428.053-.2817.0782-.4236.0028-.0519.003-.1127.004-.1718-.0306.1433-.06.2832-.0878.416-.027-.7456-.1052-1.5094-.1333-2.258-.009-.0383-.0206-.0752-.03-.1134a7.9468,7.9468,0,0,0,.1207,2.5779c-.1237.606-.2155,1.1-.281,1.4951.0406-.1079.0821-.2153.1228-.323C1419.1033,631.1791,1419.1751,630.7926,1419.2408,630.3984Z" transform="translate(1785.0952 43.9434)"/><path class="cls-1" d="M1966.51,626.8689c-61.2224-48.3409-141.0856-55.7152-216.6053-62.74q.5485-4.793,1.0614-9.5905,1.2532-11.8482,2.3581-23.7108a991.3542,991.3542,0,0,0,116.6046-94.3029c20.6061-19.4361,38.9662-40.0786,50.8852-66.0388,10.761-23.4378,13.75-53.4249-2.3019-75.3186-11.5936-15.8125-30.6094-23.2994-49.4167-26.1207-20.8707-3.1308-42.385-.3644-63.0491,2.984a414.3359,414.3359,0,0,0-46.6852,10.39c-.6662-4.1632-2.4163-8.3914-6.1846-10.5669-4.5379-2.62-10.8908-1.2656-15.1188,1.2215-8.0113,4.7125-15.0937,13.35-18.5655,22.8023a432.2417,432.2417,0,0,0-64.707,31.9025,43.0976,43.0976,0,0,0-14.88,15.4318c-3.2691,5.6622-6.3785,13.8683-5.9244,20.6021.3322,4.9292,1.4791,11.2837,6.5014,13.7041,4.8963,2.36,10.51,1.553,15.1189-1.2215a411.8424,411.8424,0,0,1,39.6119-21.0354q5.2559-2.4293,10.5792-4.7089c.9408-.4028,4.7529-1.3676,5.31-2.206.45-.178.9-.3575,1.351-.5339q2.9851-1.1679,5.99-2.2842,1.5084,66.4115-1.9476,132.8105-.7545,14.3842-1.7493,28.7546c-1.8333,1.153-3.6651,2.3089-5.5062,3.45q-36.2622,22.4694-74.403,41.68c-10.0756,5.082-18.5751,18.438-20.2174,29.4971-1.3741,9.2533.1109,19.2682,10.5044,21.6775,25.8768,5.998,52.1217,9.3419,78.4658,11.9966-1.1226,8.814-2.2391,17.6293-3.2938,26.4541-3.9389,32.9552-6.8426,66.3776-2.7679,99.4637.6359,5.1628,1.4658,10.7967,6.5016,13.7042,4.5379,2.62,10.8909,1.2654,15.1189-1.2217a40.6688,40.6688,0,0,0,14.88-15.4317c3.2306-5.9595,6.7782-13.67,5.9244-20.6023a285.0481,285.0481,0,0,1-1.91-41.6022c.1708-7.2257.5637-14.4454,1.111-21.6522.1113-1.4647.2384-2.9282.3543-4.3926.01-.1.0208-.2.03-.3005q.5407-5.6182,1.1732-11.2274,1.0913-9.7539,2.3213-19.49c24.5982,2.2884,49.1661,4.8256,73.4858,9.205a403.344,403.344,0,0,1,45.4731,10.8071c26.9895,8.7323,52.7506,21.0777,75.0962,38.7218,3.9989,3.1573,11.4132.77,15.119-1.2217,5.97-3.209,11.6945-9.5556,14.88-15.4317C1972.6655,650.8835,1977.2822,635.375,1966.51,626.8689Zm-227.1987,25.35c.002-.0267.0052-.0534.0072-.08C1739.3128,652.1978,1739.31,652.2291,1739.3108,652.2189Zm78.6943-330.2076c14.0943-1.031,28.4625-.4923,42.13,3.2587a59.1,59.1,0,0,1,18.072,9.8758,45.1866,45.1866,0,0,1,6.9554,9.5192,42.8742,42.8742,0,0,1,1.6794,5.1157c.099.3883.2809,1.3714.42,2.085.0425.48.0776.91.0864,1.1373.0387.9941.0048,1.9829-.018,2.9733q-.2355,1.4775-.5487,2.9408c-.59,1.6462-1.2245,3.2666-1.88,4.8872-.6589,1.2332-1.3373,2.4561-2.047,3.6612q-1.0182,1.7289-2.0992,3.4188c-.0272.0423-.0581.09-.091.1411-.4771.6634-.9893,1.3742-1.26,1.7333q-1.4393,1.9061-2.9391,3.7655-2.7789,3.4519-5.7368,6.755-1.3535,1.5149-2.7389,3c-.0284.03-.0569.06-.085.09q-6.0069,5.9119-12.1627,11.6669-13.9861,13.0932-28.4854,25.6238-28.717,24.8188-59.3193,47.3374-5.1933,3.8217-10.4451,7.5612,3.2089-48.8839,3.7575-97.8975.2529-24.2469-.1688-48.4925A383.6108,383.6108,0,0,1,1818.0051,322.0113ZM1708.597,559.9983q.874-.5376,1.7465-1.0779c-.0431.42-.09.84-.1339,1.2594C1709.6721,560.119,1709.1344,560.06,1708.597,559.9983Z" transform="translate(1785.0952 43.9434)"/><path class="cls-1" d="M2161.3872,620.0494c-.1147-.07-.2281-.1428-.3416-.2153q-.4417-.5853-.8342-1.2055c-.1387-.4126-.2818-.8223-.3981-1.2485-.0088-.0315-.0136-.064-.0221-.0955.1775-1.9684-.4364-4.72-.4318-6.5182.0149-5.6716.2145-11.3466.334-17.0168q.3825-18.1676.7652-36.3356.7653-36.3356,1.53-72.6712c.19-9.0025-6.6365-17.4354-16.2261-14.68-10.8717,3.1234-20.2878,14.1666-23.6387,24.7183-8.7716,27.62-17.7979,55.1268-29.7516,81.5621q-1.0961,2.2378-2.2233,4.46-2.4925,4.89-5.168,9.6851c-3.1749,5.679-6.5974,11.1952-10.1678,16.6311l-.0285.0395q-1.6033,2.2271-3.2631,4.4124c-2.22,2.92-4.5035,5.8009-6.8945,8.5833-.1051.1239-.2163.2426-.3222.3657-.7239.5784-1.5188,1.1667-2.2319,1.7816-.3907-.0279-.7818-.0788-1.1727-.1321a18.8543,18.8543,0,0,1-2.5054-1.5144,38.9909,38.9909,0,0,1-5.0116-7.5741,98.5819,98.5819,0,0,1-4.69-14.3371c-.7384-2.9985-1.3608-6.0239-1.9047-9.0635q-.3783-2.1143-.7075-4.2372l-.0158-.1038c.2875-2.537-.7833-5.8358-1.0886-8.3875-.3422-2.8607-.6744-5.7227-1.0286-8.5819-.8665-6.9963-1.7434-14.0127-3.0549-20.9427-4.1865-22.1239-13.6645-43.9166-32.6187-57.1624-4.2719-2.9854-11.1422-.9161-15.1188,1.2215-5.97,3.209-11.6948,9.5558-14.88,15.4317-5.2573,9.699-10.6168,26.4836.5773,34.3065,1.243.8687,2.4362,1.7837,3.5989,2.7413a62.5273,62.5273,0,0,1,10.7487,15.1882,117.42,117.42,0,0,1,7.1892,25.18c.291,1.6411,1.33,10.2551.5863,3.3108.255,2.3813.6089,4.7563.8952,7.1343.8638,7.1732,1.7266,14.3407,2.7452,21.4946,1.5371,10.7974,3.5877,21.614,7.8292,31.7169,4.9066,11.6868,11.0679,22.9061,23.9079,26.9242,14.539,4.55,29.97-4.2344,40.2616-14.0644,10.6554-10.1779,19.193-21.9225,27.4351-34.069,4.8651-7.17,9.3347-14.6047,13.4865-22.2214q-.0578,2.7366-.1153,5.4734c-.3576,16.9711-3.1711,36.4588,5.5718,51.8777a26.3048,26.3048,0,0,0,19.5023,12.7056c12.0171,1.5758,23.91-6.3007,30.8287-15.4575,4.5677-6.0451,8.435-12.9637,9.7944-20.5234.8663-4.8178,1.1441-12.8289-2.3762-16.9845C2175.3783,615.3188,2167.8307,616.355,2161.3872,620.0494Z" transform="translate(1785.0952 43.9434)"/><path class="cls-1" d="M2351.1163,308.5546a12.3416,12.3416,0,0,0,13.2632,4.2327c14.0645-4.0407,22.2161-18.5156,25.6116-31.6947,2.4772-9.614,2.3435-21.1018-1.5154-30.3641a53.1147,53.1147,0,0,0-16.5267-21.85c-12.8458-10.4983-31.71-14.4352-47.7106-10.1945-23.3312,6.1834-40.752,23.9122-53.8159,43.316-11.9144,17.6964-18.9731,38.7473-23.0437,59.5492-8.5823,43.86-3.4045,88.7543-.5232,132.8981q.6672,10.2243,1.2814,20.452-27.224,5.0463-54.6184,9.141c-5.8312.87-12.3346,6.9615-15.8174,11.1714-4.5139,5.4565-8.7393,13.42-9.7942,20.5234-.7958,5.3582-1.4065,12.5194,2.3759,16.9845,3.6181,4.2711,7.7978,5.0484,13.2633,4.2328q33.8056-5.0443,67.36-11.5531,1.5276,31.1195,2.6208,62.2585,2.6253,75.1862,2.682,150.4309c.0046,4.9241,1.93,11.0648,6.5017,13.7042,4.5378,2.62,10.8906,1.2654,15.1188-1.2218,12.1084-7.1225,20.8174-21.9063,20.8042-36.0339q-.0926-99.1-4.6255-198.1265,35.2593-7.8642,70.1421-17.3332c13.1557-3.5747,23.6711-18.6254,25.6119-31.6948.7957-5.3581,1.4064-12.5194-2.376-16.9845a12.3854,12.3854,0,0,0-13.2632-4.2327q-41.0758,11.1609-82.7018,20.0789-1.9311-33.2927-4.28-66.5611c-1.1535-16.5743-2.193-33.1778-2.0645-49.8q.0478-6.2013.33-12.3979.1272-2.7042.3076-5.4055c.0541-.8093.1182-1.618.1766-2.427a212.355,212.355,0,0,1,3.8537-23.8747c.4438-1.9577,1.0605-3.9128,1.5065-5.8791q1.6552-5.1057,3.7539-10.0537c.0521-.1222.1069-.2432.16-.3649.6738-1.2726,1.3394-2.5475,2.0577-3.7979.51-.8869,1.04-1.76,1.5787-2.6284-.3695.48-.781,1.01-1.249,1.6064.5387-.6868,1.0379-1.4067,1.5627-2.1057.2984-.4767.5951-.9543.8978-1.429a13.3581,13.3581,0,0,1,.8766-1.2081c.0305-.0219.1847-.1621.5-.4565a11.0181,11.0181,0,0,1-.8857,1.329q.931-1.1523,1.9039-2.27c1.1259-1.0414,2.2818-2.05,3.4807-3.0064.04-.032.0892-.0649.1319-.0971,1.3239-.8231,2.6769-1.5984,4.0668-2.3052.3661-.186.7387-.3575,1.1094-.5328a53.6945,53.6945,0,0,1,6.6068-1.6853,44.4263,44.4263,0,0,1,11.3772,1.3642,48.3371,48.3371,0,0,1,13.4818,7.7305,38.7473,38.7473,0,0,1,5.5949,7.46c.183.5.367.999.52,1.511.0627.2095.1157.4209.1706.632-.0156.3771-.0263.7819-.0229,1.1628-.0587.2728-.1146.5465-.184.8159C2347.4759,296.4777,2347.949,304.2781,2351.1163,308.5546Zm-50.1819-28.693c.2466-.2977.4323-.4868.4662-.47C2301.181,279.61,2301.0142,279.7777,2300.9344,279.8616Zm3.1836-3.2251c.0256-.0314.0541-.0617.0788-.0935C2304.1777,276.5678,2304.15,276.6,2304.118,276.6365Zm1.2267-.8048c-.993.6527-1.5814,1.0034,0,0Zm2.1449-1.513c.0711-.0643.15-.1275.21-.1933A2.2825,2.2825,0,0,1,2307.49,274.3187Zm41.559,17.2193c.0149-.3084.0608-.692.1211-1.0958.0307.1191.0594.2385.092.3572C2349.6757,292.3167,2349.2291,293.3614,2349.0486,291.538Zm-.0665-1.8177c.0307.12.0643.24.0946.36-.0275.129-.06.2561-.0874.3852C2348.9835,290.24,2348.9813,289.9906,2348.9821,289.72Z" transform="translate(1785.0952 43.9434)"/><path class="cls-1" d="M2299.1145,282.5542c-.1044.1666-.21.3323-.3137.4993.7458-.9686,1.3021-1.7116,1.7026-2.2639-.4051.5013-.8105,1.0024-1.2036,1.5134C2299.2366,282.3854,2299.1769,282.471,2299.1145,282.5542Z" transform="translate(1785.0952 43.9434)"/><path class="cls-1" d="M2591.35,622.5016c-4.902-.23-9.6153,1.6226-13.7964,4.62-.1315-.1977-.2552-.4018-.38-.6044q-.392-1.1576-.6907-2.3492c-.0535-.1716-.1265-.4575-.1948-.79-.0083-.0376-.0191-.0741-.0275-.1116-.1776-.81-.2558-1.65-.4519-2.4536.1131.4631.2093.8664.2933,1.2259-.35-4.5346-.4037-9.0973-.5581-13.6413q-.5409-15.9194-1.0818-31.8387-1.0686-31.4308-2.1366-62.8613c-.3025-8.9038-6.2941-17.534-16.226-14.68a31.7966,31.7966,0,0,0-10.7622,5.9744,43.9062,43.9062,0,0,0-12.8767,18.7441q-6.111,19.6776-13.9538,38.7512-3.6449,8.8252-7.6629,17.49c-.5806,1.1848-1.1551,2.3724-1.7413,3.5544q-2.2887,4.6138-4.6825,9.1743-9.2331,17.5894-19.9991,34.3144c-1.4683,2.2815-2.97,4.54-4.4762,6.7954l-.0555.0748q-.6676.9042-1.3588,1.7906l-.0435.0109c-.5383-.05-1.0758-.1223-1.6086-.2157a27.3022,27.3022,0,0,1-5.26-3.2632,60.8351,60.8351,0,0,1-9.8539-14.58,349.0626,349.0626,0,0,1-16.9064-48.3344q-3.6927-13.2387-6.4667-26.71-1.3858-6.7308-2.538-13.5064-.5761-3.3874-1.094-6.7842c-.1417-.9306-.2768-1.8622-.4145-2.7936-.0195-.152-.0411-.3176-.0662-.5092-.676-5.1759-1.4366-10.78-6.5014-13.704-4.5379-2.62-10.8909-1.2654-15.1189,1.2216a40.6708,40.6708,0,0,0-14.88,15.4319c-3.2156,5.9319-6.8258,13.7016-5.9244,20.602,3.226,24.6968,8.0167,49.0211,15.4016,72.831q5.2023,16.7728,11.8713,33.0434c3.9774,9.6989,8.2208,19.813,15.3944,27.6443,8.6537,9.4466,18.6836,14.6363,31.6665,13.09,14.2667-1.7,26.72-13.1792,34.9957-24.1952a385.6814,385.6814,0,0,0,31.3608-49.9365q.357,10.5044.7139,21.0085c.5066,14.9042,1.1583,35.2974,16.243,43.5221,21.145,11.5291,44.0225-9.0823,50.3808-28.3968,1.9438-5.9049,3.6514-13.07,1.7659-19.2838C2600.2682,627.3262,2596.5257,622.7447,2591.35,622.5016Zm-113.3894,13.88c-.028.0349-.0563.0694-.0842.1042-.0589.0293-.1076.054-.1569.079C2477.8031,636.5021,2477.8725,636.447,2477.9607,636.3816Zm-.4494.3414c.0661-.0253.1525-.06.256-.1028-.0744.0912-.1472.1834-.222.274-.1579.1337-.3057.2787-.4661.41q-2.2782,1.7521.1512-.0215l-.0243.03C2475.3409,639.5146,2473.8131,639.5449,2477.5113,636.723Z" transform="translate(1785.0952 43.9434)"/><path class="cls-1" d="M2576.2877,623.3772c.06.2659.1285.5275.1948.79.1364.4374.1442.1167-.3809-2.13.0042.0535.006.1072.01.1606A10.0787,10.0787,0,0,0,2576.2877,623.3772Z" transform="translate(1785.0952 43.9434)"/><path class="cls-1" d="M2764.3727,573.824c-8.2766-8.2334-17.0786-12.5913-28.2775-15.7572-9.3305-2.6379-19.0178-3.528-28.6193-4.6153l-37.0364-4.193c-9.5766-1.0843-19.6751-1.4257-29.0932-3.8058a27.2239,27.2239,0,0,1-3.4579-1.6613q1.0515-1.2762,2.1374-2.5236c.496-.5677,1.0052-1.1238,1.5108-1.6829,2.9652-2.7982,5.97-5.5231,9.1835-8.0461.7021-.5513,1.4155-1.0867,2.1266-1.6254,1.5194-1.0044,3.0432-1.9993,4.6053-2.94a117.8513,117.8513,0,0,1,11.8733-6.2523c.3959-.18.8177-.3421,1.24-.5078a9.3,9.3,0,0,1,1.0415-.473c.0617-.0232.1243-.0437.1862-.0665.1548-.0778.3122-.1528.4577-.2408-.1173.071-.2113.1263-.32.1917q2.8365-1.0475,5.7233-1.95c.8252-.2567,1.6559-.4924,2.4863-.7288,1.8257,4.3958,4.7779,7.8163,9.918,8.4041,5.4854.6275,12.0317-2.9538,15.897-6.4344a45.89,45.89,0,0,0,12.8767-18.7441c1.9935-5.8489,3.9958-13.233,1.7658-19.2837q-1.9429-5.2732-3.8864-10.5463c-2.6888-7.296-7.7191-10.3317-15.4323-8.91-35.162,6.4819-68.4076,28.3472-89.2854,57.2626-14.3393,19.86-30.2626,54.1246-6.953,73.6487,6.1224,5.128,14.651,7.0341,22.4066,8.1315,9.1542,1.2954,18.3951,2.1228,27.5816,3.1629l32.2054,3.6462c9.3627,1.06,18.775,1.98,27.8849,4.4479a48.4324,48.4324,0,0,1,13.6365,7.4793,37.175,37.175,0,0,1,4.5784,5.9144q-2.2144,1.9544-4.5165,3.8062c-2.1292,1.7086-4.3421,3.2916-6.517,4.9379,6.8267-5.1671-.5844.285-2.5657,1.5189a150.1443,150.1443,0,0,1-13.7164,7.5718c-2.1479,1.0444-4.3289,2.0015-6.5092,2.9726-1.2706.4625-2.5308.9532-3.8058,1.4041a149.3608,149.3608,0,0,1-20.5322,5.6283c-1.8624-3.6733-4.6592-6.4174-9.235-6.9408-5.4854-.6273-12.0317,2.9542-15.897,6.4346a45.8918,45.8918,0,0,0-12.8767,18.744c-1.9857,5.8261-4.0263,13.2639-1.7659,19.2838q1.5606,4.1566,3.1213,8.313c2.8566,7.6088,7.5922,9.8908,15.4321,8.91a168.6,168.6,0,0,0,56.5374-18.0705c21.2472-11.051,40.8217-26.4173,54.2456-46.3721C2778.3467,623.0288,2783.1868,592.54,2764.3727,573.824ZM2635.2335,540.32q.0856.5322.1708,1.0645C2635.2373,540.8286,2635.138,540.3779,2635.2335,540.32Zm99.2818,88.31.0006.011c-.0636-.1991-.1213-.3863-.171-.5571C2734.4,628.2658,2734.4575,628.4478,2734.5153,628.63Zm.2179.6613,0-.004c.0409.1193.079.2386.1217.3577C2734.81,629.5184,2734.7743,629.41,2734.7332,629.2912Z" transform="translate(1785.0952 43.9434)"/><path class="cls-1" d="M2670.5648,520.2135c-1.461.7658-2.2543,1.5817,1.3649-.5886-.0455.0168-.0917.0322-.1372.0491C2671.3978,519.8722,2670.9846,520.0485,2670.5648,520.2135Z" transform="translate(1785.0952 43.9434)"/><path class="cls-1" d="M751.8825,117.3737c3.2009-9.7282,6.3475-19.4764,9.6208-29.18,1.63-4.8339,3.3264-9.6485,5.2291-14.3829.9494-2.3622,1.9306-4.72,3.0157-7.0235.4706-.999,1.1462-3.2955,2.2029-3.7942,3.148-1.4854,7.4488,5.1465,8.5325,7.21,1.8434,3.5107,2.7559,7.5157,3.6567,11.351,2.518,10.72,4.9495,21.4618,7.4235,32.1925.7779,3.3746,4.6234,2.3644,6.5485.7337,2.5846-2.1892,4.4474-6.0939,3.6607-9.5069-2.87-12.4465-5.1632-25.2118-8.7764-37.4651-2.42-8.2068-9.45-21.6806-20.1647-17.1383-5.28,2.2381-8.5285,7.4335-10.9209,12.3907a182.1982,182.1982,0,0,0-7.22,17.332q-1.5324,4.2426-2.9814,8.5169A439.3706,439.3706,0,0,1,763.4655-13.9771c.6575-2.7836-.7-5.8912-3.91-5.3042-3.4373.6285-5.6913,4.91-6.403,7.9236a451.5779,451.5779,0,0,0-11.2365,131.2408C742.3883,127.5863,750.572,121.3566,751.8825,117.3737Z" transform="translate(1785.0952 43.9434)"/><path class="cls-1" d="M819.36,78.84c.5359.382,1.08.7388,1.629,1.0814a40.3186,40.3186,0,0,0,13.28,22.3138c15.454,13.2833,38.0327,10.6259,53.5113-.9838,2.4979-1.8736,4.7105-6.3842,3.6606-9.5069-1.1352-3.3766-4.3542-2.38-6.5486-.7339A35.4458,35.4458,0,0,1,850.1088,94.93,34.6777,34.6777,0,0,1,837.15,84.6327a35.219,35.219,0,0,0,28.2742-14.3054c8.6643-11.6173,14.5805-36.6794-5.6357-39.6239-16.7817-2.4442-32.0075,12.8818-37.25,27.4425a40.4464,40.4464,0,0,0-2.2629,10.38C817.7617,71.7809,816.4777,76.7859,819.36,78.84ZM846.562,44.8642c4.35-1.3512,10.1819-1.528,13.882,1.6136,4.0054,3.4011,2.7251,10.0591.6787,14.2348-5.5911,11.4089-19.9749,12.6523-30.4379,7.7-.0053-.0759-.0186-.15-.0232-.2264A22.9519,22.9519,0,0,1,846.562,44.8642Z" transform="translate(1785.0952 43.9434)"/><path class="cls-1" d="M903.7858,73.0661c-1.19,14.5263,2.9709,30.2013,8.3971,42.7562,1.3166,3.0462,4.2642,2.6687,6.5486.7339,2.635-2.2319,4.3751-6.0555,3.6605-9.5069q-4.11-19.8523-7.846-39.7778a31.1582,31.1582,0,0,1,1.1676-5.8768c3.49-11.3451,16.8236-16.2255,27.6913-14.456,5.5875.91,11.6242-12.3895,5.0606-13.4582-14.6122-2.379-28.8056,5.2775-37.001,17.0864q-1.5888-8.8193-3.11-17.6509c-.5939-3.4566-4.735-2.27-6.5485-.7338a10.4687,10.4687,0,0,0-3.6607,9.507Q900.8446,57.4,903.7858,73.0661Z" transform="translate(1785.0952 43.9434)"/><path class="cls-1" d="M-1677.067,362.6607c54.7163.4206,100.1627,6.0232,144.6134,18.7953,15.5476,4.4673,22.4342,16.4655,19.2942,34.0546-3.4,19.048-13.0276,34.72-27.19,47.61-8.1141,7.3852-17.1086,9.6987-28.38,6.3852a456.6071,456.6071,0,0,0-135.4576-18.3833c-17.7925.2363-35.6011,2.1633-53.3223,4.0659-18.9128,2.0305-29.19-7.1926-27.382-26.1357,1.6865-17.6674,8.8112-33.0873,19.9516-46.9172,9.549-11.8544,22.5456-14.9728,36.6077-15.9692C-1708.4089,364.7549-1688.4795,363.4381-1677.067,362.6607Z" transform="translate(1785.0952 43.9434)"/><path class="cls-1" d="M-1656.74,209.1546a62.0967,62.0967,0,0,1,29.7-44.5224c7.23-4.4191,14.7917-4.3109,22.7019-.4826a465.4041,465.4041,0,0,1,108.762,73.1939c9.6776,8.6937,11.2826,19.495,8.2694,31.3589-4.3129,16.9811-14.4105,29.9106-29.0837,39.1855-8.041,5.0827-13.849,4.274-21.0223-2.1414a451.6584,451.6584,0,0,0-107.0484-71.5734C-1653.3337,229.9417-1657.24,223.3921-1656.74,209.1546Z" transform="translate(1785.0952 43.9434)"/><path class="cls-1" d="M-1366.7859,191.0262c-2.701,18.2806-9.957,32.1835-24.4784,41.4625-7.84,5.0094-14.3207,3.4321-19.6007-4.15a395.839,395.839,0,0,1-46.7637-89.4966,26.4565,26.4565,0,0,1-1.021-13.5575c2.8016-14.3937,10.8308-25.6777,23.23-33.4278,9.7639-6.1027,17.1726-3.6244,21.3009,7.0911a396.866,396.866,0,0,0,42.97,81.0546C-1368.75,183.52-1367.9065,188.0969-1366.7859,191.0262Z" transform="translate(1785.0952 43.9434)"/><path class="cls-1" d="M3130.9718,362.6607c-54.7164.4206-100.1627,6.0232-144.6134,18.7953-15.5477,4.4673-22.4342,16.4655-19.2942,34.0546,3.4,19.048,13.0276,34.72,27.19,47.61,8.1141,7.3852,17.1086,9.6987,28.38,6.3852a456.6071,456.6071,0,0,1,135.4576-18.3833c17.7924.2363,35.6011,2.1633,53.3223,4.0659,18.9128,2.0305,29.19-7.1926,27.382-26.1357-1.6866-17.6674-8.8113-33.0873-19.9517-46.9172-9.549-11.8544-22.5455-14.9728-36.6077-15.9692C3162.3136,364.7549,3142.3843,363.4381,3130.9718,362.6607Z" transform="translate(1785.0952 43.9434)"/><path class="cls-1" d="M3110.645,209.1546a62.097,62.097,0,0,0-29.7-44.5224c-7.23-4.4191-14.7917-4.3109-22.7019-.4826a465.402,465.402,0,0,0-108.762,73.1939c-9.6777,8.6937-11.2827,19.495-8.2695,31.3589,4.3129,16.9811,14.41,29.9106,29.0838,39.1855,8.041,5.0827,13.8489,4.274,21.0223-2.1414a451.6578,451.6578,0,0,1,107.0483-71.5734C3107.2385,229.9417,3111.1453,223.3921,3110.645,209.1546Z" transform="translate(1785.0952 43.9434)"/><path class="cls-1" d="M2820.6907,191.0262c2.701,18.2806,9.957,32.1835,24.4783,41.4625,7.84,5.0094,14.3207,3.4321,19.6008-4.15a395.8387,395.8387,0,0,0,46.7636-89.4966,26.4577,26.4577,0,0,0,1.0211-13.5575c-2.8016-14.3937-10.8309-25.6777-23.2305-33.4278-9.7639-6.1027-17.1726-3.6244-21.301,7.0911a396.8607,396.8607,0,0,1-42.97,81.0546C2822.6546,183.52,2821.8112,188.0969,2820.6907,191.0262Z" transform="translate(1785.0952 43.9434)"/></svg>