<svg id="Layer_1" data-name="Layer 1" xmlns="http://www.w3.org/2000/svg" width="722.6727" height="1162.7683" viewBox="0 0 722.6727 1162.7683"><defs><style>.cls-1{fill:#2e4ac0;}</style></defs><path id="arrow" class="cls-1" d="M529.9,1165.9157q65.1951,3.3488,130.39,6.6979l53.8328,2.7653c13.2849.6823,27.333,2.6261,40.4692-.3784,13.4669-3.08,22.1068-14.2636,26.4287-26.7457,4.64-13.4024,5.7614-27.7351,7.7265-41.7106q2.5-17.7834,5.001-35.5677,3.9358-27.9912,7.8719-55.9827,9.7826-69.5736,19.5651-139.1467c1.7665-12.5624-2.4173-27.3622-12.6116-35.5631-8.4376-6.7877-19.689-4.1591-21.3377,7.567q-17.0143,121.0026-34.0281,242.0046c-1.2858,9.1454-.994,21.9589-6.9322,29.6782-3.9013,5.0715-10.8229,6.1683-17.8621,6.0617a16.1692,16.1692,0,0,0,3.0847-6.6514c2.8084-13.09-3.566-26.5606-12.6116-35.5631-28.2708-28.1374-53.9072-62.5932-73.3551-97.1176q-7.99-14.1846-15.072-28.8546-1.9072-3.9489-3.75-7.928c-.4261-.9208-1.62-3.6189-1.8437-4.1092-1.95-4.5-3.87-9.0111-5.7083-13.5584a568.9636,568.9636,0,0,1-20.8652-61.934l-.0162-.06q-.3657-1.409-.7267-2.8191-.934-3.6692-1.82-7.35-2.07-8.5976-3.8781-17.255-3.3654-16.1087-5.8343-32.3862-2.31-15.2141-3.8334-30.5309c-.0719-.8954-.4536-5.0483-.5128-5.7879q-.3043-3.8022-.5611-7.6084-.557-8.2523-.8947-16.5173a584.2552,584.2552,0,0,1,8.5044-128.7628,594.1421,594.1421,0,0,1,104.26-245.5466c57.2272-78.96,131.6467-145.6634,214.9516-196.1638,85.1521-51.62,179.5056-88.0068,277.0167-107.9836q18.325-3.7543,36.7942-6.7254c4.5037-.732,7.2843-7.5789,8.0569-11.1487,1.3005-6.0074.2922-13.6926-1.8863-19.349-3.9476-10.2487-11.6809-21.7986-24.0061-19.7959C1102.2919,30.6,1003.4967,64.5238,913.7155,115.003c-89.3723,50.2492-170.229,116.2257-233.1428,197.4941C621.0645,389.3665,578.69,477.4681,558.6508,572.7447c-19.1434,91.0192-19.0084,186.9827,1.7933,277.7089,20.8914,91.1156,61.6852,178.3992,123.8175,248.7849,7.5768,8.5832,15.5052,16.8425,23.589,24.9479l-51.5288-2.6473q-20.2635-1.0406-40.5263-2.0817l-95.0715-4.8835C496.9588,1113.3532,509.163,1164.8507,529.9,1165.9157Z" transform="translate(-507.7037 -13.8604)"/></svg>